<svg width="15" height="15" viewBox="0 0 15 15" fill="none" xmlns="http://www.w3.org/2000/svg">
<path d="M3.266 0H11.734C12.179 0 12.55 9.49949e-08 12.854 0.0250001C13.17 0.0500001 13.468 0.106 13.749 0.25C14.18 0.47 14.53 0.82 14.75 1.251C14.894 1.533 14.95 1.83 14.975 2.146C15 2.45 15 2.821 15 3.266V11.734C15 12.179 15 12.55 14.975 12.854C14.95 13.17 14.894 13.468 14.75 13.749C14.531 14.18 14.181 14.53 13.75 14.75C13.469 14.894 13.171 14.95 12.855 14.975C12.551 15 12.18 15 11.735 15H3.266C2.821 15 2.45 15 2.146 14.975C1.836 14.96 1.531 14.884 1.25 14.75C0.82 14.53 0.47 14.18 0.25 13.75C0.116 13.47 0.0400001 13.165 0.0250001 12.855C9.49949e-08 12.55 0 12.179 0 11.734V3.266C0 2.821 9.49949e-08 2.45 0.0250001 2.146C0.0500001 1.83 0.106 1.533 0.25 1.251C0.47 0.82 0.82 0.47 1.251 0.25C1.533 0.106 1.83 0.0500001 2.146 0.0250001C2.45 9.49949e-08 2.821 0 3.266 0ZM10.856 6.204C11.019 6.047 11.084 5.814 11.027 5.596C10.969 5.377 10.799 5.207 10.58 5.15C10.362 5.092 10.129 5.158 9.973 5.32L6.663 8.628L5.438 7.403C5.193 7.158 4.797 7.159 4.553 7.403C4.309 7.648 4.309 8.043 4.554 8.288L6.221 9.954C6.465 10.198 6.861 10.198 7.105 9.954L10.855 6.204H10.856Z" fill="#58D293"/>
</svg>
