<svg width="17" height="16" viewBox="0 0 17 16" fill="none" xmlns="http://www.w3.org/2000/svg">
<path fill-rule="evenodd" clip-rule="evenodd" d="M5.45034 1.33203C4.43782 1.33203 3.617 2.15284 3.617 3.16536V12.832C3.617 13.8446 4.43782 14.6654 5.45034 14.6654H12.4503C13.4629 14.6654 14.2837 13.8446 14.2837 12.832V3.16536C14.2837 2.15284 13.4629 1.33203 12.4503 1.33203H5.45034ZM4.617 12.6654V12.832C4.617 13.2923 4.9901 13.6654 5.45034 13.6654H12.4503C12.9106 13.6654 13.2837 13.2923 13.2837 12.832V11.4654C13.0337 11.5933 12.7504 11.6654 12.4503 11.6654H5.617C5.06472 11.6654 4.617 12.1131 4.617 12.6654ZM6.78367 4.16536C6.50753 4.16536 6.28367 4.38922 6.28367 4.66536C6.28367 4.9415 6.50753 5.16536 6.78367 5.16536H11.117C11.3931 5.16536 11.617 4.9415 11.617 4.66536C11.617 4.38922 11.3931 4.16536 11.117 4.16536H6.78367ZM6.28367 7.33203C6.28367 7.0559 6.50753 6.83203 6.78367 6.83203H9.117C9.39314 6.83203 9.617 7.0559 9.617 7.33203C9.617 7.60816 9.39314 7.83203 9.117 7.83203H6.78367C6.50753 7.83203 6.28367 7.60816 6.28367 7.33203Z" fill="white"/>
</svg>
