<svg width="259" height="259" viewBox="0 0 259 259" fill="none" xmlns="http://www.w3.org/2000/svg">
<path d="M28.3616 144.905C29.7449 144.475 30.8722 144.646 31.9797 143.552C33.239 142.307 34.1524 139.729 31.3487 134.514C28.5846 129.371 24.49 125.044 19.5084 122C16.9515 120.44 14.9082 120.723 13.8403 123.522C11.8339 128.784 14.561 134.489 15.6738 139.044C16.017 140.447 16.2797 141.959 16.8855 143.366C17.8293 145.556 19.5902 147.215 21.9741 147.215C23.9409 147.215 25.4761 146.092 27.2963 145.305C31.9942 159.569 31.2418 171.397 31.6312 176.846C31.647 177.067 32.01 177.154 32.0457 176.903C32.9736 170.564 32.179 156.636 28.3602 144.905H28.3616ZM20.6383 145.631C18.3573 144.715 17.6907 141.934 17.1865 139.718C15.9087 134.085 13.2146 128.868 15.0745 123.994C15.8309 122.008 16.9489 121.986 18.8206 123.128C23.6043 126.049 27.5339 130.203 30.1871 135.14C31.5203 137.621 32.7532 140.932 31.0517 142.614C30.2637 143.392 29.2539 143.222 27.9326 143.626C25.1395 135.531 21.5425 129.51 19.1335 127.006C18.8338 126.696 18.356 127.09 18.55 127.456C19.7592 129.73 23.6597 134.885 26.8621 144.029C24.6999 144.982 22.8387 146.516 20.637 145.632L20.6383 145.631Z" fill="black"/>
<path d="M26.2126 165.092C26.3921 165.035 26.6086 164.957 26.8951 164.799C28.4408 163.945 28.9503 162.79 28.5464 161.051C27.7794 157.75 24.6286 155.473 21.9358 154.445C18.0656 152.964 15.7517 154.948 15.7609 157.844C15.7635 158.959 16.1186 160.02 16.4988 161.002C17.535 163.677 19.1414 167.835 22.0652 167.835C22.5443 167.835 23.0327 167.716 23.5225 167.477C24.4517 167.026 24.7487 166.227 25.2886 165.626C28.3088 171.207 28.4804 174.322 29.436 176.747C29.5707 177.088 30.1211 177.075 30.1145 176.656C30.067 173.724 27.7504 167.972 26.21 165.094L26.2126 165.092ZM22.9483 166.289C20.4152 167.517 18.748 163.146 17.729 160.522C17.395 159.66 17.0835 158.739 17.0809 157.838C17.073 155.761 18.587 154.574 21.4646 155.676C23.8406 156.584 26.6112 158.551 27.2607 161.348C27.5511 162.598 27.2792 163.336 25.5566 163.91C24.2392 161.611 22.5047 159.018 21.0435 157.809C20.7214 157.543 20.2 157.877 20.4363 158.278C21.2705 159.694 22.8836 161.497 24.6167 164.434C23.8511 165.08 23.603 165.969 22.9469 166.288L22.9483 166.289Z" fill="black"/>
<path d="M39.4693 180.678C38.3262 181.366 36.7844 181.556 35.5503 181.673C31.7711 182.035 25.839 181.701 23.8274 178.66C24.1389 177.752 25.3968 176.958 26.6984 176.213C27.8718 175.541 27.9246 175.545 28.7734 175.855C30.459 176.473 30.7534 175.957 32.0483 175.438C32.9961 175.059 34.1695 175.287 34.9061 175.992C35.3945 176.461 35.7958 177.191 36.5468 177.632C37.8444 178.392 38.6272 178.175 39.3967 179.484L39.2779 177.446C38.9228 177.218 38.5664 177.081 38.2166 176.948C36.4888 176.288 36.7976 175.975 35.8195 175.039C34.7041 173.97 32.9908 173.639 31.5573 174.214C30.9791 174.445 30.4603 174.815 30.0221 174.82C29.4954 174.813 28.7246 174.305 27.9378 174.334C27.2211 174.351 26.6588 174.714 26.041 175.068C25.1553 175.576 23.8181 176.341 23.042 177.378C22.642 177.176 22.0705 177.365 22.081 177.937C22.1497 181.622 22.0203 185.375 22.3714 189.046C23.0459 196.093 27.2409 199.293 34.6764 197.558C37.8101 196.827 39.4429 195.124 40.2587 192.016C39.9683 188.334 39.7043 184.55 39.468 180.68L39.4693 180.678Z" fill="black"/>
<path d="M38.6892 165.353L38.6338 163.971C38.4978 163.926 38.1929 163.884 38.1335 163.787C38.7064 162.37 38.6074 163.5 38.4793 159.806C37.9527 160.98 37.4695 162.141 37.0273 163.276C35.6466 162.956 34.6236 161.535 34.4098 160.176C33.9795 157.453 35.9383 154.064 38.2285 151.464L38.1823 149.572C35.2665 152.521 32.5446 156.815 33.1056 160.38C33.3894 162.183 34.7041 164.014 36.5548 164.524C34.3253 170.56 33.3168 175.661 33.4449 177.422C33.4594 177.631 33.7815 177.777 33.8871 177.542C34.6593 175.814 35.2097 171.495 37.6821 165.003C38.0055 165.164 38.3434 165.278 38.6919 165.351L38.6892 165.353Z" fill="black"/>
<path d="M130.921 129.927L127.323 129.532C126.671 152.422 128.023 182.139 129.051 200.148C95.1494 198.426 68.4195 194.826 47.3735 189.142C45.6482 170.84 44.3533 142.662 45.8898 119.115L41.9932 118.539C40.5121 143.413 41.9008 172.726 43.7144 191.71C43.7408 191.984 43.9336 192.212 44.1976 192.285C66.7972 198.442 95.5652 202.515 132.173 204.143C132.588 204.162 132.887 203.821 132.864 203.446C130.652 165.029 130.561 142.785 130.921 129.927Z" fill="black"/>
<path d="M254.342 38.7493C254.31 38.3374 253.983 38.1236 253.677 38.1223C107.027 37.7104 79.0983 37.6497 40.8355 49.7712C40.6507 49.8267 40.5056 49.9481 40.4132 50.1448C40.1056 50.9724 39.5301 56.8834 38.9506 66.349C28.0078 80.7027 16.2137 88.5962 4.32976 100.32C4.21492 100.433 4.14496 100.586 4.1344 100.745C3.85456 104.901 4.01032 108.577 4.61488 111.984C4.65316 112.203 4.80099 112.388 5.00427 112.476C7.76834 113.659 20.0997 115.878 37.2689 118.484C37.0749 144.045 37.7534 173.496 40.363 200.808C40.3894 201.081 40.5821 201.309 40.8461 201.382C81.8478 212.553 134.058 219.833 200.492 222.901C200.573 222.905 200.651 222.893 200.715 222.873C206.558 221.021 217.398 213.343 227.786 204.644C227.031 204.769 226.255 204.83 225.438 204.839C216.761 212.019 207.719 218.425 201.131 221.274C198.527 175.442 197.234 101.66 201.142 56.7052C216.023 52.5287 227.967 49.8359 253.068 39.7406C255.517 89.2087 255.248 126.694 252.089 177.616C249.976 181.585 243.211 188.927 234.921 196.559C235.256 196.928 235.524 197.326 235.683 197.752C244.086 190.107 251.116 182.628 253.326 178.355C253.368 178.273 253.533 177.786 253.54 177.695C256.73 126.328 258.128 88.6939 254.341 38.7479L254.342 38.7493ZM40.0831 67.0434C44.7031 67.0447 49.4314 67.0882 54.2876 67.174C46.9115 83.4522 29.5403 96.2324 20.7518 103.735C12.9902 102.483 7.71026 101.408 5.87283 100.658C17.4347 89.379 29.2658 81.265 40.0831 67.0434ZM167.555 117.932C161.528 117.719 155.2 117.417 148.68 117.041C160.597 106.206 174.007 92.0018 178.666 75.3395C184.976 75.952 191.465 76.6001 198.143 77.2852C189.421 94.5415 180.502 106.385 167.555 117.932ZM167.143 130.189C166.823 132.579 166.196 132.68 164.246 132.514C158.522 132.024 152.333 131.467 145.833 130.82L146.638 118.881L147.312 118.278C154.232 118.689 160.912 119.017 167.208 119.241C167.733 123.775 167.774 125.489 167.143 130.189ZM146.834 116.933C140.952 116.581 134.926 116.171 128.832 115.716C141.805 105.274 150.443 92.5153 157.531 73.3648C163.933 73.939 170.529 74.5541 177.332 75.2115C172.576 91.9055 158.794 106.164 146.834 116.933ZM145.473 118.168C145.3 118.394 145.415 117.396 144.52 130.69C138.835 130.118 132.922 129.491 126.882 128.822L126.325 119.755C126.238 118.332 126.296 117.805 127.332 116.915C133.487 117.384 139.563 117.806 145.473 118.168ZM126.894 115.569C119.518 115.005 112.059 114.376 104.655 113.7C104.938 113.342 105.253 113.027 105.591 112.765C117.95 103.218 128.998 87.0149 133.852 71.3597C141.025 71.9287 148.455 72.5557 156.169 73.2421C148.287 94.3989 138.972 106.065 126.894 115.569ZM125.549 128.674C118.272 127.863 110.822 126.995 103.368 126.091C103.213 116.987 103.061 116.642 103.88 114.945C111.139 115.609 118.435 116.229 125.636 116.786C124.664 118.106 124.928 118.577 125.549 128.674ZM104.783 111.721C104.156 112.206 103.599 112.834 103.141 113.563C96.6067 112.961 90.1229 112.324 83.7856 111.667C96.3519 101.549 110.851 86.4882 112.734 69.8074C119.103 70.2377 125.686 70.7195 132.504 71.2555C127.679 86.578 116.867 102.388 104.784 111.723L104.783 111.721ZM102.045 125.931C95.2867 125.109 88.5362 124.26 81.9191 123.402L82.4022 112.845C88.9824 113.53 95.7157 114.192 102.493 114.818C101.718 116.688 101.902 117.442 102.045 125.931ZM81.9138 111.472C75.1422 110.763 68.5515 110.033 62.2604 109.3C62.7079 108.89 63.2662 108.511 63.8074 108.131C76.3065 99.3582 87.0526 84.2086 91.9814 68.5495C98.2382 68.8821 104.709 69.2715 111.416 69.719C109.503 86.3958 94.4973 101.527 81.9138 111.472ZM81.0875 112.707L80.6057 123.232C74.0955 122.384 67.7252 121.53 61.6176 120.688C61.0315 112.483 60.8559 111.682 61.3496 110.521C67.6737 111.262 74.2935 111.996 81.0875 112.707ZM62.8465 107.192C62.0914 107.723 61.2532 108.309 60.6513 109.113C53.8797 108.317 47.4712 107.518 41.5813 106.742C41.8731 106.526 42.2083 106.328 42.5476 106.124C56.0907 98.0567 68.306 83.0219 73.78 67.7205C79.2237 67.9251 84.8297 68.1772 90.6192 68.4795C85.8764 83.2978 75.6649 98.19 62.8465 107.192ZM60.2817 120.502C53.4098 119.549 46.8877 118.612 40.891 117.715C40.7867 116.199 40.4065 109.032 40.6705 107.945C46.6409 108.741 53.1379 109.554 60.0006 110.364C59.5491 111.753 59.7088 112.497 60.2804 120.503L60.2817 120.502ZM41.8242 105.018C41.1576 105.416 40.4211 105.854 39.9155 106.52C33.3551 105.644 27.4772 104.799 22.5035 104.016C35.3562 93.6888 49.4498 81.5079 55.7211 67.2031C61.1146 67.306 66.6639 67.4605 72.394 67.669C66.9503 82.5625 55.0506 97.1406 41.8229 105.02L41.8242 105.018ZM19.5203 114.301C12.5586 113.082 7.73006 112.074 5.85303 111.394C5.36463 108.465 5.21415 105.319 5.39367 101.817C7.55319 102.626 12.5824 103.679 19.7156 104.865C18.9025 106.13 19.1229 106.803 19.5203 114.301ZM20.8548 114.532C20.439 106.703 20.1433 106.193 21.2085 105.109C26.3565 105.946 32.4905 106.844 39.3585 107.768C39.0839 109.127 39.4641 116.141 39.5552 117.515C32.4338 116.443 26.0965 115.434 20.8548 114.532ZM199.825 221.548C134.084 218.241 82.327 211.266 41.6341 200.231C39.3862 176.474 38.3672 147.423 38.5757 118.684C74.1601 124.047 129.465 130.954 164.138 133.833C165.092 133.912 166.085 134.028 166.956 133.466C167.999 132.792 168.298 131.523 168.453 130.368C169.114 125.444 169.06 123.704 168.494 118.869C181.064 107.646 189.871 96.1466 198.359 79.7708C196.439 122.568 197.456 179.944 199.826 221.55L199.825 221.548ZM198.537 76.0008C148.193 70.8832 91.13 65.7722 40.4594 65.726C40.7999 60.7021 41.1853 55.8194 41.6183 51.1229C82.9804 54.7687 134.743 56.6431 199.808 56.8517C199.3 62.7336 198.88 69.162 198.538 75.9995L198.537 76.0008ZM200.436 55.5343C136.54 55.3403 85.458 53.5424 44.4563 50.0445C91.5577 36.0868 140.434 40.6949 250.15 39.4871C226.179 48.9871 213.701 51.8014 200.436 55.5343Z" fill="black"/>
<path d="M102.56 63.7369V59.3438L105.487 59.4972V59.9683L103.162 59.8464V61.2478L105.164 61.3527V61.8268L103.162 61.7219V62.9703C103.162 63.2783 103.172 63.5449 103.192 63.77L102.56 63.7369Z" fill="black"/>
<path d="M105.925 65.1976C105.717 65.1867 105.525 65.1296 105.347 65.0263L105.458 64.5519C105.599 64.6754 105.751 64.7414 105.913 64.7499C106.053 64.7572 106.166 64.7211 106.252 64.6416C106.34 64.5642 106.415 64.444 106.476 64.2813L106.605 63.9549L105.341 60.5398L105.943 60.5713L106.668 62.5689C106.708 62.681 106.744 62.7959 106.776 62.9136C106.81 63.0314 106.834 63.1207 106.848 63.1814L106.869 63.2756C106.959 63.0662 107.051 62.841 107.145 62.5998L107.675 61.2503C107.747 61.064 107.804 60.8709 107.846 60.6711L108.391 60.6996L106.95 64.3901C106.838 64.6723 106.701 64.8802 106.539 65.0137C106.378 65.1493 106.173 65.2106 105.925 65.1976Z" fill="black"/>
<path d="M108.673 64.0573V60.7144L109.225 60.7433V61.6886C109.336 61.3923 109.511 61.1544 109.749 60.9748C109.989 60.7934 110.241 60.7096 110.507 60.7235C110.845 60.7412 111.1 60.8576 111.274 61.0728C111.45 61.2861 111.538 61.5607 111.538 61.8968V63.4092C111.538 63.6933 111.549 63.9599 111.571 64.2092L110.987 64.1785V61.9489C110.987 61.4568 110.776 61.1997 110.354 61.1776C110.224 61.1708 110.093 61.1999 109.959 61.2649C109.827 61.328 109.706 61.4177 109.596 61.534C109.486 61.6483 109.396 61.7936 109.326 61.97C109.258 62.1465 109.225 62.3357 109.225 62.5378V64.0862L108.673 64.0573Z" fill="black"/>
<path d="M113.387 64.3914C112.957 64.3688 112.609 64.1885 112.341 63.8504C112.075 63.5104 111.943 63.0793 111.943 62.5572C111.943 62.0391 112.077 61.624 112.347 61.3121C112.617 60.9981 112.965 60.8523 113.393 60.8748C113.629 60.8871 113.844 60.9674 114.037 61.1156C114.233 61.2639 114.386 61.4589 114.496 61.7007V59.9693L115.05 59.9983V63.5933C115.05 63.9014 115.06 64.168 115.08 64.3931L114.496 64.3624V63.6693C114.386 63.9036 114.233 64.0856 114.037 64.2154C113.844 64.3453 113.627 64.4039 113.387 64.3914ZM112.809 61.6663C112.625 61.8968 112.533 62.204 112.533 62.5881C112.533 62.9722 112.625 63.2891 112.809 63.5388C112.992 63.7885 113.23 63.921 113.522 63.9363C113.794 63.9505 114.023 63.8515 114.211 63.6393C114.401 63.4272 114.496 63.1641 114.496 62.85V62.52C114.496 62.2079 114.4 61.9378 114.208 61.7097C114.018 61.4797 113.79 61.3577 113.522 61.3436C113.23 61.3283 112.992 61.4359 112.809 61.6663Z" fill="black"/>
<path d="M117.049 64.5833C116.725 64.5663 116.443 64.4715 116.201 64.2988C115.961 64.1242 115.781 63.9017 115.662 63.6313C115.542 63.361 115.482 63.0628 115.482 62.7367C115.482 62.4126 115.542 62.1227 115.662 61.8669C115.781 61.6111 115.961 61.4095 116.201 61.262C116.443 61.1146 116.725 61.0494 117.049 61.0664C117.367 61.083 117.646 61.1787 117.888 61.3534C118.13 61.5281 118.312 61.7507 118.434 62.0211C118.557 62.2897 118.619 62.583 118.619 62.9011C118.619 63.1432 118.583 63.3693 118.511 63.5796C118.442 63.788 118.341 63.9698 118.209 64.1249C118.077 64.278 117.911 64.3964 117.711 64.4799C117.512 64.5615 117.291 64.5959 117.049 64.5833ZM116.066 62.7733C116.066 63.1614 116.153 63.484 116.327 63.7412C116.503 63.9985 116.743 64.1351 117.049 64.1512C117.351 64.167 117.588 64.0544 117.762 63.8134C117.936 63.5725 118.023 63.258 118.023 62.8699C118.023 62.4878 117.936 62.1681 117.762 61.9109C117.59 61.6519 117.353 61.5144 117.049 61.4985C116.745 61.4826 116.506 61.595 116.33 61.8359C116.154 62.0767 116.066 62.3892 116.066 62.7733Z" fill="black"/>
<path d="M98.1333 61.8505V63.5051M98.1244 59.25V60.9046M96 61.266L97.6523 61.3526M98.5965 61.4021L100.249 61.4887" stroke="black" stroke-width="0.8"/>
<path d="M188.917 128.871C188.934 128.494 188.634 128.181 188.261 128.179C181.012 128.138 174.308 127.972 168.106 127.678C168.03 128.451 167.927 129.301 167.797 130.278C167.665 131.267 167.434 132.369 166.595 132.909C165.902 133.356 165.011 133.24 164.19 133.173C156.486 132.534 147.941 131.718 138.927 130.781C137.936 155.71 137.979 194.715 139.083 217.792C139.099 218.118 139.351 218.384 139.675 218.418C154.83 219.953 171.122 221.594 188.15 222.235C188.584 222.251 188.859 221.912 188.848 221.557C188.027 193.474 187.787 152.619 188.917 128.874V128.871ZM147.407 210.91C146.933 203.511 147.042 196.423 147.379 192.278C157.568 193.848 168.685 194.971 180.45 195.618C180.267 202.124 180.251 207.18 180.647 214.187C167.426 212.981 157.146 212.388 147.407 210.91ZM147.415 184.175C146.557 167.238 146.554 153.121 147.405 135.789C156.186 137.178 167.08 137.901 180.652 137.999C179.732 154.43 180.053 167.646 180.668 187.452C167.692 186.27 157.154 185.653 147.415 184.175ZM184.768 191.11C184.77 191.474 184.475 191.773 184.11 191.774C183.749 191.774 183.45 191.482 183.448 191.119C183.417 186.868 183.456 182.558 183.561 178.309C183.584 177.391 184.902 177.501 184.881 178.342C184.774 182.576 184.736 186.874 184.768 191.11Z" fill="black"/>
<path d="M155.43 160.689C162.676 173.035 162.641 173.096 163.645 174.221C163.942 174.552 164.594 174.203 164.421 173.769C163.837 172.3 163.681 172.19 155.981 160.366C155.758 160.023 155.22 160.332 155.43 160.689Z" fill="black"/>
<path d="M162.008 146.056C163.454 149.274 167.892 158.766 168.597 160.322C169.349 161.984 170.173 163.556 171.069 165.144C171.34 165.624 172.157 165.304 171.973 164.763C171.421 163.125 170.835 161.563 170.083 160.007C168.059 155.821 164.989 149.995 162.346 145.858C162.208 145.641 161.907 145.829 162.008 146.056Z" fill="black"/>
<path d="M155.571 198.361C156.606 200.804 157.641 202.694 159.184 204.853C160.029 206.035 159.996 205.948 160.926 206.632C161.281 206.893 161.667 206.401 161.491 206.067C161.302 205.712 161.141 205.332 160.901 205.008C160.613 204.62 158.191 201.885 156.106 198.047C155.91 197.688 155.42 198.004 155.571 198.361Z" fill="black"/>
<path d="M165.27 198.23C166.283 199.867 168.502 203.142 170.915 207.463C171.194 207.965 171.51 208.292 171.939 208.67C172.31 208.997 172.81 208.674 172.732 208.208C172.55 207.123 172.415 206.993 171.428 205.384C169.951 202.979 167.72 199.774 165.918 197.73C165.608 197.377 165.026 197.834 165.27 198.23Z" fill="black"/>
<path d="M60.2368 154.914C67.576 170.459 78.1967 184.559 82.6464 188.731C83.0318 189.093 83.7248 188.619 83.408 188.144C79.3979 182.137 72.8375 176.037 60.5391 154.738C60.4242 154.54 60.1418 154.714 60.2368 154.914Z" fill="black"/>
<path d="M70.6477 130.821C73.0963 134.978 80.3813 146.997 83.5982 150.436C84.0258 150.894 84.7188 150.312 84.4403 149.786C83.0966 147.247 78.0819 140.594 71.2008 130.498C70.9711 130.162 70.4378 130.461 70.649 130.821H70.6477Z" fill="black"/>
<path d="M97.4159 130.45C100.883 137.125 105.427 144.099 109.792 149.794C111.352 151.83 112.923 153.997 114.944 155.602C115.419 155.98 116.184 155.513 115.835 154.915C113.591 151.064 108.298 146.678 97.9861 130.116C97.7604 129.754 97.2205 130.072 97.4159 130.449V130.45Z" fill="black"/>
<path d="M112.167 181.43C111.204 164.714 110.402 158.896 111.549 145.876C111.582 145.501 111.292 145.168 110.909 145.159C108.035 145.085 105.043 144.941 102.005 144.742C97.363 139.445 92.2665 134.515 86.8241 130.058C85.8434 129.256 85.1913 129.287 84.2977 129.903C79.316 133.317 74.4281 136.977 69.7342 140.803C65.8943 140.094 62.6445 139.37 60.2883 138.685C59.891 138.571 59.4857 138.843 59.4461 139.257C58.0971 153.739 58.8006 162.563 60.0626 175.762C60.089 176.035 60.2817 176.264 60.5457 176.336C74.0862 180.026 90.9016 181.103 111.475 182.127H111.508C111.887 182.127 112.189 181.81 112.167 181.43ZM85.4659 130.769C86.0255 130.798 93.997 137.766 100.126 144.61C90.0357 143.872 79.6117 142.543 71.4475 141.111C76.3011 137.198 85.0223 130.784 85.4659 130.769ZM74.5878 158.964C74.5508 160.707 74.366 162.621 73.2915 164.067C72.452 165.198 71.1122 166.049 69.6655 166.028C65.6712 165.968 64.3895 159.564 65.4033 155.701C66.5754 151.235 70.7598 149.679 73.4869 153.622C74.4822 155.06 74.6221 157.398 74.5878 158.964ZM77.8785 161.408C77.9181 162.375 77.9907 163.338 78.1016 164.299C78.1835 165.007 78.5874 166.894 77.3241 166.837C76.1652 166.785 76.2021 164.851 76.1229 164.048C75.8114 160.891 75.7586 156.064 76.8423 153.07C77.0654 152.455 77.9353 152.465 78.1056 153.042C79.5444 152.534 82.2081 153.4 83.6469 155.132C86.0612 158.036 83.0094 162.642 77.8785 161.408ZM92.6229 169.458C91.5339 169.686 90.206 169.347 89.1209 169.15C88.1243 168.969 86.7779 168.865 86.1905 167.912C85.6757 167.076 85.6599 165.837 85.5741 164.886C85.2019 160.776 86.1443 156.615 86.8202 155.467C87.3667 154.539 88.6457 154.521 89.5974 154.456C90.6402 154.386 91.9576 154.349 92.8314 155.002C93.1944 155.273 93.1548 155.796 92.7074 155.955C91.6421 156.333 90.5756 156.007 88.8543 156.34C88.3751 156.432 88.4332 156.353 88.2986 156.835C87.9527 158.073 87.7059 159.345 87.5726 160.626C88.0372 160.553 88.5217 160.549 88.981 160.545C90.1175 160.534 91.3095 160.53 91.7979 160.971C92.1371 161.276 92.083 161.973 91.6434 162.171C91.291 162.33 91.023 162.298 90.6548 162.244C89.1949 162.033 88.4332 162.001 87.4789 161.886C87.4181 163.211 87.4828 164.502 87.6227 165.59C87.661 165.886 87.6491 166.552 87.8353 166.797C87.9646 166.964 88.4306 166.997 88.6603 167.047C90.9742 167.55 91.6646 167.33 92.6229 167.682C93.403 167.97 93.5865 169.256 92.6229 169.458ZM102.807 169.373C102.793 170.243 101.475 170.723 101.063 169.844C99.4195 166.338 97.8817 162.782 96.4311 159.193C95.6549 164.489 96.1116 167.669 95.713 169.645C95.6074 170.166 94.9131 170.062 94.7586 169.645C93.5535 166.387 94.5501 159.105 95.2457 155.726C95.4424 154.773 96.6766 154.988 96.9683 155.726C98.2368 158.931 99.5859 162.101 101 165.243L101.154 155.253C101.172 154.048 103.044 154.048 103.026 155.253L102.807 169.373Z" fill="black"/>
<path d="M69.6747 153.344C66.6189 154.035 66.4988 160.008 68.034 162.814C69.247 165.032 71.5055 163.935 72.1919 161.934C72.5972 160.752 72.6236 159.48 72.6143 158.243C72.5972 155.908 71.8197 153.236 69.6747 153.344Z" fill="black"/>
<path d="M78.1121 154.193C78.0382 155.664 77.8481 156.676 77.8442 159.405C78.2666 159.388 80.8696 160.301 82.2252 158.596C82.7612 157.922 82.7928 157.322 82.6239 156.691C82.1381 155.67 80.3192 154.271 78.1121 154.193Z" fill="black"/>
<path d="M235.848 196.651C234.918 195.33 233.205 194.349 231.989 193.654C231.234 193.221 230.535 192.763 229.656 192.741C228.613 192.714 227.773 193.354 227.002 193.36C226.387 193.354 225.721 192.871 224.98 192.575C223.218 191.869 221.111 192.277 219.741 193.591C218.508 194.77 218.881 195.199 216.625 196.064C215.796 196.381 214.939 196.708 214.134 197.804C213.648 198.466 213.343 199.108 213.222 199.727C212.892 199.718 212.568 199.955 212.541 200.338C212.248 204.289 212.897 208.218 213.524 212.017C214.572 218.366 216.303 221.614 223.515 222.383C226.282 222.675 229.249 222.548 231.615 221.083C233.654 219.82 235.206 217.567 235.984 214.736C236.798 211.773 236.715 209.746 236.945 197.166C236.957 196.542 236.233 196.315 235.848 196.654V196.651ZM215.198 198.582C216.491 196.821 217.906 197.821 220.022 195.255C220.224 195.008 220.426 194.761 220.655 194.543C221.324 193.903 222.261 193.555 223.192 193.555C225.433 193.555 225.605 195.401 228.535 194.328C229.529 193.962 229.814 193.919 230.886 194.539C232.432 195.434 234.67 196.625 235.102 198.114C231.992 202.966 219.492 203.357 214.49 200.494C214.436 199.93 214.67 199.299 215.196 198.581L215.198 198.582Z" fill="black"/>
<path d="M222.422 174.75C223.289 169.236 217.868 162.298 213.471 158.861C208.447 154.936 204.533 157.077 204.054 161.212C203.843 163.039 204.317 164.869 205.253 169.654C205.795 172.424 206.47 175.87 208.611 178.369C210.615 180.705 214.213 181.866 216.856 180.419C217.7 182.654 218.543 185.143 219.342 187.91C220.64 192.394 220.929 194.695 221.637 196.561C221.728 196.803 222.099 196.78 222.103 196.498C222.145 193.8 220.767 187.361 217.98 179.921C220.338 179.348 222.068 176.987 222.421 174.748L222.422 174.75ZM217.502 178.67C216.02 174.872 214.181 170.858 211.987 166.981C211.277 165.726 210.582 164.163 209.511 163.176C209.155 162.847 208.512 163.165 208.666 163.668C209.215 165.455 212.712 169.969 216.295 178.974C216.218 179.066 216.167 179.179 216.148 179.302C214.074 180.369 211.172 179.33 209.613 177.512C207.697 175.28 207.086 172.158 206.548 169.404C205.522 164.162 205.185 162.915 205.365 161.366C205.754 158.017 208.677 156.791 212.657 159.904C216.7 163.064 221.895 169.61 221.117 174.546C220.827 176.386 219.407 178.303 217.502 178.67Z" fill="black"/>
<path d="M247.462 127.861C246.141 124.4 243.663 124.082 240.502 126.012C234.179 129.874 228.982 135.365 225.475 141.893C222.69 147.075 222.401 150.985 224.64 153.197C226.059 154.601 227.658 154.363 229.314 154.879C224.754 168.815 223.322 186.384 224.473 195.762C224.506 196.026 224.882 196.04 224.896 195.762C225.223 188.92 224.414 173.454 230.396 155.292C232.577 156.249 234.705 157.821 237.243 157.821C240.213 157.821 242.407 155.746 243.582 153.017C244.176 151.641 244.508 150.18 244.83 148.766C246.453 141.633 250.042 134.626 247.461 127.86L247.462 127.861ZM243.836 147.223C243.085 150.305 242.432 154.78 239.034 156.145C236.125 157.313 233.915 155.349 230.812 154.068C234.658 142.934 239.31 136.66 241.541 132.757C241.745 132.399 241.248 131.987 240.957 132.307C236.365 137.372 232.128 146.726 229.726 153.666C227.665 152.996 226.621 153.299 225.569 152.26C223.321 150.036 224.909 145.735 226.639 142.518C230.037 136.197 235.069 130.879 241.192 127.139C243.654 125.634 245.214 125.67 246.231 128.332C248.572 134.473 245.267 141.379 243.839 147.224L243.836 147.223Z" fill="black"/>
<path d="M237.858 167.377C234.468 168.672 230.504 171.53 229.542 175.67C229.043 177.821 229.646 179.19 231.559 180.247C231.995 180.489 232.305 180.579 232.569 180.659C230.614 184.289 227.627 191.603 227.459 195.517C227.442 195.928 228.011 195.957 228.138 195.608C229.467 191.943 229.352 188.941 233.513 181.193C234.322 181.991 234.621 183.06 235.848 183.654C236.447 183.946 237.042 184.091 237.627 184.091C241.223 184.091 243.256 178.839 244.553 175.498C245.032 174.265 245.477 172.933 245.482 171.539C245.494 167.971 242.672 165.537 237.858 167.377ZM243.324 175.022C241.967 178.514 239.805 184.108 236.425 182.469C235.516 182.029 235.255 180.907 234.169 180.012C236.359 176.188 238.072 174.443 239.612 172.045C239.859 171.66 239.321 171.295 239.005 171.576C236.955 173.403 234.55 177.172 233.224 179.487C232.89 179.371 232.566 179.297 232.199 179.094C230.812 178.327 230.466 177.539 230.829 175.971C232.586 168.408 247.862 163.344 243.324 175.023V175.022Z" fill="black"/>
</svg>
