<svg width="49" height="16" viewBox="0 0 49 16" fill="none" xmlns="http://www.w3.org/2000/svg">
<path d="M13.895 13V3.70703H20.0967V4.70361H15.1709V7.66797H19.4111V8.6709H15.1709V11.3115C15.1709 11.9632 15.1921 12.526 15.2344 13H13.895ZM21.0237 15.7168C20.5836 15.7168 20.1752 15.6174 19.7986 15.4185L20.0335 14.4028C20.3339 14.6483 20.6555 14.771 20.9983 14.771C21.2945 14.771 21.5336 14.6821 21.7156 14.5044C21.9018 14.3309 22.0605 14.0685 22.1917 13.7173L22.4646 13.0127L19.7859 5.92871H21.0618L22.5979 10.0737C22.6825 10.3065 22.7587 10.5456 22.8264 10.791C22.8984 11.0365 22.9491 11.2227 22.9788 11.3496L23.0232 11.5464C23.2136 11.0936 23.4083 10.6069 23.6072 10.0864L24.7307 7.17285C24.8831 6.77083 25.0037 6.35612 25.0925 5.92871H26.2478L23.1946 13.895C22.9576 14.5044 22.6677 14.9593 22.325 15.2598C21.9822 15.5645 21.5484 15.7168 21.0237 15.7168ZM26.8447 13V5.92871H28.0127V7.92822C28.2497 7.28923 28.62 6.7666 29.1236 6.36035C29.6314 5.94987 30.1667 5.74463 30.7295 5.74463C31.4447 5.74463 31.9863 5.96257 32.3545 6.39844C32.7269 6.83008 32.9131 7.40137 32.9131 8.1123V11.3115C32.9131 11.9124 32.9364 12.4753 32.9829 13H31.7451V8.28369C31.7451 7.24268 31.2987 6.72217 30.4058 6.72217C30.1307 6.72217 29.8514 6.79834 29.5679 6.95068C29.2886 7.0988 29.0326 7.30192 28.7998 7.56006C28.5671 7.81396 28.3766 8.13135 28.2285 8.51221C28.0847 8.89307 28.0127 9.2972 28.0127 9.72461V13H26.8447ZM36.8299 13.1841C35.92 13.1841 35.1816 12.8413 34.6145 12.1558C34.0517 11.466 33.7703 10.5688 33.7703 9.46436C33.7703 8.36833 34.0559 7.47542 34.6272 6.78564C35.1985 6.09163 35.937 5.74463 36.8426 5.74463C37.3419 5.74463 37.7968 5.89062 38.2073 6.18262C38.622 6.47461 38.9457 6.87028 39.1785 7.36963V3.70703H40.3528V11.3115C40.3528 11.9632 40.374 12.526 40.4163 13H39.1785V11.5337C38.9457 12.0415 38.622 12.4435 38.2073 12.7397C37.7968 13.036 37.3377 13.1841 36.8299 13.1841ZM35.6048 7.48389C35.2154 7.9917 35.0208 8.65186 35.0208 9.46436C35.0208 10.2769 35.2154 10.937 35.6048 11.4448C35.9941 11.9526 36.4977 12.2065 37.1155 12.2065C37.691 12.2065 38.1777 11.9717 38.5755 11.502C38.9775 11.0322 39.1785 10.4652 39.1785 9.80078V9.10254C39.1785 8.44238 38.9754 7.88167 38.5691 7.42041C38.1671 6.95492 37.6826 6.72217 37.1155 6.72217C36.4977 6.72217 35.9941 6.97607 35.6048 7.48389ZM44.587 13.1841C43.9014 13.1841 43.3026 13.0148 42.7906 12.6763C42.2828 12.3335 41.9019 11.8828 41.648 11.3242C41.3941 10.7656 41.2671 10.1414 41.2671 9.45166C41.2671 8.76611 41.3941 8.14616 41.648 7.5918C41.9019 7.03743 42.2828 6.59098 42.7906 6.25244C43.3026 5.9139 43.9014 5.74463 44.587 5.74463C45.2598 5.74463 45.8523 5.91602 46.3643 6.25879C46.8763 6.60156 47.2614 7.05225 47.5196 7.61084C47.7819 8.1652 47.9131 8.77881 47.9131 9.45166C47.9131 9.9637 47.837 10.4461 47.6846 10.8989C47.5365 11.3475 47.3228 11.7432 47.0435 12.0859C46.7642 12.4245 46.413 12.6932 45.9898 12.8921C45.5666 13.0868 45.099 13.1841 44.587 13.1841ZM42.5049 9.46436C42.5049 10.2853 42.689 10.9582 43.0572 11.4829C43.4296 12.0076 43.9395 12.27 44.587 12.27C45.2259 12.27 45.7295 12.0055 46.0977 11.4766C46.4659 10.9476 46.6499 10.2726 46.6499 9.45166C46.6499 8.64339 46.4659 7.97689 46.0977 7.45215C45.7338 6.92318 45.2302 6.65869 44.587 6.65869C43.9437 6.65869 43.4359 6.92318 43.0635 7.45215C42.6911 7.98112 42.5049 8.65186 42.5049 9.46436Z" fill="black"/>
<path d="M4.51875 9.5V13M4.5 4V7.5M0 8.5H3.5M5.5 8.5H9" stroke="black" stroke-width="0.8"/>
</svg>
