<svg width="853" height="213" viewBox="0 0 853 213" fill="none" xmlns="http://www.w3.org/2000/svg">
<path d="M249 164.816V0H359.112V17.6749H271.654V70.2495H346.94V88.037H271.654V134.87C271.654 146.428 272.029 156.41 272.781 164.816H249Z" fill="#4E00D5"/>
<path d="M375.571 213C367.757 213 360.507 211.236 353.819 207.709L357.989 189.696C363.324 194.049 369.035 196.226 375.121 196.226C380.38 196.226 384.625 194.65 387.856 191.497C391.162 188.42 393.98 183.767 396.309 177.538L401.155 165.041L353.594 39.4027H376.248L403.522 112.917C405.025 117.045 406.377 121.285 407.579 125.638C408.857 129.992 409.758 133.294 410.284 135.545L411.073 139.035C414.454 131.005 417.911 122.374 421.442 113.142L441.391 61.4683C444.096 54.3383 446.237 46.9831 447.815 39.4027H468.327L414.116 180.69C409.909 191.497 404.762 199.566 398.676 204.894C392.59 210.298 384.888 213 375.571 213Z" fill="#4E00D5"/>
<path d="M478.926 164.816V39.4027H499.663V74.8652C503.871 63.5322 510.445 54.2632 519.386 47.0581C528.403 39.778 537.908 36.138 547.901 36.138C560.599 36.138 570.216 40.0032 576.753 47.7336C583.365 55.389 586.671 65.5211 586.671 78.13V134.87C586.671 145.527 587.084 155.51 587.911 164.816H565.933V81.1697C565.933 62.7067 558.006 53.4752 542.153 53.4752C537.269 53.4752 532.31 54.8261 527.276 57.528C522.317 60.1549 517.771 63.7574 513.639 68.3356C509.506 72.8388 506.125 78.4678 503.495 85.2225C500.941 91.9773 499.663 99.1448 499.663 106.725V164.816H478.926Z" fill="#4E00D5"/>
<path d="M656.214 168.081C640.06 168.081 626.948 162.002 616.88 149.843C606.887 137.609 601.89 121.698 601.89 102.109C601.89 82.6707 606.962 66.8346 617.106 54.601C627.249 42.2923 640.36 36.138 656.439 36.138C665.305 36.138 673.383 38.7273 680.671 43.9059C688.034 49.0846 693.782 56.102 697.914 64.9582V0H718.765V134.87C718.765 146.428 719.14 156.41 719.892 164.816H697.914V138.81C693.782 147.817 688.034 154.947 680.671 160.2C673.383 165.454 665.23 168.081 656.214 168.081ZM634.462 66.9847C627.549 75.991 624.093 87.6993 624.093 102.109C624.093 116.52 627.549 128.228 634.462 137.234C641.375 146.24 650.316 150.744 661.286 150.744C671.504 150.744 680.145 146.578 687.208 138.247C694.345 129.916 697.914 119.859 697.914 108.076V95.6924C697.914 83.9841 694.308 74.0396 687.095 65.8589C679.957 57.6031 671.354 53.4752 661.286 53.4752C650.316 53.4752 641.375 57.9783 634.462 66.9847Z" fill="#4E00D5"/>
<path d="M793.943 168.081C781.771 168.081 771.139 165.079 762.048 159.075C753.031 152.995 746.269 145.002 741.761 135.095C737.253 125.188 734.999 114.118 734.999 101.884C734.999 89.7257 737.253 78.7304 741.761 68.8985C746.269 59.0666 753.031 51.1485 762.048 45.1443C771.139 39.1401 781.771 36.138 793.943 36.138C805.89 36.138 816.409 39.1776 825.5 45.2569C834.592 51.3362 841.429 59.3293 846.012 69.2363C850.671 79.0682 853 89.9508 853 101.884C853 110.966 851.648 119.522 848.943 127.552C846.313 135.508 842.518 142.525 837.56 148.605C832.601 154.609 826.364 159.375 818.851 162.902C811.337 166.355 803.034 168.081 793.943 168.081ZM756.976 102.109C756.976 116.67 760.244 128.603 766.781 137.91C773.393 147.216 782.447 151.869 793.943 151.869C805.289 151.869 814.23 147.179 820.767 137.797C827.303 128.415 830.572 116.445 830.572 101.884C830.572 87.5492 827.303 75.7283 820.767 66.4218C814.305 57.0402 805.364 52.3494 793.943 52.3494C782.522 52.3494 773.506 57.0402 766.894 66.4218C760.282 75.8034 756.976 87.6993 756.976 102.109Z" fill="#4E00D5"/>
<path d="M81.3375 102V165M81 3V66M0 84H63M99 84H162" stroke="#4E00D5" stroke-width="10"/>
</svg>
