<svg width="14" height="15" viewBox="0 0 14 15" fill="none" xmlns="http://www.w3.org/2000/svg">
<path fill-rule="evenodd" clip-rule="evenodd" d="M5.89246 0.753951C6.60319 0.0663912 7.73113 0.0663912 8.44186 0.753951L8.77686 1.07802C8.96159 1.25674 9.2185 1.3402 9.473 1.3042L9.9345 1.23893C10.9136 1.10044 11.8261 1.76343 11.997 2.73744L12.0775 3.19652C12.1219 3.44969 12.2807 3.66821 12.5078 3.78868L12.9195 4.00712C13.7931 4.4706 14.1416 5.54335 13.7073 6.43174L13.5026 6.85047C13.3897 7.08141 13.3897 7.35154 13.5026 7.58247L13.7073 8.0012C14.1416 8.88961 13.7931 9.9623 12.9195 10.4258L12.5078 10.6443C12.2807 10.7647 12.1219 10.9833 12.0775 11.2364L11.997 11.6955C11.8261 12.6695 10.9136 13.3325 9.9345 13.194L9.473 13.1287C9.2185 13.0927 8.96159 13.1762 8.77686 13.3549L8.44186 13.679C7.73113 14.3665 6.60319 14.3665 5.89246 13.679L5.55747 13.3549C5.37273 13.1762 5.11585 13.0927 4.86135 13.1287L4.39985 13.194C3.42072 13.3325 2.50819 12.6695 2.33733 11.6955L2.25681 11.2364C2.21239 10.9833 2.05364 10.7647 1.82658 10.6443L1.41485 10.4258C0.541312 9.9623 0.192752 8.88961 0.627042 8.0012L0.831732 7.58247C0.944612 7.35154 0.944612 7.08141 0.831732 6.85047L0.627042 6.43174C0.192752 5.54335 0.541312 4.4706 1.41485 4.00712L1.82658 3.78868C2.05364 3.66821 2.21239 3.44969 2.25681 3.19652L2.33733 2.73744C2.50819 1.76343 3.42072 1.10044 4.39985 1.23893L4.86135 1.3042C5.11585 1.3402 5.37273 1.25674 5.55747 1.07802L5.89246 0.753951ZM7.30466 4.58374C7.23846 4.48714 7.09586 4.48714 7.02966 4.58374L6.20139 5.79227C6.17973 5.82387 6.14786 5.84707 6.11106 5.85794L4.70576 6.27214C4.59343 6.30527 4.54938 6.44087 4.62079 6.53367L5.51422 7.6948C5.53759 7.7252 5.54979 7.76274 5.54873 7.80107L5.50845 9.2656C5.50523 9.3827 5.62056 9.4665 5.73093 9.4272L7.11133 8.93634C7.14746 8.92347 7.18686 8.92347 7.22299 8.93634L8.60339 9.4272C8.71373 9.4665 8.82906 9.3827 8.82586 9.2656L8.78559 7.80107C8.78453 7.76274 8.79673 7.7252 8.82013 7.6948L9.7135 6.53367C9.7849 6.44087 9.7409 6.30527 9.6285 6.27214L8.22326 5.85794C8.18646 5.84707 8.15453 5.82387 8.13286 5.79227L7.30466 4.58374Z" fill="#823AFF"/>
</svg>
