<svg width="14" height="14" viewBox="0 0 14 14" fill="none" xmlns="http://www.w3.org/2000/svg">
<path fill-rule="evenodd" clip-rule="evenodd" d="M8.00041 0.56509C8.4538 -0.188365 9.5462 -0.188363 9.99959 0.56509L10.8737 2.01754C10.897 2.05621 10.9349 2.08379 10.9789 2.09398L12.6304 2.47646C13.4871 2.67488 13.8247 3.71376 13.2482 4.37783L12.1369 5.65798C12.1073 5.69206 12.0929 5.73668 12.0967 5.78165L12.2433 7.4705C12.3193 8.34656 11.4356 8.98863 10.6259 8.64563L9.06499 7.9843C9.02349 7.9667 8.97649 7.9667 8.93499 7.9843L7.37407 8.64563C6.56441 8.98863 5.68067 8.34656 5.75667 7.4705L5.90326 5.78165C5.90714 5.73668 5.89267 5.69206 5.86307 5.65798L4.75182 4.37783C4.17536 3.71376 4.51293 2.67487 5.36961 2.47646L7.02106 2.09398C7.06506 2.08379 7.103 2.05621 7.12626 2.01754L8.00041 0.56509ZM3.85356 6.1869C4.04882 6.38216 4.04882 6.6987 3.85356 6.89396L0.853555 9.894C0.658295 10.0892 0.341705 10.0892 0.146445 9.894C-0.048815 9.6987 -0.048815 9.3822 0.146445 9.1869L3.14645 6.1869C3.34171 5.99161 3.6583 5.99161 3.85356 6.1869ZM5.18688 9.5202C5.38213 9.7155 5.38213 10.032 5.18688 10.2273L2.18689 13.2273C1.99163 13.4226 1.67505 13.4226 1.47978 13.2273C1.28452 13.032 1.28452 12.7155 1.47978 12.5202L4.47978 9.5202C4.67505 9.32496 4.99162 9.32496 5.18688 9.5202ZM9.85349 9.5202C10.0488 9.7155 10.0488 10.032 9.85349 10.2273L6.85353 13.2273C6.65826 13.4226 6.34173 13.4226 6.14646 13.2273C5.9512 13.032 5.9512 12.7155 6.14646 12.5202L9.14649 9.5202C9.34169 9.32496 9.65829 9.32496 9.85349 9.5202Z" fill="#937DF2"/>
</svg>
