<svg width="352" height="319" viewBox="0 0 352 319" fill="none" xmlns="http://www.w3.org/2000/svg">
<rect width="352" height="319" rx="16" fill="#F7F6F3"/>
<path d="M226.432 102.37C228.267 103.526 229.721 105.196 230.613 107.172C231.81 109.976 232.653 112.918 233.122 115.93C232.429 115.948 231.74 116.035 231.065 116.19C230.986 116.19 230.534 116.427 230.455 116.676C230.093 117.929 229.817 119.205 229.63 120.495L207.03 120.631C206.77 120.631 206.804 120.936 207.03 120.947C207.03 120.947 227.664 121.264 229.63 121.275C229.133 125.388 229.551 129.908 232.466 132.823C235.212 135.535 244.546 135.92 248.015 133.332C250.896 131.174 251.608 124.936 251.405 121.275C252.083 121.275 267.361 121.004 268.875 120.947C268.917 120.947 268.957 120.93 268.987 120.901C269.016 120.871 269.033 120.831 269.033 120.789C269.033 120.747 269.016 120.707 268.987 120.677C268.957 120.647 268.917 120.631 268.875 120.631C266.298 120.631 251.371 120.518 251.371 120.518C251.066 117.128 250.241 116.789 250.241 116.631C250.232 116.526 250.19 116.427 250.121 116.348C250.052 116.269 249.959 116.213 249.857 116.19C248.874 115.998 247.875 115.896 246.874 115.885C248.456 113.342 249.812 106.427 252.298 101.794C255.981 94.8894 269.847 101.466 269.621 95.364C269.349 88.584 261.824 84.7759 253.744 88.3693C246.071 91.7593 244.071 107.579 243.936 115.84C241.619 115.84 242.738 115.907 239.416 115.84C242.32 111.975 246.015 99.093 245.371 90.0869C244.633 84.11 242.117 78.4924 238.15 73.9618C234.67 70.0633 230.59 68.4135 227.517 71.5436C222.997 76.0636 227.155 81.1147 231.02 86.2336C235.269 91.8836 236.862 94.6973 237.438 102.743C237.708 107.108 237.625 111.488 237.189 115.84H235.935C236.907 112.664 235.653 105.67 234.737 102.381C233.427 97.7369 231.189 93.0588 227.641 89.8383C223.449 86.2189 218.352 83.8088 212.895 82.8662C209.561 82.3012 206.713 82.5159 205.165 83.4425C204.596 83.7386 204.156 84.2348 203.931 84.8356C203.706 85.4365 203.711 86.0994 203.945 86.6969C205.821 92.8328 219.087 97.85 226.432 102.37ZM253.97 89.0925C261.53 85.7025 268.49 89.262 268.728 95.4092C268.909 100.121 255.315 94.2792 251.608 101.5C249.032 106.494 247.891 113.478 246.331 115.896H245.529C246.659 110.913 249.427 99.8275 252.682 95.9064C256.84 90.8327 264.083 93.7933 264.4 93.7142C264.524 93.7142 264.648 93.5108 264.276 93.3752C259.756 91.7367 255.157 91.7706 252.083 95.4092C248.388 99.771 246.06 110.28 245.088 115.93H244.116C244.422 108.02 246.636 92.313 253.97 89.0925ZM238.014 102.732C237.562 94.7538 236.093 91.8271 231.63 85.7816C227.969 80.8661 224.048 76.1766 228.093 72.0747C230.85 69.2723 234.444 70.9447 237.562 74.4703C241.381 78.891 243.79 84.3535 244.478 90.1547C245.213 99.3077 241.484 112.45 238.828 115.851H238.229C239.438 110.677 240.22 105.412 240.568 100.11C240.828 95.59 240.749 92.4486 239.438 88.5162C238.361 85.5221 236.866 82.6954 234.997 80.1203C234.105 78.8501 233.123 77.6454 232.059 76.5156C232.032 76.4826 231.993 76.4617 231.951 76.4574C231.909 76.4532 231.866 76.466 231.833 76.493C231.8 76.5199 231.779 76.5589 231.775 76.6013C231.771 76.6437 231.784 76.686 231.811 76.719C232.094 77.0147 232.358 77.328 232.602 77.6569C236.127 82.1769 239.608 88.7761 239.879 94.6069C240.15 100.438 238.986 110.167 237.913 115.93H237.596C238.095 111.549 238.235 107.135 238.014 102.732ZM249.529 117.15C251.394 118.857 250.806 130.191 247.427 132.722C244.049 135.253 235.246 134.654 232.85 132.338C229.076 128.71 229.46 121.919 230.749 116.879C230.829 116.985 230.939 117.064 231.065 117.105C231.934 117.306 232.819 117.427 233.709 117.467C232.603 121.568 232.796 125.911 234.263 129.897C234.317 130.011 234.414 130.098 234.532 130.141C234.651 130.183 234.782 130.177 234.896 130.123C235.009 130.069 235.097 129.972 235.14 129.853C235.182 129.734 235.176 129.604 235.122 129.49C233.698 126.642 233.314 120.314 234.139 117.546C237.664 117.704 247.1 117.772 249.529 117.15ZM227.155 90.4146C234.817 97.1945 236.783 112.212 235.596 115.873H234.896C234.735 112.733 234.189 109.625 233.268 106.619C230.828 98.7087 226.737 93.8498 220.466 90.1886C217.189 88.3146 213.683 86.875 210.036 85.9059C209.994 85.8954 209.949 85.902 209.912 85.9242C209.875 85.9465 209.848 85.9825 209.838 86.0245C209.827 86.0665 209.834 86.1109 209.856 86.1479C209.878 86.185 209.915 86.2118 209.957 86.2223C214.215 87.5724 218.256 89.5285 221.957 92.0305C226.061 94.7623 229.265 98.6466 231.167 103.195C232.971 107.215 234.116 111.5 234.557 115.885H233.494C233.076 112.783 232.272 109.746 231.099 106.845C230.182 104.758 228.679 102.984 226.771 101.737C219.302 97.1381 206.431 92.0983 204.713 86.4483C203.12 81.2616 218.477 82.6402 227.155 90.4146ZM129.444 148.598C114.392 143.366 100.9 141.027 92.5043 138.914C92.4003 138.885 92.2915 138.877 92.1844 138.891C92.0773 138.905 91.9741 138.94 91.881 138.995C91.7878 139.049 91.7067 139.122 91.6424 139.209C91.5782 139.296 91.5321 139.395 91.507 139.5C91.4819 139.605 91.4782 139.714 91.4963 139.821C91.5143 139.927 91.5536 140.029 91.612 140.12C91.6703 140.211 91.7463 140.289 91.8356 140.35C91.9249 140.41 92.0255 140.453 92.1314 140.474C97.5328 141.773 105.691 143.265 114.517 145.31C129.094 148.7 129.41 149.706 129.647 149.005C129.673 148.924 129.666 148.836 129.628 148.761C129.59 148.685 129.524 148.627 129.444 148.598ZM248.716 157.74C248.716 157.713 248.71 157.687 248.7 157.662C248.69 157.637 248.675 157.615 248.656 157.596C248.637 157.577 248.615 157.562 248.59 157.552C248.565 157.542 248.539 157.537 248.512 157.537C238.602 157.537 228.963 159.797 223.505 160.305C223.439 160.311 223.374 160.33 223.315 160.361C223.256 160.392 223.204 160.434 223.162 160.486C223.12 160.538 223.088 160.597 223.07 160.661C223.051 160.725 223.045 160.793 223.053 160.859C223.059 160.926 223.078 160.991 223.109 161.05C223.14 161.11 223.182 161.163 223.234 161.206C223.285 161.249 223.345 161.281 223.409 161.301C223.473 161.321 223.54 161.328 223.607 161.322C227.607 160.927 234.534 159.412 241.02 158.576C248.218 157.74 248.727 158.248 248.716 157.74ZM214.578 181.255C214.588 181.237 214.594 181.216 214.596 181.196C214.598 181.175 214.595 181.154 214.589 181.134C214.583 181.114 214.573 181.095 214.559 181.079C214.546 181.063 214.529 181.05 214.51 181.041L214.228 180.894L214.16 181.233C214.352 181.323 214.499 181.47 214.578 181.255Z" fill="black"/>
<path d="M283.214 184.08C280.31 183.481 273.135 183.719 270.174 183.978C272.615 175.639 275.135 164.768 276.152 158.779C276.52 157.122 276.68 155.425 276.626 153.728C276.589 153.576 276.521 153.433 276.426 153.308C276.33 153.184 276.21 153.081 276.073 153.005C271.553 150.169 224.194 156.395 220.895 158.034C219.912 158.52 219.03 160.972 218.635 162.079C215.708 157.265 216.013 156.124 212.748 148.519C210.713 143.566 208.132 138.855 205.052 134.473C205.131 133.874 208.262 110.495 204.905 104.246C202.645 100.065 190.408 98.5956 185.695 98.2001C185.695 97.9515 185.108 93.6801 184.859 91.7478C188.837 88.4256 190.509 82.3123 186.193 81.284C183.13 80.5608 171.039 78.2556 162.033 80.5834C156.383 82.0524 151.863 85.352 151.479 91.8834C151.327 94.3636 151.479 96.8529 151.931 99.2962C146.089 99.9403 136.032 100.901 130.902 102.833C124.303 105.319 127.082 134.191 127.783 136.53C127.399 137.479 127.037 138.439 126.709 139.332C110.268 135.14 73.4638 127.32 71.8253 127.467C71.3985 127.462 70.9771 127.562 70.5986 127.76C70.22 127.957 69.8961 128.244 69.6557 128.597C69.215 128.699 69.0568 129.32 68.9777 129.727C67.8477 135.739 69.893 171.639 70.2546 177.73C70.8535 179.922 88.2668 184.679 90.5268 185.301C90.6398 188.272 91.2387 203.03 91.363 206.059C90.3799 205.88 89.4068 205.649 88.4476 205.369C86.4362 204.544 78.7296 212.048 79.4076 211.426C76.4583 214.048 108.55 222.67 111.115 221.946C113.681 221.223 118.754 216.376 117.895 213.675C117.658 213.194 117.257 212.814 116.765 212.601C114.336 211.324 107.906 209.754 105.228 209.11C105.488 203.64 105.488 194.668 105.477 189.222C108.652 190.013 126.676 194.374 129.93 194.318C130.163 194.321 130.393 194.263 130.597 194.148C131.636 194.002 132.857 193.742 132.958 192.679C132.958 192.363 133.218 189.606 133.546 185.515C141.512 188.555 151.174 188.329 152.892 187.628C153.355 187.405 153.746 187.057 154.022 186.623C154.101 186.724 154.135 186.702 154.733 186.792C156.993 187.154 160.609 187.493 162.643 186.431C165.525 186.894 173.876 187.561 174.497 184.769C174.576 184.397 174.689 183.639 174.802 182.724C183.164 183.176 212.861 182.973 212.974 182.973L212.284 186.08C212.267 186.055 212.243 186.034 212.216 186.02C212.188 186.006 212.157 186 212.126 186.001C212.126 185.911 212.126 185.933 212.126 186.001C207.499 185.637 202.856 185.516 198.216 185.64C196.566 185.719 192.215 185.922 192.136 187.527C191.559 188.89 191.475 190.413 191.899 191.832C192.148 192.725 194.249 194.171 195.029 194.702C190.611 194.261 188.035 194.431 186.701 194.906C186.384 194.961 186.088 195.103 185.847 195.316C185.606 195.53 185.429 195.805 185.335 196.113C185.241 196.421 185.235 196.749 185.317 197.061C185.398 197.372 185.564 197.655 185.797 197.877C187.311 199.957 190.464 200.657 190.803 203.381C191.447 208.545 178.316 214.387 173.525 216.432C175.932 213.268 182.384 203.313 179.254 200.906C175.774 198.228 145.931 197.053 143.185 197.753C141.253 198.25 127.048 208.748 127.308 212.443C127.489 214.85 141.467 217.212 144.066 217.664C146.993 218.161 167.875 221.415 170.373 219.822C170.902 219.608 171.383 219.29 171.787 218.886C172.191 218.482 172.509 218.001 172.723 217.472C177.05 215.984 181.215 214.061 185.153 211.731C191.368 207.878 194.848 203.109 188.701 199.098C187.967 198.623 185.955 197.177 186.249 196.363C186.882 194.567 195.617 195.233 195.741 195.233C199.798 197.877 207.561 201.957 212.137 203.143C216.974 204.42 239.574 201.945 245.032 201.256C245.653 203.516 246.252 205.618 246.648 206.906C245.8 206.974 243.382 207.189 242.704 207.72C242.331 208.014 242.342 208.511 242.941 208.85C242.941 212.635 242.478 223.958 243.608 229.065C244.037 230.975 244.534 231.766 246.512 232.455C250.252 233.665 257.439 233.235 261.202 232.229C263.541 231.597 263.846 231.099 264.219 229.856C265.507 225.63 265.439 213.155 265.349 208.725C265.421 208.673 265.48 208.604 265.521 208.525C265.562 208.445 265.583 208.357 265.583 208.268C265.583 208.178 265.562 208.09 265.521 208.011C265.48 207.931 265.421 207.863 265.349 207.81C264.513 207.423 263.613 207.193 262.694 207.132C262.852 205.867 263.699 198.793 263.824 197.55C264.414 197.195 264.941 196.745 265.383 196.216C266.074 195.377 266.523 194.365 266.682 193.29C267.812 191.809 269.44 186.284 269.971 184.476C275.011 184.69 282.401 184.397 283.09 184.476C283.143 184.492 283.199 184.487 283.248 184.462C283.297 184.436 283.333 184.392 283.35 184.34C283.366 184.288 283.361 184.231 283.336 184.182C283.311 184.133 283.267 184.097 283.214 184.08ZM130.472 208.466C131.229 207.629 132.122 206.759 133.071 205.878C137.105 202.149 142.236 198.397 143.354 198.115C146.066 197.414 175.853 199.245 178.882 201.505C179.39 201.889 179.492 202.635 179.39 203.527C178.983 207.076 175.277 212.929 173.118 215.788C170.678 213.686 133.704 208.906 130.472 208.466ZM185.842 99.0137C190.159 99.4205 202.261 100.81 204.34 104.585C207.278 109.896 205.47 128.01 204.747 133.965C204.114 133.117 203.459 132.315 202.792 131.58C198.962 127.377 192.385 125.264 186.814 124.19C183.235 123.567 179.625 123.141 176 122.913C175.887 122.913 176.068 123.083 175.175 121.252C173.842 118.506 173.763 118.551 173.898 118.472C175.38 118.393 176.847 118.143 178.271 117.727C182.091 116.597 184.362 114.337 185.436 108.845C186.018 105.59 186.14 102.269 185.797 98.9798L185.842 99.0137ZM176.113 123.264C176.825 123.365 177.017 123.354 177.074 123.388C177.074 123.67 179.548 136.948 171.073 137.558C164.067 138.134 159.457 128.303 156.971 121.738C157.875 121.591 158.598 121.489 159.084 121.422C159.321 126.574 166.734 135.92 170.847 135.264C175.469 134.507 177.74 127.478 176.113 123.264ZM159.242 102.472C159.343 101.967 159.569 101.497 159.899 101.102C160.228 100.707 160.651 100.401 161.129 100.212C163.389 99.6578 163.389 102.472 165.186 102.313C167.446 102.166 164.926 96.9232 166.87 93.7253C168.983 90.1997 177.548 97.33 184.475 92.0416C185.311 97.9967 186.227 102.63 184.95 108.709C183.82 114.043 181.718 116.009 178.09 117.071C176.6 117.414 175.091 117.671 173.571 117.84C173.449 117.908 173.347 118.006 173.274 118.125C173.201 118.243 173.159 118.378 173.152 118.518C173.152 118.913 174.282 120.936 175.333 123.297C176.904 127.004 174.859 133.739 170.723 134.383C167.785 134.846 162.033 128.258 160.395 123.603C159.672 121.546 159.886 121.467 161.163 113.433C162.96 113.557 163.333 110.043 163.423 108.223C163.442 107.838 163.308 107.46 163.05 107.172C162.237 106.28 161.57 107.319 159.988 105.342C159.643 104.958 159.395 104.497 159.265 103.998C159.135 103.498 159.127 102.975 159.242 102.472ZM152.089 100.11C153.603 107.025 157.581 111.828 160.316 113.161C159.818 116.337 159.253 119.874 159.107 120.947C152.586 121.274 146.156 122.608 140.043 124.902C137.329 125.941 134.8 127.41 132.552 129.253C131.309 122.812 134.506 110.223 134.111 106.653C133.93 105.138 133.501 103.534 132.02 103.206C137.083 101.613 146.462 100.709 152.089 100.11ZM131.342 103.5C131.612 103.509 131.878 103.573 132.123 103.687C132.367 103.802 132.586 103.965 132.766 104.167C133.276 104.935 133.532 105.844 133.501 106.766C133.749 110.156 130.235 122.653 132.213 129.58C130.308 131.366 128.865 133.588 128.009 136.055C127.105 130.552 125.602 105.5 131.342 103.5ZM90.7415 154.983C90.8319 154.452 91.8037 154.214 92.3348 154.124C96.2559 153.48 104.403 155.717 104.222 158.44C103.951 162.475 105.194 211.358 104.132 213.155C102.866 215.313 95.9508 214.116 93.1936 212.195C91.9393 211.324 91.9619 210.579 91.9958 210.726C91.0353 172.249 90.5833 155.864 90.7415 154.983ZM116.935 214.048C117.511 215.969 112.98 220.387 110.878 220.975C108.776 221.562 77.7917 213.539 79.8144 211.709C78.8765 212.556 84.8542 207.053 87.4871 206.172C87.697 206.067 87.9368 206.039 88.1651 206.093C88.4702 206.228 89.668 206.533 91.3969 206.94C91.4986 209.324 91.5664 210.737 91.5664 210.737C92.2331 214.059 102.866 216.568 104.72 213.505C105.003 212.42 105.155 211.305 105.172 210.183C106.901 210.613 115.771 212.771 116.935 214.048ZM129.93 193.357C126.958 193.47 108.46 189.131 105.477 188.431C105.42 175.187 105.149 160.339 105.285 158.508C105.556 154.35 94.979 152.09 91.25 153.31C90.8805 153.391 90.5409 153.574 90.2694 153.837C89.9979 154.101 89.8053 154.435 89.7132 154.802C89.4646 156.305 90.4364 183.052 90.4929 184.656C88.651 184.159 71.3959 179.56 70.684 177.718C70.4919 173.56 68.65 133.354 69.9608 129.546C76.108 131.083 128.608 141.671 132.303 144.236C133.23 146.779 131.116 189.764 129.93 193.357ZM132.585 192.691C132.585 193.448 131.58 193.708 130.834 193.821C132.054 190.894 134.484 146.361 133.241 143.739C131.998 141.118 75.3057 130.1 70.006 128.62C70.2417 128.365 70.5287 128.162 70.848 128.026C71.1674 127.89 71.512 127.823 71.8592 127.829C73.4299 127.716 131.399 140.666 134.766 142.519C135.331 144.146 134.766 155.48 134.687 157.344C134.484 161.842 132.631 192.081 132.585 192.691ZM163.095 185.041C161.773 186.803 157.084 186.589 154.88 186.385H154.338C155.343 184.364 155.913 182.154 156.01 179.899C157.14 179.583 161.276 178.622 161.909 179.639C162.101 179.933 161.491 180.283 161.174 180.453C160.339 180.841 159.464 181.136 158.564 181.334C158.431 181.36 158.313 181.437 158.237 181.549C158.16 181.662 158.132 181.8 158.157 181.933C158.183 182.067 158.26 182.184 158.373 182.261C158.485 182.337 158.623 182.365 158.756 182.34C159.886 182.182 162.971 181.752 164.067 182.125C163.616 182.752 162.967 183.209 162.225 183.425C161.169 183.418 160.114 183.505 159.073 183.685C158.923 183.713 158.788 183.796 158.695 183.917C158.602 184.038 158.557 184.189 158.568 184.341C158.579 184.493 158.646 184.636 158.756 184.742C158.866 184.848 159.01 184.91 159.163 184.916C160.311 184.95 161.456 184.793 162.553 184.453C162.839 184.465 163.119 184.534 163.378 184.656C163.305 184.808 163.197 184.94 163.062 185.041H163.095ZM173.785 184.645C173.737 184.821 173.648 184.983 173.524 185.117C173.4 185.251 173.245 185.352 173.073 185.414C170.983 186.544 165.706 186.34 163.355 186.103C164.225 185.436 164.734 184.351 163.853 183.752C165.593 182.622 165.412 181.413 164.271 181.063C163.531 180.884 162.767 180.83 162.011 180.905C162.723 180.374 162.982 179.775 162.553 179.131C161.932 178.249 160.293 178.362 159.276 178.532C158.792 174.058 158.543 169.562 158.53 165.062C161.547 167.254 171.548 167.322 175.04 165.243C175.209 169.04 174.068 182.995 173.74 184.645H173.785ZM164.09 182.08C164.09 182.08 164.056 182.103 164.056 182.08H164.09ZM188.34 182.329C190.43 176.215 190.724 163.266 190.6 156.791C192.351 159.604 201.9 173.097 201.967 173.21C202.199 173.564 202.472 173.891 202.781 174.181C205.058 176.262 207.614 178.015 210.375 179.391C213.324 180.95 213.561 180.871 213.539 180.995L213.143 182.69C212.951 182.679 190.069 182.329 188.306 182.329H188.34ZM193.21 187.402C195.639 185.707 212.16 186.476 212.341 186.363V186.487C210.759 194.058 210.149 196.793 209.956 197.787C210.058 197.346 210.68 194.397 211.392 191.131C211.889 188.736 212.522 185.888 213.166 182.871C213.46 181.492 213.652 180.611 213.663 180.543C210.567 178.905 205.843 176.08 203.369 173.582C202.747 172.95 190.735 156.305 190.622 156.113C190.509 155.921 190.509 150.96 190.385 150.734C190.361 150.708 190.33 150.69 190.296 150.683C190.262 150.676 190.226 150.679 190.194 150.693C190.162 150.706 190.135 150.729 190.117 150.759C190.098 150.789 190.089 150.823 190.091 150.858C189.978 150.858 190.091 175.018 188.001 182.295L174.983 182.419C175.062 181.786 175.141 181.052 175.232 180.261C180.475 180.927 182.859 175.176 181.469 170.486C180.644 167.91 178.52 167.514 176.09 168.757C176.203 167.253 176.203 165.742 176.09 164.237C176.195 163.978 176.213 163.691 176.142 163.42C176.071 163.149 175.914 162.909 175.695 162.734C174.011 161.152 169.299 160.983 167.005 160.983C164.711 160.983 159.988 161.164 158.316 162.734C158.169 162.848 158.053 162.995 157.977 163.164C157.118 164.712 158.768 178.283 158.971 178.577C157.987 178.773 157.017 179.033 156.067 179.357V177.549C155.999 173.605 143.388 171.413 142.959 169.164C142.812 168.396 142.575 166.678 142.303 164.644C140.778 153.48 141.004 153.909 140.755 153.909C140.713 153.909 140.673 153.926 140.643 153.955C140.614 153.985 140.597 154.025 140.597 154.067C140.597 154.372 141.818 166.667 142.258 169.277C142.699 171.887 155.219 174.419 155.276 177.549C155.276 179.99 154.733 186.046 152.62 186.916C151.343 187.459 141.467 187.956 133.591 185.188C133.761 182.995 136.902 143.75 135.388 142.01C134.812 141.344 128.043 139.649 127.184 139.434C130.574 131.75 133.083 125.422 156.654 121.727C157.309 123.921 158.109 126.069 159.05 128.156C161.446 133.275 165.502 138.801 171.118 138.326C177.571 137.773 178.61 130.778 177.582 124.394C177.514 123.942 177.446 123.648 177.39 123.388C180.49 123.698 183.572 124.173 186.622 124.812C191.944 125.942 198.487 128.089 202.137 132.134C206.081 136.473 209.527 143.174 211.945 148.53C215.426 156.237 215.403 158.226 218.398 162.667C216.292 169.311 214.527 176.058 213.109 182.882C212.657 184.995 211.979 188.216 211.335 191.143C210.397 195.663 209.832 198.522 209.889 197.923C209.787 198.533 209.889 198.51 209.889 198.657C206.205 197.014 202.65 195.095 199.255 192.917C198.069 192.126 192.012 188.25 193.21 187.38V187.402ZM176 171.063C176 170.475 176.068 169.933 176.09 169.368C178.136 168.543 179.955 168.667 180.509 170.803C181.639 174.679 179.853 179.843 175.299 179.843C175.299 179.3 175.492 177.752 175.514 177.583C180.712 178.283 180.678 168.769 176 171.063ZM175.559 177.097C175.718 175.311 175.853 173.424 175.966 171.65C176.507 171.483 177.086 171.483 177.627 171.65C178.972 172.136 178.757 176.803 175.503 177.097H175.559ZM212.522 202.171C208.173 200.749 203.967 198.926 199.956 196.725C198.826 196.126 192.973 192.939 192.577 191.708C192.235 190.608 192.2 189.436 192.475 188.318C193.99 191.267 203.595 196.228 206.68 197.685C208.092 198.352 209.549 198.918 211.041 199.38C216.262 201.245 238.658 198.25 244.162 197.572C244.229 197.81 244.704 199.629 244.885 200.284C240.094 200.838 217.019 203.358 212.465 202.171H212.522ZM263.01 230.591C261.36 231.992 251.461 233.167 246.794 231.721C245.099 231.19 244.76 230.647 244.354 228.93C243.983 227.066 243.749 225.178 243.653 223.28C245.97 224.704 250.218 225.065 252.942 225.144C257.044 225.235 261.078 225.144 264.377 223.28C264.309 224.478 263.925 229.811 263.01 230.591ZM264.411 222.839C262.182 223.793 259.784 224.289 257.36 224.297C254.128 224.455 246.557 224.432 243.63 222.873C243.506 220.749 243.427 218.477 243.393 216.364C244.523 217.72 250.546 218.33 252.953 218.41C257.247 218.5 261.236 218.41 264.671 216.376C264.671 216.263 264.637 218.941 264.422 222.839H264.411ZM264.671 215.98C259.021 218.828 244.998 217.539 243.382 215.98V209.031C246.975 210.307 261.179 210.217 264.739 209.031C264.716 210.33 264.728 212.974 264.682 215.98H264.671ZM262.411 208.375C262.452 208.386 262.495 208.382 262.532 208.363C262.57 208.345 262.599 208.313 262.614 208.273C262.614 208.273 262.614 208.07 262.682 207.708C263.411 207.809 264.129 207.971 264.829 208.194C262.355 209.324 247.461 209.426 243.743 208.33C243.718 208.322 243.696 208.306 243.68 208.285C243.665 208.264 243.656 208.238 243.656 208.211C243.656 208.185 243.665 208.159 243.68 208.138C243.696 208.116 243.718 208.101 243.743 208.093C244.779 207.811 245.838 207.622 246.907 207.528C246.982 207.842 247.096 208.146 247.246 208.432C247.337 208.522 247.484 208.533 247.472 208.307C247.461 208.081 243.755 193.448 243.19 190.227C243.768 190.42 244.384 190.468 244.985 190.368C245.586 190.267 246.153 190.021 246.636 189.651C247.879 193.131 251.846 208.793 252.083 208.793C252.126 208.79 252.166 208.771 252.195 208.74C252.225 208.708 252.241 208.667 252.241 208.624L251.913 207.098H253.473C253.473 207.313 253.597 208.409 253.608 208.488C253.62 208.567 253.947 208.759 253.925 208.341C253.925 207.324 252.976 190.476 252.953 190.171C253.115 190.092 253.286 190.032 253.461 189.99C253.586 190.6 257.563 206.714 257.868 207.968C257.868 208.081 257.868 208.273 258.083 208.228C258.298 208.183 258.207 207.98 258.083 207.245L259.812 207.369V207.562C259.812 207.742 260.095 207.697 260.128 207.562C260.128 207.686 262.23 186.001 262.388 184.272C262.686 184.498 263.029 184.658 263.393 184.742C263.757 184.826 264.135 184.831 264.502 184.758C264.479 184.928 262.162 208.296 262.4 208.375H262.411ZM252.241 185.911C252.107 184.824 251.632 183.807 250.885 183.007C252.433 183.47 252.761 183.809 253.145 184.871C253.451 185.717 253.532 186.628 253.382 187.515C253.23 188.074 253.23 188.663 253.382 189.222C253.198 189.264 253.016 189.321 252.84 189.391C252.139 187.391 250.58 187.414 250.58 185.402C250.578 184.675 250.471 183.952 250.264 183.255C250.811 184.247 251.411 185.209 252.06 186.137C252.173 186.284 252.388 186.069 252.252 185.911H252.241ZM252.806 200.171C252.863 200.725 253.303 205.528 253.416 206.748H251.8C251.461 205.222 250.953 202.962 250.377 200.544L252.806 200.171ZM252.738 199.301L250.162 199.64C249.936 198.702 249.699 197.753 249.461 196.815C250.501 196.668 251.518 196.51 252.501 196.352C252.546 196.838 252.704 198.804 252.75 199.301H252.738ZM256.253 198.781C256.072 197.923 255.631 195.979 255.597 195.866C256.58 195.697 259.925 195.12 260.614 194.985C260.614 195.471 260.422 197.527 260.377 198.047C259.281 198.284 257.88 198.533 256.23 198.781H256.253ZM260.332 198.781C260.128 201.708 259.812 206.601 259.801 206.872C259.213 206.872 258.592 206.85 257.936 206.804C257.665 205.437 256.501 199.957 256.422 199.584C257.948 199.279 259.258 199.007 260.343 198.748L260.332 198.781ZM262.49 183.334C262.628 181.902 262.851 180.48 263.157 179.074C263.458 178.984 263.776 178.962 264.087 179.011C264.398 179.06 264.694 179.178 264.954 179.357C264.886 180.777 264.735 182.192 264.502 183.594C264.4 183.99 264.377 184.091 264.117 184.125C263.609 184.159 262.581 183.73 262.501 183.3L262.49 183.334ZM263.97 196.804C264.072 195.968 264.174 195.12 264.264 194.273C264.934 194.132 265.591 193.94 266.23 193.696C265.874 194.958 265.076 196.049 263.982 196.77L263.97 196.804ZM265.858 192.759C265.381 192.948 264.89 193.099 264.389 193.211C264.592 191.312 265.79 180.261 265.79 179.481C265.79 178.351 263.778 177.933 262.739 178.351C262.388 178.509 262.287 179.176 262.185 179.764C261.62 182.916 260.953 190.781 260.693 193.979L255.394 194.951C254.072 189.188 254.185 189.504 254.038 189.357C253.937 189.261 253.804 189.205 253.665 189.199C253.56 188.696 253.588 188.174 253.744 187.685C253.978 186.707 253.946 185.686 253.654 184.724C253.503 184.025 253.101 183.406 252.524 182.984C251.604 182.497 250.612 182.161 249.586 181.99C249.532 181.975 249.475 181.974 249.421 181.985C249.366 181.997 249.315 182.022 249.272 182.057C249.229 182.092 249.195 182.138 249.173 182.189C249.151 182.24 249.141 182.296 249.145 182.351C249.169 182.447 249.199 182.542 249.235 182.634C250.117 184.736 249.506 185.696 250.117 186.95C250.727 188.205 251.755 188.397 252.128 189.843C252.128 189.956 252.444 195.177 252.456 195.493L249.258 196.002C249.032 195.143 247.484 189.03 246.874 188.431C245.744 187.301 242.512 188.566 242.354 189.561C242.252 190.126 243.8 196.182 243.947 196.759C238.127 197.606 231.958 198.375 226.5 198.883C224.115 199.098 209.55 200.431 210.363 198.047C211.493 192.826 213.753 183.244 214.205 181.233V181.074C214.205 180.905 214.284 180.735 214.205 181.233C214.205 181.063 214.273 180.961 214.296 180.905L217.121 169.978C217.494 168.633 220.059 159.491 221.358 158.847C224.24 157.423 271.598 151.299 275.598 153.977C276.276 156.881 267.948 191.38 265.869 192.77L265.858 192.759Z" fill="black"/>
<path d="M161.499 151.417L161.12 146H164.744L164.785 146.581H161.906L162.027 148.309H164.505L164.546 148.894H162.068L162.176 150.433C162.202 150.813 162.238 151.141 162.282 151.417H161.499Z" fill="black"/>
<path d="M165.776 153.001C165.518 153.001 165.276 152.943 165.048 152.827L165.143 152.235C165.329 152.378 165.522 152.45 165.722 152.45C165.895 152.45 166.031 152.398 166.131 152.295C166.232 152.193 166.314 152.04 166.377 151.836L166.507 151.425L164.653 147.295H165.399L166.466 149.712C166.524 149.847 166.579 149.987 166.628 150.13C166.68 150.273 166.718 150.381 166.74 150.455L166.774 150.57C166.867 150.306 166.961 150.022 167.056 149.719L167.594 148.02C167.666 147.786 167.72 147.544 167.754 147.295H168.43L166.97 151.939C166.856 152.295 166.706 152.56 166.517 152.735C166.33 152.912 166.082 153.001 165.776 153.001Z" fill="black"/>
<path d="M169.067 151.417L168.778 147.295H169.461L169.542 148.461C169.655 148.088 169.85 147.784 170.128 147.547C170.408 147.308 170.712 147.188 171.041 147.188C171.459 147.188 171.784 147.315 172.017 147.569C172.253 147.821 172.385 148.154 172.414 148.568L172.544 150.433C172.569 150.783 172.605 151.112 172.654 151.417H171.93L171.738 148.668C171.696 148.061 171.414 147.758 170.892 147.758C170.731 147.758 170.571 147.802 170.411 147.891C170.254 147.977 170.113 148.096 169.987 148.246C169.862 148.394 169.763 148.579 169.692 148.801C169.624 149.023 169.598 149.259 169.616 149.508L169.749 151.417H169.067Z" fill="black"/>
<path d="M174.909 151.525C174.378 151.525 173.932 151.325 173.573 150.925C173.216 150.523 173.015 150 172.97 149.356C172.925 148.717 173.056 148.197 173.361 147.795C173.667 147.39 174.084 147.188 174.614 147.188C174.905 147.188 175.177 147.273 175.429 147.443C175.683 147.613 175.888 147.844 176.045 148.135L175.896 146H176.582L176.892 150.433C176.918 150.813 176.954 151.141 176.998 151.417H176.274L176.215 150.563C176.099 150.859 175.926 151.093 175.696 151.266C175.468 151.438 175.206 151.525 174.909 151.525ZM173.961 148.202C173.754 148.498 173.667 148.883 173.701 149.356C173.734 149.83 173.874 150.215 174.123 150.511C174.371 150.807 174.675 150.955 175.036 150.955C175.373 150.955 175.648 150.818 175.861 150.544C176.077 150.27 176.171 149.94 176.144 149.552L176.116 149.145C176.089 148.761 175.947 148.434 175.691 148.165C175.437 147.893 175.144 147.758 174.813 147.758C174.452 147.758 174.168 147.906 173.961 148.202Z" fill="black"/>
<path d="M179.443 151.525C179.042 151.525 178.685 151.426 178.372 151.229C178.061 151.029 177.82 150.766 177.649 150.441C177.478 150.115 177.378 149.751 177.35 149.349C177.322 148.949 177.371 148.588 177.497 148.265C177.623 147.942 177.827 147.681 178.11 147.484C178.396 147.287 178.739 147.188 179.139 147.188C179.532 147.188 179.886 147.288 180.199 147.488C180.512 147.687 180.756 147.95 180.929 148.276C181.105 148.599 181.207 148.957 181.234 149.349C181.255 149.647 181.23 149.929 181.16 150.193C181.091 150.454 180.983 150.685 180.833 150.885C180.684 151.082 180.49 151.239 180.25 151.355C180.011 151.468 179.742 151.525 179.443 151.525ZM178.074 149.356C178.108 149.835 178.243 150.227 178.479 150.533C178.718 150.839 179.027 150.992 179.405 150.992C179.779 150.992 180.062 150.838 180.256 150.529C180.449 150.221 180.529 149.828 180.496 149.349C180.463 148.878 180.328 148.489 180.092 148.183C179.857 147.875 179.552 147.721 179.177 147.721C178.801 147.721 178.515 147.875 178.319 148.183C178.123 148.492 178.041 148.883 178.074 149.356Z" fill="black"/>
<path d="M155.877 149.377L156.02 151.418M155.642 146.171L155.784 148.211M153.195 148.794H155.241M156.41 148.794H158.455" stroke="black" stroke-width="0.8"/>
<path d="M174.316 101.873V101.003C174.316 100.862 174.26 100.727 174.161 100.627C174.061 100.528 173.926 100.472 173.785 100.472C173.643 100.472 173.507 100.527 173.406 100.626C173.304 100.726 173.246 100.861 173.243 101.003V102.02C173.268 102.154 173.344 102.274 173.455 102.354C173.566 102.433 173.703 102.467 173.838 102.448C173.974 102.43 174.097 102.359 174.182 102.252C174.266 102.145 174.306 102.009 174.294 101.873H174.316ZM246.535 171.413C246.207 171.097 245.744 170.724 245.314 170.859C244.602 171.085 243.89 172.893 243.585 173.639C242.728 175.865 242.048 178.154 241.551 180.487C242.015 181.685 249.834 180.114 250.896 179.594C251.235 179.436 251.19 179.029 251.077 178.668C249.959 176.023 248.425 173.574 246.535 171.413ZM241.856 180.34C242.06 179.402 244.636 172.215 245.518 171.56C246.885 172.34 249.631 177.131 250.365 178.939C249.348 179.346 242.444 181.097 241.856 180.34ZM149.852 204.307C149.739 204.386 147.275 205.946 147.162 206.059C147.136 206.07 147.113 206.089 147.097 206.113C147.081 206.137 147.072 206.165 147.072 206.194C147.072 206.223 147.081 206.252 147.097 206.276C147.113 206.3 147.136 206.319 147.162 206.33C147.795 206.511 149.908 206.748 150.552 206.816C166.011 202.94 166.113 202.94 165.92 202.94C166.024 202.926 166.119 202.872 166.184 202.79C166.249 202.708 166.28 202.604 166.271 202.499C166.271 202.307 165.966 200.974 165.875 200.567L149.852 204.307ZM179.797 97.1494C180.113 97.1494 180.735 97.2963 180.859 97.3076C181.545 97.3788 182.225 97.4996 182.893 97.6692L183.91 97.85C183.949 97.8596 183.99 97.8553 184.025 97.8378C184.061 97.8203 184.09 97.7908 184.106 97.7544C184.122 97.7179 184.125 97.677 184.114 97.6387C184.103 97.6004 184.079 97.5672 184.046 97.5449C183.456 97.0454 182.741 96.7171 181.978 96.5957C181.222 96.4336 180.435 96.5005 179.718 96.7878C179.694 96.793 179.671 96.8028 179.652 96.8167C179.632 96.8306 179.615 96.8483 179.601 96.8687C179.588 96.8892 179.579 96.912 179.575 96.9359C179.571 96.9599 179.571 96.9844 179.576 97.0081C179.582 97.0319 179.591 97.0544 179.605 97.0743C179.619 97.0943 179.637 97.1113 179.657 97.1244C179.678 97.1375 179.701 97.1465 179.725 97.1508C179.749 97.1551 179.773 97.1546 179.797 97.1494ZM170.847 98.1438C171.152 98.076 171.808 97.9743 171.977 97.9517C172.662 97.8021 173.357 97.7039 174.056 97.6579L175.186 97.5336C175.231 97.5336 175.274 97.5157 175.306 97.484C175.338 97.4522 175.356 97.4091 175.356 97.3641C175.356 97.3191 175.338 97.276 175.306 97.2442C175.274 97.2125 175.231 97.1946 175.186 97.1946C174.458 96.8858 173.659 96.7826 172.876 96.8961C172.093 97.0097 171.356 97.3357 170.745 97.8387C170.719 97.8387 170.692 97.8451 170.668 97.8573C170.644 97.8696 170.624 97.8873 170.608 97.9091C170.592 97.9309 170.582 97.9561 170.578 97.9826C170.574 98.0092 170.576 98.0363 170.585 98.0618C170.593 98.0873 170.608 98.1104 170.627 98.1292C170.646 98.148 170.669 98.162 170.695 98.17C170.721 98.178 170.748 98.1798 170.774 98.1752C170.801 98.1707 170.826 98.1599 170.847 98.1438ZM182.147 100.11C182.006 100.11 181.871 100.166 181.772 100.266C181.672 100.365 181.616 100.5 181.616 100.641V101.658C181.636 101.799 181.71 101.926 181.824 102.012C181.937 102.098 182.08 102.135 182.221 102.116C182.362 102.096 182.489 102.022 182.575 101.908C182.661 101.795 182.698 101.652 182.678 101.511V100.641C182.68 100.571 182.667 100.501 182.641 100.436C182.615 100.371 182.576 100.312 182.526 100.262C182.477 100.212 182.417 100.173 182.352 100.147C182.287 100.121 182.217 100.108 182.147 100.11ZM94.4479 198.217C96.0186 198.725 99.6798 200.092 101.363 199.889C101.567 199.889 101.793 199.686 101.94 199.324C103.07 196.782 102.256 183.854 101.849 181.357C101.567 179.56 95.0694 177.334 93.4987 178.611C92.4817 179.436 92.9902 189.007 93.1032 190.34C93.397 193.561 93.0919 197.776 94.4479 198.217ZM94.0072 179.21C95.2276 178.329 100.889 180.419 101.07 181.47C101.352 183.244 102.403 198.16 101.273 199.324C99.8154 199.539 95.9508 198.352 94.4931 197.9C93.4648 197.561 93.8151 193.064 93.6456 190.284C93.5665 188.408 93.4422 180.961 94.0072 179.21ZM174.305 108.641C174.277 108.628 174.246 108.62 174.215 108.62C174.183 108.62 174.152 108.628 174.124 108.641C173.842 108.743 173.672 109.06 173.627 109.523C173.59 110.72 173.992 111.889 174.757 112.811C174.936 113.056 175.163 113.262 175.423 113.417C175.684 113.572 175.973 113.674 176.274 113.715C176.574 113.756 176.88 113.736 177.173 113.657C177.465 113.577 177.739 113.439 177.978 113.252C178.659 112.691 179.194 111.974 179.537 111.161C179.568 111.098 179.584 111.028 179.584 110.958C179.584 110.887 179.568 110.818 179.537 110.755C179.187 110.212 178.35 110.981 174.305 108.641ZM174.203 109.026C175.431 110.071 176.868 110.842 178.418 111.286C176 115.399 173.571 109.851 174.203 109.026ZM176.972 106.37C177.695 106.506 179.695 106.257 180.125 105.523C180.339 105.172 180.125 105.059 179.65 103.613C179.222 102.356 178.72 101.126 178.147 99.9292C177.944 99.6128 177.684 99.9292 177.831 100.121C178.145 101.854 178.645 103.547 179.322 105.172C178.504 105.555 177.667 105.895 176.814 106.189C176.812 106.212 176.815 106.234 176.822 106.255C176.829 106.276 176.84 106.296 176.855 106.313C176.87 106.329 176.888 106.343 176.908 106.353C176.928 106.363 176.95 106.369 176.972 106.37ZM218.646 223.879C222.884 221.189 219.584 218.715 216.782 219.89C216.092 218.636 215.934 218.534 214.522 218.602C207.188 218.975 174.068 226.636 173.751 226.76C172.079 227.45 176.328 237.428 178.011 238.738C178.396 239.032 178.271 239.089 182.418 238.275C182.69 240.738 183.763 245.055 186.272 245.191C187.441 244.976 188.579 244.62 189.662 244.128C191.757 246.213 193.988 248.157 196.34 249.948C198.939 251.688 215.55 232.286 218.036 230.026C218.748 229.789 219.381 229.631 219.302 227.868C221.449 227.472 223.11 226.15 221.968 224.252C221.2 223.099 219.867 223.28 218.646 223.879ZM219.042 220.805C219.505 220.975 219.742 221.156 219.595 221.619C219.291 222.327 218.845 222.965 218.285 223.495C217.985 222.576 217.634 221.674 217.234 220.794C217.819 220.583 218.459 220.587 219.042 220.805ZM207.019 220.432C207.437 222.41 207.719 223.483 208.25 225.303L200.419 226.783C199.969 225.148 199.445 223.534 198.849 221.947C200.329 221.664 205.809 220.636 207.019 220.432ZM195.436 235.518C195.85 236.938 196.463 238.292 197.255 239.541C195.086 240.592 193.04 241.552 191.3 242.343C190.676 240.448 189.798 238.646 188.69 236.987L195.436 235.518ZM192.238 235.518C191.856 233.555 191.373 231.612 190.792 229.698L199.832 227.743C200.325 229.658 200.921 231.544 201.617 233.393C198.51 234.049 195.267 234.783 192.238 235.473V235.518ZM196.001 235.574C195.877 235.394 195.108 235.665 203.425 233.755C203.572 234.595 203.883 235.397 204.34 236.117L197.719 239.36C197.325 238.01 196.747 236.721 196.001 235.529V235.574ZM203.911 233.631C208.205 232.636 212.149 231.687 214.872 230.964L204.894 235.834C204.709 235.032 204.38 234.27 203.922 233.586L203.911 233.631ZM202.001 233.281C201.639 231.352 201.179 229.444 200.623 227.563L208.341 225.664C208.341 225.721 208.86 227.461 209.098 228.207C209.211 228.546 210.171 231.28 210.228 231.326C207.889 231.845 202.182 233.19 201.99 233.235L202.001 233.281ZM198.51 222.06C198.882 224.116 199.233 225.45 199.64 226.986L190.6 228.975C190.068 227.178 189.707 226.003 188.927 223.969C190.69 223.562 197.154 222.274 198.521 222.014L198.51 222.06ZM188.554 224.037C188.995 226.297 189.323 227.484 189.797 229.156C189.04 229.326 182.859 230.874 182.859 230.874C182.633 230.874 182.724 231.224 182.95 231.179C182.95 231.179 189.65 229.936 189.989 229.857C189.989 229.857 190.475 231.8 191.865 235.608L184.577 237.236C183.534 233.294 182.224 229.428 180.656 225.664L188.554 224.037ZM178.328 238.354C176.61 237.066 172.678 227.574 173.864 227.054C173.864 227.054 176.452 226.489 180.339 225.676C181.308 229.636 182.601 233.51 184.204 237.258C178.26 238.591 178.52 238.456 178.339 238.309L178.328 238.354ZM186.238 244.366C184.328 244.366 183.187 240.241 182.848 238.366C182.848 238.151 182.249 238.365 188.159 237.134C188.453 237.077 187.989 236.998 189.402 239.936C189.807 240.859 190.307 241.738 190.893 242.558C189.407 243.27 187.865 243.859 186.283 244.321L186.238 244.366ZM196.769 249.202C194.472 247.592 192.265 245.857 190.159 244.004C192.103 243.202 194.306 242.174 196.204 241.27C197.691 242.997 199.375 244.545 201.222 245.88C200.453 246.535 197.843 248.954 196.815 249.157L196.769 249.202ZM201.549 245.541C200.057 243.875 198.386 242.378 196.566 241.077L203.662 237.586C204.651 238.601 205.796 239.451 207.052 240.106C205.275 241.945 203.455 243.742 201.595 245.496L201.549 245.541ZM207.437 239.744C206.494 238.782 205.422 237.957 204.25 237.292C209.109 234.84 211.9 233.348 216.431 230.84C214.42 232.614 209.312 237.834 207.482 239.699L207.437 239.744ZM218.217 229.122C217.731 229.472 211.075 231.1 210.499 231.235C209.779 227.538 208.724 223.915 207.346 220.41C209.538 220.037 213.878 219.28 215.493 219.461C215.712 219.718 215.901 219.998 216.059 220.297C215.287 220.821 214.649 221.517 214.194 222.331C214.081 222.613 214.375 222.76 214.522 222.625C215.087 222.027 215.748 221.526 216.477 221.144C216.989 222.204 217.435 223.294 217.81 224.41C216.806 225.097 215.901 225.918 215.121 226.851C214.974 227.032 215.019 227.167 215.121 227.224C215.392 227.382 215.414 226.975 218.081 225.393C218.351 226.308 218.503 227.254 218.533 228.207C218.477 228.41 218.443 228.93 218.262 229.077L218.217 229.122ZM221.031 226.094C220.526 226.672 219.89 227.121 219.177 227.404C219.073 226.599 218.911 225.802 218.691 225.02C219.426 224.647 220.567 224.173 220.951 224.862C221.096 225.021 221.186 225.221 221.208 225.435C221.231 225.648 221.184 225.863 221.076 226.048L221.031 226.094Z" fill="black"/>
</svg>
