<svg width="352" height="319" viewBox="0 0 352 319" fill="none" xmlns="http://www.w3.org/2000/svg">
<rect width="352" height="319" rx="16" fill="#F7F6F3"/>
<path d="M231.787 148.206C231.312 148.206 231.312 149.087 231.787 149.087C232.917 149.087 248.658 148.827 249.98 148.567C250.1 148.549 250.21 148.488 250.29 148.396C250.369 148.304 250.413 148.186 250.413 148.064C250.413 147.943 250.369 147.825 250.29 147.733C250.21 147.64 250.1 147.58 249.98 147.562C245.833 147.019 236.352 148.115 231.787 148.206ZM238.092 171.28C237.573 171.28 237.663 172.15 238.16 172.173C241.844 172.297 247.584 172.105 251.347 171.936C252.037 171.936 252.116 170.806 251.347 170.806C247.132 170.828 242.319 170.885 238.092 171.28ZM238.578 132.307C238.469 132.311 238.365 132.356 238.285 132.431C238.206 132.507 238.157 132.609 238.147 132.718C238.138 132.827 238.168 132.936 238.233 133.025C238.298 133.113 238.392 133.175 238.499 133.199C240.522 133.448 247.087 133.708 249.065 132.872C249.166 132.821 249.248 132.74 249.299 132.639C249.349 132.538 249.365 132.423 249.345 132.312C249.325 132.201 249.268 132.099 249.185 132.023C249.102 131.947 248.996 131.899 248.884 131.888C246.262 131.73 242.059 132.566 238.578 132.307ZM225.674 154.138C235.211 154.003 246.014 153.336 255.641 152.454C256.24 152.454 256.184 151.324 255.562 151.324C246.093 151.562 235.03 152.183 225.617 153.155C225.487 153.163 225.365 153.222 225.278 153.319C225.191 153.417 225.146 153.545 225.154 153.675C225.161 153.805 225.22 153.927 225.318 154.014C225.415 154.101 225.543 154.146 225.674 154.138ZM239.347 103.808C242.002 103.605 244.658 103.446 247.257 103.13C248.002 103.051 247.81 102 247.076 102C244.432 102.203 241.787 102.542 239.166 102.847C238.556 102.915 238.725 103.853 239.347 103.808ZM223.843 127.38C223.278 127.38 223.255 128.34 223.843 128.385C230.231 128.683 236.633 128.236 242.917 127.052C243.629 126.928 243.516 125.798 242.793 125.922C236.535 126.989 230.191 127.477 223.843 127.38ZM244.872 109.221C245.855 109.458 246.002 107.853 245.098 108.012C240.688 108.727 236.218 109.003 231.753 108.837C231.154 108.837 231.019 109.707 231.629 109.774C236.047 110.218 240.506 110.032 244.872 109.221ZM220.397 153.607C219.515 153.268 215.447 153.833 214.306 153.957C213.752 153.957 213.73 154.85 214.306 154.839L218.928 154.692C221.063 154.613 221.052 153.867 220.397 153.607ZM225.063 202.502C224.114 202.276 217.368 202.785 216.261 202.853C215.673 202.853 215.786 203.756 216.374 203.745C217.572 203.745 224.137 203.745 225.176 203.417C225.64 203.259 225.482 202.593 225.063 202.502ZM216.249 197.722C219.425 197.869 227.29 198.005 230.465 197.248C230.539 197.247 230.612 197.231 230.68 197.2C230.747 197.17 230.808 197.125 230.857 197.07C230.907 197.015 230.944 196.949 230.966 196.879C230.989 196.808 230.997 196.734 230.989 196.66C230.981 196.586 230.958 196.515 230.92 196.451C230.883 196.386 230.833 196.331 230.773 196.287C230.713 196.243 230.645 196.213 230.572 196.197C230.499 196.182 230.424 196.182 230.352 196.197C225.708 196.197 221.402 196.976 216.385 196.773C215.786 196.75 215.628 197.688 216.249 197.722ZM227.21 177.631C227.888 177.507 227.832 176.501 227.12 176.501C222.103 177.009 221.052 177.134 215.91 177.337C215.413 177.337 215.357 178.196 215.91 178.23C219.688 178.481 223.481 178.28 227.21 177.631ZM234.171 170.523C228.024 170.749 221.64 171.789 215.221 172.015C215.106 172.032 215.002 172.091 214.926 172.179C214.851 172.267 214.809 172.379 214.809 172.495C214.809 172.611 214.851 172.723 214.926 172.811C215.002 172.9 215.106 172.958 215.221 172.975C220.543 172.975 229.109 172.727 234.296 171.574C234.404 171.526 234.494 171.445 234.552 171.342C234.611 171.239 234.635 171.12 234.621 171.003C234.607 170.885 234.556 170.775 234.475 170.689C234.394 170.603 234.288 170.545 234.171 170.523ZM255.11 199.734C255.02 199.734 248.816 200.242 247.754 200.208C247.653 200.226 247.561 200.276 247.491 200.351C247.421 200.426 247.377 200.521 247.366 200.622C247.355 200.724 247.376 200.827 247.428 200.915C247.479 201.003 247.558 201.072 247.652 201.112C248.918 201.35 254.251 201.44 255.347 200.513C255.403 200.453 255.441 200.378 255.459 200.298C255.477 200.218 255.474 200.135 255.45 200.056C255.426 199.978 255.382 199.907 255.323 199.85C255.263 199.794 255.19 199.753 255.11 199.734ZM257.11 175.088C249.279 175.597 240.533 175.891 232.736 176.557C232.126 176.557 232.239 177.473 232.827 177.507C237.041 177.631 252.037 176.863 257.212 176.207C257.286 176.201 257.358 176.181 257.424 176.147C257.489 176.113 257.548 176.066 257.595 176.009C257.643 175.953 257.678 175.887 257.7 175.816C257.721 175.745 257.728 175.671 257.72 175.597C257.706 175.449 257.634 175.313 257.52 175.217C257.406 175.122 257.258 175.076 257.11 175.088ZM227.696 149.392C227.846 149.392 227.99 149.333 228.096 149.227C228.202 149.121 228.261 148.977 228.261 148.827C228.261 148.677 228.202 148.534 228.096 148.428C227.99 148.322 227.846 148.262 227.696 148.262C222.826 148.386 217.911 148.42 213.006 148.793C212.901 148.817 212.807 148.875 212.739 148.96C212.671 149.044 212.635 149.149 212.635 149.257C212.635 149.365 212.671 149.469 212.739 149.554C212.807 149.638 212.901 149.696 213.006 149.72C217.933 149.81 222.826 149.55 227.696 149.392ZM246.963 195.01C245.245 195.01 239.053 195.451 237.584 195.711C237.109 195.79 237.041 196.57 237.584 196.592C239.177 196.671 245.336 196.276 247.121 196.118C247.81 196.14 247.663 195.01 246.963 195.01ZM243.663 201.35L229.459 202.254C228.815 202.254 228.973 203.237 229.606 203.203C232.363 203.078 241.234 202.728 243.72 202.389C244.273 202.321 244.285 201.35 243.663 201.35ZM233.493 103.13C229.324 102.655 216.238 103.446 211.797 103.898C211.187 103.955 211.142 104.904 211.797 104.848C219.097 104.373 226.205 104.215 233.505 104.237C233.632 104.21 233.746 104.14 233.828 104.038C233.909 103.936 233.953 103.809 233.952 103.679C233.95 103.549 233.904 103.423 233.82 103.323C233.737 103.223 233.621 103.155 233.493 103.13ZM234.702 133.629C235.414 133.527 235.154 132.499 234.442 132.499C227.169 133.327 219.852 133.705 212.532 133.629C212.426 133.646 212.329 133.7 212.259 133.782C212.189 133.864 212.151 133.968 212.151 134.075C212.151 134.183 212.189 134.287 212.259 134.368C212.329 134.45 212.426 134.504 212.532 134.521C219.934 134.878 227.353 134.579 234.702 133.629ZM227.03 109.967C227.104 109.959 227.176 109.938 227.242 109.903C227.308 109.867 227.366 109.82 227.413 109.762C227.461 109.704 227.496 109.637 227.518 109.566C227.539 109.494 227.546 109.419 227.538 109.345C227.531 109.271 227.509 109.198 227.474 109.133C227.439 109.067 227.391 109.008 227.333 108.961C227.276 108.914 227.209 108.878 227.138 108.857C227.066 108.836 226.991 108.829 226.917 108.837C221.933 109.458 217.21 109.481 212.294 109.91C211.775 109.966 211.718 110.814 212.294 110.837C217.221 110.916 222.147 110.625 227.03 109.967ZM213.029 127.854C212.464 127.854 212.453 128.747 213.097 128.77C215.125 128.961 217.163 129.014 219.199 128.928C219.29 128.887 219.368 128.82 219.423 128.736C219.477 128.652 219.507 128.554 219.507 128.453C219.507 128.353 219.477 128.255 219.423 128.17C219.368 128.086 219.29 128.02 219.199 127.979C218.995 127.866 214.069 127.854 213.029 127.854ZM198.927 134.363C199.582 134.363 202.011 130.34 203.379 128.962C203.876 128.465 203.062 127.628 202.554 128.103C201.112 129.403 199.864 130.902 198.847 132.555L195.989 129.922C195.401 129.38 194.644 130.307 195.186 130.86C195.729 131.414 198.09 134.363 198.927 134.363Z" fill="black"/>
<path d="M198.141 97.6122L198.168 90.5708L203.099 90.4848L203.092 91.4804L199.479 91.5435L199.479 93.4336L202.545 93.38L202.552 94.3755L199.472 94.4292L199.459 96.4783C199.463 96.8533 199.481 97.2233 199.513 97.5883L198.141 97.6122ZM204.042 99.5676C203.879 99.5705 203.702 99.5511 203.511 99.5096C203.32 99.468 203.161 99.4147 203.034 99.3495L203.261 98.35C203.48 98.5354 203.725 98.6257 203.995 98.621C204.206 98.6173 204.374 98.5647 204.498 98.4631C204.622 98.3616 204.73 98.193 204.821 97.9573L205.063 97.3615L203.044 92.169L204.343 92.1463L205.308 94.741C205.376 94.9225 205.434 95.1139 205.483 95.315C205.532 95.5162 205.564 95.6711 205.578 95.7799L205.601 95.9478C205.767 95.589 205.925 95.2272 206.076 94.8622L206.8 93.0701C206.923 92.7249 207.01 92.4012 207.062 92.0989L208.224 92.0786L205.832 98.1176C205.626 98.6214 205.387 98.9863 205.114 99.2123C204.842 99.4414 204.484 99.5599 204.042 99.5676ZM208.735 97.4273L208.756 92.0693L209.977 92.048L209.977 93.6351C210.157 93.1318 210.422 92.7151 210.772 92.3852C211.126 92.052 211.528 91.8814 211.981 91.8735C212.531 91.8639 212.95 92.0282 213.238 92.3662C213.525 92.7042 213.668 93.1442 213.666 93.6861L213.66 96.1294C213.66 96.5654 213.678 96.9691 213.715 97.3404L212.435 97.3627L212.456 93.914C212.454 93.1798 212.172 92.8176 211.613 92.8274C211.3 92.8329 211.015 92.9613 210.757 93.2127C210.502 93.464 210.307 93.78 210.172 94.1607C210.036 94.5382 209.967 94.9306 209.965 95.3378L209.955 97.406L208.735 97.4273ZM216.788 97.4262C216.205 97.4364 215.704 97.2527 215.285 96.8753C214.865 96.4979 214.598 96.0152 214.484 95.4272C214.42 95.0981 214.395 94.7667 214.408 94.433C214.425 94.0961 214.484 93.7712 214.586 93.4584C214.691 93.1424 214.835 92.8625 215.016 92.6189C215.197 92.3753 215.435 92.1788 215.729 92.0293C216.023 91.8767 216.355 91.7972 216.726 91.7907C217.143 91.7834 217.496 91.8863 217.785 92.0992C218.078 92.309 218.304 92.5936 218.466 92.9531L218.478 90.2163L219.688 90.1952L219.657 96.0824C219.663 96.5504 219.684 96.9348 219.72 97.2356L218.45 97.2577L218.449 96.166C218.294 96.547 218.077 96.8506 217.798 97.0767C217.518 97.3028 217.182 97.4193 216.788 97.4262ZM215.747 95.1695C215.822 95.5562 215.981 95.8692 216.223 96.1087C216.465 96.3449 216.757 96.4601 217.099 96.4541C217.532 96.4465 217.868 96.2707 218.108 95.9267C218.351 95.5794 218.47 95.1493 218.465 94.6364L218.46 94.3623C218.461 93.9294 218.333 93.5533 218.075 93.234C217.819 92.9114 217.48 92.7538 217.057 92.7612C216.783 92.766 216.545 92.8471 216.34 93.0046C216.138 93.1588 215.989 93.357 215.892 93.5992C215.795 93.8381 215.734 94.0957 215.709 94.3718C215.684 94.6448 215.696 94.9107 215.747 95.1695ZM223.12 97.3157C222.44 97.3275 221.866 97.1388 221.398 96.7494C220.933 96.3567 220.639 95.8408 220.515 95.2017C220.449 94.863 220.431 94.5267 220.46 94.1927C220.493 93.8555 220.575 93.5383 220.707 93.241C220.841 92.9437 221.015 92.6793 221.228 92.4479C221.441 92.2166 221.708 92.0324 222.027 91.8954C222.35 91.7583 222.703 91.6864 223.088 91.6797C223.761 91.6679 224.332 91.8567 224.799 92.2461C225.267 92.6356 225.563 93.1482 225.686 93.7841C225.768 94.2027 225.772 94.6194 225.699 95.0343C225.626 95.446 225.484 95.8204 225.276 96.1575C225.07 96.4945 224.779 96.7705 224.403 96.9855C224.029 97.1972 223.602 97.3073 223.12 97.3157ZM221.798 95.1505C221.874 95.5435 222.026 95.8551 222.254 96.0852C222.481 96.3121 222.759 96.4226 223.087 96.4169C223.318 96.4129 223.524 96.3516 223.703 96.233C223.885 96.1112 224.027 95.958 224.128 95.7735C224.232 95.5857 224.311 95.3776 224.364 95.149C224.421 94.9203 224.451 94.6938 224.453 94.4693C224.458 94.2448 224.442 94.0367 224.405 93.8449C224.328 93.4519 224.177 93.1419 223.95 92.915C223.722 92.685 223.444 92.5728 223.115 92.5785C222.878 92.5827 222.668 92.6473 222.487 92.7723C222.305 92.8941 222.164 93.0504 222.064 93.2413C221.963 93.4291 221.886 93.6388 221.833 93.8706C221.78 94.1024 221.752 94.3273 221.749 94.5454C221.745 94.7634 221.762 94.9652 221.798 95.1505ZM228.595 97.0806L228.623 90.0392L229.902 90.0169L233.351 95.2133L233.363 89.9565L234.442 89.9377L234.424 96.9789L233.087 97.0022L229.694 91.8721L229.679 97.0617L228.595 97.0806ZM235.635 96.9578L235.662 89.9164L238.411 89.8684C239.296 89.8529 240.049 90.0979 240.67 90.6033C241.291 91.1086 241.681 91.7719 241.841 92.5931C241.947 93.1396 241.935 93.6736 241.804 94.1953C241.674 94.717 241.451 95.1762 241.136 95.5728C240.824 95.9662 240.415 96.286 239.907 96.5321C239.402 96.775 238.846 96.9017 238.237 96.9123L235.635 96.9578ZM236.956 95.9392L238.196 95.9175C238.534 95.9116 238.844 95.8437 239.126 95.7137C239.41 95.5805 239.644 95.4065 239.828 95.1917C240.015 94.9768 240.166 94.7321 240.283 94.4575C240.399 94.1829 240.471 93.8947 240.497 93.5929C240.526 93.291 240.513 92.9931 240.455 92.6991C240.341 92.1111 240.09 91.657 239.701 91.3368C239.315 91.0133 238.853 90.8562 238.316 90.8656L236.964 90.8892L236.956 95.9392ZM241.869 96.8489L244.616 89.7601L245.886 89.7379L248.573 96.7319L247.201 96.7559L246.495 94.8877L243.795 94.9349L243.497 95.7192C243.347 96.1258 243.246 96.4947 243.192 96.8258L241.869 96.8489ZM244.171 93.9231L246.119 93.8891L245.15 91.3234L244.171 93.9231Z" fill="black"/>
<path d="M282.22 172.735C279.259 92.2001 280.502 92.8781 279.96 92.4035C279.192 91.6803 273.259 92.1549 271.801 92.234L271.191 79.8831C271.22 79.8086 271.231 79.7282 271.222 79.6487C271.214 79.5692 271.186 79.4929 271.142 79.4264C271.097 79.3598 271.038 79.305 270.968 79.2664C270.897 79.2279 270.819 79.2069 270.739 79.2051C247.009 78.9113 222.59 80.482 198.103 82.1431C191.504 82.6064 184.644 83.0132 177.932 83.7251C177.87 83.715 177.805 83.719 177.744 83.7367C177.683 83.7545 177.627 83.7855 177.579 83.8277C177.532 83.8699 177.494 83.9221 177.469 83.9805C177.444 84.039 177.433 84.1023 177.435 84.1658C178.678 114.337 182.294 163.108 188.543 217.11C188.611 217.732 193.764 217.189 198.397 216.884C198.457 218.214 198.697 219.529 199.108 220.794C199.786 221.653 283.61 216.455 283.508 212.884C283.147 199.471 282.661 185.888 282.22 172.735ZM275.869 207.969C246.15 212.489 219.426 213.754 189.583 216.331C183.673 165.13 181.243 130.01 178.283 84.5161C187.458 83.9737 221.392 80.8549 270.411 80.2108C271.632 113.06 276.174 204.353 275.835 207.969H275.869ZM134.02 130.281C133.252 130.281 133.263 131.773 133.625 132.338C133.667 132.42 133.732 132.489 133.812 132.535C133.892 132.581 133.985 132.603 134.077 132.598C134.766 132.518 134.732 130.36 134.02 130.281ZM129.986 136.812C130.472 136.937 131.783 137.016 132.088 136.564C132.518 135.931 131.354 130.191 131.207 129.784C131.177 129.701 131.118 129.631 131.041 129.588C130.964 129.544 130.875 129.529 130.788 129.545C130.701 129.561 130.623 129.608 130.567 129.676C130.511 129.745 130.482 129.831 130.484 129.919C130.484 130.948 130.947 134.439 131.128 135.897L129.998 135.965C129.915 136 129.844 136.059 129.794 136.133C129.744 136.208 129.717 136.295 129.716 136.385C129.715 136.475 129.74 136.563 129.788 136.639C129.836 136.715 129.905 136.775 129.986 136.812ZM133.06 128.168C133.394 128.076 133.746 128.068 134.085 128.142C134.424 128.217 134.739 128.373 135.004 128.597C135.444 128.993 136.292 128.236 135.083 127.467C134.213 126.88 132.179 126.676 132.393 127.716C132.428 127.861 132.516 127.987 132.639 128.071C132.763 128.154 132.913 128.189 133.06 128.168Z" fill="black"/>
<path d="M166.192 169.243C158.926 162.079 145.852 153.661 134.1 151.988C134.294 151.316 134.294 150.603 134.1 149.932C134.994 149.184 135.826 148.364 136.586 147.479C138.201 145.581 138.168 143.728 135.862 144.666C138.122 139.671 138.122 128.846 137.309 122.766C141.094 125.128 147.479 122.857 146.699 118.246C151.841 119.794 155.185 109.579 148.654 107.737C149.569 100.008 139.67 98.8895 136.642 103.398C134.936 98.4149 127.094 101.036 127.659 104.946C124.122 101.149 116.483 102.472 115.421 107.206C112.223 104.302 106.946 105.534 107.409 109.817C102.347 107.466 99.6685 113.523 103.601 115.467C101.081 116.823 101.16 122.405 105.025 122.405C105.025 126.134 107.285 134.677 112.878 139.355C113.477 144.587 112.404 147.265 110.539 152.112C92.0975 154.915 78.0968 169.3 71.814 187.142C64.6498 207.482 68.0511 226.692 89.2838 230.738C89.2396 233.452 88.9216 236.155 88.3346 238.806C88.324 238.906 88.3498 239.007 88.4073 239.089C88.4648 239.172 88.5501 239.231 88.6476 239.255C88.7451 239.28 88.8482 239.269 88.9381 239.224C89.0279 239.178 89.0985 239.102 89.1369 239.009C89.8933 236.377 90.3035 233.657 90.3573 230.919C95.4725 231.679 100.698 230.881 105.354 228.63C110.01 226.379 113.88 222.778 116.46 218.297C119.731 219.539 123.07 220.596 126.461 221.461C137.128 224.478 151.038 227.472 164.214 223.901C163.954 230.218 163.593 235.28 163.028 240.309C163.028 240.806 163.717 240.953 163.796 240.456C164.237 237.812 165.333 226.207 165.265 223.596C173.65 221.02 179.254 215.2 180.633 207.641C183.04 194.826 177.616 180.442 166.192 169.243ZM118.2 120.574C118.494 123.874 118.2 126.224 117.195 127.75C116.822 128.303 116.257 128.88 115.771 128.88C115.398 128.473 112.957 125.942 110.652 127.422C109.149 128.405 109.081 130.315 110.505 132.801C111.523 134.311 112.251 135.997 112.652 137.773C108.324 133.072 107.002 128.665 106.008 122.348C107.156 122.141 108.205 121.561 108.991 120.698C110.968 123.636 115.805 123.049 118.2 120.574ZM111.194 128.168C112.72 127.23 114.132 128.36 115.421 129.49C116.178 130.157 117.421 129.219 118.008 128.36C119.545 126.235 119.41 122.71 119.206 120.947C120.303 121.992 121.76 122.574 123.274 122.574C124.789 122.574 126.245 121.992 127.342 120.947C127.568 124.201 134.393 124.947 136.19 122.247C137.015 127.897 137.41 140.112 134.676 145.231C132.416 146.225 127.274 148.496 124.721 147.491C122.528 146.621 121.421 143.276 118.867 141.841C117.15 140.892 115.681 141.965 116.878 143.886C119.907 148.7 119.636 150.53 117.24 155.48C115.14 154.908 113.177 153.92 111.466 152.576C113.952 149.016 114.63 142.666 114.008 138.439C113.454 134.677 112.878 134.903 111.387 132.123C110.697 130.981 110.087 128.868 111.194 128.168ZM130.258 150.96C130.167 151.002 130.096 151.075 130.056 151.166C130.016 151.257 130.011 151.36 130.042 151.454C130.072 151.549 130.136 151.629 130.222 151.679C130.308 151.73 130.409 151.747 130.506 151.728C131.475 151.555 132.394 151.169 133.196 150.598C133.261 151.652 132.983 152.698 132.405 153.581C132.201 153.864 132.563 154.711 133.297 153.661C133.241 156.779 131.647 160.633 128.585 162.147C126.51 161.772 124.534 160.97 122.784 159.794C121.034 158.617 119.546 157.091 118.415 155.31C121.805 149.502 118.822 145.14 117.828 143.332C117.274 142.293 117.556 142.135 118.46 142.722C120.596 144.078 122.472 147.864 124.54 148.372C128.438 149.31 133.241 146.96 135.591 145.909C136.812 145.355 137.523 144.982 136.054 146.824C134.088 149.254 132.97 149.762 130.258 150.96ZM82.436 199.188C82.3951 199.28 82.3887 199.384 82.418 199.48C82.4472 199.576 82.5102 199.659 82.5953 199.712C82.6805 199.766 82.7821 199.787 82.8815 199.771C82.9809 199.756 83.0714 199.706 83.1366 199.629C93.0467 184.012 109.443 173.176 117.884 156.463C119.195 159.378 124.8 163.13 128.257 163.13C128.257 165.944 127.975 169.288 127.681 172.498C124.291 171.718 115.127 168.848 113.477 165.096C113.285 164.633 112.539 164.949 112.72 165.413C114.268 169.605 123.828 172.972 127.579 173.684C126.787 182.127 125.217 190.48 122.89 198.635C121.184 204.737 118.991 212.115 115.827 217.573C113.305 222.061 109.445 225.649 104.787 227.839C100.128 230.028 94.902 230.71 89.8375 229.789C68.9777 226.127 65.8363 207.313 72.9214 187.436C79.5432 168.814 94.0411 155.706 110.765 153.22C112.583 154.56 114.57 155.655 116.675 156.474C108.2 172.825 92.041 183.56 82.436 199.188ZM123.862 199.109C134.842 194.482 146.509 191.691 158.395 190.849C161.785 190.623 165.175 190.634 168.565 190.634C169.062 190.634 169.073 189.821 168.565 189.821C166.259 189.661 163.947 189.619 161.638 189.696C161.084 185.176 152.937 171.989 150.168 168.339C150.097 168.272 150.005 168.233 149.907 168.228C149.81 168.224 149.714 168.255 149.637 168.315C149.561 168.375 149.508 168.461 149.489 168.557C149.471 168.652 149.487 168.752 149.535 168.836C155.084 176.611 159.57 186.51 160.462 189.741C150.53 190.114 135.207 192.465 124.178 197.866C125.218 194.058 129.241 178.351 129.331 162.836C132.438 161.446 134.653 156.418 134.393 153.039C146.11 155.707 156.856 161.575 165.434 169.989C175.503 179.854 181.673 192.589 179.774 206.432C178.768 214.342 173.152 220.466 164.768 222.692C150.315 226.647 135.444 223.212 121.172 218.782C119.791 218.317 118.383 217.933 116.957 217.63C119.846 211.691 122.158 205.489 123.862 199.109Z" fill="black"/>
<path d="M123.308 126.36C123.6 125.928 123.99 125.571 124.445 125.318C124.9 125.065 125.409 124.922 125.93 124.902C126.755 124.902 126.709 123.659 125.93 123.772C125.259 123.842 124.612 124.065 124.04 124.424C123.469 124.782 122.986 125.267 122.63 125.84C122.336 126.303 122.992 126.812 123.308 126.36ZM125.975 129.49C125.512 129.863 125.545 131.75 126.246 131.75C126.406 131.733 126.556 131.662 126.671 131.55C126.786 131.437 126.859 131.288 126.879 131.128C127.139 130.145 126.472 129.139 125.975 129.49ZM124.98 138.824C124.959 138.735 124.911 138.655 124.843 138.595C124.775 138.535 124.69 138.498 124.6 138.488C124.51 138.478 124.418 138.496 124.339 138.54C124.259 138.584 124.195 138.651 124.156 138.733C124.043 138.891 123.828 139.377 124.302 140.36C124.625 141.03 125.181 141.558 125.866 141.845C126.551 142.132 127.317 142.159 128.02 141.92C128.115 141.882 128.193 141.81 128.239 141.719C128.285 141.627 128.296 141.522 128.27 141.423C128.243 141.324 128.181 141.238 128.096 141.182C128.01 141.126 127.907 141.103 127.805 141.117C126.201 141.434 125.274 140.417 124.98 138.824Z" fill="black"/>
</svg>
