<svg width="352" height="319" viewBox="0 0 352 319" fill="none" xmlns="http://www.w3.org/2000/svg">
<rect width="352" height="319" rx="16" fill="#F7F6F3"/>
<g clip-path="url(#clip0_179_672)">
<path d="M193.319 93.5985C195.274 93.541 195.619 91.149 194.469 89.838C194.239 89.6215 193.967 89.4547 193.67 89.3478C193.373 89.241 193.058 89.1964 192.743 89.2169C192.428 89.2374 192.12 89.3225 191.839 89.467C191.559 89.6114 191.311 89.8121 191.111 90.0565C189.72 91.701 190.64 94.1505 193.319 93.5985ZM193.917 90.6545C194.584 91.5055 194.55 92.9545 193.273 93.2075C192.25 93.2075 191.376 92.8625 191.376 91.839C191.387 90.413 193.032 89.5505 193.917 90.7005V90.6545ZM202.91 93.3915C204.865 93.334 205.21 90.942 204.06 89.631C203.836 89.4046 203.565 89.229 203.267 89.116C202.969 89.0029 202.65 88.9552 202.331 88.9759C202.013 88.9966 201.703 89.0853 201.422 89.236C201.141 89.3867 200.895 89.5959 200.702 89.8495C199.322 91.4825 200.219 93.9435 202.91 93.3915ZM203.508 90.4475C204.175 91.2985 204.129 92.7475 202.864 93.0005C201.841 93.0005 200.967 92.6555 200.967 91.632C200.967 90.206 202.623 89.309 203.508 90.4475Z" fill="black"/>
<path d="M209.626 105.719C242.551 103.028 232.488 68.1948 203.359 68.9193C170.63 69.8278 160.797 109.721 209.626 105.719ZM182.337 78.0503C191.652 68.8503 210.224 66.6883 221.437 75.2903C234.006 84.8813 232.603 103.442 209.546 105.317C197.022 106.329 188.443 104.247 183.211 100.786C174.597 95.0818 175.115 85.2148 182.337 78.0503Z" fill="black"/>
<path d="M211.8 93.0001C213.755 93.0001 214.157 90.5506 212.95 89.2396C212.72 89.0231 212.448 88.8562 212.151 88.7494C211.854 88.6425 211.538 88.598 211.223 88.6185C210.908 88.639 210.601 88.7241 210.32 88.8685C210.039 89.013 209.791 89.2136 209.592 89.4581C208.2 91.1141 209.143 93.5521 211.8 93.0001ZM212.397 90.0561C213.064 90.9071 213.018 92.3561 211.753 92.6206C210.742 92.6206 209.856 92.2641 209.856 91.2406C209.868 89.8261 211.512 88.9176 212.397 90.0561ZM172.872 172.109C173.551 171.752 175.034 170.211 174.804 169.487C175.241 168.337 182.015 146.705 183.878 139.725C184.159 138.991 184.292 138.21 184.269 137.425C184.142 137.172 183.935 137.149 183.682 137.137L161.763 137.482C161.407 120.934 159.785 74.4506 157.945 59.1671C158.267 59.1671 158.624 59.1671 158.727 58.7761C159.118 57.3501 159.452 54.8086 158.348 53.8426C155.657 51.4851 69.2225 53.6126 68.1185 54.0151C67.0145 54.4176 66.9685 57.6491 67.1755 59.0291C67.1755 59.3626 67.739 59.4891 68.061 59.5696C65.991 72.7831 67.9575 164.45 69.7745 172.362C69.8665 172.753 69.993 173.132 70.3265 173.213C71.0828 173.393 71.8516 173.516 72.6265 173.581C73.8685 183.252 82.3555 185.081 92.1075 183.528C101.262 181.978 109.968 178.445 117.615 173.178C124.825 172.925 117.27 173.247 130.713 173.305C134.75 173.282 170.94 173.155 172.872 172.109ZM118.627 165.818C120.927 165.818 123.848 166.117 125.527 167.831C125.849 168.164 126.677 169.165 126.274 169.372C125.216 169.935 119.915 169.74 118.477 169.763L118.627 165.818ZM118.408 170.142L120.064 170.315C120.082 170.945 120.265 171.559 120.593 172.097L118.293 172.178L118.408 170.142ZM183.28 138.126C182.498 141.714 175.092 165.818 174.08 168.958C165.236 168.59 152.011 169.096 134.129 169.59C134.922 166.911 142.42 141.3 143.328 138.805C143.386 138.69 183.165 138.126 183.28 138.126ZM67.624 58.9371C67.3365 57.0166 67.7965 54.5556 68.2565 54.3371C68.912 54.0956 153.644 52.7961 157.727 54.5671C158.011 54.9606 158.153 55.4392 158.129 55.9241C158.16 56.6991 158.075 57.4744 157.876 58.2241C157.772 58.2241 93.085 59.7996 85.426 59.7881C83.471 59.7881 69.05 59.8341 67.624 58.9371ZM72.707 86.6636C72.638 86.0541 72.569 84.1911 72.5115 81.7186C74.938 82.5581 88.1515 82.5811 90.7275 82.5811C92.602 82.5811 125.423 81.8451 130.759 81.6266C132.634 81.5576 151.459 80.6146 153.38 80.3846C153.416 81.9729 153.369 83.562 153.242 85.1456C153.173 85.1456 103.113 87.0891 96.6615 87.2156C94.35 87.2501 74.731 87.6986 72.707 86.6636ZM153.276 74.3356C97.363 75.6006 74.4665 76.3711 72.431 75.4856V69.2986C77.031 70.4486 118.65 69.4596 122.272 69.3676C126.182 69.2526 150.597 68.2176 153.092 68.0451C153.15 70.1036 153.23 72.3001 153.276 74.3356ZM72.431 75.9456C76.295 77.2221 119.811 76.1296 122.422 76.0491C126.355 75.9456 151.172 74.8416 153.288 74.7381C153.288 76.6126 153.368 78.4066 153.38 79.9936C116.2 80.9366 75.513 82.6501 72.5 81.3046C72.5 79.6946 72.5 77.8661 72.431 75.9456ZM153 67.7001C112.934 68.6086 74.8 69.7471 72.362 68.9421V63.7096C76.8125 64.9286 119.098 63.8821 122.249 63.7901C126.01 63.6866 148.699 62.6401 152.678 62.4906C152.874 63.9626 153 65.7566 153 67.7001ZM152.701 62.0881C104.562 63.2381 74.57 64.1121 72.4195 63.3186C72.4195 62.4101 72.4195 61.0186 72.5575 60.0871C88.922 61.0876 125.239 59.9836 152.471 59.3511C152.609 60.1101 152.69 61.2946 152.747 62.0766L152.701 62.0881ZM70.7175 172.35C68.9695 166.853 66.497 73.1396 68.4175 59.6501C69.6633 59.8486 70.9184 59.9829 72.178 60.0526C71.787 64.5031 71.787 84.9501 72.0515 86.8361C72.0717 86.9244 72.111 87.0072 72.1667 87.0787C72.2223 87.1502 72.2929 87.2087 72.3735 87.2501C73.3734 87.5794 74.4149 87.7653 75.467 87.8021C75.2044 91.8057 75.316 95.8252 75.8005 99.8081C72.109 100.245 71.764 105.938 76.7435 105.052C80.32 104.903 79.538 99.8426 76.2375 99.7851C76.4962 95.7993 76.3691 91.7979 75.858 87.8366C80.0785 88.1471 87.749 88.1931 96.6845 88.0781C103.136 87.9861 152.264 86.1921 153.115 86.1231C153.564 86.1231 154.001 86.1231 154.116 85.7091C154.84 83.0411 153.828 62.2721 153.472 59.3166L157.094 59.2246C158.888 74.4851 160.418 119.749 160.797 137.517C157.175 137.574 143.812 137.758 142.984 137.977C142.754 138.046 142.673 138.218 142.558 138.517C142.156 139.587 141.27 142.657 140.948 143.761C135.587 139.445 129.479 136.152 122.928 134.044C123.043 133.388 123.193 132.74 123.376 132.1C124.746 132.05 126.079 131.641 127.241 130.915C128.403 130.188 129.355 129.169 130 127.96C131.392 125.66 132.3 122.038 132.208 116.345C132.303 116.373 132.404 116.377 132.501 116.354C132.597 116.332 132.687 116.285 132.76 116.219C133.208 115.86 133.596 115.433 133.91 114.954C134.473 112.83 134.307 110.578 133.439 108.56C132.542 105.915 132.139 104.098 129.989 101.775C128.318 99.9284 126.088 98.6802 123.641 98.2211C121.479 98.0295 119.3 98.1888 117.189 98.6926C116.241 98.9749 115.355 99.4354 114.579 100.05C114.108 100.447 113.717 100.931 113.429 101.476C112.865 102.258 111.543 102.315 110.519 102.81C108.436 104.158 106.891 106.192 106.149 108.56C105.633 110.039 105.361 111.593 105.344 113.16C104.493 112.217 103.148 111.113 102.009 111.665C100.871 112.217 99.801 116 99.8125 117.84C99.824 119.68 100.526 119.669 102.205 119.669C101.439 120.309 100.803 121.09 100.33 121.969C99.548 123.199 99.5825 123.28 98.2945 123.809C97.639 124.085 97.041 124.2 97.041 124.694C97.0391 124.794 97.068 124.891 97.1239 124.974C97.1798 125.057 97.2598 125.12 97.353 125.155C97.4462 125.19 97.548 125.196 97.6445 125.171C97.741 125.146 97.8275 125.092 97.892 125.016L98.6625 124.706C99.2155 124.544 99.7254 124.26 100.155 123.876C100.585 123.492 100.924 123.017 101.147 122.486C102.113 120.968 102.78 120.037 104.597 119.657C103.632 120.319 102.839 121.199 102.281 122.227C101.724 123.254 101.417 124.399 101.388 125.568C99.686 126.787 97.1675 128.892 96.282 130.778C95.3965 132.664 94.833 135.493 96.42 136.447C88.3363 140.338 81.8708 146.938 78.1465 155.1C74.9955 160.16 72.0975 166.715 72.523 172.707C71.9147 172.623 71.3119 172.504 70.7175 172.35ZM76.1225 100.705C76.6274 100.695 77.1193 100.865 77.5095 101.186C77.8996 101.506 78.1623 101.956 78.25 102.453C78.6065 104.017 77.2495 105.19 75.1335 104.466C73.0175 103.741 73.9605 100.82 76.1225 100.74V100.705ZM105.229 114.747C105.463 115.884 105.972 116.946 106.713 117.84C106.723 117.955 106.723 118.07 106.713 118.185C104.829 118.622 102.888 118.757 100.963 118.588C100.799 118.154 100.763 117.684 100.859 117.231C100.975 115.587 101.45 113.99 102.251 112.55C103.09 112.125 104.7 113.93 105.229 114.747ZM107.368 134.4C110.968 134.538 111.083 130.134 111.807 129.8C112.642 129.285 113.299 128.525 113.687 127.624C114.076 126.723 114.179 125.724 113.981 124.763C113.981 124.556 112.624 121.739 112.463 121.244C111.968 119.772 110.565 118.335 111.911 116.978C112.75 116 113.532 117.15 114.084 118.3C114.115 118.381 114.166 118.453 114.233 118.51C114.299 118.566 114.378 118.605 114.464 118.622C115.234 118.76 116.223 117.024 117.005 116.644C118.388 116.105 119.664 115.326 120.777 114.344C121.617 113.516 122.192 111.826 123.146 111.354C124.918 110.651 126.74 110.082 128.597 109.652C129 110.94 128.333 111.09 131.277 115.057C131.449 115.287 131.576 115.632 131.737 115.908C131.742 116.004 131.742 116.1 131.737 116.196C131.909 121.854 130.817 125.396 129.437 127.696C128.809 128.818 127.887 129.748 126.771 130.386C125.654 131.024 124.386 131.346 123.1 131.318C123.015 131.312 122.929 131.334 122.858 131.382C122.787 131.43 122.735 131.501 122.709 131.583C122.709 131.583 122.307 132.974 122.157 133.779C121.973 134.757 122.157 134.688 123.123 135.044C125.526 135.843 127.864 136.827 130.115 137.988C128.936 141.416 127.212 144.631 125.009 147.51C124.526 148.097 123.169 150.477 122.249 150.178C120.076 149.442 108.07 138.471 104.999 134.952L104.7 134.619C105.584 134.494 106.475 134.421 107.368 134.4ZM81.401 150.972C81.3673 150.982 81.3312 150.982 81.2975 150.972C81.3258 150.998 81.3623 151.014 81.401 151.018V150.972ZM91.9465 182.539C86.0585 183.459 78.342 183.436 75.191 178.388C70.453 170.844 75.3635 159.643 80.458 152.34C80.6765 152.018 81.24 151.19 81.493 150.937C86.6009 142.978 94.5155 137.231 103.665 134.837C105.287 137.137 119.282 150.19 121.985 151.098C123.652 151.65 124.94 149.166 125.78 148.108C128.045 145.144 129.806 141.825 130.989 138.287C134.451 140.012 137.717 142.105 140.73 144.532C139.414 149.074 138.137 153.629 136.9 158.194C136.636 156.378 136.097 154.614 135.302 152.961C135.281 152.917 135.245 152.882 135.201 152.863C135.156 152.844 135.106 152.842 135.06 152.857C135.014 152.873 134.976 152.906 134.952 152.948C134.929 152.991 134.922 153.04 134.934 153.088C135.057 154.515 135.33 155.926 135.75 157.297C135.953 158.001 136.219 158.686 136.544 159.344C135.106 164.496 133.899 168.843 133.68 169.613C126.251 169.832 126.987 169.855 127.056 169.74C127.528 168.958 126.711 167.888 126.079 167.244C125.328 166.566 124.448 166.046 123.491 165.716C122.535 165.386 121.522 165.253 120.513 165.324C119.89 165.325 119.268 165.363 118.65 165.439L118.719 164.082C118.724 163.984 118.698 163.888 118.644 163.807C118.59 163.726 118.511 163.665 118.42 163.633C112.957 161.713 104.401 159.976 97.8 160.379C98.8346 157.279 99.4646 154.06 99.6745 150.799C99.6785 150.752 99.665 150.704 99.6366 150.666C99.6082 150.628 99.5668 150.601 99.5203 150.591C99.4737 150.582 99.4251 150.589 99.3836 150.612C99.3421 150.636 99.3106 150.674 99.295 150.719C98.2799 153.86 97.6354 157.11 97.3745 160.402C93.9691 160.516 90.6664 161.597 87.8525 163.518C87.8348 163.535 87.8207 163.556 87.811 163.578C87.8014 163.601 87.7964 163.626 87.7964 163.65C87.7964 163.675 87.8014 163.699 87.811 163.722C87.8207 163.745 87.8348 163.765 87.8525 163.783C88.3125 164.404 90.1525 160.781 99.893 160.942C105.988 161.235 112.009 162.397 117.776 164.392L117.35 172.155C109.754 177.461 101.08 181.023 91.9465 182.585V182.539Z" fill="black"/>
<path d="M115.569 159.393V155H118.5V155.471H116.172V156.872H118.176V157.347H116.172V158.595C116.172 158.903 116.182 159.169 116.202 159.393H115.569Z" fill="black"/>
<path d="M118.939 160.677C118.731 160.677 118.538 160.63 118.36 160.536L118.471 160.056C118.613 160.172 118.765 160.23 118.927 160.23C119.067 160.23 119.18 160.188 119.266 160.104C119.354 160.022 119.429 159.898 119.491 159.732L119.62 159.399L118.354 156.05H118.957L119.683 158.01C119.723 158.12 119.759 158.233 119.791 158.349C119.825 158.465 119.849 158.553 119.863 158.613L119.884 158.706C119.974 158.492 120.066 158.262 120.16 158.016L120.691 156.638C120.763 156.448 120.82 156.252 120.862 156.05H121.408L119.965 159.816C119.853 160.104 119.716 160.319 119.554 160.461C119.392 160.605 119.187 160.677 118.939 160.677Z" fill="black"/>
<path d="M121.691 159.393V156.05H122.243V156.996C122.355 156.693 122.53 156.446 122.768 156.254C123.008 156.06 123.261 155.963 123.527 155.963C123.865 155.963 124.121 156.066 124.295 156.272C124.471 156.476 124.559 156.746 124.559 157.083V158.595C124.559 158.879 124.57 159.145 124.592 159.393H124.007V157.164C124.007 156.671 123.796 156.425 123.374 156.425C123.244 156.425 123.112 156.461 122.978 156.533C122.846 156.603 122.725 156.699 122.615 156.821C122.505 156.942 122.415 157.092 122.345 157.272C122.277 157.452 122.243 157.643 122.243 157.845V159.393H121.691Z" fill="black"/>
<path d="M126.411 159.48C125.981 159.48 125.632 159.318 125.364 158.994C125.098 158.668 124.965 158.244 124.965 157.722C124.965 157.204 125.1 156.781 125.37 156.455C125.64 156.127 125.989 155.963 126.417 155.963C126.653 155.963 126.868 156.032 127.062 156.17C127.258 156.308 127.411 156.495 127.521 156.731V155H128.076V158.595C128.076 158.903 128.086 159.169 128.106 159.393H127.521V158.7C127.411 158.94 127.258 159.13 127.062 159.27C126.868 159.41 126.651 159.48 126.411 159.48ZM125.832 156.785C125.648 157.026 125.556 157.338 125.556 157.722C125.556 158.106 125.648 158.418 125.832 158.658C126.016 158.898 126.254 159.018 126.546 159.018C126.818 159.018 127.048 158.907 127.236 158.685C127.426 158.463 127.521 158.195 127.521 157.881V157.551C127.521 157.239 127.425 156.974 127.233 156.755C127.043 156.535 126.814 156.425 126.546 156.425C126.254 156.425 126.016 156.545 125.832 156.785Z" fill="black"/>
<path d="M130.078 159.48C129.754 159.48 129.471 159.4 129.229 159.24C128.989 159.078 128.809 158.865 128.689 158.601C128.569 158.337 128.509 158.042 128.509 157.716C128.509 157.392 128.569 157.099 128.689 156.836C128.809 156.574 128.989 156.363 129.229 156.203C129.471 156.043 129.754 155.963 130.078 155.963C130.396 155.963 130.676 156.044 130.918 156.206C131.16 156.368 131.342 156.581 131.464 156.845C131.588 157.108 131.65 157.398 131.65 157.716C131.65 157.958 131.614 158.186 131.542 158.4C131.472 158.612 131.371 158.799 131.239 158.961C131.107 159.121 130.941 159.248 130.741 159.342C130.541 159.434 130.32 159.48 130.078 159.48ZM129.094 157.722C129.094 158.11 129.181 158.428 129.355 158.676C129.531 158.924 129.772 159.048 130.078 159.048C130.38 159.048 130.618 158.923 130.792 158.673C130.966 158.423 131.053 158.104 131.053 157.716C131.053 157.334 130.966 157.019 130.792 156.77C130.62 156.52 130.382 156.395 130.078 156.395C129.774 156.395 129.534 156.52 129.358 156.77C129.182 157.021 129.094 157.338 129.094 157.722Z" fill="black"/>
<path d="M111.136 157.739V159.393M111.127 155.139V156.793M109 157.266H110.655M111.6 157.266H113.255" stroke="black" stroke-width="0.8"/>
<path d="M157.14 156.998C159.579 157.176 162.027 157.176 164.466 156.998C164.532 156.993 164.596 156.974 164.654 156.942C164.711 156.91 164.761 156.865 164.8 156.811C164.838 156.757 164.864 156.696 164.876 156.631C164.888 156.565 164.885 156.498 164.868 156.434C164.776 155.376 162.637 152.248 161.855 151.432C161.464 151.018 161.349 151.029 160.947 151.432C159.469 152.88 158.168 154.497 157.071 156.25C156.933 156.549 156.887 156.837 157.14 156.998ZM161.372 151.432C161.904 152.026 162.356 152.687 162.718 153.398C163.275 154.341 163.759 155.326 164.167 156.342C163.132 156.342 158.923 156.469 157.761 156.342C158.855 154.628 160.062 152.987 161.372 151.432ZM170.25 110.894C172.099 110.74 173.86 110.039 175.31 108.882C176.793 107.858 178.091 106.59 179.151 105.133C179.404 104.742 178.841 104.65 178.829 104.949C176.994 106.522 175.049 107.963 173.01 109.261C172.139 109.82 171.195 110.253 170.204 110.549C170.174 110.57 170.151 110.598 170.137 110.631C170.122 110.664 170.117 110.7 170.122 110.736C170.126 110.772 170.141 110.805 170.164 110.833C170.186 110.861 170.216 110.882 170.25 110.894ZM178.818 104.972C178.828 105.035 178.86 105.092 178.91 105.133C178.878 105.119 178.852 105.097 178.833 105.068C178.815 105.04 178.806 105.006 178.806 104.972H178.818ZM124.63 124.798C124.615 124.847 124.62 124.899 124.644 124.944C124.667 124.99 124.708 125.024 124.756 125.039C125.032 125.177 125.435 125.407 125.906 125.58C126.769 125.925 127.631 125.913 127.907 125.028C128.051 124.125 128.051 123.205 127.907 122.302C127.806 121.436 127.61 120.584 127.321 119.761C127.311 119.709 127.282 119.663 127.239 119.633C127.196 119.603 127.142 119.591 127.091 119.6C127.039 119.609 126.993 119.639 126.962 119.682C126.932 119.725 126.92 119.778 126.93 119.83V121.624C127.024 122.672 127.024 123.727 126.93 124.775C126.93 124.878 126.815 124.901 126.723 124.913C125.711 125.016 124.745 124.441 124.63 124.798ZM123.974 120.129C123.979 119.915 124.01 119.703 124.066 119.496C124.097 119.441 124.117 119.379 124.124 119.316C124.131 119.252 124.126 119.188 124.108 119.127C124.091 119.065 124.061 119.008 124.021 118.958C123.981 118.908 123.932 118.866 123.876 118.835C123.82 118.804 123.759 118.785 123.696 118.777C123.632 118.77 123.568 118.776 123.506 118.793C123.445 118.811 123.388 118.84 123.338 118.88C123.288 118.92 123.246 118.969 123.215 119.025C123.065 119.389 122.99 119.781 122.997 120.175C123.019 120.292 123.083 120.396 123.177 120.469C123.27 120.543 123.387 120.58 123.505 120.574C123.624 120.569 123.736 120.521 123.823 120.439C123.909 120.357 123.962 120.247 123.974 120.129ZM130.368 120.117C130.38 120.03 130.367 119.942 130.331 119.862C130.294 119.781 130.237 119.713 130.164 119.664C130.091 119.615 130.006 119.587 129.918 119.584C129.83 119.581 129.743 119.602 129.667 119.646C129.241 119.864 129.425 120.451 129.425 120.796C129.425 120.924 129.476 121.047 129.567 121.138C129.657 121.228 129.78 121.279 129.908 121.279C130.036 121.279 130.159 121.228 130.25 121.138C130.34 121.047 130.391 120.924 130.391 120.796C130.372 120.57 130.364 120.344 130.368 120.117ZM122.514 116.483C123.017 116.423 123.528 116.454 124.02 116.575C125.17 116.794 125.17 116.978 125.274 116.794C125.377 116.61 124.664 115.92 124.308 115.747C123.697 115.495 123.026 115.423 122.376 115.54C121.686 115.667 120.685 116.299 120.823 116.564C120.961 116.828 120.961 116.61 122.514 116.483ZM129.931 117.518L130.299 117.645C130.414 117.645 131.139 117.829 131.219 117.725C131.3 117.622 130.92 116.943 130.61 116.759C129.632 116.184 128.689 116.863 128.839 117.173C129.196 117.309 129.561 117.424 129.931 117.518ZM124.998 128.006C124.71 127.957 124.433 127.856 124.181 127.707C123.871 127.554 123.584 127.357 123.33 127.121C122.882 126.741 122.422 126.385 122.33 126.281C122.302 126.244 122.263 126.217 122.218 126.206C122.173 126.195 122.125 126.201 122.084 126.222C122.043 126.242 122.01 126.277 121.992 126.32C121.973 126.362 121.971 126.41 121.985 126.454C122.238 127.983 123.859 129.053 125.09 128.386C125.4 128.34 125.251 127.949 124.998 128.006ZM280.88 156.25C281.191 156.25 281.559 156.25 281.662 155.859C282.053 154.445 282.387 151.892 281.283 150.926C278.557 148.557 192.146 150.684 191.054 151.087C189.961 151.489 189.904 154.709 190.111 156.089C190.111 156.423 190.674 156.561 190.996 156.641C189.317 167.371 190.456 220.524 190.778 232.174C187.914 230.207 179.795 224.951 176.38 224.399C175.747 224.307 176.38 221.789 174.735 220.949C174.499 220.83 174.226 220.806 173.973 220.883C173.72 220.96 173.507 221.133 173.378 221.363C173.011 221.972 172.714 222.62 172.493 223.296C172.228 223.525 171.262 223.445 170.917 223.41C168.41 223.146 165.731 222.26 165.018 223.583C164.889 223.859 164.847 224.167 164.899 224.467C164.95 224.767 165.092 225.045 165.305 225.262C166.536 226.412 171.515 227.815 172.826 228.367C173.976 230.587 180.474 247.836 191.606 255.288C191.675 256.818 192.204 269.192 192.974 270.1C193.998 271.25 210.673 270.94 212.076 271.066C221.276 271.837 260.525 269.353 283.445 268.766C283.663 268.766 283.974 268.594 284.158 268.088C286.642 261.004 282.743 171.798 280.88 156.25ZM190.548 155.997C190.272 154.077 190.72 151.616 191.18 151.397C191.64 151.179 276.28 149.833 280.65 151.627C280.937 152.02 281.079 152.499 281.053 152.984C281.083 153.759 281.002 154.533 280.811 155.284C280.708 155.284 216.02 156.86 208.361 156.848C206.625 156.894 191.916 156.94 190.548 156.043V155.997ZM270.427 239.821C272.727 243.938 275.786 253.621 277.12 258.163C273.118 258.52 257.846 260.015 255.35 260.555C255.235 260.555 255.35 260.751 254.89 258.255C254.637 256.864 253.533 252.356 253.476 252.126C252.912 249.952 252.659 249.309 252.326 248.089C252.31 248.045 252.278 248.007 252.237 247.983C252.195 247.96 252.147 247.952 252.1 247.962C252.054 247.972 252.012 247.999 251.984 248.037C251.956 248.075 251.942 248.123 251.946 248.17C252.084 249.32 252.234 250.654 252.464 251.827C252.464 251.942 256.316 268.755 256.351 268.87C252.717 269.042 214.606 270.974 211.236 270.135C211.57 266.42 212.007 263.143 212.455 260.383C212.455 260.268 216.791 237.969 216.848 237.705C216.859 237.658 216.853 237.608 216.829 237.566C216.806 237.523 216.767 237.491 216.721 237.475C216.675 237.459 216.625 237.461 216.581 237.48C216.536 237.499 216.5 237.534 216.48 237.578C214.988 241.46 214.133 245.557 213.95 249.711C212.421 248.021 199.817 234.059 199 232.576C203.335 228.798 208.192 225.664 213.421 223.272C218.308 220.987 223.537 219.519 228.9 218.925C228.266 219.338 227.738 219.893 227.359 220.547C226.934 221.501 227.98 222.951 228.992 223.319C235.72 225.78 241.217 224.1 244.264 220.662C244.931 219.914 244.897 219.753 244.92 219.316C256.075 222.41 264.32 228.701 270.427 239.867V239.821ZM257.19 268.479C256.615 266.179 256.408 264.569 255.799 261.498C256.167 261.441 275.107 259.198 277.327 258.934C278.246 261.818 278.93 264.772 279.374 267.766C276.372 267.915 260.157 268.881 257.19 268.479ZM229.015 205.999C230.017 202.463 231.569 199.106 233.615 196.052C235.558 196.604 237.617 196.604 239.561 196.052C239.4 196.811 240.193 197.202 240.941 197.455C240.77 197.724 240.655 198.024 240.602 198.338C240.549 198.652 240.558 198.973 240.63 199.283C240.679 199.574 240.795 199.848 240.969 200.086C241.143 200.323 241.369 200.517 241.631 200.652C242.013 200.84 242.426 200.961 242.85 201.008C242.632 201.403 242.518 201.846 242.518 202.296C242.518 202.747 242.632 203.19 242.85 203.584C243.057 203.911 243.337 204.186 243.666 204.389C243.47 204.572 243.299 204.781 243.16 205.01C242.447 206.413 242.068 208.783 243.574 209.3C243.829 209.376 244.103 209.348 244.337 209.223C244.572 209.098 244.748 208.886 244.828 208.633C245.299 207.632 246.139 207.287 246.564 208.265C247.116 209.518 244.908 210.726 244.322 211.715C244.046 212.163 243.505 212.715 243.827 213.371C243.954 213.635 243.908 213.371 243.919 213.969C244.034 219.868 244.218 219.305 243.563 220.041C240.757 223.169 235.639 224.733 229.314 222.41C229.03 222.283 228.779 222.092 228.58 221.853C228.38 221.614 228.238 221.332 228.164 221.03C228.164 220.938 228.222 220.857 228.302 220.754C229.028 219.979 229.856 219.306 230.763 218.753C231.12 218.489 231.2 218.316 231.396 217.603C231.591 216.89 231.66 216.223 231.798 215.809C232.442 213.888 227.118 213.957 229.015 205.999ZM240.32 183.62C239.765 183.306 239.134 183.151 238.496 183.173C237.859 183.196 237.24 183.394 236.709 183.747C233.339 183.873 198.598 185.299 195.642 183.747C195.562 183.137 195.493 181.286 195.447 178.802C197.873 179.653 211.087 179.664 213.663 179.676C215.526 179.676 248.347 178.94 253.694 178.721C256.075 178.618 275.786 177.571 276.315 177.468C276.349 179.057 276.299 180.646 276.165 182.229C276.165 182.229 256.558 183.022 240.32 183.62ZM276.211 171.453C221.23 172.695 197.413 173.477 195.355 172.603V166.416C199.955 167.566 241.573 166.589 245.207 166.485C249.117 166.37 273.52 165.335 276.016 165.174C276.05 167.221 276.154 169.372 276.211 171.453ZM195.366 173.063C199.219 174.328 242.712 173.236 245.345 173.167C249.29 173.052 274.095 171.948 276.223 171.844C276.223 173.719 276.303 175.524 276.315 177.1C242.7 177.997 198.471 179.802 195.435 178.411C195.401 176.812 195.378 174.972 195.366 173.063ZM275.981 164.795C231.879 165.795 197.781 166.842 195.332 166.048V160.816C199.771 162.035 242.056 160.977 245.219 160.885C248.197 160.804 272.819 159.815 275.648 159.608C275.797 161.092 275.901 162.874 275.981 164.795ZM275.682 159.183C231.292 160.195 197.643 161.241 195.401 160.413C195.401 159.505 195.401 158.113 195.539 157.182C211.892 158.182 248.324 157.078 275.441 156.446C275.533 157.239 275.625 158.401 275.682 159.183ZM191.376 156.768C192.622 156.963 193.877 157.093 195.136 157.159C194.711 161.632 194.722 182.045 194.987 183.942C195.001 184.033 195.038 184.119 195.094 184.191C195.15 184.264 195.224 184.32 195.309 184.356C196.304 184.691 197.342 184.88 198.391 184.92C198.111 188.92 198.227 192.937 198.736 196.914C195.044 197.363 194.688 203.044 199.667 202.17C203.232 202.009 202.496 196.949 199.161 196.891C199.426 192.906 199.299 188.904 198.782 184.943C207.05 185.552 222.552 185.127 230.844 184.862C230.292 185.203 229.802 185.635 229.395 186.139C227.486 188.347 229.165 192.314 231.108 194.453C231.614 195.007 232.224 195.456 232.902 195.776C229.452 200.847 225.278 209.507 229.452 214.026C229.985 214.473 230.478 214.965 230.924 215.498C230.74 216.096 230.556 217.361 230.326 217.913C230.016 218.132 230.096 218.097 229.935 218.109C224.095 218.651 218.398 220.229 213.111 222.766C207.805 225.231 202.897 228.475 198.552 232.392C198.402 232.542 198.437 232.691 200.127 234.692L196.815 236.888C195.204 235.343 193.457 233.945 191.594 232.714C191.203 220.881 189.8 167.647 191.376 156.768ZM199.058 197.857C199.553 197.846 200.037 198.011 200.422 198.323C200.807 198.634 201.07 199.073 201.162 199.559C201.53 201.123 200.173 202.308 198.057 201.572C195.941 200.836 196.896 197.926 199.058 197.857ZM180.497 241.488C177.918 237.206 175.665 232.735 173.758 228.114C173.574 227.735 173.551 227.654 172.803 227.378C170.549 226.709 168.353 225.859 166.237 224.836C166.109 224.756 165.993 224.66 165.892 224.549C165.731 224.066 165.892 223.997 166.225 223.928C167.732 223.663 170.825 224.698 172.389 224.365C172.634 224.35 172.868 224.257 173.056 224.1C173.244 223.943 173.377 223.729 173.436 223.491C173.516 223.284 174.045 221.674 174.333 221.812C175.563 222.433 174.609 225.066 176.253 225.319C180.175 225.883 194.343 234.818 196.574 237.417C196.617 237.46 196.674 237.483 196.735 237.483C196.795 237.483 196.853 237.46 196.896 237.417L200.346 235.014C203.508 238.855 210.615 246.928 213.847 250.574C213.594 251.447 207.43 257.347 204.336 257.818C194.113 259.394 185.948 250.343 180.497 241.488ZM193.653 269.502C193.101 267.812 192.583 257.703 192.503 255.91C196.036 258.212 200.296 259.125 204.463 258.474C207.177 258.014 211.731 253.874 213.571 251.689C212.077 257.737 211.031 263.887 210.443 270.089C202.278 270.238 196.263 270.1 193.653 269.502ZM283.215 267.881L280.351 267.961C280.547 264.937 274.44 245.191 271.266 239.407C265.033 228.079 256.627 221.582 244.92 218.442C244.92 217.534 244.92 216.591 244.77 214.049C244.975 214.05 245.178 214.007 245.365 213.921C245.552 213.836 245.718 213.711 245.851 213.555C246.237 213.855 246.692 214.057 247.174 214.141C248.956 214.452 251.843 212.692 251.624 211.174C252.547 211.199 253.455 210.938 254.223 210.427C255.546 209.599 257.087 207.828 256.891 206.367C256.696 204.907 256.236 205.758 257.363 205.033C258.465 204.264 259.244 203.112 259.548 201.802C259.685 200.955 259.655 200.09 259.457 199.255C259.26 198.42 258.9 197.633 258.398 196.938C258.22 196.693 257.98 196.5 257.703 196.379C257.426 196.258 257.122 196.212 256.822 196.247C256.707 196.247 256.73 196.328 257.098 195.615C257.213 195.423 257.294 195.213 257.34 194.994C257.393 194.222 257.276 193.447 256.996 192.725C256.715 192.004 256.279 191.353 255.718 190.819C255.378 190.466 254.941 190.221 254.462 190.117C253.983 190.012 253.483 190.053 253.027 190.233C253.027 190.233 252.521 190.451 252.36 190.497C252.36 190.083 252.418 189.508 252.36 189.347C252.278 188.729 252.054 188.138 251.705 187.621C251.356 187.104 250.891 186.676 250.348 186.369C249.039 185.875 247.596 185.875 246.288 186.369C245.948 185.506 245.312 184.793 244.494 184.356C245.242 184.356 275.774 183.206 276.533 183.206C276.636 183.201 276.734 183.164 276.814 183.1C276.895 183.036 276.953 182.949 276.982 182.85C277.66 180.389 276.798 160.241 276.349 156.4L279.972 156.308C282.122 174.167 285.4 261.142 283.215 267.881Z" fill="black"/>
<path d="M232.465 201.756L232.994 201.008C233.067 200.903 233.096 200.773 233.073 200.647C233.05 200.521 232.978 200.409 232.873 200.336C232.768 200.262 232.638 200.234 232.512 200.257C232.386 200.279 232.274 200.351 232.201 200.456L231.66 201.204C231.587 201.311 231.559 201.442 231.583 201.569C231.606 201.697 231.68 201.809 231.787 201.882C231.893 201.956 232.025 201.983 232.152 201.96C232.279 201.936 232.392 201.863 232.465 201.756ZM233.167 207.011C233.374 207.161 233.592 206.839 233.374 206.689C232.672 206.057 232.316 205.735 232.155 205.539C231.994 205.344 232.086 205.39 232.155 205.263C232.373 204.746 233.305 203.619 234.719 201.468C234.753 201.429 234.769 201.377 234.765 201.326C234.76 201.274 234.736 201.226 234.696 201.192C234.656 201.159 234.605 201.142 234.553 201.147C234.501 201.151 234.454 201.176 234.42 201.215C233.625 201.845 232.904 202.563 232.269 203.354C230.418 205.7 231.016 205.999 233.167 207.011ZM236.536 204.159C236.64 203.906 236.847 203.573 236.973 203.297C236.999 203.239 237.014 203.176 237.016 203.112C237.018 203.048 237.008 202.985 236.986 202.925C236.963 202.865 236.929 202.81 236.886 202.764C236.842 202.717 236.79 202.679 236.732 202.653C236.673 202.626 236.611 202.612 236.547 202.61C236.483 202.607 236.419 202.618 236.359 202.64C236.3 202.663 236.245 202.697 236.198 202.74C236.152 202.784 236.114 202.836 236.088 202.894C235.973 203.147 235.777 203.458 235.639 203.791C235.615 203.85 235.603 203.913 235.603 203.977C235.603 204.041 235.616 204.104 235.64 204.162C235.665 204.221 235.701 204.274 235.746 204.319C235.791 204.364 235.845 204.4 235.904 204.424C235.962 204.448 236.025 204.46 236.089 204.46C236.153 204.46 236.216 204.447 236.275 204.423C236.333 204.398 236.387 204.362 236.431 204.317C236.476 204.272 236.512 204.218 236.536 204.159ZM232.672 211.013C233.028 211.07 233.393 211.043 233.736 210.933C234.08 210.823 234.393 210.634 234.65 210.381C234.883 210.113 235.038 209.787 235.099 209.438C235.118 209.416 235.133 209.39 235.141 209.362C235.149 209.333 235.151 209.304 235.146 209.275C235.141 209.246 235.13 209.218 235.113 209.194C235.096 209.17 235.073 209.15 235.048 209.136C235.022 209.122 234.993 209.114 234.964 209.112C234.934 209.11 234.905 209.115 234.878 209.127C234.851 209.138 234.826 209.155 234.807 209.177C234.787 209.199 234.773 209.226 234.765 209.254C234.365 209.573 233.919 209.829 233.443 210.013C232.943 210.142 232.428 210.2 231.913 210.185C231.889 210.171 231.862 210.161 231.834 210.158C231.806 210.155 231.778 210.158 231.751 210.166C231.724 210.175 231.7 210.189 231.679 210.208C231.658 210.227 231.642 210.251 231.631 210.277C231.62 210.303 231.615 210.331 231.616 210.359C231.617 210.387 231.624 210.414 231.636 210.44C231.649 210.465 231.667 210.487 231.689 210.505C231.711 210.522 231.736 210.535 231.764 210.542C232.023 210.772 232.335 210.934 232.672 211.013ZM238.974 241.454C236.456 239.499 233.695 240.246 231.533 242.604C229.774 238.97 226.52 237.854 222.575 240.913C216.63 245.513 226.945 258.393 228.325 258.842C228.443 258.888 228.575 258.888 228.693 258.842C229.188 258.577 240.791 252.344 241.343 246.261C241.413 245.321 241.231 244.38 240.814 243.534C240.397 242.689 239.762 241.971 238.974 241.454Z" fill="black"/>
</g>
<defs>
<clipPath id="clip0_179_672">
<rect width="226" height="226" fill="white" transform="translate(63 47)"/>
</clipPath>
</defs>
</svg>
