<svg width="56" height="56" viewBox="0 0 56 56" fill="none" xmlns="http://www.w3.org/2000/svg">
<path d="M23.9172 36.5043C23.9172 36.5043 22.7283 37.1957 24.7633 37.4296C27.2286 37.7108 28.4885 37.6706 31.2054 37.1563C31.2054 37.1563 31.9197 37.6042 32.9171 37.9921C26.8269 40.6023 19.1335 37.8409 23.9172 36.5043ZM23.173 33.0981C23.173 33.0981 21.8395 34.0852 23.876 34.2958C26.5095 34.5675 28.5893 34.5897 32.188 33.8968C32.188 33.8968 32.6858 34.4014 33.4685 34.6774C26.1049 36.8306 17.9032 34.8472 23.173 33.0981Z" fill="#5382A1"/>
<path d="M29.4469 27.3203C30.9476 29.048 29.0527 30.6027 29.0527 30.6027C29.0527 30.6027 32.863 28.6357 31.1131 26.1724C29.4787 23.8754 28.2253 22.734 35.0106 18.7988C35.0106 18.7988 24.36 21.4588 29.4469 27.3202" fill="#E76F00"/>
<path d="M37.5018 39.0239C37.5018 39.0239 38.3816 39.7487 36.5328 40.3096C33.0175 41.3746 21.9013 41.6961 18.8133 40.352C17.7033 39.8692 19.785 39.199 20.4397 39.0583C21.1226 38.9102 21.5129 38.9379 21.5129 38.9379C20.2784 38.0682 13.5336 40.6455 18.0869 41.3835C30.5044 43.3973 40.7227 40.4768 37.5018 39.0239ZM24.4888 29.5691C24.4888 29.5691 18.8346 30.9122 22.4866 31.3998C24.0285 31.6062 27.1024 31.5596 29.9657 31.3196C32.3058 31.1223 34.6554 30.7026 34.6554 30.7026C34.6554 30.7026 33.8303 31.0559 33.2334 31.4635C27.4915 32.9737 16.3991 32.2712 19.5925 30.7264C22.2931 29.421 24.4889 29.5691 24.4889 29.5691H24.4888ZM34.6321 35.2388C40.4691 32.2057 37.7703 29.291 35.8866 29.6837C35.4249 29.7797 35.2191 29.863 35.2191 29.863C35.2191 29.863 35.3905 29.5945 35.7178 29.4783C39.4443 28.1681 42.3103 33.3424 34.5148 35.3917C34.5148 35.3918 34.6052 35.3111 34.6321 35.2388Z" fill="#5382A1"/>
<path d="M31.1131 12.4444C31.1131 12.4444 34.3457 15.6782 28.0471 20.6506C22.9963 24.6394 26.8954 26.9137 28.045 29.5122C25.0968 26.8522 22.9331 24.5105 24.3847 22.3312C26.5151 19.1319 32.4173 17.5808 31.1131 12.4443" fill="#E76F00"/>
<path d="M25.0625 43.4575C30.6652 43.8161 39.2688 43.2585 39.4726 40.6074C39.4726 40.6074 39.0809 41.6125 34.8422 42.4106C30.0602 43.3105 24.1622 43.2054 20.6641 42.6287C20.6642 42.6287 21.3802 43.2214 25.0626 43.4575" fill="#5382A1"/>
</svg>
