<svg width="56" height="56" viewBox="0 0 56 56" fill="none" xmlns="http://www.w3.org/2000/svg">
<path d="M26.7262 12.7762C27.4976 12.3347 28.5024 12.3327 29.2732 12.7762C33.1507 14.9673 37.0295 17.1549 40.9064 19.3472C41.6356 19.758 42.1234 20.5695 42.1159 21.4097V34.5918C42.1214 35.4668 41.5854 36.2977 40.8161 36.6991C36.9513 38.8781 33.0884 41.0597 29.2243 43.2386C28.4369 43.6888 27.412 43.6541 26.6492 43.167C25.4906 42.4954 24.3299 41.827 23.1711 41.156C22.9343 41.0148 22.6674 40.9024 22.5002 40.6729C22.648 40.4736 22.9123 40.4488 23.127 40.3618C23.6107 40.208 24.0549 39.9612 24.4992 39.7216C24.6116 39.6447 24.7487 39.6742 24.8564 39.743C25.8472 40.3111 26.8293 40.8957 27.8234 41.4583C28.0355 41.5808 28.2502 41.4182 28.4315 41.3172C32.2241 39.1737 36.0213 37.0383 39.8132 34.8941C39.9537 34.8265 40.0314 34.6774 40.02 34.5235C40.0226 30.175 40.0206 25.8258 40.0213 21.4773C40.0374 21.3027 39.9363 21.1421 39.7784 21.0707C35.927 18.9017 32.0776 16.7294 28.2268 14.5598C28.1601 14.514 28.0811 14.4894 28.0001 14.4893C27.9192 14.4891 27.8401 14.5135 27.7732 14.5592C23.9225 16.7294 20.0737 18.9037 16.223 21.0725C16.0656 21.1441 15.96 21.302 15.9788 21.4773C15.9794 25.8258 15.9788 30.175 15.9788 34.5242C15.9721 34.5993 15.9886 34.6746 16.026 34.74C16.0635 34.8055 16.12 34.8579 16.1882 34.8902C17.2158 35.4729 18.2447 36.0515 19.2729 36.6322C19.8522 36.944 20.5635 37.1293 21.2017 36.8904C21.7649 36.6884 22.1597 36.1136 22.1489 35.5156C22.1543 31.1925 22.1463 26.8688 22.1529 22.5463C22.1389 22.3544 22.3209 22.1959 22.5075 22.2139C23.0012 22.2106 23.4957 22.2073 23.9894 22.2152C24.1955 22.2106 24.3373 22.4172 24.3118 22.6106C24.3098 26.9611 24.3171 31.3116 24.3085 35.6621C24.3098 36.8216 23.8335 38.0832 22.761 38.6505C21.4398 39.3349 19.8068 39.1898 18.5015 38.5335C17.3716 37.9695 16.2932 37.3039 15.1833 36.6997C14.412 36.3005 13.8787 35.4662 13.8841 34.5919V21.4097C13.876 20.5521 14.3832 19.7258 15.1351 19.3211C18.9993 17.1403 22.8627 14.958 26.7262 12.7762Z" fill="#8CC84B"/>
<path d="M30.0973 21.9077C31.7826 21.7992 33.5868 21.8434 35.1034 22.6737C36.2775 23.3099 36.9285 24.6452 36.9492 25.9497C36.9164 26.1257 36.7325 26.2227 36.5645 26.2106C36.0755 26.21 35.5865 26.2173 35.0975 26.2073C34.8901 26.2153 34.7695 26.0241 34.7435 25.8407C34.603 25.2165 34.2626 24.5984 33.6751 24.2973C32.7733 23.8458 31.7276 23.8685 30.7442 23.8779C30.0264 23.916 29.2544 23.9782 28.6462 24.4003C28.1793 24.7201 28.0374 25.3657 28.2041 25.8856C28.3612 26.2588 28.7921 26.3793 29.1447 26.4903C31.1757 27.0215 33.328 26.9687 35.3202 27.6677C36.145 27.9527 36.9519 28.5067 37.2342 29.3703C37.6035 30.5278 37.4416 31.9113 36.6182 32.8405C35.9503 33.6051 34.9777 34.0213 34.0076 34.2473C32.7171 34.5351 31.3778 34.5424 30.0672 34.4146C28.8349 34.2741 27.5524 33.9504 26.6011 33.1107C25.7876 32.4043 25.3902 31.3037 25.4297 30.2415C25.4391 30.0621 25.6177 29.937 25.7896 29.9517C26.282 29.9477 26.7744 29.9464 27.2668 29.9524C27.4635 29.9383 27.6093 30.1083 27.6194 30.2936C27.7102 30.8883 27.9337 31.5125 28.4523 31.8651C29.4531 32.5107 30.7088 32.4665 31.8547 32.4846C32.8041 32.4424 33.8698 32.4297 34.6445 31.8022C35.0533 31.4443 35.1744 30.8456 35.0639 30.3304C34.9442 29.8955 34.4893 29.6929 34.0986 29.5603C32.0936 28.9261 29.9173 29.1562 27.9317 28.439C27.1256 28.1541 26.3461 27.6155 26.0364 26.7874C25.6043 25.6153 25.8023 24.1656 26.7121 23.2677C27.5992 22.3746 28.8798 22.0307 30.0973 21.9076V21.9077Z" fill="#8CC84B"/>
</svg>
