<svg width="57" height="56" viewBox="0 0 57 56" fill="none" xmlns="http://www.w3.org/2000/svg">
<path fill-rule="evenodd" clip-rule="evenodd" d="M19.1277 23.9854L28.4334 41.9958L12.7922 23.9854H19.1277Z" fill="#EA6C00"/>
<path fill-rule="evenodd" clip-rule="evenodd" d="M37.7417 23.9854L28.436 41.9958L44.0771 23.9854H37.7417Z" fill="#EA6C00"/>
<path fill-rule="evenodd" clip-rule="evenodd" d="M19.1274 23.9854H37.7387L28.433 41.9958L19.1274 23.9854Z" fill="#FDAD00"/>
<path fill-rule="evenodd" clip-rule="evenodd" d="M28.433 14.0039L19.6172 14.9254L19.1274 23.9853L28.433 14.0039Z" fill="#FDD231"/>
<path fill-rule="evenodd" clip-rule="evenodd" d="M28.433 14.0039L37.2489 14.9254L37.7387 23.9853L28.433 14.0039Z" fill="#FDD231"/>
<path fill-rule="evenodd" clip-rule="evenodd" d="M44.0771 23.9852L37.2519 14.9253L37.7417 23.9852H44.0771Z" fill="#FDAD00"/>
<path fill-rule="evenodd" clip-rule="evenodd" d="M12.7922 23.9852L19.6175 14.9253L19.1277 23.9852H12.7922Z" fill="#FDAD00"/>
<path fill-rule="evenodd" clip-rule="evenodd" d="M28.433 14.0039L19.1274 23.9853H37.7387L28.433 14.0039Z" fill="#FEEEB7"/>
</svg>
