<svg width="57" height="56" viewBox="0 0 57 56" fill="none" xmlns="http://www.w3.org/2000/svg">
<path d="M41.4657 12.4443H15.8529C14.2866 12.4443 13.0168 13.707 13.0168 15.2646V40.7352C13.0168 42.2928 14.2866 43.5554 15.8529 43.5554H41.4657C43.032 43.5554 44.3018 42.2928 44.3018 40.7352V15.2646C44.3018 13.707 43.032 12.4443 41.4657 12.4443Z" fill="#DC395F"/>
<path d="M23.4722 22.2329C24.5122 22.2329 25.3834 21.4223 25.3834 20.3599C25.3834 19.2983 24.5122 18.4878 23.4722 18.4878C22.4322 18.4878 21.5613 19.2983 21.5613 20.3599C21.5613 21.4222 22.4322 22.2329 23.4722 22.2329ZM19.5095 32.2614C19.3972 32.7366 19.3409 33.2497 19.3409 33.6682C19.3409 35.3175 20.2402 36.4123 22.1514 36.4123C23.7364 36.4123 25.0214 35.4763 25.9467 33.9649L25.3817 36.2196H28.5291L30.328 29.0447C30.7777 27.2281 31.6489 26.2852 32.97 26.2852C34.0099 26.2852 34.6562 26.9283 34.6562 27.9899C34.6562 28.2975 34.6281 28.6326 34.5157 28.9961L33.5881 32.294C33.4476 32.7692 33.3916 33.2446 33.3916 33.6914C33.3916 35.2571 34.3188 36.4022 36.2581 36.4022C37.9163 36.4022 39.2371 35.3407 39.9679 32.7972L38.7314 32.3225C38.1131 34.0265 37.579 34.3346 37.1574 34.3346C36.7358 34.3346 36.5109 34.0553 36.5109 33.4966C36.5109 33.2451 36.5674 32.9659 36.6515 32.6298L37.551 29.4168C37.7758 28.6624 37.8602 27.9934 37.8602 27.3787C37.8602 24.9751 36.3986 23.7207 34.6281 23.7207C32.97 23.7207 31.2836 25.2081 30.4406 26.7735L31.0587 23.9637H26.253L25.5785 26.4385H27.8269L26.4423 31.951C25.3551 34.3546 23.3578 34.3936 23.1072 34.3378C22.6956 34.2455 22.4324 34.09 22.4324 33.5582C22.4324 33.2514 22.4886 32.8106 22.6291 32.2792L24.7372 23.9637H19.3972L18.7227 26.4385H20.9428L19.5097 32.2614" fill="white"/>
</svg>
