<svg width="57" height="56" viewBox="0 0 57 56" fill="none" xmlns="http://www.w3.org/2000/svg">
<path d="M15.2337 25.7079C15.1731 25.7079 15.158 25.6776 15.1883 25.6322L15.5064 25.2232C15.5367 25.1777 15.6124 25.1474 15.673 25.1474H21.0807C21.1413 25.1474 21.1564 25.1929 21.1261 25.2383L20.8686 25.6322C20.8383 25.6776 20.7626 25.723 20.7171 25.723L15.2337 25.7079ZM12.9465 27.1015C12.8859 27.1015 12.8707 27.0712 12.901 27.0257L13.2191 26.6167C13.2494 26.5713 13.3251 26.541 13.3857 26.541H20.293C20.3536 26.541 20.3839 26.5865 20.3687 26.6319L20.2476 26.9954C20.2324 27.056 20.1718 27.0863 20.1112 27.0863L12.9465 27.1015ZM16.6122 28.495C16.5516 28.495 16.5364 28.4496 16.5667 28.4042L16.7788 28.0255C16.8091 27.98 16.8697 27.9346 16.9303 27.9346H19.9598C20.0203 27.9346 20.0506 27.98 20.0506 28.0406L20.0203 28.4042C20.0203 28.4647 19.9598 28.5102 19.9143 28.5102L16.6122 28.495ZM32.3353 25.4352C31.381 25.6776 30.7296 25.8594 29.7905 26.1017C29.5633 26.1623 29.5481 26.1775 29.3512 25.9503C29.124 25.6928 28.9574 25.5261 28.6393 25.3747C27.685 24.9051 26.761 25.0414 25.8976 25.6019C24.8675 26.2684 24.3374 27.2529 24.3525 28.4799C24.3677 29.6917 25.2008 30.6914 26.3974 30.8581C27.4275 30.9944 28.2909 30.6308 28.9725 29.8583C29.1089 29.6917 29.23 29.5099 29.3815 29.2979H26.458C26.1399 29.2979 26.0642 29.1009 26.1702 28.8434C26.3672 28.3739 26.7307 27.5862 26.9428 27.1924C26.9882 27.1015 27.0942 26.95 27.3214 26.95H32.8351C32.8048 27.359 32.8048 27.768 32.7443 28.1769C32.5776 29.2676 32.1686 30.2673 31.5022 31.1459C30.4115 32.5849 28.9877 33.4786 27.1851 33.7209C25.7007 33.9178 24.3222 33.63 23.1104 32.7212C21.9895 31.8729 21.3533 30.752 21.1867 29.3584C20.9898 27.7074 21.4745 26.2229 22.4742 24.9202C23.5497 23.5115 24.9736 22.6178 26.7155 22.2997C28.1394 22.0422 29.5027 22.2088 30.7296 23.0419C31.5325 23.5721 32.1081 24.2992 32.4867 25.1777C32.5776 25.3141 32.517 25.3898 32.3353 25.4352Z" fill="#00ACD7"/>
<path d="M37.3491 33.8117C35.9706 33.7814 34.7134 33.3876 33.6531 32.4787C32.7594 31.7062 32.1989 30.7216 32.0171 29.5552C31.7445 27.8436 32.2141 26.3288 33.2441 24.9807C34.3499 23.5265 35.6828 22.7692 37.4854 22.4511C39.0304 22.1784 40.4846 22.3299 41.8024 23.2236C42.9991 24.0415 43.7413 25.1473 43.9382 26.6015C44.1957 28.6464 43.605 30.3126 42.1963 31.7365C41.1965 32.7514 39.9696 33.3876 38.5609 33.6754C38.1519 33.7511 37.7429 33.7662 37.3491 33.8117ZM40.9542 27.6921C40.939 27.4952 40.939 27.3437 40.9087 27.1922C40.6361 25.6926 39.2576 24.8444 37.8186 25.1776C36.4099 25.4957 35.5011 26.3894 35.1678 27.8133C34.8952 28.9948 35.4708 30.1914 36.5614 30.6762C37.3945 31.0397 38.2276 30.9943 39.0304 30.5853C40.2271 29.9642 40.8784 28.9948 40.9542 27.6921Z" fill="#00ACD7"/>
</svg>
