<svg width="56" height="56" viewBox="0 0 56 56" fill="none" xmlns="http://www.w3.org/2000/svg">
<path d="M42.3366 35.1779C40.6763 36.0433 32.0756 39.5797 30.2445 40.5343C28.4135 41.489 27.3963 41.4797 25.9497 40.7883C24.5033 40.0968 15.3506 36.3996 13.7018 35.6115C12.8778 35.2178 12.4445 34.8853 12.4445 34.5713V31.4266C12.4445 31.4266 24.3603 28.8326 26.2839 28.1424C28.2075 27.4523 28.8749 27.4274 30.5119 28.027C32.1491 28.6268 41.9377 30.3929 43.5556 30.9855L43.5548 34.0856C43.5551 34.3965 43.1817 34.7375 42.3366 35.1779Z" fill="#912626"/>
<path d="M42.336 32.0518C40.6758 32.9169 32.0753 36.4533 30.2442 37.4078C28.4133 38.3627 27.3961 38.3533 25.9497 37.6618C24.5031 36.9708 15.3508 33.2731 13.7021 32.4855C12.0535 31.6973 12.019 31.155 13.6384 30.5208C15.2579 29.8865 24.3601 26.3154 26.284 25.6252C28.2076 24.9353 28.8749 24.9102 30.5118 25.51C32.1489 26.1096 40.6982 29.5125 42.3158 30.105C43.9341 30.6981 43.9962 31.1866 42.336 32.0518Z" fill="#C6302B"/>
<path d="M42.3366 30.09C40.6763 30.9555 32.0756 34.4917 30.2445 35.4467C28.4135 36.401 27.3963 36.3918 25.9497 35.7003C24.5032 35.0092 15.3506 31.3117 13.7018 30.5236C12.8778 30.1298 12.4445 29.7978 12.4445 29.4837V26.3386C12.4445 26.3386 24.3603 23.7447 26.2839 23.0546C28.2075 22.3644 28.8749 22.3394 30.5119 22.9391C32.1492 23.5389 41.9378 25.3046 43.5556 25.8972L43.5548 28.9978C43.5551 29.3085 43.1817 29.6495 42.3366 30.09Z" fill="#912626"/>
<path d="M42.336 26.9639C40.6758 27.8292 32.0753 31.3654 30.2442 32.3202C28.4133 33.2747 27.3961 33.2654 25.9497 32.5739C24.5031 31.8829 15.3508 28.1853 13.7021 27.3975C12.0535 26.6096 12.019 26.0671 13.6384 25.4328C15.2579 24.7988 24.3602 21.2274 26.284 20.5374C28.2076 19.8474 28.8749 19.8223 30.5118 20.4221C32.1489 21.0217 40.6982 24.4243 42.3158 25.017C43.9341 25.6101 43.9962 26.0986 42.336 26.9639Z" fill="#C6302B"/>
<path d="M42.3366 24.8129C40.6763 25.6781 32.0756 29.2146 30.2445 30.1696C28.4135 31.1241 27.3963 31.1147 25.9497 30.4232C24.5032 29.7321 15.3506 26.0345 13.7018 25.2467C12.8778 24.8526 12.4445 24.5205 12.4445 24.2067V21.0615C12.4445 21.0615 24.3603 18.4678 26.2839 17.7777C28.2075 17.0875 28.8749 17.0627 30.5119 17.6623C32.1492 18.262 41.9378 20.0277 43.5556 20.6204L43.5548 23.7208C43.5551 24.0313 43.1817 24.3723 42.3366 24.8129Z" fill="#912626"/>
<path d="M42.3361 21.6869C40.6759 22.5522 32.0754 26.0886 30.2443 27.0431C28.4134 27.9976 27.3962 27.9882 25.9498 27.2971C24.5033 26.6056 15.3508 22.9083 13.7023 22.1204C12.0535 21.3327 12.0191 20.79 13.6385 20.1558C15.258 19.5216 24.3603 15.9508 26.2841 15.2605C28.2076 14.5704 28.8749 14.5456 30.5119 15.1453C32.149 15.745 40.6982 19.1477 42.3159 19.7404C43.9342 20.333 43.9963 20.8216 42.3361 21.6869Z" fill="#C6302B"/>
<path d="M31.8018 18.6278L29.127 18.9055L28.5282 20.3463L27.5611 18.7385L24.4724 18.4609L26.7771 17.6298L26.0856 16.354L28.2433 17.1979L30.2775 16.5319L29.7277 17.8511L31.8018 18.6278ZM28.3685 25.6178L23.3765 23.5473L30.5296 22.4493L28.3685 25.6178ZM21.4475 19.4287C23.559 19.4287 25.2707 20.0922 25.2707 20.9106C25.2707 21.7292 23.559 22.3926 21.4475 22.3926C19.3359 22.3926 17.6242 21.729 17.6242 20.9106C17.6242 20.0922 19.3359 19.4287 21.4475 19.4287Z" fill="white"/>
<path d="M34.963 19.0216L39.1965 20.6946L34.9666 22.3659L34.963 19.0215" fill="#621B1C"/>
<path d="M30.2793 20.8742L34.963 19.0215L34.9666 22.3658L34.5074 22.5454L30.2793 20.8742Z" fill="#9A2928"/>
</svg>
