<svg width="57" height="56" viewBox="0 0 57 56" fill="none" xmlns="http://www.w3.org/2000/svg">
<path fill-rule="evenodd" clip-rule="evenodd" d="M41.1302 24.2891C39.8521 24.2891 39.13 24.5345 38.7155 25.1095C38.2824 25.7102 38.1953 26.6583 38.1953 27.9936C38.1953 30.6149 38.6031 31.7107 41.1302 31.7107C41.4337 31.7107 42.4712 31.705 43.0769 31.6315C43.3125 31.5926 43.4181 31.4131 43.4181 31.2526V30.9631C43.4181 30.7378 43.2469 30.5678 43.0197 30.5678H41.1301C39.7043 30.5678 39.4472 30.2336 39.4106 28.3335V27.7184C39.4228 25.7739 39.6799 25.432 41.1302 25.432C42.4675 25.432 42.7239 25.7355 42.7684 27.4473H40.6434V28.603H43.4383C43.9888 28.603 43.9888 28.2201 43.9888 28.0944V27.7254C43.9489 25.0598 43.3076 24.2891 41.1302 24.2891ZM37.4501 24.3909L37.4197 24.383C37.1594 24.3286 36.4481 24.2891 36.0954 24.2891C34.8474 24.2891 34.1879 24.8087 34.1879 25.7917V31.2651C34.1879 31.4904 34.3464 31.6478 34.5735 31.6478H35.0175C35.2447 31.6478 35.4032 31.4905 35.4032 31.2651V25.8922C35.4032 25.6496 35.4649 25.432 36.2096 25.432L37.3123 25.4311C37.4202 25.4439 37.5232 25.4142 37.6026 25.3474C37.6892 25.2748 37.7368 25.1688 37.7368 25.0493V24.7724C37.7368 24.5907 37.6322 24.4517 37.4501 24.3909ZM32.1203 24.3772H31.6763C31.4492 24.3772 31.2906 24.5345 31.2906 24.7599V30.5679H29.4444C28.3024 30.5679 27.839 30.4956 27.839 28.6856V24.7599C27.839 24.5346 27.6804 24.3772 27.4533 24.3772H27.0219C26.7948 24.3772 26.6236 24.5417 26.6236 24.7599V28.6856C26.6236 31.2581 27.5618 31.7107 29.5331 31.7107C30.2423 31.7107 31.2135 31.7107 32.1397 31.581L32.1611 31.5768C32.3899 31.5199 32.5059 31.3897 32.5059 31.1896V24.7599C32.5059 24.5346 32.3473 24.3772 32.1203 24.3772Z" fill="#272727"/>
<path fill-rule="evenodd" clip-rule="evenodd" d="M25.2543 24.5571C25.1974 24.4366 25.0752 24.3647 24.9275 24.3647H24.3569C24.1911 24.3647 24.0672 24.4311 24.002 24.5506L23.1562 25.7794L23.8966 26.7863L25.1893 24.9424C25.3312 24.771 25.282 24.6158 25.2543 24.5571Z" fill="#74BB11"/>
<path fill-rule="evenodd" clip-rule="evenodd" d="M20.7957 24.5367L20.795 24.5356C20.666 24.3647 20.4945 24.3647 20.4381 24.3647H19.88C19.737 24.3647 19.6199 24.4301 19.5587 24.5439C19.4958 24.6604 19.5091 24.8004 19.5962 24.9301L21.6638 27.7804L19.2862 31.0781C19.2032 31.2022 19.1915 31.34 19.2543 31.4565C19.3158 31.5702 19.433 31.6354 19.5757 31.6354H20.1462C20.293 31.6354 20.422 31.5597 20.4865 31.4403L23.1478 27.7936L20.7957 24.5367Z" fill="#009CD9"/>
<path fill-rule="evenodd" clip-rule="evenodd" d="M25.5382 31.1067L23.8794 28.8428L23.1497 29.8431L24.4616 31.5842L24.4957 31.599C24.5477 31.6223 24.6041 31.6345 24.6612 31.635H25.2191C25.3539 31.635 25.4683 31.5755 25.5331 31.4715C25.5995 31.3648 25.6013 31.232 25.5382 31.1067Z" fill="#EB2084"/>
<path fill-rule="evenodd" clip-rule="evenodd" d="M17.0918 28.5526V30.4751C16.5269 30.5614 15.6658 30.5805 15.3723 30.5805C14.0741 30.5805 13.9318 30.2277 13.9318 29.4786C13.9318 28.7775 14.1956 28.5525 15.0172 28.5525L17.0918 28.5526ZM15.3089 24.2891C14.9078 24.2891 14.3607 24.2994 13.6801 24.3808L13.6493 24.3876C13.451 24.4437 13.3506 24.5732 13.3506 24.7725V25.0493C13.3506 25.2854 13.4984 25.432 13.7363 25.432H15.309C16.5753 25.432 17.0918 25.7732 17.0918 26.6095V27.4222H15.0172C13.3958 27.4222 12.7039 28.0372 12.7039 29.4785C12.7039 31.0849 13.42 31.7108 15.2582 31.7108C16.0028 31.7108 17.3733 31.6533 17.8799 31.4996C18.3071 31.3817 18.3071 31.0572 18.3071 30.9506V26.5341C18.3071 25.0235 17.3264 24.2891 15.309 24.2891H15.3089Z" fill="#272727"/>
</svg>
