<svg width="57" height="56" viewBox="0 0 57 56" fill="none" xmlns="http://www.w3.org/2000/svg">
<path d="M35.518 18.3701H36.9995C37.4143 18.3701 37.7403 18.696 37.7403 19.1109C37.7403 19.5257 37.4143 19.8516 36.9995 19.8516H35.518C35.1032 19.8516 34.7773 19.5257 34.7773 19.1109C34.7773 18.696 35.1032 18.3701 35.518 18.3701Z" fill="#56B3B4"/>
<path d="M13.2958 42.0742H20.7032C21.118 42.0742 21.4439 42.4001 21.4439 42.815C21.4439 43.2298 21.118 43.5557 20.7032 43.5557H13.2958C12.881 43.5557 12.5551 43.2298 12.5551 42.815C12.5551 42.4001 12.881 42.0742 13.2958 42.0742Z" fill="#EA5E5E"/>
<path d="M31.0736 30.2222H35.518C35.9328 30.2222 36.2588 30.5481 36.2588 30.9629C36.2588 31.3777 35.9328 31.7036 35.518 31.7036H31.0736C30.6588 31.7036 30.3329 31.3777 30.3329 30.9629C30.3329 30.5481 30.6588 30.2222 31.0736 30.2222Z" fill="#BF85BF"/>
<path d="M22.1847 30.2222H28.1107C28.5255 30.2222 28.8514 30.5481 28.8514 30.9629C28.8514 31.3777 28.5255 31.7036 28.1107 31.7036H22.1847C21.7699 31.7036 21.444 31.3777 21.444 30.9629C21.444 30.5481 21.7699 30.2222 22.1847 30.2222Z" fill="#EA5E5E"/>
<path d="M13.2958 30.2222H19.2217C19.6365 30.2222 19.9625 30.5481 19.9625 30.9629C19.9625 31.3777 19.6365 31.7036 19.2217 31.7036H13.2958C12.881 31.7036 12.5551 31.3777 12.5551 30.9629C12.5551 30.5481 12.881 30.2222 13.2958 30.2222Z" fill="#56B3B4"/>
<path d="M13.2958 36.1479H20.7032C21.118 36.1479 21.4439 36.4739 21.4439 36.8887C21.4439 37.3035 21.118 37.6294 20.7032 37.6294H13.2958C12.881 37.6294 12.5551 37.3035 12.5551 36.8887C12.5551 36.4739 12.881 36.1479 13.2958 36.1479Z" fill="#BF85BF"/>
<path d="M13.2958 24.2964H20.7032C21.118 24.2964 21.4439 24.6223 21.4439 25.0371C21.4439 25.452 21.118 25.7779 20.7032 25.7779H13.2958C12.881 25.7779 12.5551 25.452 12.5551 25.0371C12.5551 24.6223 12.881 24.2964 13.2958 24.2964Z" fill="#BF85BF"/>
<path d="M20.7032 15.4072H35.518C35.9328 15.4072 36.2587 15.7332 36.2587 16.148C36.2587 16.5628 35.9328 16.8887 35.518 16.8887H20.7032C20.2884 16.8887 19.9625 16.5628 19.9625 16.148C19.9625 15.7332 20.2884 15.4072 20.7032 15.4072Z" fill="#F7BA3E"/>
<path d="M13.2958 15.4072H17.7402C18.1551 15.4072 18.481 15.7332 18.481 16.148C18.481 16.5628 18.1551 16.8887 17.7402 16.8887H13.2958C12.881 16.8887 12.5551 16.5628 12.5551 16.148C12.5551 15.7332 12.881 15.4072 13.2958 15.4072Z" fill="#EA5E5E"/>
<path d="M19.2217 39.1108H20.7032C21.118 39.1108 21.4439 39.4368 21.4439 39.8516C21.4439 40.2664 21.118 40.5923 20.7032 40.5923H19.2217C18.8069 40.5923 18.481 40.2664 18.481 39.8516C18.481 39.4368 18.8069 39.1108 19.2217 39.1108Z" fill="#F7BA3E"/>
<path d="M19.2217 21.3335H20.7032C21.118 21.3335 21.4439 21.6594 21.4439 22.0742C21.4439 22.489 21.118 22.8149 20.7032 22.8149H19.2217C18.8069 22.8149 18.481 22.489 18.481 22.0742C18.481 21.6594 18.8069 21.3335 19.2217 21.3335Z" fill="#56B3B4"/>
<path d="M13.2958 39.1108H16.2588C16.6736 39.1108 16.9995 39.4368 16.9995 39.8516C16.9995 40.2664 16.6736 40.5923 16.2588 40.5923H13.2958C12.881 40.5923 12.5551 40.2664 12.5551 39.8516C12.5551 39.4368 12.881 39.1108 13.2958 39.1108Z" fill="#56B3B4"/>
<path d="M13.2958 21.3335H16.2588C16.6736 21.3335 16.9995 21.6594 16.9995 22.0742C16.9995 22.489 16.6736 22.8149 16.2588 22.8149H13.2958C12.881 22.8149 12.5551 22.489 12.5551 22.0742C12.5551 21.6594 12.881 21.3335 13.2958 21.3335Z" fill="#F7BA3E"/>
<path opacity="0.5" d="M32.5551 39.1108H34.0365C34.4513 39.1108 34.7772 39.4368 34.7772 39.8516C34.7772 40.2664 34.4513 40.5923 34.0365 40.5923H32.5551C32.1402 40.5923 31.8143 40.2664 31.8143 39.8516C31.8143 39.4368 32.1402 39.1108 32.5551 39.1108Z" fill="#D0D4D8"/>
<path opacity="0.5" d="M23.6662 39.1108H29.5921C30.0069 39.1108 30.3329 39.4368 30.3329 39.8516C30.3329 40.2664 30.0069 40.5923 29.5921 40.5923H23.6662C23.2513 40.5923 22.9254 40.2664 22.9254 39.8516C22.9254 39.4368 23.2513 39.1108 23.6662 39.1108Z" fill="#D0D4D8"/>
<path opacity="0.5" d="M36.9995 39.1108H42.9255C43.3403 39.1108 43.6662 39.4368 43.6662 39.8516C43.6662 40.2664 43.3403 40.5923 42.9255 40.5923H36.9995C36.5847 40.5923 36.2588 40.2664 36.2588 39.8516C36.2588 39.4368 36.5847 39.1108 36.9995 39.1108Z" fill="#D0D4D8"/>
<path d="M25.1477 27.2593H36.9995C37.4143 27.2593 37.7402 27.5852 37.7402 28C37.7402 28.4148 37.4143 28.7407 36.9995 28.7407H25.1477C24.7328 28.7407 24.4069 28.4148 24.4069 28C24.4069 27.5852 24.7328 27.2593 25.1477 27.2593Z" fill="#56B3B4"/>
<path d="M17.7403 27.2593H22.1847C22.5995 27.2593 22.9254 27.5852 22.9254 28C22.9254 28.4148 22.5995 28.7407 22.1847 28.7407H17.7403C17.3254 28.7407 16.9995 28.4148 16.9995 28C16.9995 27.5852 17.3254 27.2593 17.7403 27.2593Z" fill="#F7BA3E"/>
<path d="M13.2958 27.2593H14.7773C15.1921 27.2593 15.518 27.5852 15.518 28C15.518 28.4148 15.1921 28.7407 14.7773 28.7407H13.2958C12.881 28.7407 12.5551 28.4148 12.5551 28C12.5551 27.5852 12.881 27.2593 13.2958 27.2593Z" fill="#EA5E5E"/>
<path d="M26.6292 18.3701H32.5551C32.9699 18.3701 33.2958 18.696 33.2958 19.1109C33.2958 19.5257 32.9699 19.8516 32.5551 19.8516H26.6292C26.2144 19.8516 25.8884 19.5257 25.8884 19.1109C25.8884 18.696 26.2144 18.3701 26.6292 18.3701Z" fill="#BF85BF"/>
<path d="M13.2958 18.3701H23.6662C24.081 18.3701 24.4069 18.696 24.4069 19.1109C24.4069 19.5257 24.081 19.8516 23.6662 19.8516H13.2958C12.881 19.8516 12.5551 19.5257 12.5551 19.1109C12.5551 18.696 12.881 18.3701 13.2958 18.3701Z" fill="#56B3B4"/>
<path d="M17.7403 33.1851H31.0736C31.4884 33.1851 31.8144 33.511 31.8144 33.9258C31.8144 34.3406 31.4884 34.6665 31.0736 34.6665H17.7403C17.3254 34.6665 16.9995 34.3406 16.9995 33.9258C16.9995 33.511 17.3254 33.1851 17.7403 33.1851Z" fill="#F7BA3E"/>
<path d="M13.2958 33.1851H14.7773C15.1921 33.1851 15.518 33.511 15.518 33.9258C15.518 34.3406 15.1921 34.6665 14.7773 34.6665H13.2958C12.881 34.6665 12.5551 34.3406 12.5551 33.9258C12.5551 33.511 12.881 33.1851 13.2958 33.1851Z" fill="#BF85BF"/>
<path d="M31.0736 21.3335H38.481C38.8958 21.3335 39.2217 21.6594 39.2217 22.0742C39.2217 22.489 38.8958 22.8149 38.481 22.8149H31.0736C30.6588 22.8149 30.3329 22.489 30.3329 22.0742C30.3329 21.6594 30.6588 21.3335 31.0736 21.3335Z" fill="#EA5E5E"/>
<path d="M31.0736 24.2964H38.481C38.8958 24.2964 39.2217 24.6223 39.2217 25.0371C39.2217 25.452 38.8958 25.7779 38.481 25.7779H31.0736C30.6588 25.7779 30.3329 25.452 30.3329 25.0371C30.3329 24.6223 30.6588 24.2964 31.0736 24.2964Z" fill="#F7BA3E"/>
<path d="M13.2958 12.4443H31.0736C31.4884 12.4443 31.8143 12.7703 31.8143 13.1851C31.8143 13.5999 31.4884 13.9258 31.0736 13.9258H13.2958C12.881 13.9258 12.5551 13.5999 12.5551 13.1851C12.5551 12.7703 12.881 12.4443 13.2958 12.4443Z" fill="#56B3B4"/>
<path opacity="0.5" d="M34.0365 12.4443H42.9254C43.3402 12.4443 43.6661 12.7703 43.6661 13.1851C43.6661 13.5999 43.3402 13.9258 42.9254 13.9258H34.0365C33.6217 13.9258 33.2958 13.5999 33.2958 13.1851C33.2958 12.7703 33.6217 12.4443 34.0365 12.4443Z" fill="#D0D4D8"/>
<path opacity="0.5" d="M34.0365 33.1851H36.9995C37.4143 33.1851 37.7402 33.511 37.7402 33.9258C37.7402 34.3406 37.4143 34.6665 36.9995 34.6665H34.0365C33.6217 34.6665 33.2958 34.3406 33.2958 33.9258C33.2958 33.511 33.6217 33.1851 34.0365 33.1851Z" fill="#D0D4D8"/>
<path opacity="0.5" d="M39.9625 33.1851H42.9255C43.3403 33.1851 43.6662 33.511 43.6662 33.9258C43.6662 34.3406 43.3403 34.6665 42.9255 34.6665H39.9625C39.5477 34.6665 39.2217 34.3406 39.2217 33.9258C39.2217 33.511 39.5477 33.1851 39.9625 33.1851Z" fill="#D0D4D8"/>
<path opacity="0.5" d="M38.481 30.2222H42.9254C43.3403 30.2222 43.6662 30.5481 43.6662 30.9629C43.6662 31.3777 43.3403 31.7036 42.9254 31.7036H38.481C38.0662 31.7036 37.7402 31.3777 37.7402 30.9629C37.7402 30.5481 38.0662 30.2222 38.481 30.2222Z" fill="#D0D4D8"/>
<path opacity="0.5" d="M38.481 15.4072H42.9254C43.3403 15.4072 43.6662 15.7332 43.6662 16.148C43.6662 16.5628 43.3403 16.8887 42.9254 16.8887H38.481C38.0662 16.8887 37.7402 16.5628 37.7402 16.148C37.7402 15.7332 38.0662 15.4072 38.481 15.4072Z" fill="#D0D4D8"/>
<path opacity="0.5" d="M39.9625 27.2593H42.9255C43.3403 27.2593 43.6662 27.5852 43.6662 28C43.6662 28.4148 43.3403 28.7407 42.9255 28.7407H39.9625C39.5477 28.7407 39.2217 28.4148 39.2217 28C39.2217 27.5852 39.5477 27.2593 39.9625 27.2593Z" fill="#D0D4D8"/>
<path opacity="0.5" d="M39.9625 18.3701H42.9255C43.3403 18.3701 43.6662 18.696 43.6662 19.1109C43.6662 19.5257 43.3403 19.8516 42.9255 19.8516H39.9625C39.5477 19.8516 39.2217 19.5257 39.2217 19.1109C39.2217 18.696 39.5477 18.3701 39.9625 18.3701Z" fill="#D0D4D8"/>
<path opacity="0.5" d="M41.4439 21.3335H42.9254C43.3402 21.3335 43.6662 21.6594 43.6662 22.0742C43.6662 22.489 43.3402 22.8149 42.9254 22.8149H41.4439C41.0291 22.8149 40.7032 22.489 40.7032 22.0742C40.7032 21.6594 41.0291 21.3335 41.4439 21.3335Z" fill="#D0D4D8"/>
<path opacity="0.5" d="M41.4439 24.2964H42.9254C43.3402 24.2964 43.6662 24.6223 43.6662 25.0371C43.6662 25.452 43.3402 25.7779 42.9254 25.7779H41.4439C41.0291 25.7779 40.7032 25.452 40.7032 25.0371C40.7032 24.6223 41.0291 24.2964 41.4439 24.2964Z" fill="#D0D4D8"/>
<path opacity="0.5" d="M29.5921 36.1479H42.9254C43.3402 36.1479 43.6662 36.4739 43.6662 36.8887C43.6662 37.3035 43.3402 37.6294 42.9254 37.6294H29.5921C29.1773 37.6294 28.8514 37.3035 28.8514 36.8887C28.8514 36.4739 29.1773 36.1479 29.5921 36.1479Z" fill="#D0D4D8"/>
<path opacity="0.5" d="M23.6662 36.1479H26.6291C27.0439 36.1479 27.3699 36.4739 27.3699 36.8887C27.3699 37.3035 27.0439 37.6294 26.6291 37.6294H23.6662C23.2513 37.6294 22.9254 37.3035 22.9254 36.8887C22.9254 36.4739 23.2513 36.1479 23.6662 36.1479Z" fill="#D0D4D8"/>
<path opacity="0.5" d="M35.518 42.0742H42.9255C43.3403 42.0742 43.6662 42.4001 43.6662 42.815C43.6662 43.2298 43.3403 43.5557 42.9255 43.5557H35.518C35.1032 43.5557 34.7773 43.2298 34.7773 42.815C34.7773 42.4001 35.1032 42.0742 35.518 42.0742Z" fill="#D0D4D8"/>
<path opacity="0.5" d="M23.6662 42.0742H32.555C32.9698 42.0742 33.2958 42.4001 33.2958 42.815C33.2958 43.2298 32.9698 43.5557 32.555 43.5557H23.6662C23.2513 43.5557 22.9254 43.2298 22.9254 42.815C22.9254 42.4001 23.2513 42.0742 23.6662 42.0742Z" fill="#D0D4D8"/>
<path opacity="0.5" d="M23.6662 21.3335H28.1106C28.5255 21.3335 28.8514 21.6594 28.8514 22.0742C28.8514 22.489 28.5255 22.8149 28.1106 22.8149H23.6662C23.2513 22.8149 22.9254 22.489 22.9254 22.0742C22.9254 21.6594 23.2513 21.3335 23.6662 21.3335Z" fill="#D0D4D8"/>
<path opacity="0.5" d="M23.6662 24.2964H28.1106C28.5255 24.2964 28.8514 24.6223 28.8514 25.0371C28.8514 25.452 28.5255 25.7779 28.1106 25.7779H23.6662C23.2513 25.7779 22.9254 25.452 22.9254 25.0371C22.9254 24.6223 23.2513 24.2964 23.6662 24.2964Z" fill="#D0D4D8"/>
</svg>
