<svg width="57" height="56" viewBox="0 0 57 56" fill="none" xmlns="http://www.w3.org/2000/svg">
<path d="M28.0842 35.6028C34.9672 44.9857 41.7031 32.9838 41.6932 25.7663C41.6816 17.2331 33.0325 12.4639 28.0786 12.4639C20.1273 12.4637 12.5551 19.0351 12.5551 28.0262C12.5551 38.0199 21.2352 43.5555 28.0786 43.5555C26.53 43.3325 21.3691 42.2268 21.2998 30.3398C21.253 22.3002 23.9224 19.0881 28.0675 20.5011C28.1603 20.5355 32.6396 22.3025 32.6396 28.0747C32.6396 33.8225 28.0842 35.6026 28.0842 35.6026V35.6028Z" fill="url(#paint0_linear_179_759)"/>
<path d="M28.0762 20.4944C23.5282 18.9268 17.9567 22.6753 17.9567 30.1833C17.9567 42.4427 27.0413 43.5554 28.1426 43.5554C36.0939 43.5554 43.6662 36.9839 43.6662 27.9929C43.6662 17.9992 34.9861 12.4636 28.1426 12.4636C30.038 12.2011 38.3588 14.515 38.3588 25.8873C38.3588 33.3037 32.1458 37.3411 28.1048 35.6161C28.0119 35.5817 23.5325 33.8147 23.5325 28.0425C23.5325 22.2946 28.0762 20.4944 28.0762 20.4944Z" fill="url(#paint1_linear_179_759)"/>
<defs>
<linearGradient id="paint0_linear_179_759" x1="17.1563" y1="17.0458" x2="40.396" y2="37.4567" gradientUnits="userSpaceOnUse">
<stop/>
<stop offset="1" stop-color="white"/>
</linearGradient>
<linearGradient id="paint1_linear_179_759" x1="39.0734" y1="38.9625" x2="13.9198" y2="21.7852" gradientUnits="userSpaceOnUse">
<stop/>
<stop offset="1" stop-color="white"/>
</linearGradient>
</defs>
</svg>
