<svg width="58" height="56" viewBox="0 0 58 56" fill="none" xmlns="http://www.w3.org/2000/svg">
<path d="M28.9108 12.8286C20.2728 12.8286 13.2682 19.793 13.2682 28.3842C13.2682 35.2572 17.7503 41.0881 23.9656 43.145C24.7473 43.289 25.0344 42.8076 25.0344 42.3967C25.0344 42.0258 25.0198 40.8003 25.0132 39.5005C20.6613 40.4415 19.743 37.6651 19.743 37.6651C19.0315 35.8671 18.0062 35.3891 18.0062 35.3891C16.587 34.4236 18.1132 34.4434 18.1132 34.4434C19.684 34.5532 20.5111 36.0464 20.5111 36.0464C21.9063 38.4246 24.1705 37.737 25.0631 37.3396C25.2035 36.3341 25.6089 35.648 26.0562 35.2595C22.5819 34.8661 18.9294 33.5323 18.9294 27.5718C18.9294 25.8736 19.5405 24.4858 20.5412 23.3965C20.3788 23.0046 19.8434 21.4225 20.6927 19.2799C20.6927 19.2799 22.0062 18.8618 24.9955 20.8744C26.2432 20.5296 27.5814 20.3569 28.9108 20.351C30.2401 20.3569 31.5793 20.5296 32.8295 20.8744C35.8152 18.8618 37.1269 19.2799 37.1269 19.2799C37.9783 21.4225 37.4427 23.0046 37.2802 23.3965C38.2832 24.4858 38.8901 25.8735 38.8901 27.5718C38.8901 33.5464 35.2307 34.8621 31.7475 35.2471C32.3086 35.7299 32.8085 36.6766 32.8085 38.1278C32.8085 40.2091 32.7903 41.8843 32.7903 42.3967C32.7903 42.8106 33.0719 43.2957 33.8649 43.1429C40.0768 41.0837 44.5532 35.2549 44.5532 28.3842C44.5532 19.793 37.5496 12.8286 28.9108 12.8286Z" fill="#161614"/>
<path d="M19.1269 34.9879C19.0925 35.0651 18.9701 35.0883 18.8588 35.0354C18.7453 34.9846 18.6815 34.8792 18.7183 34.8016C18.7521 34.7221 18.8745 34.6999 18.9877 34.7533C19.1015 34.8039 19.1662 34.9103 19.1269 34.9879ZM19.8963 35.6706C19.8217 35.7394 19.6759 35.7075 19.5768 35.5988C19.4745 35.4903 19.4554 35.3454 19.5311 35.2755C19.608 35.2068 19.7495 35.2389 19.852 35.3474C19.9543 35.4571 19.9742 35.6012 19.8962 35.6707L19.8963 35.6706ZM20.4242 36.5441C20.3283 36.6104 20.1715 36.5483 20.0747 36.4099C19.9789 36.2717 19.9789 36.1058 20.0768 36.0393C20.1739 35.9728 20.3283 36.0326 20.4264 36.1698C20.5221 36.3105 20.5221 36.4764 20.4241 36.5443L20.4242 36.5441ZM21.3168 37.5559C21.2311 37.6498 21.0485 37.6247 20.9148 37.4963C20.7781 37.3709 20.74 37.1929 20.826 37.0989C20.9127 37.0047 21.0964 37.0312 21.2311 37.1584C21.3669 37.2836 21.4084 37.4629 21.317 37.5559H21.3168ZM22.4705 37.8975C22.4329 38.0192 22.257 38.0746 22.0798 38.0229C21.9029 37.9696 21.7871 37.8268 21.8228 37.7037C21.8596 37.5811 22.0363 37.5234 22.2148 37.5788C22.3914 37.6319 22.5075 37.7735 22.4707 37.8975H22.4705ZM23.7837 38.0423C23.7881 38.1706 23.6379 38.277 23.4519 38.2793C23.2648 38.2834 23.1135 38.1795 23.1116 38.0534C23.1116 37.9238 23.2584 37.8184 23.4454 37.8154C23.6314 37.8117 23.7837 37.9148 23.7837 38.0423ZM25.0736 37.9931C25.0959 38.1183 24.9666 38.2469 24.782 38.2811C24.6004 38.314 24.4323 38.2368 24.4092 38.1127C24.3866 37.9843 24.5183 37.8559 24.6996 37.8226C24.8846 37.7906 25.0501 37.8659 25.0736 37.9931Z" fill="#161614"/>
</svg>
