<svg width="57" height="56" viewBox="0 0 57 56" fill="none" xmlns="http://www.w3.org/2000/svg">
<path d="M28.4414 18.6694C24.2931 18.6694 21.7006 20.743 20.6634 24.8897C22.2192 22.8161 24.034 22.0389 26.108 22.5571C27.2914 22.8527 28.1372 23.7113 29.0736 24.6613C30.5986 26.2089 32.3637 28 36.2194 28C40.3673 28 42.9602 25.9265 43.997 21.7794C42.4416 23.8529 40.6268 24.6306 38.5524 24.1124C37.3694 23.8167 36.5236 22.9581 35.5872 22.0081C34.0622 20.4605 32.2968 18.6694 28.4414 18.6694ZM20.6634 28C16.5156 28 13.9226 30.0736 12.8859 34.2207C14.4412 32.1471 16.2561 31.3695 18.3304 31.888C19.5135 32.1841 20.3592 33.0423 21.2956 33.9919C22.8206 35.5395 24.5861 37.331 28.4414 37.331C32.5897 37.331 35.1822 35.2575 36.2194 31.1104C34.6636 33.1839 32.8488 33.9616 30.7749 33.443C29.5914 33.1477 28.7456 32.2887 27.8092 31.3391C26.2842 29.7915 24.5192 28 20.6634 28Z" fill="#06B6D4"/>
</svg>
