<svg width="57" height="56" viewBox="0 0 57 56" fill="none" xmlns="http://www.w3.org/2000/svg">
<path d="M43.4584 31.0806C43.2765 30.5312 42.8001 30.1486 42.1839 30.0568C41.8934 30.0136 41.5606 30.032 41.1669 30.113C40.4806 30.2542 39.9714 30.3079 39.5998 30.3183C41.0024 27.9569 42.1429 25.2641 42.7995 22.7292C43.8612 18.6304 43.2938 16.7631 42.6309 15.9185C40.8764 13.6829 38.3166 12.482 35.2285 12.4452C33.5811 12.4251 32.1349 12.7495 31.3804 12.9827C30.678 12.8591 29.9228 12.7901 29.1303 12.7774C27.6448 12.7537 26.3322 13.0767 25.2107 13.7404C24.5898 13.531 23.5933 13.2358 22.4425 13.0475C19.7359 12.6044 17.5545 12.9496 15.9589 14.0737C14.0268 15.4347 13.1311 17.7992 13.2967 21.1018C13.3494 22.1503 13.9375 25.3406 14.8637 28.3662C15.3959 30.1053 15.9635 31.5494 16.5506 32.6589C17.3833 34.2322 18.2742 35.1587 19.2744 35.4914C19.835 35.6777 20.8535 35.8081 21.9248 34.9184C22.0606 35.0824 22.2418 35.2453 22.4822 35.3967C22.7876 35.5887 23.1609 35.7456 23.5338 35.8386C24.8776 36.1736 26.1364 36.0898 27.2103 35.6202C27.2169 35.8107 27.222 35.9927 27.2263 36.1498C27.2334 36.4047 27.2405 36.6546 27.2498 36.8883C27.3135 38.4686 27.4213 39.6973 27.7407 40.557C27.7583 40.6043 27.7819 40.6764 27.8067 40.7528C27.9661 41.2394 28.2326 42.054 28.9106 42.6919C29.6127 43.3528 30.4619 43.5554 31.2397 43.5554C31.6297 43.5554 32.0019 43.5044 32.3284 43.4347C33.492 43.186 34.8135 42.8071 35.7695 41.4497C36.6733 40.1665 37.1127 38.2338 37.1922 35.1885C37.2025 35.1023 37.212 35.0201 37.2211 34.9418L37.2401 34.7808L37.453 34.7995L37.5079 34.8032C38.693 34.857 40.1422 34.6064 41.0322 34.1942C41.7354 33.8688 43.989 32.6823 43.4584 31.0806Z" fill="black"/>
<path d="M41.432 31.3921C37.9081 32.117 37.6658 30.9272 37.6658 30.9272C41.3864 25.4218 42.9419 18.4335 41.5997 16.7232C37.9378 12.0577 31.5991 14.2642 31.4933 14.3214L31.4593 14.3275C30.7631 14.1833 29.984 14.0976 29.1082 14.0833C27.5138 14.0573 26.3042 14.5001 25.3864 15.1942C25.3864 15.1942 14.0787 10.5489 14.6047 21.0365C14.7166 23.2675 17.8116 37.9182 21.5031 33.493C22.8523 31.8749 24.1561 30.5067 24.1561 30.5067C24.8035 30.9356 25.5787 31.1544 26.3913 31.0759L26.4545 31.0225C26.4348 31.2233 26.4438 31.4198 26.4797 31.6525C25.5287 32.712 25.8082 32.898 23.9071 33.2883C21.9834 33.6836 23.1135 34.3874 23.8513 34.5715C24.7458 34.7945 26.8152 35.1104 28.2134 33.1585L28.1577 33.3813C28.5302 33.6789 28.7918 35.3171 28.748 36.8022C28.7041 38.2872 28.6749 39.3068 28.9684 40.1032C29.2621 40.8996 29.5547 42.6915 32.0539 42.1575C34.1421 41.7113 35.2243 40.5548 35.3749 38.6258C35.4816 37.2544 35.7235 37.4572 35.7386 36.231L35.9326 35.6506C36.1562 33.7916 35.9682 33.1919 37.2546 33.4708L37.5674 33.4982C38.5142 33.5411 39.7536 33.3463 40.481 33.0092C42.0473 32.2844 42.9762 31.0741 41.4318 31.3921H41.432Z" fill="#336791"/>
<path d="M26.0483 22.0341C25.7307 21.99 25.4431 22.0307 25.2976 22.1406C25.2159 22.2024 25.1905 22.274 25.1836 22.3233C25.1654 22.4539 25.2571 22.5983 25.3135 22.6727C25.473 22.8835 25.7059 23.0284 25.9365 23.0603C25.9699 23.065 26.0032 23.0671 26.0363 23.0671C26.4208 23.0671 26.7705 22.7685 26.8013 22.5482C26.8398 22.2721 26.438 22.0882 26.0483 22.0342V22.0341ZM36.5684 22.0428C36.5381 21.8265 36.1521 21.7648 35.7857 21.8156C35.4198 21.8664 35.065 22.0311 35.0946 22.2479C35.1183 22.4165 35.4237 22.7044 35.7851 22.7044C35.8157 22.7044 35.8465 22.7024 35.8775 22.698C36.1188 22.6647 36.2958 22.5119 36.3799 22.4239C36.5079 22.2896 36.5821 22.14 36.5684 22.0428Z" fill="white"/>
<path d="M42.6046 31.3099C42.4702 30.9048 42.0377 30.7744 41.3192 30.9224C39.1858 31.3614 38.4217 31.0573 38.1709 30.8731C39.8292 28.3539 41.1934 25.3087 41.9293 22.4676C42.2779 21.1218 42.4705 19.8719 42.4862 18.8531C42.5036 17.735 42.3126 16.9133 41.9188 16.4113C40.3307 14.3879 38 13.3024 35.1787 13.2727C33.2391 13.2509 31.6004 13.7459 31.2827 13.8851C30.6137 13.7192 29.8844 13.6173 29.0904 13.6043C27.6343 13.5808 26.3757 13.9285 25.3337 14.6371C24.8811 14.469 23.7113 14.0686 22.2808 13.8388C19.8076 13.4418 17.8423 13.7426 16.4398 14.7334C14.7664 15.9157 13.9938 18.0291 14.1435 21.0147C14.1938 22.0192 14.7678 25.1093 15.6736 28.0686C16.8658 31.9636 18.1619 34.1686 19.5255 34.6222C19.6851 34.6752 19.8691 34.7123 20.0721 34.7123C20.5695 34.7123 21.1794 34.4888 21.8139 33.7281C22.5879 32.8022 23.3884 31.8989 24.2147 31.0191C24.7507 31.306 25.3396 31.4663 25.9419 31.4823C25.9431 31.498 25.9447 31.5138 25.9461 31.5294C25.8424 31.6526 25.7409 31.7777 25.6416 31.9045C25.2242 32.4328 25.1374 32.5428 23.794 32.8186C23.4119 32.8973 22.397 33.1058 22.3821 33.8153C22.366 34.5904 23.5818 34.9159 23.7203 34.9504C24.2031 35.0709 24.6681 35.1304 25.1117 35.1304C26.1903 35.1304 27.1395 34.7768 27.8981 34.0928C27.8748 36.8561 27.9903 39.579 28.323 40.4086C28.5956 41.0877 29.2612 42.7475 31.364 42.7474C31.6725 42.7474 32.0121 42.7116 32.3857 42.6317C34.5803 42.1626 35.5334 41.1954 35.902 39.063C36.0993 37.9233 36.4378 35.202 36.5971 33.7422C36.9331 33.8468 37.3657 33.8947 37.8334 33.8945C38.8088 33.8945 39.9344 33.6879 40.6402 33.3612C41.4332 32.9939 42.8641 32.0928 42.6046 31.3099ZM37.3784 21.446C37.3712 21.8769 37.3117 22.2681 37.2487 22.6765C37.1808 23.1157 37.1106 23.5698 37.093 24.121C37.0755 24.6574 37.1427 25.2151 37.2077 25.7545C37.3389 26.844 37.4737 27.9655 36.9522 29.0722C36.8656 28.9192 36.7884 28.761 36.7211 28.5985C36.6563 28.4418 36.5155 28.1902 36.3206 27.8418C35.5624 26.4858 33.7868 23.3104 34.6957 22.0147C34.9665 21.629 35.6536 21.2325 37.3784 21.446ZM35.2877 14.1453C37.8156 14.2009 39.8153 15.144 41.231 16.948C42.3169 18.3318 41.1212 24.6281 37.6597 30.06C37.6249 30.0159 37.5899 29.9719 37.5547 29.9281L37.5109 29.8735C38.4054 28.4004 38.2305 26.9429 38.0748 25.6507C38.0108 25.1204 37.9504 24.6195 37.9658 24.149C37.9816 23.6504 38.0478 23.2226 38.1117 22.8091C38.1903 22.2994 38.2703 21.7721 38.2482 21.1505C38.2647 21.0852 38.2714 21.0082 38.2627 20.9167C38.2064 20.3206 37.5239 18.5365 36.1328 16.9218C35.3719 16.0385 34.2622 15.0501 32.747 14.3835C33.3987 14.2488 34.2899 14.1232 35.2877 14.1453ZM21.1424 33.1713C20.4433 34.0095 19.9606 33.8488 19.8018 33.7961C18.7674 33.452 17.5671 31.2718 16.5088 27.8144C15.5931 24.8229 15.058 21.8146 15.0156 20.9711C14.8819 18.3033 15.5304 16.4441 16.9432 15.4449C19.2424 13.819 23.0225 14.7922 24.5415 15.2857C24.5197 15.3073 24.4969 15.3273 24.4754 15.3492C21.9828 17.8594 22.0419 22.1481 22.0481 22.4103C22.0478 22.5114 22.0563 22.6546 22.068 22.8516C22.1109 23.573 22.1907 24.9155 21.9774 26.4359C21.7793 27.8487 22.2161 29.2315 23.1755 30.2298C23.274 30.3321 23.3775 30.4294 23.4856 30.5215C23.0586 30.9775 22.1304 31.9862 21.1424 33.1713ZM23.806 29.6273C23.0327 28.8227 22.6815 27.7035 22.8423 26.5564C23.0674 24.9504 22.9844 23.5516 22.9397 22.8001C22.9334 22.6949 22.9279 22.6028 22.9247 22.5301C23.2888 22.2081 24.9762 21.3066 26.1796 21.5815C26.7287 21.7069 27.0633 22.0798 27.2024 22.7212C27.9224 26.0418 27.2977 27.4258 26.7958 28.538C26.6923 28.7671 26.5946 28.9837 26.5112 29.2078L26.4465 29.381C26.2827 29.8189 26.1303 30.2261 26.0359 30.6127C25.2138 30.6103 24.4141 30.2601 23.806 29.6272V29.6273ZM23.9322 34.1056C23.6921 34.0458 23.4762 33.9419 23.3496 33.8558C23.4554 33.8062 23.6437 33.7386 23.9702 33.6715C25.5506 33.3471 25.7946 33.1181 26.3276 32.4433C26.4498 32.2885 26.5883 32.1132 26.7801 31.8995L26.7804 31.8993C27.0661 31.5803 27.1968 31.6344 27.4337 31.7325C27.6258 31.8116 27.8129 32.0517 27.8888 32.3159C27.9247 32.4407 27.9649 32.6775 27.8331 32.8618C26.7197 34.4163 25.0973 34.3964 23.9322 34.1056ZM32.2028 41.7803C30.2695 42.1933 29.585 41.2097 29.1339 40.0851C28.8427 39.3592 28.6996 36.0855 28.8011 32.4701C28.8024 32.422 28.7956 32.3756 28.7823 32.3319C28.7704 32.2456 28.7524 32.1602 28.7283 32.0764C28.5773 31.5504 28.2094 31.1104 27.768 30.9279C27.5926 30.8555 27.2708 30.7226 26.8841 30.8212C26.9665 30.4823 27.1095 30.0996 27.2647 29.6852L27.3297 29.511C27.4029 29.3145 27.4949 29.1109 27.592 28.8953C28.1173 27.7317 28.8367 26.1379 28.0559 22.5372C27.7635 21.1885 26.7869 20.5299 25.3065 20.6829C24.419 20.7745 23.6069 21.1316 23.2019 21.3363C23.1148 21.3803 23.0352 21.4228 22.9608 21.4642C23.0738 20.1053 23.5009 17.5659 25.0984 15.9591C26.1043 14.9477 27.4438 14.4481 29.0759 14.4751C32.2918 14.5275 34.354 16.1732 35.5178 17.5447C36.5208 18.7264 37.0638 19.9169 37.2805 20.559C35.6507 20.3937 34.5422 20.7145 33.9803 21.5156C32.7578 23.2582 34.6491 26.6404 35.558 28.2659C35.7247 28.5638 35.8686 28.8213 35.9138 28.9307C36.2098 29.646 36.593 30.1236 36.8728 30.4722C36.9586 30.579 37.0418 30.6826 37.105 30.7731C36.6114 30.915 35.7247 31.2429 35.8055 32.8819C35.7404 33.7043 35.2769 37.5546 35.0415 38.915C34.7307 40.7122 34.0675 41.3816 32.2028 41.7804V41.7803ZM40.2726 32.5714C39.7678 32.805 38.9231 32.9802 38.1206 33.0179C37.2343 33.0593 36.7831 32.9189 36.6769 32.8325C36.6272 31.8112 37.0083 31.7045 37.4118 31.5915C37.4752 31.5738 37.5371 31.5564 37.5968 31.5356C37.6339 31.5657 37.6745 31.5956 37.7191 31.6249C38.4314 32.0938 39.702 32.1444 41.4959 31.7751L41.5155 31.7712C41.2736 31.9968 40.8596 32.2995 40.2726 32.5714Z" fill="white"/>
</svg>
