<svg width="56" height="56" viewBox="0 0 56 56" fill="none" xmlns="http://www.w3.org/2000/svg">
<path d="M28.0001 42.329L33.7285 24.6987H22.2715L27.9999 42.329H28.0001Z" fill="#E24329"/>
<path d="M28 42.329L22.2715 24.6987H14.2433L28 42.329Z" fill="#FC6D26"/>
<path d="M14.2433 24.6987L12.5025 30.0565C12.4251 30.2947 12.4251 30.5513 12.5025 30.7895C12.5799 31.0277 12.7307 31.2353 12.9333 31.3825L28 42.3291L14.2432 24.6989L14.2433 24.6987Z" fill="#FCA326"/>
<path d="M14.2433 24.6988H22.2715L18.8214 14.0802C18.6439 13.5338 17.8709 13.5339 17.6935 14.0802L14.2433 24.6988Z" fill="#E24329"/>
<path d="M28 42.329L33.7285 24.6987H41.7568L27.9999 42.329H28Z" fill="#FC6D26"/>
<path d="M41.7567 24.6987L43.4975 30.0565C43.5749 30.2947 43.5749 30.5513 43.4975 30.7895C43.4201 31.0277 43.2692 31.2353 43.0666 31.3825L28 42.3291L41.7567 24.6989V24.6987Z" fill="#FCA326"/>
<path d="M41.7568 24.6988H33.7285L37.1787 14.0802C37.3562 13.5338 38.1292 13.5339 38.3066 14.0802L41.7568 24.6988Z" fill="#E24329"/>
</svg>
