<svg width="57" height="56" viewBox="0 0 57 56" fill="none" xmlns="http://www.w3.org/2000/svg">
<path fill-rule="evenodd" clip-rule="evenodd" d="M19.3248 15.6084C17.5397 15.6084 16.2188 17.1621 16.278 18.8471C16.3347 20.4659 16.261 22.5625 15.7302 24.2723C15.1976 25.9869 14.2974 27.0734 12.8268 27.2128V28.7874C14.2974 28.9271 15.1976 30.0131 15.7302 31.7279C16.261 33.4377 16.3347 35.5343 16.2779 37.1531C16.2188 38.8378 17.5396 40.3918 19.325 40.3918H37.6161C39.4012 40.3918 40.7218 38.8381 40.6627 37.1531C40.6059 35.5343 40.6796 33.4377 41.2104 31.7279C41.743 30.0131 42.641 28.9267 44.1117 28.7874V27.2128C42.6411 27.0731 41.7431 25.9871 41.2104 24.2723C40.6796 22.5628 40.6059 20.4659 40.6627 18.8471C40.7218 17.1624 39.4012 15.6084 37.6161 15.6084H19.3245H19.3248ZM34.0369 30.8642C34.0369 33.1844 32.2966 34.5915 29.4086 34.5915H24.4923C24.3517 34.5915 24.2168 34.5359 24.1174 34.437C24.0179 34.3381 23.9621 34.204 23.9621 34.0642V21.9361C23.9621 21.7963 24.0179 21.6621 24.1174 21.5632C24.2168 21.4644 24.3517 21.4088 24.4923 21.4088H29.3806C31.7887 21.4088 33.3692 22.706 33.3692 24.6976C33.3692 26.0955 32.306 27.3469 30.9515 27.5661V27.639C32.7954 27.8402 34.0369 29.1101 34.0369 30.8642ZM28.8725 23.0804H26.0693V27.0179H28.4303C30.2555 27.0179 31.2618 26.287 31.2618 24.9806C31.2617 23.7564 30.3964 23.0804 28.8725 23.0804ZM26.0693 28.5802V32.9194H28.9757C30.876 32.9194 31.8825 32.1611 31.8825 30.7361C31.8825 29.311 30.8477 28.5799 28.8535 28.5799H26.0693V28.5802Z" fill="#7952B3"/>
</svg>
