<svg width="57" height="56" viewBox="0 0 57 56" fill="none" xmlns="http://www.w3.org/2000/svg">
<path d="M14.1302 14.1299H42.8082V41.8707H14.1302V14.1299Z" fill="url(#paint0_radial_179_1013)"/>
<path d="M14.1303 14.1298H42.8082V41.8706H14.1303V14.1298ZM12.8268 43.1669H44.1118V12.8335H12.8268V43.1669ZM31.1415 25.602C31.1415 25.4464 31.1415 25.0706 31.0764 24.3446C31.0764 24.2409 31.1024 24.215 31.1806 24.1761C31.9758 23.852 33.8659 23.2817 35.9777 23.2817C36.0819 23.2817 36.1341 23.3076 36.1341 23.4113V25.278C36.1341 25.3816 36.095 25.4076 35.9777 25.4076C35.1564 25.3687 33.9441 25.4724 33.4879 25.6668V33.8465C33.4879 33.9502 33.4488 34.002 33.3315 34.002H31.2849C31.1806 34.002 31.1285 33.9631 31.1285 33.8465V25.602H31.1415V25.602ZM21.4954 34.002C21.3389 34.002 21.2998 33.9373 21.2998 33.8076V19.8724C21.2998 19.7687 21.3389 19.7038 21.4563 19.7038H23.5158C23.6201 19.7038 23.6461 19.7427 23.6461 19.8594V31.8631H29.0167C29.121 31.8631 29.1601 31.902 29.134 32.0187L28.8081 33.8595C28.7821 33.9631 28.7169 34.015 28.6126 34.015H21.4954V34.002Z" fill="#AAD1EB"/>
<defs>
<radialGradient id="paint0_radial_179_1013" cx="0" cy="0" r="1" gradientUnits="userSpaceOnUse" gradientTransform="translate(23.5754 20.3466) scale(21.7952 20.9845)">
<stop stop-color="#39464D" stop-opacity="0.98"/>
<stop offset="1" stop-color="#05151F"/>
</radialGradient>
</defs>
</svg>
