<svg width="56" height="56" viewBox="0 0 56 56" fill="none" xmlns="http://www.w3.org/2000/svg">
<path d="M12.4443 12.4443H43.5554V43.5554H12.4443V12.4443Z" fill="#CF4547"/>
<path d="M23.2089 28.207C23.1943 28.2284 23.1687 28.2948 23.1309 28.4075C23.0931 28.5202 23.0474 28.661 22.9938 28.8304C22.9402 28.9998 22.8817 29.1899 22.8195 29.3996C22.7567 29.6092 22.6922 29.8237 22.6263 30.0419C22.5599 30.2606 22.4965 30.4745 22.4356 30.6848C22.3747 30.8944 22.3198 31.0845 22.2717 31.2539C22.2235 31.4233 22.1833 31.5653 22.151 31.6805C22.1187 31.795 22.0992 31.8627 22.0919 31.884C22.0742 31.9516 22.0456 32.0272 22.006 32.1101C21.9664 32.193 21.9201 32.271 21.8664 32.3453C21.8128 32.4196 21.7537 32.4812 21.6891 32.5299C21.6245 32.5787 21.5581 32.6031 21.4905 32.6031C21.3759 32.6031 21.2924 32.5647 21.2406 32.4885C21.1888 32.4123 21.1626 32.2722 21.1626 32.0686V31.9797C21.1626 31.9498 21.1644 31.9181 21.1681 31.8846C21.1718 31.817 21.1986 31.6896 21.2485 31.5025C21.2985 31.3161 21.3588 31.1052 21.4283 30.8694C21.4978 30.6336 21.5733 30.3904 21.6538 30.1375C21.7342 29.8852 21.8067 29.6592 21.8713 29.4599C21.6812 29.672 21.4758 29.8828 21.2534 30.093C21.0316 30.3033 20.8037 30.4916 20.5715 30.6592C20.3387 30.8267 20.1041 30.9638 19.8677 31.0693C19.6313 31.1753 19.404 31.2283 19.1858 31.2283C18.9353 31.2283 18.7196 31.1729 18.5386 31.0632C18.3577 30.9529 18.2084 30.8085 18.0901 30.6305C17.9719 30.4526 17.8842 30.2509 17.8269 30.026C17.7696 29.8012 17.741 29.5763 17.741 29.3514V29.2686C17.741 29.243 17.7428 29.218 17.7465 29.1924C17.7678 28.7853 17.8263 28.3673 17.9207 27.9389C18.0158 27.5105 18.1401 27.0839 18.2943 26.6604C18.4485 26.2363 18.6264 25.8219 18.8287 25.4167C19.031 25.0115 19.251 24.6288 19.4893 24.2686C19.7275 23.9085 19.9804 23.5764 20.2492 23.2729C20.5179 22.9694 20.7933 22.7086 21.0761 22.4905C21.3588 22.2723 21.6446 22.1017 21.9329 21.9786C22.2211 21.8555 22.5069 21.7939 22.7897 21.7939C23.1157 21.7939 23.4307 21.8829 23.7348 22.0609C24.0389 22.2388 24.3235 22.5276 24.5885 22.9262C24.6495 23.0151 24.6879 23.1053 24.7037 23.1967C24.7196 23.2881 24.7281 23.3741 24.7281 23.4545C24.7281 23.6452 24.6824 23.7957 24.591 23.906C24.4996 24.0163 24.3911 24.0712 24.2662 24.0712C24.1516 24.0712 24.045 24.0109 23.9469 23.8896C23.8481 23.7689 23.7385 23.5959 23.6166 23.371C23.502 23.1675 23.3759 23.02 23.2382 22.9286C23.1004 22.8372 22.9505 22.7921 22.7897 22.7921C22.5392 22.7921 22.2711 22.8963 21.9865 23.1041C21.7019 23.3119 21.4198 23.5867 21.1407 23.928C20.8616 24.2692 20.5935 24.6592 20.3375 25.0986C20.0816 25.5373 19.8549 25.9871 19.6581 26.4471C19.4612 26.9072 19.3046 27.3612 19.1882 27.8085C19.0718 28.2558 19.014 28.658 19.014 29.0144C19.014 29.1333 19.0219 29.2552 19.0383 29.3801C19.0548 29.505 19.0846 29.619 19.1297 29.7207C19.1742 29.8225 19.2352 29.9066 19.3125 29.9718C19.3893 30.0376 19.4868 30.0705 19.6051 30.0705C19.7373 30.0705 19.8878 30.026 20.056 29.937C20.2242 29.8481 20.3991 29.7317 20.5794 29.5873C20.7604 29.4428 20.942 29.2795 21.1248 29.0973C21.3076 28.9151 21.4777 28.7305 21.6349 28.544C21.7921 28.3575 21.9323 28.1784 22.0535 28.0065C22.1754 27.8347 22.2668 27.6854 22.3271 27.558L22.8268 26.0632C22.8878 25.9024 22.9676 25.7878 23.0657 25.7195C23.1644 25.6519 23.2656 25.6178 23.3692 25.6178C23.4191 25.6178 23.4691 25.6263 23.5197 25.6434C23.5697 25.6604 23.6147 25.6866 23.6537 25.7232C23.6934 25.7592 23.7244 25.8061 23.7476 25.8634C23.7708 25.9206 23.7823 25.9877 23.7823 26.0638C23.7823 26.2674 23.7647 26.4581 23.7287 26.6367C23.6927 26.8152 23.647 26.9889 23.5916 27.1583C23.5361 27.3277 23.4746 27.4989 23.4063 27.6702C23.3393 27.8408 23.2729 28.0199 23.2089 28.207ZM29.9815 29.4538C29.8237 29.6659 29.6403 29.8725 29.4313 30.0742C29.2216 30.2759 29.0059 30.455 28.7841 30.6116C28.5623 30.7682 28.3435 30.8944 28.129 30.99C27.9139 31.0857 27.7207 31.1333 27.5489 31.1333C27.377 31.1333 27.2375 31.076 27.1296 30.9614C27.0224 30.8468 26.9688 30.6518 26.9688 30.3758C26.9688 30.1808 26.9974 29.9535 27.0547 29.6951C26.9614 29.8609 26.8451 30.0285 26.7055 30.1979C26.566 30.3673 26.4063 30.522 26.2271 30.6622C26.048 30.8024 25.8475 30.9157 25.6257 31.0022C25.4039 31.0894 25.162 31.1326 24.9005 31.1326C24.7823 31.1326 24.6684 31.118 24.5593 31.0882C24.4502 31.0583 24.3545 31.0077 24.2723 30.9358C24.19 30.8639 24.1236 30.7676 24.0736 30.6464C24.0236 30.5257 23.9987 30.374 23.9987 30.1918C23.9987 30.1875 24.006 30.1229 24.02 29.998C24.034 29.8731 24.0797 29.6756 24.1571 29.4063C24.2339 29.1369 24.3533 28.7884 24.5142 28.36C24.6757 27.9316 24.903 27.4124 25.1961 26.8012C25.271 26.6403 25.3582 26.5245 25.4563 26.4545C25.555 26.3844 25.661 26.3496 25.7756 26.3496C25.8256 26.3496 25.8774 26.357 25.9316 26.3716C25.9852 26.3868 26.0352 26.41 26.0821 26.4417C26.1284 26.4733 26.1662 26.5136 26.1949 26.5623C26.2235 26.6111 26.2381 26.6671 26.2381 26.7311C26.2381 26.7738 26.2326 26.814 26.2217 26.8518C26.204 26.9243 26.1656 27.0181 26.1059 27.1351C26.0468 27.2521 25.9779 27.3856 25.8993 27.5361C25.8207 27.6866 25.7372 27.8487 25.6495 28.023C25.5617 28.1967 25.4801 28.377 25.4051 28.5635C25.3301 28.75 25.2656 28.9401 25.2119 29.1327C25.1583 29.3258 25.1278 29.5135 25.1205 29.6957C25.1205 29.7719 25.1382 29.842 25.1741 29.906C25.2101 29.9693 25.2692 30.0016 25.3515 30.0016C25.5843 30.0016 25.8061 29.9255 26.0175 29.7725C26.229 29.6202 26.424 29.43 26.6031 29.2034C26.7823 28.9767 26.9444 28.7329 27.0894 28.4715C27.2344 28.2107 27.3557 27.9724 27.452 27.7561C27.5202 27.6117 27.58 27.4569 27.6318 27.2917C27.6836 27.1266 27.7402 26.9736 27.8012 26.8335C27.8621 26.6933 27.9316 26.5769 28.0108 26.4837C28.0894 26.3905 28.1881 26.3436 28.3063 26.3436C28.4349 26.3436 28.5373 26.3923 28.6122 26.4898C28.6872 26.5873 28.725 26.7043 28.725 26.8396C28.725 26.9158 28.7012 27.0212 28.6525 27.1546C28.6037 27.2881 28.5434 27.441 28.4697 27.6129C28.3965 27.7847 28.3167 27.9681 28.2308 28.1632C28.1449 28.3582 28.065 28.5568 27.9919 28.7579C27.9182 28.9596 27.8578 29.1564 27.8091 29.3496C27.7609 29.5428 27.7366 29.7219 27.7366 29.8871C27.7366 30.04 27.8152 30.1162 27.973 30.1162C28.0839 30.1162 28.2216 30.0778 28.3868 30.0016C28.5519 29.9255 28.7244 29.8182 28.9054 29.6805C29.0863 29.5428 29.2667 29.3807 29.4477 29.1936C29.6287 29.0071 29.789 28.8054 29.9285 28.5891L29.9815 29.4538Z" fill="white" stroke="white" stroke-width="0.264085" stroke-miterlimit="10"/>
<path d="M30.1486 29.1357C30.109 29.2332 30.0706 29.3466 30.0328 29.4764C29.995 29.6055 29.9768 29.7213 29.9768 29.8231C29.9768 29.8865 29.9877 29.9377 30.0091 29.976C30.0304 30.0144 30.0718 30.0333 30.1328 30.0333C30.2077 30.0333 30.3016 30.0071 30.4149 29.9535C30.5276 29.9005 30.6495 29.8304 30.7799 29.7433C30.9109 29.6567 31.0468 29.5568 31.1882 29.4441C31.3296 29.3319 31.4703 29.2149 31.6099 29.0943C31.7494 28.973 31.8829 28.8524 32.0102 28.7317C32.1376 28.6104 32.251 28.4995 32.3515 28.3978C32.3801 28.3679 32.4143 28.3466 32.4533 28.3344C32.4923 28.3216 32.5264 28.3155 32.555 28.3155C32.6263 28.3155 32.686 28.3454 32.7324 28.4045C32.7787 28.4636 32.8018 28.5422 32.8018 28.6397C32.8018 28.7287 32.7768 28.8286 32.7269 28.9389C32.6769 29.0492 32.5892 29.1577 32.4636 29.2631C32.2345 29.5135 32.0035 29.7506 31.7708 29.9754C31.538 30.2003 31.3064 30.3983 31.0755 30.5702C30.8445 30.742 30.6154 30.8785 30.3881 30.9809C30.1608 31.0827 29.9396 31.1333 29.7245 31.1333C29.5776 31.1333 29.4551 31.1101 29.3564 31.0632C29.2577 31.0163 29.1791 30.9529 29.12 30.8724C29.0609 30.792 29.0188 30.6963 28.9938 30.586C28.9689 30.4757 28.9561 30.3593 28.9561 30.2362C28.9561 30.0285 28.9823 29.8152 29.0341 29.597C29.0859 29.3789 29.1474 29.1784 29.2193 28.9962C29.3448 28.6653 29.4716 28.3368 29.6008 28.0102C29.7294 27.6836 29.8476 27.3844 29.9554 27.1132L31.5825 23.0097C31.6471 22.8445 31.7336 22.7275 31.8433 22.6599C31.9524 22.5922 32.0627 22.5581 32.1736 22.5581C32.2845 22.5581 32.3856 22.5941 32.477 22.666C32.5684 22.7379 32.6141 22.8549 32.6141 23.0157C32.6141 23.0919 32.5989 23.173 32.5684 23.2577C32.538 23.3424 32.4996 23.4338 32.4533 23.5313C32.3637 23.7305 32.257 23.9743 32.134 24.2625C32.0102 24.5508 31.878 24.8646 31.7366 25.204C31.5953 25.5434 31.4502 25.8963 31.3015 26.2631C31.1529 26.63 31.0078 26.9871 30.8664 27.335C30.7251 27.683 30.5928 28.0126 30.4691 28.324C30.3442 28.636 30.2376 28.9066 30.1486 29.1357Z" fill="white" stroke="white" stroke-width="0.264085" stroke-miterlimit="10"/>
<path d="M37.7592 27.9842C37.8091 27.9501 37.8561 27.9227 37.8987 27.9013C37.9414 27.88 37.9828 27.8696 38.0224 27.8696C38.101 27.8696 38.1601 27.905 38.1998 27.9744C38.2394 28.0445 38.2589 28.1305 38.2589 28.2322C38.2589 28.3425 38.2351 28.4546 38.1863 28.5692C38.1382 28.6838 38.0657 28.7788 37.9688 28.8556C37.5855 29.195 37.2436 29.5046 36.9432 29.7843C36.6422 30.064 36.3588 30.3047 36.0919 30.5064C35.825 30.7081 35.5648 30.8635 35.3107 30.9738C35.0566 31.0841 34.7842 31.1389 34.4941 31.1389C34.2217 31.1389 34.0115 31.0792 33.8628 30.961C33.7141 30.8422 33.6398 30.6789 33.6398 30.4711V30.4235C33.6398 30.4089 33.6416 30.3906 33.6453 30.3693C33.6593 30.2419 33.7154 30.0957 33.8116 29.9305C33.9085 29.7654 34.0249 29.5936 34.1608 29.415C34.2967 29.2365 34.4417 29.0567 34.5959 28.8745C34.7501 28.6923 34.8921 28.5192 35.0231 28.3559C35.1535 28.1926 35.2619 28.0433 35.3479 27.9074C35.4338 27.7715 35.4771 27.6618 35.4771 27.5765C35.4771 27.5253 35.4588 27.4851 35.4234 27.4559C35.3875 27.426 35.3284 27.4114 35.2461 27.4114C35.1029 27.4114 34.9554 27.4486 34.8031 27.5229C34.6507 27.5972 34.5002 27.6966 34.3522 27.8215C34.2035 27.9464 34.0584 28.0896 33.9171 28.2511C33.7757 28.4126 33.6434 28.5796 33.5197 28.7538C33.396 28.9281 33.2833 29.1024 33.1815 29.2785C33.0798 29.4546 32.9926 29.6167 32.9213 29.7654C32.9 29.8123 32.8695 29.8781 32.8299 29.9628C32.7903 30.0475 32.7477 30.1432 32.7013 30.2493C32.6544 30.3553 32.6057 30.4644 32.5533 30.5765C32.5015 30.6892 32.4539 30.7953 32.4113 30.8946C32.368 30.9945 32.3296 31.0829 32.2955 31.1621C32.2614 31.2407 32.237 31.2943 32.223 31.3242C32.2047 31.3626 32.1755 31.4345 32.134 31.5405C32.0926 31.6466 32.0457 31.7703 31.9914 31.9129C31.9378 32.0548 31.8811 32.2041 31.8226 32.3614C31.7635 32.5186 31.7081 32.6667 31.6563 32.8068C31.6045 32.947 31.5588 33.0694 31.5192 33.1755C31.4795 33.2815 31.4546 33.3534 31.4436 33.3918C31.4076 33.5021 31.3656 33.6057 31.3175 33.7038C31.2693 33.8013 31.2139 33.8872 31.1511 33.9616C31.0883 34.0359 31.017 34.095 30.936 34.1395C30.8555 34.184 30.7648 34.2059 30.6648 34.2059C30.5356 34.2059 30.4296 34.1749 30.3449 34.1139C30.2608 34.0524 30.2188 33.9348 30.2188 33.7611C30.2188 33.6764 30.2297 33.5892 30.251 33.5003C30.2724 33.4113 30.2998 33.3229 30.3315 33.2364C30.3638 33.1493 30.3967 33.0646 30.4308 32.9823C30.4649 32.8994 30.496 32.8202 30.5247 32.7434C30.7178 32.3193 30.9153 31.894 31.1158 31.468C31.3162 31.0414 31.5088 30.6198 31.6928 30.2017C31.8775 29.7843 32.0481 29.3736 32.2059 28.9708C32.3631 28.568 32.4942 28.1816 32.5978 27.813C32.6264 27.7368 32.666 27.6283 32.716 27.4882C32.7659 27.348 32.8232 27.2103 32.8878 27.0744C32.9524 26.9385 33.0249 26.8209 33.1054 26.7216C33.1858 26.6216 33.2729 26.5723 33.3656 26.5723C33.5088 26.5723 33.6124 26.6052 33.677 26.671C33.7416 26.7368 33.7739 26.8331 33.7739 26.9604C33.7739 26.986 33.7702 27.0263 33.7629 27.0811C33.7556 27.1359 33.7464 27.1944 33.7361 27.256C33.7251 27.3175 33.7135 27.376 33.7013 27.4309C33.6885 27.4857 33.677 27.5259 33.6666 27.5515C33.7988 27.4071 33.942 27.2645 34.0962 27.1219C34.2504 26.9799 34.4094 26.8514 34.5746 26.7368C34.7391 26.6222 34.9073 26.529 35.0791 26.4565C35.251 26.3846 35.4228 26.3486 35.5947 26.3486C35.7129 26.3486 35.8299 26.3657 35.9463 26.3998C36.0627 26.4339 36.1663 26.4833 36.2577 26.5491C36.3491 26.6149 36.4234 26.6978 36.4807 26.7971C36.538 26.8971 36.5666 27.0122 36.5666 27.1439C36.5666 27.3182 36.5227 27.5034 36.435 27.7008C36.3472 27.8983 36.237 28.0963 36.1047 28.2956C35.9719 28.4949 35.8287 28.6892 35.6751 28.8775C35.5209 29.0665 35.3771 29.2383 35.2424 29.3931C35.1084 29.5479 34.9957 29.6795 34.9042 29.7873C34.8128 29.8958 34.7653 29.9689 34.7617 30.0067C34.7617 30.0579 34.7781 30.0987 34.8098 30.131C34.8415 30.1633 34.8957 30.1786 34.9713 30.1786C35.0322 30.1786 35.1218 30.1444 35.24 30.0768C35.3582 30.0092 35.524 29.8915 35.7367 29.724C35.9493 29.5564 36.2199 29.3315 36.5477 29.0494C36.8756 28.7679 37.2796 28.4126 37.7592 27.9842Z" fill="white" stroke="white" stroke-width="0.264085" stroke-miterlimit="10"/>
</svg>
