<svg width="58" height="56" viewBox="0 0 58 56" fill="none" xmlns="http://www.w3.org/2000/svg">
<path d="M40.0467 37.4644C39.8211 37.4645 39.6029 37.3846 39.4313 37.2391C39.2598 37.0935 39.146 36.8918 39.1106 36.6703C39.0751 36.4488 39.1203 36.222 39.238 36.0307C39.3556 35.8393 39.5381 35.696 39.7525 35.6265C41.5549 35.0398 42.7193 33.4689 42.7193 31.6239C42.7193 29.2874 40.808 27.3865 38.4586 27.3865C38.2953 27.3865 38.1197 27.3993 37.906 27.4269L36.9796 27.5463L36.8466 26.6263C36.2772 22.682 32.822 19.7075 28.8094 19.7075C25.4921 19.7075 22.5388 21.6824 21.2865 24.739L21.0506 25.3141L20.4266 25.3254C17.5586 25.3778 15.2253 27.7399 15.2253 30.5906C15.2253 32.6716 16.4402 34.5694 18.3204 35.4252C18.5489 35.5292 18.7265 35.7192 18.8141 35.9534C18.9017 36.1876 18.8922 36.4469 18.7876 36.6741C18.6831 36.9013 18.492 37.0779 18.2565 37.1651C18.021 37.2522 17.7603 37.2427 17.5318 37.1387C14.979 35.9771 13.3297 33.4067 13.3297 30.5907C13.3297 26.926 16.1691 23.8562 19.7755 23.4791C21.4373 20.0237 24.92 17.8232 28.809 17.8232C33.4639 17.8232 37.5103 21.0686 38.5595 25.5032C41.9075 25.5571 44.6146 28.2822 44.6146 31.6242C44.6146 34.2577 42.8974 36.5857 40.3419 37.4174C40.2442 37.4491 40.1446 37.4644 40.0467 37.4644Z" fill="#0071CE"/>
<path d="M25.5525 37.872L25.552 37.8718L25.5511 37.8715H25.5509L25.5506 37.8713L25.5504 37.871C25.5504 37.871 25.5501 37.871 25.5501 37.8708H25.5499L25.5496 37.8705C25.5499 37.8703 25.5494 37.8703 25.5494 37.8703L25.5492 37.8701H25.5489L25.5487 37.8698L25.5484 37.8696L25.5477 37.8693L25.5474 37.8691L25.5472 37.8688L25.547 37.8686L25.5462 37.8684C25.546 37.8686 25.546 37.8681 25.5457 37.8681L25.5455 37.8679L25.545 37.8676L25.5448 37.8674C25.5445 37.8671 25.544 37.8671 25.5438 37.8671L25.5428 37.8669L25.5423 37.8667H25.5421C25.5418 37.8664 25.5416 37.8664 25.5412 37.8664C25.541 37.8662 25.5405 37.8662 25.5405 37.8662H25.5402L25.5397 37.8659C25.5395 37.8659 25.5395 37.8657 25.5395 37.8657H25.5393C25.5243 37.8604 25.5087 37.8573 25.4928 37.8566H25.4913H25.4906L25.4904 37.8563H25.4878H25.488H25.4861C25.0766 37.8563 24.7415 37.5248 24.739 37.1185V28.8388H25.3771C25.4742 28.843 25.5405 28.7686 25.5405 28.6794C25.5405 28.6127 25.4994 28.5557 25.4411 28.5319L22.3796 26.4305C22.3528 26.4122 22.321 26.4023 22.2885 26.4023C22.256 26.4023 22.2242 26.4122 22.1974 26.4305L19.1119 28.5483C19.0839 28.5677 19.0629 28.5954 19.0518 28.6275C19.0408 28.6596 19.0403 28.6944 19.0504 28.7268C19.0606 28.7592 19.0808 28.7875 19.1082 28.8077C19.1357 28.8278 19.1688 28.8388 19.203 28.839H19.8409L19.8415 37.1207C19.8447 37.6932 20.3071 38.1605 20.8955 38.1753C20.9022 38.1761 20.9086 38.1765 20.9153 38.1765H25.4885C25.5306 38.1758 25.5687 38.159 25.5969 38.1322L25.5972 38.1319L25.5984 38.1307C25.5986 38.1305 25.5989 38.1305 25.5991 38.13L25.5994 38.1298L25.5996 38.1295L25.5999 38.1293L25.6001 38.129L25.6004 38.1288L25.6006 38.1285C25.6011 38.1283 25.6008 38.1283 25.6011 38.1281L25.6013 38.1278L25.6016 38.1276L25.6018 38.1273C25.6296 38.0988 25.6469 38.0601 25.647 38.0173V38.0149C25.6464 37.9847 25.6372 37.9552 25.6204 37.9299C25.6037 37.9046 25.5801 37.8846 25.5525 37.872Z" fill="#DC8327"/>
<path d="M32.1648 37.8719L32.1643 37.8717L32.1636 37.8714H32.1632L32.163 37.8712L32.1628 37.871H32.1625L32.1623 37.8707L32.162 37.8705C32.1623 37.8702 32.1618 37.8702 32.1615 37.8702L32.1613 37.87H32.161C32.1608 37.87 32.1608 37.8697 32.1608 37.8697C32.1603 37.87 32.1603 37.8695 32.1603 37.8695L32.1598 37.8693L32.1596 37.869H32.1593L32.1591 37.8688L32.1588 37.8685L32.1584 37.8683C32.1581 37.8685 32.1581 37.868 32.1576 37.868L32.1574 37.8678L32.1571 37.8676L32.1566 37.8673C32.1564 37.8671 32.1559 37.8671 32.1557 37.8671L32.1547 37.8668L32.1542 37.8666L32.1537 37.8663L32.1532 37.8661L32.1526 37.8659C32.1519 37.8659 32.1524 37.8659 32.1521 37.8656L32.1516 37.8654L32.1514 37.8651H32.1511C32.1362 37.8598 32.1205 37.8567 32.1047 37.856H32.1027L32.1025 37.8558H32.0975C31.6881 37.8558 31.3531 37.5242 31.3507 37.118V30.6928H31.9885C32.0263 30.6945 32.0635 30.6829 32.0935 30.66C32.1236 30.6371 32.1444 30.6043 32.1525 30.5675C32.1605 30.5307 32.1552 30.4923 32.1375 30.4591C32.1198 30.4258 32.0908 30.3998 32.0557 30.3858L28.994 28.2846C28.9672 28.2662 28.9354 28.2563 28.9029 28.2563C28.8703 28.2563 28.8385 28.2662 28.8117 28.2846L25.7275 30.4021C25.6995 30.4215 25.6784 30.4492 25.6674 30.4813C25.6563 30.5134 25.6558 30.5482 25.666 30.5806C25.6761 30.613 25.6964 30.6413 25.7238 30.6615C25.7512 30.6817 25.7844 30.6926 25.8185 30.6928H26.4536L26.4541 37.1204C26.4568 37.6932 26.9201 38.1607 27.5087 38.1753C27.5151 38.176 27.5215 38.1762 27.5279 38.1762H32.1013C32.1433 38.1755 32.1813 38.1587 32.2096 38.1319L32.2098 38.1316C32.2103 38.1311 32.2113 38.1307 32.211 38.1304C32.2113 38.1302 32.2115 38.1302 32.2118 38.1297L32.212 38.1294L32.2122 38.1292L32.2125 38.129C32.2125 38.129 32.2127 38.129 32.2127 38.1287L32.213 38.1285C32.2132 38.1285 32.2132 38.1282 32.2132 38.1282C32.214 38.128 32.2137 38.128 32.2137 38.1277L32.214 38.1275L32.2142 38.1273L32.2144 38.127C32.2422 38.0985 32.2595 38.0598 32.2597 38.017V38.0146C32.2589 37.9844 32.2496 37.955 32.2328 37.9297C32.216 37.9045 32.1925 37.8845 32.1648 37.8719Z" fill="#F4B21B"/>
<path d="M38.7944 37.872L38.7939 37.8717L38.7932 37.8715H38.7929L38.7927 37.8712L38.7924 37.871C38.7922 37.871 38.7922 37.871 38.7922 37.8708H38.792L38.7917 37.8705L38.7915 37.8703C38.7915 37.8703 38.7912 37.8703 38.7912 37.87H38.791L38.7907 37.8698C38.7905 37.87 38.7905 37.8695 38.7902 37.8695C38.7905 37.8693 38.79 37.8693 38.7898 37.8693L38.7895 37.8691H38.7893L38.789 37.8688L38.7888 37.8686L38.7883 37.8683C38.788 37.8686 38.788 37.8681 38.7876 37.8681L38.7873 37.8678C38.7876 37.8676 38.7871 37.8676 38.7868 37.8676C38.7868 37.8676 38.7866 37.8676 38.7866 37.8674C38.7863 37.8671 38.7858 37.8671 38.7856 37.8671L38.7845 37.8669L38.784 37.8666L38.7835 37.8664L38.783 37.8661L38.7825 37.8659C38.7818 37.8659 38.7818 37.8659 38.7821 37.8656C38.7818 37.8656 38.7818 37.8654 38.7818 37.8654L38.7813 37.8652H38.7811C38.7661 37.8599 38.7505 37.8568 38.7346 37.856H38.7323L38.7318 37.8558H38.7291H38.7274H38.7284H38.7282C38.3188 37.8558 37.9838 37.5243 37.9812 37.118V32.5461H38.6209C38.7111 32.5441 38.7843 32.4761 38.7843 32.3869C38.7843 32.3201 38.7432 32.2631 38.6849 32.2393L35.6231 30.1381C35.5963 30.1197 35.5646 30.1099 35.532 30.1099C35.4995 30.1099 35.4677 30.1197 35.4409 30.1381L32.3554 32.2556C32.3275 32.275 32.3064 32.3027 32.2954 32.3348C32.2843 32.3669 32.2838 32.4017 32.2939 32.434C32.3041 32.4664 32.3243 32.4948 32.3518 32.5149C32.3792 32.5351 32.4124 32.5461 32.4465 32.5462H33.0828L33.0833 37.1204C33.0865 37.6932 33.5494 38.161 34.1378 38.1753C34.1442 38.176 34.1507 38.1763 34.1571 38.1763H38.7304C38.7724 38.1755 38.8105 38.1588 38.8388 38.1319L38.839 38.1317C38.8395 38.1312 38.8402 38.1307 38.8402 38.1305C38.8405 38.1302 38.8407 38.1302 38.841 38.1297L38.8412 38.1295L38.8414 38.1292L38.8417 38.129L38.8419 38.1288L38.8422 38.1285L38.8424 38.1283C38.8432 38.128 38.8427 38.128 38.8429 38.1278L38.8432 38.1275L38.8434 38.1273L38.8436 38.1271C38.8714 38.0985 38.8886 38.0599 38.8889 38.0171V38.0146C38.8882 37.9844 38.879 37.955 38.8623 37.9298C38.8456 37.9045 38.8221 37.8845 38.7944 37.872Z" fill="#F2D864"/>
</svg>
