<svg width="57" height="56" viewBox="0 0 57 56" fill="none" xmlns="http://www.w3.org/2000/svg">
<path d="M23.1952 13.3343H32.4527L22.8425 41.6667C22.7933 41.8114 22.7218 41.9475 22.6305 42.0703C22.5394 42.1932 22.4295 42.301 22.3047 42.39C22.18 42.4791 22.0423 42.5483 21.8961 42.595C21.7498 42.6417 21.5973 42.6658 21.444 42.6658H14.2393C14.0055 42.6658 13.7747 42.6105 13.5667 42.504C13.3584 42.3977 13.1786 42.2436 13.0422 42.0544C12.9058 41.8652 12.8165 41.6465 12.7818 41.4162C12.747 41.186 12.7681 40.9507 12.8428 40.7302L21.7963 14.3326C21.8452 14.1879 21.9168 14.0518 22.0083 13.9289C22.0994 13.806 22.2097 13.6983 22.3341 13.6092C22.4588 13.5202 22.5965 13.4509 22.7428 13.4043C22.889 13.3576 23.0415 13.3335 23.1949 13.3335V13.3339L23.1952 13.3343Z" fill="url(#paint0_linear_179_3145)"/>
<path d="M40.2607 42.666H31.9482C31.8555 42.666 31.7628 42.6574 31.6713 42.6399C31.5801 42.6228 31.4906 42.5972 31.4042 42.5633C31.3177 42.5295 31.2348 42.4875 31.1562 42.4385C31.0777 42.3891 31.004 42.3326 30.936 42.2697L21.503 33.509C21.4032 33.4164 21.3337 33.296 21.3036 33.1637C21.2734 33.0313 21.284 32.8929 21.334 32.7666C21.384 32.6403 21.4711 32.5318 21.584 32.4554C21.697 32.3792 21.8303 32.3384 21.9668 32.3384H36.6467L40.2599 42.6664L40.2607 42.666Z" fill="#0078D4"/>
<path d="M32.4859 13.3345L26.0056 32.3404L36.5939 32.338L40.2259 42.666H31.9446C31.859 42.6653 31.7733 42.6575 31.6889 42.6423C31.6044 42.6272 31.5215 42.605 31.4409 42.5754C31.2794 42.5169 31.1291 42.4313 30.9966 42.3222L24.629 36.4123L22.8464 41.6401C22.8002 41.7708 22.7369 41.8948 22.6579 42.0088C22.4996 42.238 22.283 42.4215 22.0302 42.5404C21.9043 42.5996 21.7711 42.6419 21.634 42.666H14.2437C14.0074 42.6668 13.7743 42.6108 13.5643 42.5027C13.3543 42.3947 13.1735 42.2379 13.0372 42.0458C12.9009 41.8536 12.8132 41.6316 12.7814 41.3986C12.7497 41.1654 12.7748 40.9282 12.8545 40.7067L21.7936 14.3527C21.8401 14.2053 21.9101 14.0664 22.0009 13.9412C22.0912 13.816 22.2015 13.7055 22.3266 13.6145C22.4518 13.5235 22.591 13.4527 22.7385 13.4053C22.8859 13.3578 23.0404 13.3337 23.1956 13.3345H32.4863H32.4859Z" fill="url(#paint1_linear_179_3145)"/>
<path d="M43.9729 40.7304C44.0476 40.951 44.0687 41.1861 44.0343 41.4164C43.9996 41.6466 43.9104 41.8653 43.7742 42.0546C43.6378 42.2437 43.4581 42.3978 43.2499 42.5041C43.0418 42.6104 42.8111 42.6659 42.5771 42.666H32.2594C32.4933 42.666 32.7241 42.6104 32.9325 42.5042C33.1406 42.3981 33.3205 42.2437 33.457 42.0546C33.5934 41.8656 33.6826 41.6467 33.7174 41.4164C33.7522 41.1862 33.7311 40.9509 33.6564 40.7304L24.7025 14.332C24.6039 14.0412 24.4161 13.7885 24.1655 13.6094C24.0411 13.5204 23.9035 13.4515 23.7576 13.4049C23.6117 13.3582 23.4592 13.3345 23.3063 13.3345H33.6236C33.7769 13.3345 33.929 13.3582 34.0753 13.4049C34.2211 13.4515 34.3588 13.5208 34.4836 13.6094C34.6079 13.6985 34.7178 13.8062 34.8089 13.9287C34.9001 14.0512 34.9712 14.1874 35.0205 14.332L43.9745 40.7304H43.9729Z" fill="url(#paint2_linear_179_3145)"/>
<defs>
<linearGradient id="paint0_linear_179_3145" x1="26.5738" y1="15.5083" x2="17.0489" y2="43.8029" gradientUnits="userSpaceOnUse">
<stop stop-color="#114A8B"/>
<stop offset="1" stop-color="#0669BC"/>
</linearGradient>
<linearGradient id="paint1_linear_179_3145" x1="29.5735" y1="28.6772" x2="27.3508" y2="29.4353" gradientUnits="userSpaceOnUse">
<stop stop-opacity="0.3"/>
<stop offset="0.1" stop-opacity="0.2"/>
<stop offset="0.3" stop-opacity="0.1"/>
<stop offset="0.6" stop-opacity="0.1"/>
<stop offset="1" stop-opacity="0"/>
</linearGradient>
<linearGradient id="paint2_linear_179_3145" x1="28.3454" y1="14.684" x2="38.8021" y2="42.697" gradientUnits="userSpaceOnUse">
<stop stop-color="#3CCBF4"/>
<stop offset="1" stop-color="#2892DF"/>
</linearGradient>
</defs>
</svg>
