<svg width="57" height="56" viewBox="0 0 57 56" fill="none" xmlns="http://www.w3.org/2000/svg">
<path d="M16.1982 31.0287C17.8791 31.0287 19.2416 29.6736 19.2416 28.0021C19.2416 26.3306 17.8791 24.9756 16.1982 24.9756C14.5174 24.9756 13.1548 26.3306 13.1548 28.0021C13.1548 29.6736 14.5174 31.0287 16.1982 31.0287Z" fill="#FF6309"/>
<path d="M38.0215 43.5554C39.7025 43.5554 41.0651 42.2003 41.0651 40.5287C41.0651 38.8571 39.7025 37.502 38.0215 37.502C36.3406 37.502 34.9779 38.8571 34.9779 40.5287C34.9779 42.2003 36.3406 43.5554 38.0215 43.5554Z" fill="#FFB515"/>
<path d="M38.0189 18.4974C39.6997 18.4974 41.0623 17.1424 41.0623 15.4709C41.0623 13.7994 39.6997 12.4443 38.0189 12.4443C36.338 12.4443 34.9755 13.7994 34.9755 15.4709C34.9755 17.1424 36.338 18.4974 38.0189 18.4974Z" fill="#C90016"/>
<path d="M30.7466 20.5132C34.5363 20.5132 37.6805 23.3115 38.2012 26.9394H43.4153C43.1781 24.0887 41.9901 21.4316 40.0029 19.3363C38.7302 19.9807 37.1653 19.9931 35.8361 19.2301C34.5058 18.4661 33.734 17.1115 33.66 15.6917C32.7047 15.4705 31.727 15.359 30.7461 15.3594C28.8435 15.3594 27.0049 15.7723 25.3328 16.5555L27.9438 21.0519C28.8347 20.6953 29.7862 20.5124 30.7466 20.5132Z" fill="#FF6309"/>
<path d="M23.2161 28.0023C23.2161 25.6163 24.3438 23.4878 26.0968 22.1154L23.4868 17.6196C22.8686 18.0492 22.2894 18.532 21.7561 19.0623C20.2456 20.5643 19.1625 22.3778 18.5665 24.3571C19.7674 25.1306 20.5626 26.4735 20.5626 28.0023C20.5626 29.5307 19.7674 30.8738 18.5665 31.6471C19.1625 33.6264 20.2456 35.4397 21.7561 36.9421C22.289 37.4722 22.8677 37.9548 23.4854 38.3844L26.0958 33.888C24.3432 32.5158 23.2161 30.3875 23.2161 28.0023Z" fill="#FFB515"/>
<path d="M38.2015 29.0615C37.6822 32.6906 34.5374 35.4908 30.7466 35.4908C29.7561 35.4908 28.8096 35.299 27.9428 34.9517L25.332 39.4482C27.0037 40.2318 28.8434 40.6449 30.7464 40.6449C31.7406 40.6449 32.7177 40.5309 33.6624 40.3122C33.7351 38.8906 34.5069 37.5335 35.8382 36.7691C37.1679 36.0057 38.7334 36.0177 40.0061 36.6636C41.9914 34.5678 43.1787 31.9112 43.4148 29.0615H38.2015Z" fill="#C90016"/>
</svg>
