<svg width="57" height="56" viewBox="0 0 57 56" fill="none" xmlns="http://www.w3.org/2000/svg">
<path d="M44.1118 12.4443H12.8268V43.5554H44.1118V12.4443Z" fill="#F7DF1E"/>
<path d="M33.8424 36.7502C34.4725 37.7734 35.2924 38.5255 36.7424 38.5255C37.9605 38.5255 38.7387 37.92 38.7387 37.0835C38.7387 36.081 37.9392 35.726 36.5984 35.1427L35.8635 34.8292C33.742 33.9304 32.3327 32.8045 32.3327 30.4242C32.3327 28.2316 34.0127 26.5625 36.6381 26.5625C38.5073 26.5625 39.8511 27.2094 40.8194 28.9032L38.5301 30.365C38.0261 29.4662 37.4823 29.1121 36.6381 29.1121C35.7771 29.1121 35.2313 29.6553 35.2313 30.365C35.2313 31.242 35.7776 31.5971 37.0389 32.1403L37.7738 32.4534C40.2717 33.5185 41.682 34.6045 41.682 37.046C41.682 39.6781 39.6028 41.12 36.8105 41.12C34.0802 41.12 32.3164 39.8262 31.4533 38.1304L33.8424 36.7502ZM23.4573 37.0035C23.9191 37.8183 24.3392 38.5072 25.3492 38.5072C26.3151 38.5072 26.9244 38.1314 26.9244 36.6702V26.7294H29.8642V36.7097C29.8642 39.7368 28.0795 41.1146 25.4744 41.1146C23.1206 41.1146 21.7574 39.9032 21.0642 38.4442L23.4573 37.0035Z" fill="black"/>
</svg>
