<svg width="58" height="56" viewBox="0 0 58 56" fill="none" xmlns="http://www.w3.org/2000/svg">
<path d="M42.2691 36.4762C40.5669 36.4333 39.2476 36.6052 38.1412 37.0776C37.822 37.2064 37.3113 37.2065 37.2687 37.6147C37.439 37.7865 37.4602 38.0658 37.6092 38.3019C37.8648 38.7314 38.3113 39.3114 38.7156 39.6123C39.1624 39.9558 39.6094 40.2994 40.0773 40.6002C40.9073 41.1157 41.8436 41.4163 42.6521 41.9318C43.1204 42.2323 43.5882 42.6192 44.0563 42.9413C44.2904 43.1129 44.4393 43.3924 44.7373 43.4997V43.4354C44.5882 43.2419 44.5457 42.9628 44.3968 42.748C44.1843 42.5332 43.9712 42.3399 43.7584 42.1251C43.1414 41.2875 42.3755 40.5572 41.5457 39.9558C40.8648 39.4833 39.3752 38.839 39.0987 38.0442C39.0987 38.0442 39.0773 38.0228 39.0561 38.0013C39.5242 37.9584 40.0773 37.7865 40.5243 37.6576C41.2477 37.4642 41.9073 37.5073 42.6521 37.3139C42.9925 37.228 43.3329 37.1206 43.6733 37.0132V36.82C43.2905 36.4333 43.0139 35.9179 42.6095 35.5527C41.5244 34.6075 40.3327 33.684 39.0987 32.9108C38.439 32.4812 37.5878 32.202 36.8857 31.8369C36.6306 31.7079 36.2048 31.6436 36.056 31.4288C35.6728 30.9563 35.46 30.3335 35.1835 29.775C34.5666 28.5935 33.9707 27.2834 33.4387 26.0378C33.0559 25.2 32.8218 24.3623 32.3536 23.5892C30.162 19.9378 27.7789 17.7255 24.1192 15.5561C23.3318 15.1051 22.3956 14.9118 21.3956 14.6756C20.8638 14.654 20.3317 14.6112 19.7998 14.5896C19.4593 14.4392 19.1189 14.0312 18.8209 13.8379C17.6083 13.0645 14.4803 11.3894 13.5866 13.6017C13.0121 14.9977 14.4378 16.3722 14.927 17.0812C15.289 17.5752 15.757 18.1336 16.0123 18.6921C16.1613 19.057 16.2037 19.4439 16.3527 19.8304C16.6933 20.7752 17.0122 21.8279 17.4592 22.7086C17.6933 23.1596 17.9486 23.6321 18.2465 24.0402C18.4167 24.2764 18.7145 24.3839 18.7785 24.7704C18.4807 25.2 18.4593 25.8445 18.2889 26.3814C17.523 28.8085 17.821 31.8154 18.9061 33.5981C19.2464 34.1349 20.0551 35.3166 21.1402 34.8654C22.0978 34.4788 21.885 33.2545 22.1614 32.1806C22.2255 31.9226 22.1829 31.751 22.3105 31.5791V31.6222C22.6084 32.2234 22.9062 32.8036 23.1829 33.4049C23.8426 34.4572 24.9914 35.5527 25.9489 36.2831C26.4598 36.6695 26.864 37.3354 27.5024 37.5717V37.5071H27.4597C27.332 37.3138 27.1405 37.228 26.9704 37.0775C26.5874 36.6911 26.1617 36.2185 25.8639 35.7889C24.9704 34.586 24.1829 33.2544 23.4808 31.8798C23.1404 31.2141 22.8424 30.4837 22.5659 29.818C22.4381 29.5599 22.4381 29.1735 22.2254 29.0448C21.9062 29.5172 21.4381 29.9254 21.2041 30.5052C20.8 31.4288 20.7573 32.5671 20.6083 33.7483C20.5232 33.7701 20.5657 33.7483 20.5231 33.7916C19.8424 33.6195 19.6083 32.9108 19.3528 32.3094C18.7144 30.7845 18.608 28.3359 19.1614 26.5747C19.3104 26.1236 19.9488 24.7061 19.6934 24.2765C19.5657 23.8683 19.14 23.6321 18.9061 23.31C18.6295 22.9018 18.3315 22.3865 18.1401 21.9353C17.6294 20.7325 17.374 19.4008 16.8208 18.198C16.5655 17.6395 16.1188 17.0598 15.757 16.5442C15.3528 15.9643 14.9059 15.5561 14.5867 14.8688C14.4804 14.6327 14.3313 14.246 14.5016 13.9882C14.5441 13.8164 14.6291 13.7521 14.7995 13.7091C15.0761 13.4727 15.8635 13.7734 16.1399 13.9023C16.9272 14.2243 17.5868 14.5252 18.2465 14.9762C18.5443 15.191 18.8635 15.5992 19.2464 15.7066H19.6933C20.3743 15.8568 21.1401 15.7495 21.7785 15.9427C22.9063 16.3078 23.9275 16.8448 24.8426 17.4248C27.63 19.2075 29.9278 21.742 31.4813 24.7704C31.7366 25.2642 31.8429 25.7156 32.077 26.2309C32.524 27.2834 33.0771 28.3574 33.5238 29.3883C33.9707 30.3977 34.3961 31.4288 35.0346 32.2665C35.3538 32.7174 36.6303 32.9538 37.2049 33.1901C37.6305 33.3833 38.2902 33.5553 38.6731 33.7914C39.3965 34.2423 40.1199 34.7581 40.8009 35.2519C41.1413 35.5097 42.2051 36.0467 42.2691 36.4762Z" fill="#00546B"/>
<path d="M20.5656 17.811C20.204 17.811 19.9487 17.8542 19.6934 17.9186V17.9615H19.7359C19.9063 18.3052 20.204 18.5415 20.4166 18.8421C20.587 19.1857 20.7358 19.5295 20.9062 19.8732C20.9274 19.8516 20.9486 19.8302 20.9486 19.8302C21.2467 19.6153 21.3955 19.2717 21.3955 18.7562C21.2678 18.606 21.2466 18.4556 21.1402 18.3052C21.0126 18.0903 20.7358 17.983 20.5656 17.811Z" fill="#00546B"/>
</svg>
