<svg width="56" height="56" viewBox="0 0 56 56" fill="none" xmlns="http://www.w3.org/2000/svg">
<path d="M26.7776 12.4751H31.8615V35.7767C29.2574 36.2693 27.3404 36.4631 25.2662 36.4631C19.0567 36.4566 15.8245 33.6825 15.8245 28.3547C15.8245 23.2214 19.253 19.8899 24.566 19.8899C25.3905 19.8899 26.0186 19.9548 26.7776 20.1492V12.4751ZM26.9557 24.3484C26.3603 24.1539 25.8696 24.0891 25.2414 24.0891C22.6701 24.0891 21.1848 25.6576 21.1848 28.4064C21.1848 31.0826 22.6047 32.5603 25.2088 32.5603C25.7714 32.5603 26.2295 32.5287 26.9557 32.4314V24.3484Z" fill="#2BA977"/>
<path d="M40.1753 20.5155V32.1823C40.1753 36.2001 39.8744 38.1322 38.991 39.798C38.1666 41.3995 37.0805 42.4094 34.8362 43.5248L30.1187 41.3017C32.3629 40.2587 33.449 39.3371 34.1427 37.9307C34.8688 36.4925 35.0979 34.8266 35.0979 30.4452V20.5156H40.1753V20.5155ZM34.5855 12.4751H39.6695V17.6409H34.5855V12.4751Z" fill="#2BA977"/>
</svg>
