<svg width="56" height="56" viewBox="0 0 56 56" fill="none" xmlns="http://www.w3.org/2000/svg">
<path fill-rule="evenodd" clip-rule="evenodd" d="M30.6545 16.0063L37.0431 19.6949C37.2276 19.4998 37.4392 19.3323 37.6715 19.1976C38.9964 18.4359 40.6864 18.8882 41.456 20.2132C42.2177 21.5382 41.7655 23.2281 40.4405 23.9977C40.2099 24.1305 39.9614 24.2294 39.7026 24.2915V31.6715C39.9586 31.7337 40.2044 31.832 40.4326 31.9634C41.7655 32.733 42.2177 34.423 41.4481 35.748C40.6864 37.0729 38.9886 37.5251 37.6636 36.7635C37.4069 36.6162 37.1756 36.4285 36.9788 36.2076L30.629 39.8736C30.722 40.1551 30.7693 40.4498 30.7689 40.7463C30.7689 42.2696 29.5313 43.5154 28 43.5154C26.4687 43.5154 25.2311 42.2775 25.2311 40.7463C25.2311 40.4741 25.2702 40.2112 25.3431 39.9629L18.9562 36.2753C18.7738 36.4666 18.5651 36.631 18.3364 36.7635C17.0035 37.5251 15.3136 37.0729 14.5518 35.748C13.7902 34.423 14.2425 32.733 15.5674 31.9634C15.7956 31.8319 16.0414 31.7336 16.2973 31.6714V24.2915C16.0386 24.2294 15.7901 24.1305 15.5595 23.9977C14.2345 23.2361 13.7822 21.5382 14.544 20.2132C15.3057 18.8882 17.0034 18.4359 18.3284 19.1976C18.5595 19.3316 18.7701 19.498 18.9538 19.6918L25.3443 16.0022C25.2689 15.7465 25.2308 15.4813 25.2311 15.2147C25.2311 13.6836 26.4687 12.4458 28 12.4458C29.5313 12.4458 30.7689 13.6835 30.7689 15.2147C30.7689 15.49 30.729 15.7556 30.6545 16.0063ZM29.989 17.1428L36.3928 20.8401C36.2908 21.1966 36.2616 21.5699 36.3068 21.9379C36.352 22.3058 36.4708 22.661 36.656 22.9821C37.0458 23.6602 37.6808 24.1098 38.3856 24.285V31.6742C38.3497 31.683 38.3139 31.6926 38.2784 31.7027L29.9145 17.2168C29.9398 17.1926 29.9647 17.168 29.989 17.1429V17.1428ZM26.0872 17.2184L17.7234 31.7041C17.6873 31.6937 17.6509 31.684 17.6144 31.675V24.285C18.3191 24.1098 18.9542 23.6602 19.344 22.9821C19.5296 22.6603 19.6485 22.3045 19.6935 21.9357C19.7385 21.567 19.7088 21.193 19.6061 20.836L26.0081 17.1398C26.0339 17.1664 26.0603 17.1927 26.0872 17.2183V17.2184ZM28.7737 17.8746L37.1355 32.3571C36.9439 32.5398 36.7798 32.7493 36.648 32.9789C36.5166 33.2072 36.4183 33.4529 36.3562 33.7089H19.644C19.5818 33.4529 19.4835 33.2072 19.352 32.9789C19.2198 32.7509 19.0559 32.5427 18.8653 32.3606L27.2287 17.8752C27.4794 17.9474 27.7391 17.9839 28 17.9837C28.2686 17.9837 28.5282 17.9457 28.7737 17.8746ZM30.0477 38.8809L36.4099 35.2076C36.3909 35.1476 36.3738 35.087 36.3589 35.0259H19.6405C19.6316 35.0619 19.622 35.0975 19.6117 35.133L26.0051 38.8244C26.2633 38.5559 26.5731 38.3425 26.9159 38.1969C27.2588 38.0514 27.6275 37.9767 28 37.9774C28.3855 37.9767 28.7668 38.0567 29.1195 38.2124C29.4722 38.368 29.7884 38.5957 30.0477 38.8809Z" fill="#E535AB"/>
</svg>
