<svg width="56" height="56" viewBox="0 0 56 56" fill="none" xmlns="http://www.w3.org/2000/svg">
<path d="M21.6638 26.8235C21.5211 26.6371 21.3103 26.5149 21.0776 26.4835C20.845 26.4522 20.6094 26.5143 20.4224 26.6563C20.3124 26.743 20.2236 26.8537 20.1629 26.98L12.5405 42.2292C12.4326 42.4453 12.4148 42.6954 12.4912 42.9246C12.5676 43.1537 12.7319 43.3432 12.9479 43.4513C13.0742 43.5152 13.2138 43.5483 13.3553 43.5478H23.9752C24.1453 43.5522 24.313 43.5068 24.4577 43.4173C24.6024 43.3278 24.7179 43.1981 24.79 43.0439C27.0821 38.3097 25.6927 31.1118 21.6638 26.8235Z" fill="url(#paint0_linear_179_877)"/>
<path d="M27.2664 12.9465C25.3662 15.8705 24.2588 19.2384 24.0528 22.7195C23.8468 26.2007 24.5493 29.6756 26.0914 32.8034L31.2117 43.0438C31.2873 43.1952 31.4036 43.3225 31.5475 43.4114C31.6914 43.5004 31.8572 43.5476 32.0264 43.5477H42.6442C42.764 43.548 42.8826 43.5246 42.9933 43.4789C43.104 43.4332 43.2046 43.3661 43.2892 43.2814C43.3739 43.1967 43.441 43.0962 43.4867 42.9855C43.5324 42.8748 43.5558 42.7562 43.5555 42.6364C43.5556 42.4952 43.5233 42.3558 43.4612 42.229L28.8166 12.9422C28.7471 12.7954 28.6374 12.6714 28.5002 12.5846C28.363 12.4978 28.2039 12.4517 28.0415 12.4517C27.8792 12.4517 27.7201 12.4978 27.5829 12.5846C27.4457 12.6714 27.3359 12.7954 27.2664 12.9422V12.9465Z" fill="#2684FF"/>
<defs>
<linearGradient id="paint0_linear_179_877" x1="25.8599" y1="29.1542" x2="17.8108" y2="43.0954" gradientUnits="userSpaceOnUse">
<stop stop-color="#0052CC"/>
<stop offset="0.92" stop-color="#2684FF"/>
</linearGradient>
</defs>
</svg>
