<svg width="57" height="56" viewBox="0 0 57 56" fill="none" xmlns="http://www.w3.org/2000/svg">
<path d="M41.8267 12.4443L39.3276 40.4411L28.0938 43.5554L16.891 40.4455L14.3945 12.4443H41.8267Z" fill="#264DE4"/>
<path d="M37.188 38.6584L39.3237 14.7339H28.1106V41.175L37.188 38.6584Z" fill="#2965F1"/>
<path d="M20.1177 25.1191L20.4255 28.5533H28.1106V25.1191H20.1177Z" fill="#EBEBEB"/>
<path d="M28.1107 18.168H28.0988H19.4993L19.8115 21.6022H28.1107V18.168Z" fill="#EBEBEB"/>
<path d="M28.1107 37.6112V34.0382L28.0956 34.0422L24.2709 33.0095L24.0264 30.2705H22.1679H20.579L21.0601 35.6627L28.0949 37.6156L28.1107 37.6112Z" fill="#EBEBEB"/>
<path d="M32.3276 28.5531L31.929 33.007L28.0988 34.0408V37.6137L35.1391 35.6625L35.1908 35.0823L35.9978 26.0411L36.0816 25.1189L36.7015 18.168H28.0988V21.6022H32.9379L32.6254 25.1189H28.0988V28.5531H32.3276Z" fill="white"/>
</svg>
