<svg width="57" height="56" viewBox="0 0 57 56" fill="none" xmlns="http://www.w3.org/2000/svg">
<g clip-path="url(#clip0_179_929)">
<path d="M43.7802 30.5941C43.7044 29.8489 43.1631 29.5166 42.6552 29.5166C42.4226 29.5166 42.2374 29.583 42.1663 29.6115L42.0665 29.6543L41.9811 29.716C41.8624 29.8061 41.6536 29.9295 41.4684 29.996C41.459 29.8441 41.4637 29.6495 41.4874 29.4881L41.4921 29.4596C41.6298 28.1494 41.3545 27.3851 40.6756 27.1904C40.5617 27.1572 40.443 27.143 40.3243 27.143C39.9113 27.143 39.5458 27.3423 39.3084 27.5132C39.1091 27.2617 38.7768 27.1193 38.3591 27.1193C37.7372 27.1193 37.2387 27.4089 37.0583 27.874C37.0393 27.9215 37.0156 27.9927 36.9871 28.0877C36.6216 27.2806 35.8763 26.9721 35.1832 26.9721C34.5281 26.9721 33.892 27.2284 33.6546 27.4088C33.6451 27.4183 33.6309 27.4231 33.6166 27.4373C32.9948 27.8788 32.5105 28.4342 32.1687 29.1035C32.0026 28.5244 31.6371 27.9832 30.982 27.575L30.9725 27.5655C30.9535 27.556 30.9393 27.5465 30.9202 27.537C31.5611 26.3977 32.1308 24.8881 31.789 23.4497C31.4282 21.9164 30.5262 21.6885 30.0183 21.6885C29.8094 21.6885 29.5958 21.7265 29.3774 21.8024L29.3632 21.8072L29.3489 21.8119C28.3948 22.1869 27.977 22.7519 27.8868 22.8848C27.7919 23.0272 26.7475 24.6128 26.4959 26.9341C26.4675 27.1904 26.4389 27.4563 26.4104 27.7221C26.2633 27.5132 26.0212 27.3234 25.6367 27.2047C25.518 27.1667 25.3946 27.1525 25.2712 27.1525C24.7442 27.1525 24.3169 27.4753 24.0891 27.6889L24.0843 27.6841C23.885 27.3898 23.5669 27.2142 23.2156 27.2H23.1302C22.57 27.2 22.1238 27.4468 21.7962 27.7269C21.5874 27.3613 21.2028 27.1335 20.7519 27.1335C20.7139 27.1335 20.6806 27.1335 20.6474 27.1383H20.5714C19.9496 27.1383 19.4606 27.4326 19.2613 27.9215C19.247 27.9595 19.228 28.0069 19.209 28.0686C18.7201 27.4611 18.0982 27.1762 17.2627 27.1762H17.1821C16.6598 27.1857 15.3591 27.4041 14.5615 29.1985C14.4381 29.4739 14.3432 29.7539 14.272 30.0293C14.1291 29.9634 13.9736 29.9294 13.8162 29.9295C13.3985 29.9295 13.0852 30.1669 12.9333 30.3901C12.8099 30.5704 12.4158 31.2113 12.6105 31.8379C12.715 32.1749 12.957 32.4313 13.2988 32.5642C13.5979 32.6829 13.9777 32.7968 14.2625 32.8775C14.4381 33.2763 14.7515 33.7368 15.3069 34.1593C15.7009 34.4584 16.2041 34.6103 16.7975 34.6103C17.7944 34.6103 18.758 34.1783 18.8625 34.1308L18.9005 34.1118L18.9099 34.1023C19.0998 34.3017 19.3514 34.4441 19.6695 34.5058C19.7644 34.5248 19.8878 34.5391 20.0303 34.5391C20.5714 34.5391 20.9465 34.2637 21.293 33.7463C21.5778 34.1925 22.0953 34.4441 22.7077 34.4441H22.7124C22.7457 34.4441 22.7789 34.4679 22.8169 34.4679C23.1396 34.4679 23.5432 34.3539 23.8803 33.8128C24.1603 34.3159 24.673 34.6055 25.2807 34.6055C25.8218 34.6055 26.2918 34.3824 26.3772 34.3397L26.3962 34.3302C26.5766 34.2352 26.7285 34.1498 26.8472 34.0833C27.2507 34.2969 27.8631 34.5343 28.6131 34.5343C28.7413 34.5343 28.8695 34.5295 28.9976 34.5154L29.0309 34.5106L29.0641 34.5058C30.6544 34.1925 31.6893 33.8128 32.3064 33.5231C32.7384 34.0074 33.4267 34.4726 34.4094 34.5438C34.5186 34.5533 34.6325 34.558 34.7417 34.558C35.5487 34.558 36.1943 34.3302 36.6691 34.0785C36.821 34.24 37.0109 34.3871 37.2577 34.4868C37.4048 34.5485 37.5567 34.577 37.7134 34.577C38.7008 34.577 39.1613 33.3997 39.2895 33.001L39.5268 32.3649C39.7357 32.5879 40.0016 32.7684 40.3386 32.8633C40.5237 32.9156 40.7231 32.944 40.9273 32.944C42.0144 32.944 43.0587 32.1749 43.2248 32.0468C43.5239 31.8 43.8515 31.292 43.7802 30.5941Z" fill="white"/>
<path d="M33.8214 30.9161C33.8214 30.9161 33.6838 30.4319 34.1965 29.4967C34.7044 28.5663 35.1032 29.0742 35.1032 29.0742C35.1032 29.0742 35.5399 29.549 35.0415 30.2563C34.543 30.9683 33.8214 30.9162 33.8214 30.9162V30.9161ZM29.9051 31.5902C29.3212 33.1188 27.9018 32.497 27.9018 32.497C27.9018 32.497 27.7404 31.951 28.2008 30.4177C28.6613 28.8891 29.7436 29.4872 29.7436 29.4872C29.7436 29.4872 30.4889 30.0616 29.9051 31.5902ZM28.8465 25.1862C28.8465 25.1862 29.7294 22.8839 29.9431 24.0042C30.1567 25.1245 28.0917 28.457 28.0917 28.457C28.1106 27.707 28.8465 25.1863 28.8465 25.1863V25.1862ZM16.219 30.916C16.257 29.4349 17.2254 28.7894 17.5625 29.1121C17.8995 29.4349 17.7761 30.1328 17.14 30.5695C16.5086 31.0063 16.219 30.916 16.219 30.916ZM42.9739 30.674C42.9265 30.1755 42.4755 30.3606 42.4755 30.3606C42.4755 30.3606 41.7539 30.9208 41.1179 30.8591C40.4865 30.7926 40.6859 29.378 40.6859 29.378C40.6859 29.378 40.8235 28.0773 40.4485 27.9681C40.0735 27.8589 39.613 28.3051 39.613 28.3051C39.613 28.3051 39.0386 28.9412 38.7679 29.7483L38.692 29.772C38.692 29.772 38.7775 28.3526 38.6778 28.0298C38.6019 27.8684 37.9183 27.8826 37.8091 28.1675C37.6951 28.4523 37.1492 30.4413 37.1112 31.2769C37.1112 31.2769 36.0431 32.1836 35.1079 32.3355C34.1728 32.4826 33.9496 31.8987 33.9496 31.8987C33.9496 31.8987 36.4894 31.1914 36.3992 29.1643C36.3137 27.1373 34.3531 27.8873 34.13 28.0535C33.9164 28.2149 32.7723 28.9032 32.4353 30.8164C32.4258 30.8829 32.4021 31.1677 32.4021 31.1677C32.4021 31.1677 31.4194 31.8275 30.8735 32.0031C30.8735 32.0031 32.4021 29.4302 30.5364 28.2576C29.6914 27.7497 29.0174 28.8178 29.0174 28.8178C29.0174 28.8178 31.5428 26.0075 30.9827 23.6291C30.7168 22.4994 30.1519 22.3759 29.6297 22.5611C28.8417 22.8744 28.5426 23.3301 28.5426 23.3301C28.5426 23.3301 27.522 24.8112 27.2846 27.0139C27.0473 29.2166 26.7007 31.875 26.7007 31.875C26.7007 31.875 26.2165 32.3497 25.7703 32.3734C25.3241 32.3972 25.5234 31.0442 25.5234 31.0442C25.5234 31.0442 25.87 28.9792 25.8462 28.6327C25.8225 28.2861 25.7988 28.0962 25.3858 27.9728C24.9775 27.8494 24.5265 28.3716 24.5265 28.3716C24.5265 28.3716 23.3445 30.1613 23.2448 30.4366L23.1831 30.5505L23.1214 30.4746C23.1214 30.4746 23.9569 28.0345 23.1594 28.0013C22.3618 27.9633 21.8397 28.87 21.8397 28.87C21.8397 28.87 20.9329 30.3891 20.895 30.5601L20.8333 30.4841C20.8333 30.4841 21.2083 28.7181 21.1324 28.2814C21.0564 27.8447 20.6481 27.9349 20.6481 27.9349C20.6481 27.9349 20.126 27.8731 19.9882 28.2102C19.8506 28.5472 19.3522 30.7737 19.2905 31.4809C19.2905 31.4809 17.985 32.4162 17.1257 32.4257C16.2665 32.4399 16.3567 31.8797 16.3567 31.8797C16.3567 31.8797 19.504 30.8021 18.6448 28.6754C18.2603 28.1295 17.8093 27.9586 17.178 27.9681C16.5419 27.9823 15.7965 28.3668 15.2838 29.5109C15.0418 30.0568 14.942 30.5742 14.942 30.9683C14.942 30.9683 14.3534 31.0822 14.0544 30.8306C13.7553 30.5838 13.5844 30.8306 13.5844 30.8306C13.5844 30.8306 13.0622 31.5759 13.5701 31.7752C14.0781 31.9747 14.8661 32.1598 14.8661 32.1598C14.9373 32.4826 15.1509 33.0095 15.7728 33.4795C16.7033 34.1868 18.4977 33.3703 18.4977 33.3703L19.2335 32.9336C19.2335 32.9336 19.2572 33.5935 19.7936 33.6931C20.3301 33.7929 20.5532 33.6837 21.4836 31.424C22.0296 30.2657 22.0675 30.3274 22.0675 30.3274L22.1292 30.3132C22.1292 30.3132 21.7068 32.5253 21.8681 33.1235C22.0296 33.7217 22.7369 33.66 22.7369 33.66C22.7369 33.66 23.1214 33.7976 23.4347 32.701C23.748 31.6044 24.3414 30.4603 24.3414 30.4603H24.4174C24.4174 30.4603 24.1562 32.663 24.5551 33.3846C24.9538 34.1062 25.9839 33.5982 25.9839 33.5982C25.9839 33.5982 26.7055 33.2184 26.8194 33.1045C26.8194 33.1045 27.6739 33.8261 28.8844 33.6931C31.5856 33.1614 32.5445 32.4399 32.5445 32.4399C32.5445 32.4399 33.0097 33.6124 34.4433 33.7216C36.0858 33.845 36.9831 32.8102 36.9831 32.8102C36.9831 32.8102 36.9688 33.4795 37.5432 33.7169C38.1176 33.9542 38.5021 32.701 38.5021 32.701L39.4611 30.1328H39.5465C39.5465 30.1328 39.594 31.7753 40.5434 32.0506C41.4976 32.3212 42.7272 31.3718 42.7272 31.3718C42.7272 31.3718 43.0262 31.1724 42.974 30.674" fill="#E24B31"/>
</g>
<defs>
<clipPath id="clip0_179_929">
<rect width="31.2849" height="13.0145" fill="white" transform="translate(12.5139 21.6489)"/>
</clipPath>
</defs>
</svg>
