<svg width="57" height="56" viewBox="0 0 57 56" fill="none" xmlns="http://www.w3.org/2000/svg">
<path d="M43.6523 27.6187L42.3389 26.8101C42.3278 26.6832 42.3154 26.5564 42.3015 26.4297L43.4302 25.3828C43.4867 25.3306 43.5287 25.265 43.5524 25.1921C43.576 25.1191 43.5805 25.0414 43.5653 24.9663C43.5505 24.8911 43.5165 24.821 43.4666 24.7626C43.4168 24.7043 43.3527 24.6596 43.2805 24.6328L41.8376 24.0963C41.8014 23.9724 41.7637 23.8489 41.7246 23.7259L42.6247 22.4828C42.6697 22.4206 42.6981 22.348 42.707 22.2719C42.716 22.1958 42.7052 22.1187 42.6757 22.0479C42.6462 21.9771 42.599 21.915 42.5386 21.8674C42.4782 21.8199 42.4066 21.7885 42.3305 21.7762L40.809 21.5301C40.7499 21.4154 40.6883 21.3024 40.6262 21.1903L41.2655 19.7948C41.2977 19.7252 41.3113 19.6485 41.3052 19.5721C41.299 19.4957 41.2732 19.4222 41.2303 19.3585C41.1877 19.2947 41.1293 19.2428 41.0607 19.2079C40.9922 19.1729 40.9157 19.1561 40.8387 19.159L39.2945 19.2125C39.2148 19.1131 39.1334 19.015 39.0506 18.9182L39.4055 17.4225C39.4232 17.3479 39.4215 17.27 39.4004 17.1963C39.3793 17.1225 39.3396 17.0554 39.285 17.0013C39.2305 16.9471 39.1631 16.9076 39.089 16.8866C39.0149 16.8657 38.9366 16.8639 38.8617 16.8814L37.3579 17.234C37.2603 17.1517 37.1615 17.0708 37.0614 16.9914L37.1155 15.4559C37.1183 15.3794 37.1014 15.3033 37.0663 15.2352C37.0313 15.167 36.9792 15.1089 36.915 15.0664C36.851 15.0238 36.7771 14.9982 36.7003 14.992C36.6235 14.9858 36.5464 14.9993 36.4763 15.0312L35.0734 15.6672C34.9602 15.6051 34.8463 15.5444 34.7317 15.4849L34.4836 13.9717C34.4712 13.8961 34.4396 13.825 34.3918 13.765C34.3439 13.7049 34.2815 13.6581 34.2104 13.6288C34.1392 13.5995 34.0618 13.5887 33.9853 13.5975C33.9088 13.6064 33.8358 13.6345 33.7733 13.6792L32.5224 14.5742C32.3994 14.5353 32.2756 14.4978 32.1507 14.4622L31.6111 13.027C31.5843 12.9552 31.5394 12.8913 31.4806 12.8416C31.4219 12.7919 31.3513 12.758 31.2757 12.7432C31.2002 12.7284 31.1222 12.733 31.049 12.7565C30.9758 12.78 30.9098 12.8217 30.8572 12.8776L29.8044 14.0009C29.6771 13.9867 29.5496 13.9743 29.4219 13.9637L28.6089 12.6572C28.5684 12.5921 28.5118 12.5384 28.4446 12.5012C28.3773 12.4639 28.3016 12.4443 28.2246 12.4443C28.1476 12.4443 28.0719 12.4639 28.0047 12.5012C27.9374 12.5384 27.8808 12.5921 27.8403 12.6572L27.0273 13.9637C26.8995 13.9742 26.7719 13.9866 26.6444 14.0009L25.5914 12.8776C25.5389 12.8215 25.4728 12.7797 25.3995 12.7561C25.3262 12.7326 25.248 12.7281 25.1725 12.7431C25.0969 12.758 25.0264 12.792 24.9678 12.8417C24.9092 12.8914 24.8643 12.9552 24.8375 13.027L24.298 14.4622C24.173 14.4978 24.0494 14.5356 23.9259 14.5742L22.6753 13.6792C22.6128 13.6343 22.5398 13.606 22.4632 13.5972C22.3866 13.5884 22.309 13.5992 22.2379 13.6287C22.1668 13.6581 22.1044 13.705 22.0566 13.765C22.0088 13.825 21.9772 13.8961 21.9648 13.9717L21.7167 15.4849C21.6018 15.5441 21.4883 15.605 21.375 15.6672L19.9719 15.031C19.9019 14.9992 19.8248 14.9857 19.7481 14.9919C19.6713 14.9981 19.5974 15.0237 19.5335 15.0664C19.4693 15.1088 19.4171 15.1669 19.382 15.2351C19.3469 15.3033 19.3299 15.3793 19.3328 15.4559L19.3866 16.9914C19.2867 17.071 19.1878 17.1518 19.0901 17.234L17.5863 16.8815C17.5113 16.8641 17.4331 16.8659 17.359 16.8868C17.2848 16.9078 17.2173 16.9472 17.1628 17.0013C17.1082 17.0554 17.0685 17.1225 17.0474 17.1963C17.0263 17.27 17.0245 17.3479 17.0423 17.4225L17.3965 18.9182C17.3143 19.0151 17.233 19.1132 17.1532 19.2125L15.609 19.159C15.5321 19.1566 15.4559 19.1736 15.3874 19.2085C15.3189 19.2434 15.2605 19.2949 15.2175 19.3584C15.1746 19.4221 15.1489 19.4956 15.1426 19.5719C15.1364 19.6483 15.1499 19.725 15.1819 19.7947L15.8215 21.1903C15.7593 21.3024 15.6979 21.4154 15.6382 21.5301L14.1169 21.7762C14.0409 21.7885 13.9693 21.82 13.9089 21.8675C13.8485 21.9151 13.8013 21.9772 13.7719 22.048C13.7424 22.1188 13.7316 22.1959 13.7405 22.2719C13.7494 22.348 13.7777 22.4206 13.8227 22.4828L14.7228 23.726C14.6837 23.8487 14.6457 23.972 14.6097 24.0963L13.1667 24.6328C13.0947 24.6598 13.0307 24.7045 12.9809 24.7629C12.9311 24.8213 12.8971 24.8913 12.8821 24.9664C12.8671 25.0415 12.8716 25.1191 12.8952 25.192C12.9188 25.2649 12.9608 25.3305 13.017 25.3828L14.1459 26.4296C14.1318 26.556 14.1193 26.6833 14.1086 26.8101L12.795 27.6187C12.7295 27.6589 12.6755 27.7152 12.6381 27.7821C12.6007 27.849 12.581 27.9243 12.5811 28.0009C12.5811 28.1569 12.6621 28.3014 12.7951 28.3828L14.1086 29.1913C14.1193 29.3186 14.1318 29.4456 14.1459 29.5718L13.0169 30.6191C12.9605 30.6712 12.9185 30.7369 12.8949 30.8098C12.8712 30.8826 12.8666 30.9603 12.8817 31.0354C12.8967 31.1106 12.9307 31.1806 12.9806 31.2389C13.0305 31.2973 13.0946 31.342 13.1667 31.3688L14.6097 31.9053C14.6457 32.0295 14.6837 32.1529 14.7228 32.2756L13.8227 33.5189C13.7776 33.5811 13.7493 33.6537 13.7404 33.7298C13.7314 33.8059 13.7422 33.8831 13.7718 33.9539C13.8013 34.0246 13.8485 34.0868 13.909 34.1343C13.9695 34.1818 14.0412 34.2131 14.1173 34.2253L15.6384 34.4714C15.6979 34.5861 15.7589 34.6991 15.8217 34.8116L15.1819 36.2068C15.1499 36.2765 15.1363 36.3532 15.1426 36.4295C15.1488 36.5059 15.1746 36.5794 15.2175 36.6431C15.2601 36.7068 15.3185 36.7587 15.3871 36.7936C15.4556 36.8285 15.5321 36.8453 15.609 36.8425L17.1525 36.7888C17.233 36.8886 17.3141 36.9864 17.3965 37.0836L17.0423 38.5796C17.0245 38.6541 17.0263 38.7318 17.0474 38.8054C17.0685 38.879 17.1082 38.946 17.1628 39C17.2172 39.0543 17.2847 39.0938 17.3589 39.1147C17.433 39.1356 17.5114 39.1373 17.5863 39.1194L19.0901 38.7673C19.1879 38.8499 19.2868 38.9301 19.3867 39.0091L19.3329 40.5451C19.3301 40.6216 19.3471 40.6976 19.3822 40.7658C19.4173 40.8339 19.4693 40.8921 19.5333 40.9346C19.5974 40.9771 19.6713 41.0027 19.7481 41.0088C19.8248 41.0149 19.9019 41.0013 19.9719 40.9695L21.375 40.3337C21.488 40.3962 21.6019 40.4569 21.7167 40.5159L21.9648 42.0283C21.977 42.104 22.0085 42.1753 22.0564 42.2354C22.1042 42.2955 22.1667 42.3424 22.2379 42.3716C22.3091 42.401 22.3866 42.4117 22.4631 42.403C22.5397 42.3942 22.6127 42.3661 22.6753 42.3215L23.9253 41.4258C24.0487 41.4647 24.1728 41.5027 24.2977 41.5385L24.8372 42.973C24.8641 43.0448 24.909 43.1085 24.9677 43.1581C25.0264 43.2077 25.097 43.2415 25.1726 43.2562C25.2481 43.2714 25.3262 43.267 25.3995 43.2435C25.4728 43.2199 25.5388 43.178 25.5911 43.1218L26.6442 41.9992C26.7713 42.0137 26.8991 42.0259 27.027 42.0372L27.8401 43.3434C27.8806 43.4084 27.9372 43.462 28.0044 43.4992C28.0716 43.5364 28.1473 43.556 28.2242 43.5561C28.3011 43.556 28.3768 43.5365 28.4441 43.4993C28.5113 43.4621 28.5679 43.4084 28.6085 43.3434L29.4216 42.0372C29.5495 42.0259 29.6772 42.0137 29.8042 41.9992L30.857 43.1218C30.9093 43.178 30.9753 43.2198 31.0486 43.2434C31.1218 43.2669 31.2 43.2713 31.2754 43.2562C31.351 43.2414 31.4215 43.2076 31.4802 43.158C31.5389 43.1084 31.5839 43.0447 31.6108 42.973L32.1503 41.5385C32.2752 41.5027 32.3994 41.4647 32.5228 41.4258L33.7731 42.3215C33.8356 42.3662 33.9086 42.3943 33.9852 42.403C34.0617 42.4118 34.1392 42.401 34.2103 42.3717C34.2815 42.3423 34.3439 42.2953 34.3917 42.2353C34.4395 42.1752 34.471 42.1039 34.4834 42.0283L34.7314 40.5159C34.8462 40.4567 34.9597 40.3952 35.073 40.3336L36.4761 40.9695C36.5461 41.0014 36.6232 41.015 36.7 41.009C36.7768 41.0029 36.8508 40.9774 36.9149 40.9349C36.979 40.8923 37.031 40.8341 37.0661 40.7659C37.1011 40.6977 37.1181 40.6217 37.1152 40.5451L37.0614 39.0092C37.1614 38.9301 37.2601 38.8495 37.3575 38.7673L38.8614 39.1194C39.0142 39.1552 39.1743 39.1109 39.2846 39C39.3392 38.946 39.3789 38.879 39.4 38.8054C39.4211 38.7318 39.4229 38.6541 39.4051 38.5796L39.051 37.0836C39.1335 36.9864 39.2147 36.8886 39.2942 36.7888L40.8384 36.8425C40.9153 36.8454 40.9917 36.8286 41.0603 36.7937C41.1289 36.7588 41.1873 36.707 41.2299 36.6432C41.2729 36.5795 41.2987 36.5059 41.3049 36.4295C41.3111 36.3531 41.2974 36.2763 41.2652 36.2067L40.6258 34.8118C40.6883 34.6991 40.7496 34.5861 40.8088 34.4715L42.3303 34.2253C42.4063 34.2131 42.478 34.1818 42.5384 34.1342C42.5988 34.0866 42.6458 34.0244 42.6751 33.9535C42.7046 33.8828 42.7154 33.8057 42.7066 33.7297C42.6977 33.6536 42.6694 33.5811 42.6244 33.5189L41.7244 32.2757C41.7632 32.1529 41.8012 32.0295 41.8374 31.9053L43.2802 31.3688C43.3524 31.342 43.4165 31.2973 43.4664 31.2389C43.5163 31.1805 43.5502 31.1104 43.565 31.0352C43.5802 30.9601 43.5758 30.8824 43.5521 30.8095C43.5285 30.7367 43.4864 30.6711 43.4299 30.6191L42.3013 29.5718C42.315 29.4455 42.3276 29.3183 42.3386 29.1915L43.652 28.3828C43.7175 28.3426 43.7716 28.2864 43.809 28.2195C43.8465 28.1527 43.8661 28.0774 43.866 28.0009C43.866 27.8452 43.7854 27.7004 43.6523 27.6187ZM34.8617 38.4536C34.3602 38.346 34.0412 37.8545 34.1489 37.3541C34.2562 36.8544 34.7501 36.5364 35.2516 36.6439C35.7531 36.7507 36.0725 37.2432 35.965 37.7425C35.8575 38.242 35.363 38.5604 34.8617 38.4536ZM34.4154 35.452C34.3066 35.4288 34.1942 35.4271 34.0848 35.4471C33.9753 35.4671 33.8709 35.5084 33.7774 35.5686C33.684 35.6288 33.6035 35.7067 33.5404 35.7979C33.4773 35.889 33.4328 35.9917 33.4097 36.1L32.9433 38.264C31.5043 38.9134 29.9065 39.2743 28.2236 39.2743C26.5022 39.2743 24.8695 38.8956 23.405 38.2184L22.9389 36.0545C22.8409 35.5991 22.3906 35.3091 21.9333 35.4068L20.0123 35.817C19.6552 35.4516 19.3234 35.0626 19.019 34.6528H28.3666C28.4723 34.6528 28.5428 34.6337 28.5428 34.538V31.2498C28.5428 31.1541 28.4723 31.1351 28.3664 31.1351H25.6328V29.0509H28.5896C28.8594 29.0509 30.0327 29.1274 30.4078 30.6188C30.5253 31.0775 30.7832 32.5693 30.9597 33.0469C31.1354 33.5826 31.8509 34.6527 32.6135 34.6527H37.2714C37.3243 34.6527 37.3808 34.6467 37.4403 34.636C37.1171 35.0725 36.7631 35.4855 36.3809 35.872L34.4155 35.452H34.4154ZM21.4872 38.4084C20.9855 38.5161 20.4917 38.198 20.3838 37.6983C20.2765 37.1977 20.5954 36.7064 21.097 36.5988C21.5986 36.4921 22.0927 36.8102 22.2002 37.3098C22.3075 37.8092 21.9883 38.3014 21.4871 38.4084H21.4872ZM17.9411 24.1094C18.1492 24.5763 17.9374 25.1236 17.4685 25.3302C16.9996 25.5374 16.4508 25.3265 16.2428 24.8592C16.0347 24.392 16.2463 23.8457 16.7154 23.6385C16.8269 23.5893 16.9471 23.5624 17.0691 23.5595C17.1911 23.5565 17.3125 23.5775 17.4264 23.6212C17.5402 23.6649 17.6443 23.7306 17.7326 23.8143C17.8209 23.8981 17.8918 23.9983 17.9411 24.1093V24.1094ZM16.8513 26.6785L18.8525 25.7942C19.058 25.7033 19.2187 25.535 19.2995 25.3263C19.3802 25.1176 19.3744 24.8856 19.2832 24.6812L18.8711 23.7544H20.492V31.0203H17.2217C16.9318 30.0055 16.7851 28.9555 16.7859 27.9005C16.7859 27.4875 16.8082 27.0794 16.8513 26.6784V26.6785ZM25.6333 25.9728V23.8311H29.4933C29.6927 23.8311 30.9011 24.0603 30.9011 24.9589C30.9011 25.705 29.9743 25.9724 29.2121 25.9724H25.6333V25.9728ZM39.6616 27.9005C39.6616 28.1846 39.6511 28.4658 39.6302 28.7449H38.4567C38.3392 28.7449 38.2919 28.8217 38.2919 28.936V29.472C38.2919 30.7334 37.5767 31.0078 36.9499 31.0777C36.353 31.1445 35.6911 30.8292 35.6096 30.4659C35.2574 28.4964 34.6707 28.0758 33.7441 27.349C34.8941 26.6229 36.0905 25.5516 36.0905 24.1176C36.0905 22.5693 35.0232 21.594 34.2955 21.1158C33.2749 20.4467 32.1447 20.3125 31.8398 20.3125H19.7032C21.349 18.486 23.5795 17.1921 26.1022 16.7213L27.5327 18.2136C27.6095 18.2937 27.7014 18.358 27.8031 18.4027C27.9049 18.4475 28.0145 18.4718 28.1258 18.4744C28.237 18.4769 28.3476 18.4576 28.4514 18.4176C28.5551 18.3776 28.6499 18.3176 28.7302 18.2411L30.3309 16.7186C33.6849 17.3396 36.5246 19.4158 38.1611 22.2643L37.0652 24.7256C36.8761 25.1515 37.0691 25.6497 37.4962 25.8384L39.606 26.7703C39.6424 27.1427 39.6616 27.519 39.6616 27.9005ZM27.5333 15.4517C27.904 15.0986 28.4919 15.1126 28.8468 15.4817C29.201 15.8518 29.1875 16.4371 28.816 16.7899C28.4454 17.1431 27.8574 17.1293 27.5026 16.7595C27.3325 16.5819 27.2402 16.3444 27.246 16.0993C27.2518 15.8541 27.3551 15.6212 27.5333 15.4517ZM38.4077 24.1543C38.457 24.0433 38.5278 23.943 38.6161 23.8593C38.7044 23.7756 38.8085 23.71 38.9223 23.6662C39.0361 23.6225 39.1575 23.6016 39.2795 23.6046C39.4014 23.6076 39.5216 23.6345 39.6332 23.6837C40.1022 23.8905 40.3138 24.4375 40.1057 24.9044C40.0564 25.0155 39.9856 25.1158 39.8973 25.1996C39.809 25.2834 39.7049 25.349 39.5911 25.3927C39.4772 25.4365 39.3558 25.4575 39.2338 25.4545C39.1118 25.4515 38.9916 25.4246 38.88 25.3754C38.4116 25.1684 38.1999 24.6219 38.4077 24.1543Z" fill="black"/>
</svg>
