<svg width="57" height="56" viewBox="0 0 57 56" fill="none" xmlns="http://www.w3.org/2000/svg">
<path d="M26.7579 43.765C26.297 43.71 25.8137 43.6392 25.6841 43.6072C25.4935 43.5621 25.3017 43.5217 25.109 43.4863C24.8889 43.4436 24.6706 43.3926 24.4544 43.3331C23.4507 43.0458 23.3788 43.0223 22.622 42.7131C21.9258 42.4296 20.6431 41.7673 20.2043 41.4658C20.0842 41.3826 19.9718 41.3156 19.9546 41.3156C19.9377 41.3156 19.6567 41.1182 19.3303 40.877C17.255 39.3426 15.6969 37.4799 14.5711 35.1856C14.3774 34.7915 14.2193 34.4419 14.2193 34.409C14.2193 34.3766 14.1844 34.2869 14.1418 34.2114C14.0539 34.0544 13.9287 33.7162 13.8277 33.3666C13.7843 33.2181 13.7338 33.0718 13.6764 32.9281C13.6291 32.8168 13.5911 32.6813 13.5911 32.6266C13.5911 32.5717 13.5439 32.3932 13.4863 32.2287C13.4286 32.0654 13.3821 31.8726 13.3821 31.8005C13.3821 31.7289 13.3368 31.4812 13.2809 31.2499C13.1448 30.679 13 29.2002 13 28.3714C13 27.5436 13.1448 26.0648 13.2809 25.4941C13.3366 25.2626 13.3821 25.0103 13.3821 24.9329C13.3821 24.8552 13.4172 24.7031 13.4596 24.5942C13.5032 24.4858 13.5589 24.2911 13.5846 24.1617C13.6112 24.0323 13.6718 23.8092 13.7209 23.6645L13.8638 23.247C13.9686 22.9342 14.066 22.6696 14.1125 22.5665C14.1391 22.5089 14.243 22.2738 14.3442 22.044C14.5079 21.6727 14.8588 20.9723 15.0639 20.6058C15.1388 20.4716 15.1671 20.427 15.572 19.7949C16.2135 18.7915 17.3097 17.543 18.3302 16.653C18.6898 16.3392 19.8912 15.4282 19.9452 15.4282C19.9602 15.4282 20.0735 15.3602 20.1977 15.277C20.5239 15.0588 20.8438 14.8735 21.2608 14.6647C21.4105 14.5908 21.5587 14.5139 21.7054 14.4342C21.7744 14.3945 21.904 14.335 22.5692 14.0374C22.7157 13.9721 22.8736 13.9126 23.3286 13.7537C23.4289 13.7188 23.6304 13.6451 23.7742 13.5911C23.919 13.5374 24.0893 13.4929 24.1527 13.4929C24.2152 13.4929 24.3796 13.4494 24.5179 13.3957C24.6559 13.3417 24.9065 13.2803 25.0758 13.2595C25.2444 13.2396 25.4684 13.1925 25.5735 13.1554C25.6776 13.1196 25.9633 13.0732 26.2082 13.0526C26.5272 13.0238 26.8455 12.9863 27.1625 12.9401C27.8134 12.8448 29.2286 12.8448 29.8728 12.9401C30.177 12.9838 30.4823 13.0196 30.7884 13.0478C31.0192 13.0669 31.3134 13.115 31.4429 13.1547C31.5725 13.1934 31.7967 13.2418 31.9406 13.2595C32.0844 13.2786 32.3266 13.3381 32.4787 13.3928C32.6312 13.4484 32.8041 13.4929 32.8637 13.4929C32.9233 13.4929 33.0463 13.526 33.1361 13.5677C33.2269 13.6083 33.419 13.6763 33.5638 13.7188C33.7076 13.7624 33.9544 13.8483 34.1135 13.9117C34.2714 13.9748 34.4833 14.058 34.5845 14.0957C34.7709 14.1659 36.1488 14.8546 36.3363 14.9719C37.8573 15.9195 38.6397 16.5386 39.6916 17.6243C40.9601 18.934 41.8021 20.1813 42.6591 22.0174C42.7196 22.147 42.8121 22.3389 42.8652 22.4427C42.9172 22.5476 42.9608 22.6705 42.9608 22.716C42.9608 22.762 43.0044 22.8999 43.0582 23.023C43.2039 23.3576 43.3287 23.7383 43.3875 24.0294C43.4166 24.1721 43.4706 24.3487 43.5074 24.4215C43.5444 24.4941 43.5878 24.6786 43.605 24.8298C43.6219 24.9808 43.672 25.2285 43.7147 25.3787C43.9617 26.2329 44.0844 28.7495 43.935 29.8626C43.8907 30.1932 43.8406 30.5931 43.8236 30.7509C43.7951 31.0211 43.6522 31.7195 43.5301 32.189L43.4042 32.6861C43.1669 33.6434 42.5804 35.007 41.8643 36.2686C41.5805 36.7694 40.629 38.1236 40.4494 38.2823C40.4331 38.2963 40.3527 38.3911 40.2714 38.491C40.19 38.5922 39.929 38.8747 39.6926 39.1186C38.6511 40.1929 37.811 40.8572 36.3363 41.7721C36.1614 41.8807 34.6782 42.6045 34.4009 42.717C34.2571 42.7746 34.0169 42.8718 33.8674 42.9323C33.719 42.992 33.5534 43.0421 33.5013 43.0431C33.4492 43.0438 33.3122 43.0903 33.1967 43.1459C33.0814 43.2015 32.9346 43.248 32.8695 43.249C32.8051 43.2499 32.6169 43.2954 32.4513 43.3501C32.2859 43.4057 32.0558 43.4655 31.9403 43.4831C31.8251 43.5013 31.5783 43.5504 31.3909 43.592C31.2037 43.6336 30.6378 43.7149 30.1348 43.7725C29.0128 43.9032 27.8793 43.9007 26.7579 43.765ZM27.8967 40.7411C27.9694 40.6845 28.0442 40.5717 28.0641 40.4926C28.1077 40.3177 35.1434 26.2271 35.2759 26.0505C35.3875 25.9013 35.3979 25.6622 35.2957 25.5781C35.2419 25.5328 34.5683 25.5186 32.77 25.5215C31.4211 25.5244 30.2871 25.5253 30.2501 25.5244C30.1953 25.5224 30.1839 24.622 30.1895 20.7655C30.1934 18.1487 30.181 15.9839 30.1621 15.9539C30.1433 15.9234 30.0694 15.899 29.9975 15.899C29.8963 15.899 29.849 15.9425 29.7868 16.0944C29.6694 16.377 29.3449 17.0185 27.7652 20.0823C27.4371 20.7181 27.1098 21.3544 26.7833 21.991C26.5033 22.5382 26.0616 23.3972 25.8033 23.8997C25.1078 25.2503 24.4137 26.6017 23.7212 27.9539C22.5266 30.2849 22.382 30.5629 22.3307 30.6243C22.2314 30.7443 22.1774 31.0211 22.2333 31.1251C22.2842 31.2204 22.3857 31.2243 24.9075 31.2204C26.3491 31.2187 27.5381 31.2262 27.5504 31.2373C27.5836 31.2714 27.5713 40.263 27.5371 40.4774C27.5146 40.6182 27.5296 40.6927 27.594 40.757C27.7054 40.8686 27.7359 40.8676 27.8967 40.7411Z" fill="#049688"/>
</svg>
