<svg width="57" height="56" viewBox="0 0 57 56" fill="none" xmlns="http://www.w3.org/2000/svg">
<path d="M28.1106 12.4443L14.3621 20.2221V35.7777L28.1106 43.5554L41.8591 35.7777V20.2221L28.1106 12.4443Z" fill="white"/>
<path d="M16.8173 35.2411L27.6569 41.3726V36.5971L20.9032 32.8819L16.8173 35.2411ZM16.0758 34.5697V21.7467L20.0424 24.036V32.2778L16.0758 34.5697ZM39.448 35.2411L28.6084 41.3726V36.5971L35.3621 32.8819L39.448 35.2411ZM40.1895 34.5697V21.7467L36.2228 24.036V32.2778L40.1895 34.5697ZM39.7254 20.9171L28.6084 14.6274V19.2448L35.7302 23.1623L35.7847 23.1934L39.7254 20.9171ZM16.5399 20.9171L27.6569 14.6274V19.2448L20.535 23.1623L20.4806 23.1934L16.5399 20.9171Z" fill="#8ED6FB"/>
<path d="M28.6083 35.5108L35.2713 31.8475V24.5882L28.6083 28.4356V35.5108ZM27.6569 35.5108L20.9939 31.8475V24.5882L27.6569 28.4356V35.5108ZM34.8202 23.7482L28.1313 20.0693L21.4424 23.7482L28.1313 27.6112L34.8202 23.7482Z" fill="#1C78C0"/>
</svg>
