<svg width="57" height="56" viewBox="0 0 57 56" fill="none" xmlns="http://www.w3.org/2000/svg">
<path d="M40.4061 17.0093C40.3815 16.8284 40.2248 16.7283 40.0953 16.7172C39.9661 16.7063 37.2311 16.5012 37.2311 16.5012C37.2311 16.5012 35.3316 14.5934 35.1231 14.3822C34.9145 14.1712 34.5071 14.2354 34.3489 14.2825C34.3256 14.2894 33.9339 14.4117 33.2859 14.6146C32.6514 12.7674 31.5316 11.0698 29.5615 11.0698C29.5071 11.0698 29.4512 11.0721 29.3952 11.0753C28.8349 10.3257 28.1409 10 27.5414 10C22.9522 10 20.7597 15.804 20.0722 18.7535C18.289 19.3125 17.0222 19.7099 16.8604 19.7613C15.865 20.0772 15.8335 20.1089 15.7028 21.0578C15.6044 21.7762 13 42.1531 13 42.1531L33.2944 46L44.2906 43.5934C44.2906 43.5934 40.4303 17.1903 40.4061 17.0093ZM32.1643 14.9656L30.447 15.5033C30.4476 15.3808 30.4483 15.2604 30.4483 15.1286C30.4483 13.9806 30.2907 13.0562 30.038 12.3235C31.0531 12.4524 31.7292 13.6208 32.1643 14.9656ZM28.7788 12.5511C29.061 13.2665 29.2445 14.2933 29.2445 15.6787C29.2445 15.7496 29.2439 15.8144 29.2433 15.88C28.1265 16.23 26.913 16.6099 25.6968 16.9911C26.3797 14.3247 27.6597 13.0369 28.7788 12.5511ZM27.4153 11.2453C27.6134 11.2453 27.8129 11.3134 28.0039 11.4463C26.5331 12.1465 24.9567 13.91 24.2909 17.4315L21.4875 18.3099C22.2673 15.6238 24.119 11.2453 27.4153 11.2453Z" fill="#95BF46"/>
<path d="M40.0954 16.7173C39.9661 16.7064 37.2311 16.5013 37.2311 16.5013C37.2311 16.5013 35.3316 14.5935 35.1231 14.3823C35.0451 14.3037 34.9399 14.2634 34.8299 14.2461L33.2954 45.9998L44.2906 43.5934C44.2906 43.5934 40.4304 17.1903 40.4061 17.0094C40.3815 16.8284 40.2248 16.7283 40.0954 16.7173Z" fill="#5E8E3E"/>
<path d="M29.5616 22.8642L28.2057 26.9446C28.2057 26.9446 27.0178 26.3032 25.5616 26.3032C23.4268 26.3032 23.3193 27.6585 23.3193 28.0001C23.3193 29.8637 28.1211 30.5777 28.1211 34.9429C28.1211 38.3772 25.968 40.5886 23.0649 40.5886C19.5812 40.5886 17.7997 38.3952 17.7997 38.3952L18.7325 35.2772C18.7325 35.2772 20.5637 36.8678 22.109 36.8678C23.1187 36.8678 23.5294 36.0635 23.5294 35.4759C23.5294 33.0449 19.59 32.9365 19.59 28.942C19.59 25.5801 21.9752 22.3267 26.7899 22.3267C28.6451 22.3267 29.5616 22.8642 29.5616 22.8642Z" fill="white"/>
</svg>
