<svg width="57" height="56" viewBox="0 0 57 56" fill="none" xmlns="http://www.w3.org/2000/svg">
<path fill-rule="evenodd" clip-rule="evenodd" d="M28.8493 35.883C37.4884 35.883 44.4918 32.3534 44.4918 27.9998C44.4918 23.6462 37.4884 20.1167 28.8493 20.1167C20.2104 20.1167 13.2068 23.6462 13.2068 27.9998C13.2068 32.3534 20.2104 35.883 28.8493 35.883Z" fill="#6E81B6"/>
<path fill-rule="evenodd" clip-rule="evenodd" d="M32.0194 30.5478L32.7953 26.5766C32.9705 25.6803 32.8248 25.0118 32.3627 24.5893C31.915 24.1806 31.155 23.9818 30.0394 23.9818H28.6957L29.08 22.0142C29.0872 21.9776 29.0862 21.9399 29.077 21.9037C29.0678 21.8675 29.0506 21.8338 29.0268 21.805C29.0029 21.7762 28.973 21.753 28.939 21.7371C28.9051 21.7212 28.8681 21.7129 28.8305 21.7129H26.9759C26.8541 21.7129 26.7495 21.7989 26.7262 21.9177L25.9021 26.1336C25.8272 25.6592 25.6426 25.2514 25.3471 24.9149C24.8031 24.2957 23.9427 23.9818 22.7894 23.9818H19.1948C19.073 23.9818 18.9684 24.0677 18.9451 24.1864L17.2773 32.7202C17.2628 32.7945 17.2823 32.8709 17.3307 32.9292C17.3789 32.9877 17.4508 33.0213 17.527 33.0213H19.3962C19.518 33.0213 19.6226 32.9354 19.6459 32.8163L20.0494 30.7523H21.4408C22.1709 30.7523 22.7845 30.6736 23.2634 30.5186C23.7531 30.3603 24.2039 30.0917 24.6011 29.7219C24.9221 29.4286 25.1873 29.1002 25.3914 28.746L25.0583 30.4509C25.0437 30.5252 25.0632 30.602 25.1116 30.6599C25.1599 30.7184 25.2319 30.7521 25.308 30.7521H27.1626C27.2844 30.7521 27.389 30.6661 27.4123 30.5474L28.3276 25.8631H29.6002C30.1425 25.8631 30.3014 25.9706 30.3447 26.0166C30.3838 26.0588 30.4652 26.2072 30.3738 26.675L29.6361 30.4507C29.6291 30.4874 29.6302 30.5251 29.6395 30.5612C29.6487 30.5973 29.6659 30.6309 29.6898 30.6597C29.7136 30.6885 29.7435 30.7116 29.7774 30.7276C29.8113 30.7435 29.8483 30.7518 29.8858 30.7519H31.7699C31.8289 30.752 31.8861 30.7317 31.9316 30.6945C31.9771 30.6572 32.0082 30.6054 32.0194 30.5478ZM23.421 27.2666C23.3045 27.8619 23.085 28.2865 22.7684 28.5285C22.4469 28.7751 21.9325 28.9 21.2397 28.9H20.4112L21.0102 25.8344H22.0814C22.8683 25.8344 23.1853 26.0016 23.3126 26.1417C23.4891 26.3362 23.5265 26.7254 23.421 27.2666ZM39.8316 24.9149C39.2878 24.2957 38.4273 23.9818 37.2741 23.9818H33.6794C33.5574 23.9818 33.453 24.0677 33.4298 24.1864L31.7622 32.7202C31.7474 32.7945 31.7669 32.8709 31.8153 32.9292C31.8638 32.9875 31.9358 33.0213 32.0115 33.0213H33.8809C34.0029 33.0213 34.1073 32.9354 34.1306 32.8163L34.534 30.7523H35.9256C36.6559 30.7523 37.269 30.6736 37.7481 30.5186C38.238 30.3603 38.6887 30.0917 39.0858 29.7219C39.4172 29.4192 39.6897 29.0789 39.8963 28.7116C40.1028 28.3442 40.2509 27.9345 40.3374 27.4936C40.5498 26.4062 40.3798 25.5387 39.8316 24.9149ZM38.0118 27.2666C37.8951 27.8619 37.6756 28.2865 37.3594 28.5285C37.0376 28.7751 36.5233 28.9 35.8307 28.9H35.002L35.6008 25.8344H36.6722C37.4591 25.8344 37.7761 26.0016 37.9036 26.1417C38.0797 26.3362 38.1173 26.7254 38.0118 27.2666Z" fill="white"/>
<path fill-rule="evenodd" clip-rule="evenodd" d="M22.0282 25.5813C22.7383 25.5813 23.2118 25.7117 23.4484 25.9724C23.6848 26.2331 23.7412 26.6807 23.6175 27.3148C23.4881 27.9753 23.2392 28.4466 22.8703 28.7292C22.5015 29.0117 21.9401 29.1528 21.1865 29.1528H20.0493L20.7473 25.5813H22.0282ZM17.4736 32.7682H19.3428L19.7864 30.4996H21.3876C22.0941 30.4996 22.6753 30.4256 23.1316 30.278C23.5878 30.1303 24.0026 29.883 24.3758 29.5356C24.689 29.2495 24.9425 28.9334 25.1366 28.5881C25.3304 28.2427 25.4681 27.8618 25.5497 27.4452C25.7475 26.4336 25.5983 25.6456 25.1023 25.0813C24.6066 24.5168 23.8176 24.2347 22.7362 24.2347H19.1416L17.4736 32.7682ZM26.9225 21.9658H28.7772L28.3338 24.2347H29.9862C31.0254 24.2347 31.7429 24.4149 32.1375 24.7755C32.532 25.1361 32.6503 25.7205 32.4925 26.5284L31.7166 30.4996H29.8325L30.5701 26.7236C30.6539 26.294 30.6233 26.0011 30.4775 25.8448C30.3316 25.6887 30.0212 25.6105 29.5468 25.6105H28.0646L27.1092 30.4996H25.2546L26.9225 21.9658ZM36.619 25.5813C37.3291 25.5813 37.8024 25.7117 38.0392 25.9724C38.2756 26.2331 38.3318 26.6807 38.2081 27.3148C38.0791 27.9753 37.8302 28.4466 37.4611 28.7292C37.0925 29.0117 36.5309 29.1528 35.7777 29.1528H34.6405L35.3383 25.5813H36.619ZM32.0641 32.7682H33.9335L34.3768 30.4996H35.978C36.6847 30.4996 37.2659 30.4256 37.7222 30.278C38.1784 30.1303 38.5932 29.883 38.9664 29.5356C39.2797 29.2495 39.5331 28.9334 39.727 28.5881C39.9209 28.2427 40.0588 27.8618 40.1405 27.4452C40.3381 26.4336 40.1889 25.6456 39.6931 25.0813C39.197 24.5168 38.4082 24.2347 37.3268 24.2347H33.7322L32.0641 32.7682Z" fill="black"/>
</svg>
