<svg width="56" height="56" viewBox="0 0 56 56" fill="none" xmlns="http://www.w3.org/2000/svg">
<path d="M12.7405 23.3436C12.7405 23.3436 11.9827 22.7974 12.892 22.0681L15.0105 20.1737C15.0105 20.1737 15.6167 19.5359 16.2577 20.0916L35.8076 34.893V41.9906C35.8076 41.9906 35.7982 43.1051 34.3679 42.982L12.7405 23.3436Z" fill="#2489CA"/>
<path d="M17.7796 27.9189L12.7405 32.5002C12.7405 32.5002 12.2227 32.8854 12.7405 33.5737L15.0801 35.7017C15.0801 35.7017 15.6357 36.2984 16.4566 35.6196L21.7988 31.5688L17.7796 27.9189Z" fill="#1070B3"/>
<path d="M26.6262 27.9565L35.8676 20.9L35.8076 13.8402C35.8076 13.8402 35.413 12.2995 34.0964 13.1014L21.7987 24.2941L26.6262 27.9565Z" fill="#0877B9"/>
<path d="M34.368 42.9916C34.9047 43.5409 35.5551 43.361 35.5551 43.361L42.7569 39.8122C43.6788 39.1839 43.5494 38.404 43.5494 38.404V17.2122C43.5494 16.2808 42.5959 15.9588 42.5959 15.9588L36.3539 12.9499C34.9899 12.1069 34.0964 13.1014 34.0964 13.1014C34.0964 13.1014 35.2457 12.2742 35.8077 13.8402V41.8613C35.8077 42.0539 35.7666 42.2433 35.6846 42.4138C35.5204 42.7453 35.1636 43.0547 34.308 42.9253L34.368 42.9916Z" fill="#3C99D4"/>
</svg>
