<svg width="57" height="56" viewBox="0 0 57 56" fill="none" xmlns="http://www.w3.org/2000/svg">
<path d="M28.5 12C19.9527 12 13 18.9527 13 27.5C13 36.0473 19.9527 43 28.5 43C37.0473 43 44 36.0473 44 27.5C44 18.9527 37.0473 12 28.5 12ZM28.5 13.4793C36.2452 13.4793 42.5207 19.7558 42.5207 27.5C42.5207 35.2442 36.2442 41.5207 28.5 41.5207C20.7548 41.5207 14.4793 35.2442 14.4793 27.5C14.4793 19.7558 20.7558 13.4793 28.5 13.4793ZM23.8122 19.5785C23.6301 19.5737 23.4489 19.5785 23.262 19.5834C21.9958 19.6599 21.2344 20.2547 21.0222 21.486C20.8759 22.3492 20.9011 23.2259 20.8401 24.0939C20.8207 24.5434 20.7752 24.9929 20.689 25.4307C20.5175 26.2183 20.1804 26.4654 19.3783 26.5051C19.2707 26.5157 19.1651 26.5361 19.0644 26.5603V28.4474C20.5175 28.5182 20.7151 29.0335 20.8304 30.5516C20.8769 31.1067 20.8159 31.6627 20.8508 32.2168C20.8769 32.7429 20.9467 33.2621 21.0522 33.7668C21.3855 35.1541 22.7427 35.6181 24.378 35.3401V33.6806C24.1145 33.6806 23.8829 33.6855 23.6611 33.6806C23.1002 33.6651 22.8938 33.5247 22.8435 32.9899C22.7669 32.2992 22.7882 31.5978 22.7476 30.9013C22.6613 29.6041 22.5199 28.3331 21.2547 27.5107C21.9057 27.0311 22.3794 26.4605 22.5257 25.7039C22.6313 25.174 22.6972 24.6393 22.7379 24.1045C22.7786 23.5698 22.7137 23.0195 22.7582 22.4896C22.8328 21.6323 22.889 21.2797 23.9178 21.3145C24.0738 21.3145 24.2249 21.2942 24.3973 21.2797V19.5892C24.191 19.5892 23.9992 19.5843 23.8122 19.5785ZM33.6218 19.594C33.2682 19.5834 32.9156 19.6095 32.5668 19.6706V21.3145C32.8855 21.3145 33.1326 21.3145 33.3738 21.3194C33.7991 21.3242 34.1217 21.4908 34.1614 21.9597C34.2011 22.3889 34.2011 22.8229 34.2418 23.2569C34.328 24.1249 34.3735 24.9967 34.5247 25.8502C34.6564 26.5516 35.1408 27.0757 35.7404 27.5097C34.6864 28.2159 34.3735 29.2302 34.3232 30.3704C34.2922 31.1464 34.2728 31.9349 34.2331 32.7216C34.1972 33.4384 33.9453 33.67 33.2227 33.6855C33.0212 33.6961 32.8245 33.7116 32.6027 33.7252V35.4108C33.0212 35.4108 33.4096 35.437 33.7991 35.4108C34.9993 35.3401 35.7317 34.755 35.9681 33.5847C36.0688 32.9444 36.1299 32.2934 36.1454 31.6424C36.1851 31.0466 36.1802 30.446 36.2413 29.856C36.3314 28.9328 36.7567 28.5492 37.6789 28.4891C37.7651 28.4784 37.8504 28.4581 37.9376 28.4339V26.5419C37.7816 26.5216 37.675 26.5061 37.5588 26.5022C36.8681 26.4712 36.5242 26.2387 36.3469 25.5838C36.2413 25.1643 36.1754 24.7352 36.156 24.3012C36.1057 23.5039 36.1105 22.6969 36.0601 21.8997C35.9545 20.3613 35.0294 19.6338 33.6218 19.594ZM24.7209 26.4102C23.3337 26.4102 23.2329 28.4533 24.6095 28.585H24.686C25.276 28.6199 25.7817 28.1713 25.8166 27.5804V27.5213C25.8272 26.9207 25.3477 26.4208 24.7471 26.4102H24.7209ZM28.4797 26.4102C27.9052 26.3908 27.4208 26.8442 27.3995 27.4206C27.3995 27.4554 27.3995 27.4855 27.4043 27.5213C27.4043 28.1723 27.849 28.586 28.5155 28.586C29.1713 28.586 29.585 28.1568 29.585 27.4855C29.5802 26.8345 29.1403 26.4053 28.4797 26.4111V26.4102ZM32.3043 26.4102C31.6998 26.3995 31.1951 26.88 31.1737 27.4903C31.1737 28.0958 31.663 28.586 32.2743 28.586H32.2849C32.8342 28.6819 33.3844 28.152 33.4203 27.5165C33.4503 26.9265 32.9156 26.4111 32.3043 26.4111V26.4102Z" fill="black"/>
</svg>
