<svg width="57" height="56" viewBox="0 0 57 56" fill="none" xmlns="http://www.w3.org/2000/svg">
<path d="M12.894 39.5439C12.894 41.7596 14.7001 43.5554 16.9279 43.5554H40.1449C42.3731 43.5554 44.1789 41.7594 44.1789 39.5439V16.456C44.1789 14.2402 42.3728 12.4443 40.145 12.4443H16.928C14.6998 12.4443 12.894 14.2404 12.894 16.4558V39.5438V39.5439Z" fill="#563D7C"/>
<path d="M25.8672 26.206V21.8002H29.767C30.1385 21.8002 30.4965 21.831 30.8414 21.8926C31.1863 21.9541 31.4914 22.0639 31.7567 22.2223C32.0219 22.3806 32.2342 22.6005 32.3934 22.8818C32.5525 23.1633 32.6322 23.5238 32.6322 23.9634C32.6322 24.7549 32.3934 25.3266 31.9158 25.6783C31.4384 26.0301 30.8282 26.206 30.0853 26.206H25.8672ZM21.702 18.5815V37.4183H30.8812C31.7302 37.4183 32.5571 37.3129 33.3618 37.1018C34.1665 36.8907 34.8828 36.5653 35.5107 36.1257C36.1385 35.686 36.6382 35.1187 37.0096 34.424C37.3811 33.7292 37.5667 32.907 37.5667 31.9573C37.5667 30.7788 37.2793 29.7719 36.7045 28.9366C36.1297 28.1011 35.2586 27.5163 34.0912 27.1821C34.9402 26.7776 35.5814 26.2587 36.0148 25.6255C36.448 24.9924 36.6647 24.201 36.6647 23.2511C36.6647 22.3718 36.5188 21.6331 36.2269 21.0351C35.9351 20.4372 35.5239 19.9578 34.9933 19.5973C34.4628 19.2367 33.8261 18.9772 33.0832 18.819C32.3404 18.6607 31.5179 18.5815 30.6159 18.5815H21.702ZM25.8672 34.1997V29.0288H30.4037C31.3057 29.0288 32.0308 29.2354 32.5792 29.6488C33.1274 30.0622 33.4016 30.7524 33.4016 31.7198C33.4016 32.2123 33.3176 32.6168 33.1495 32.9334C32.9815 33.2499 32.756 33.5007 32.473 33.6853C32.1901 33.87 31.8628 34.0018 31.4914 34.0811C31.1199 34.1601 30.7309 34.1997 30.3241 34.1997H25.8672Z" fill="white"/>
</svg>
