<svg width="56" height="56" viewBox="0 0 56 56" fill="none" xmlns="http://www.w3.org/2000/svg">
<path d="M14.6558 27.9993C14.6558 33.2816 17.7254 37.8461 22.1766 40.0095L15.8111 22.5685C15.048 24.2772 14.6543 26.1279 14.6558 27.9993ZM37.0089 27.3259C37.0089 25.6767 36.4165 24.5346 35.9084 23.6456C35.232 22.5464 34.5982 21.6155 34.5982 20.5163C34.5982 19.2896 35.5283 18.1477 36.8388 18.1477C36.8979 18.1477 36.954 18.1551 37.0119 18.1584C34.6375 15.9833 31.4744 14.6553 28.0003 14.6553C23.3383 14.6553 19.2367 17.0472 16.8507 20.6701C17.1637 20.6795 17.459 20.6859 17.7094 20.6859C19.1052 20.6859 21.2658 20.5165 21.2658 20.5165C21.9852 20.4741 22.07 21.5307 21.3516 21.6157C21.3516 21.6157 20.6285 21.7008 19.8241 21.743L24.6836 36.1974L27.6042 27.4389L25.5248 21.7427C24.8062 21.7006 24.1255 21.6155 24.1255 21.6155C23.4064 21.5733 23.4907 20.4739 24.2098 20.5163C24.2098 20.5163 26.4136 20.6856 27.7248 20.6856C29.1203 20.6856 31.2812 20.5163 31.2812 20.5163C32.0011 20.4739 32.0856 21.5304 31.3668 21.6155C31.3668 21.6155 30.6423 21.7006 29.8394 21.7427L34.6619 36.0877L35.9927 31.6398C36.5699 29.794 37.0089 28.4683 37.0089 27.3259Z" fill="#00749A"/>
<path d="M28.2344 29.1668L24.2306 40.8009C25.4547 41.1616 26.7242 41.3448 28.0003 41.3448C29.5543 41.3448 31.0446 41.0759 32.4317 40.5884C32.3945 40.5301 32.3627 40.4686 32.3368 40.4045L28.2344 29.1668ZM39.7096 21.5972C39.767 22.0222 39.7995 22.4788 39.7995 22.9694C39.7995 24.3235 39.5466 25.8458 38.7848 27.7491L34.7086 39.5344C38.6759 37.2209 41.3444 32.9228 41.3444 27.9995C41.3479 25.7617 40.7856 23.5593 39.7096 21.5972Z" fill="#00749A"/>
<path d="M28.0003 12.4443C19.4231 12.4443 12.4446 19.4223 12.4446 27.9995C12.4446 36.5777 19.4228 43.5557 28.0003 43.5557C36.5772 43.5557 43.5567 36.578 43.5567 27.9995C43.5565 19.4223 36.5772 12.4443 28.0003 12.4443ZM28.0003 42.8424C19.8164 42.8424 13.1578 36.1839 13.1578 27.9995C13.1578 19.8159 19.8162 13.1579 28.0003 13.1579C36.1839 13.1579 42.842 19.8159 42.842 27.9995C42.842 36.1839 36.1836 42.8424 28.0003 42.8424Z" fill="#00749A"/>
</svg>
