<svg width="57" height="56" viewBox="0 0 57 56" fill="none" xmlns="http://www.w3.org/2000/svg">
<path d="M13 12.8716C13 12.6858 13.1548 12.5 13.3716 12.5H16.0969C16.2827 12.5 16.4685 12.6548 16.4685 12.8716V43.1284C16.4685 43.3142 16.3137 43.5 16.0969 43.5H13.3716C13.1858 43.5 13 43.3452 13 43.1284V12.8716Z" fill="#161616"/>
<path d="M19.8751 12.8716C19.8751 12.6858 20.03 12.5 20.2468 12.5H22.972C23.1578 12.5 23.3437 12.6548 23.3437 12.8716V43.1284C23.3437 43.3142 23.1888 43.5 22.972 43.5H20.2468C20.0609 43.5 19.8751 43.3452 19.8751 43.1284V12.8716Z" fill="#161616"/>
<path d="M26.7503 12.8716C26.7503 12.6858 26.9051 12.5 27.1219 12.5H29.8472C30.033 12.5 30.2188 12.6548 30.2188 12.8716V43.1284C30.2188 43.3142 30.0639 43.5 29.8472 43.5H27.1219C26.9361 43.5 26.7503 43.3452 26.7503 43.1284V12.8716Z" fill="#161616"/>
<path d="M33.6254 12.8716C33.6254 12.6858 33.7802 12.5 33.997 12.5H36.7223C36.9081 12.5 37.0939 12.6548 37.0939 12.8716V43.1284C37.0939 43.3142 36.9391 43.5 36.7223 43.5H33.997C33.8112 43.5 33.6254 43.3452 33.6254 43.1284V12.8716Z" fill="#161616"/>
<path d="M40.5315 24.9186C40.5315 24.7328 40.6863 24.547 40.9031 24.547H43.6284C43.8142 24.547 44 24.7018 44 24.9186V31.0814C44 31.2672 43.8452 31.453 43.6284 31.453H40.9031C40.7173 31.453 40.5315 31.2982 40.5315 31.0814V24.9186Z" fill="#161616"/>
</svg>
