<svg width="57" height="56" viewBox="0 0 57 56" fill="none" xmlns="http://www.w3.org/2000/svg">
<path d="M23.9085 19.1313C19.8202 18.3908 16.5876 19.166 15.2993 21.3848C14.3379 23.0405 14.6124 25.2361 15.9653 27.5829C15.9927 27.6305 16.0292 27.6722 16.0728 27.7057C16.1164 27.7392 16.1662 27.7638 16.2194 27.7781C16.2725 27.7925 16.328 27.7963 16.3827 27.7893C16.4373 27.7823 16.49 27.7646 16.5378 27.7374C16.6343 27.6823 16.7048 27.5914 16.734 27.4847C16.7631 27.3779 16.7484 27.264 16.6931 27.168C15.4742 25.0542 15.2367 23.1594 16.0255 21.8017C17.0956 19.9584 19.9786 19.267 23.758 19.9516C23.8263 19.9651 23.8969 19.9614 23.9635 19.9409C24.03 19.9204 24.0903 19.8838 24.139 19.8343C24.1878 19.7848 24.2233 19.724 24.2425 19.6574C24.2617 19.5909 24.264 19.5206 24.249 19.453C24.231 19.3716 24.1889 19.2975 24.1281 19.2402C24.0674 19.1829 23.9907 19.145 23.9081 19.1313L23.9085 19.1313ZM18.0914 30.4353C19.7443 32.2419 21.892 33.9364 24.3414 35.3428C30.2717 38.7477 36.5852 39.6578 39.6966 37.5479C39.7862 37.4847 39.8473 37.3891 39.8667 37.2816C39.8862 37.174 39.8624 37.0632 39.8005 36.9729C39.7387 36.8827 39.6436 36.8202 39.5359 36.7988C39.4281 36.7775 39.3163 36.7991 39.2244 36.8589C36.4395 38.7473 30.4422 37.8827 24.7607 34.6206C22.3843 33.2561 20.3048 31.6155 18.7116 29.8743C18.6562 29.8118 18.5833 29.7672 18.5022 29.7463C18.4211 29.7254 18.3356 29.7291 18.2566 29.7569C18.191 29.7801 18.1322 29.8192 18.0855 29.8706C18.0389 29.9221 18.0059 29.9843 17.9895 30.0516C17.9731 30.119 17.9738 30.1893 17.9916 30.2563C18.0094 30.3232 18.0437 30.3848 18.0914 30.4353Z" fill="#2DD0ED"/>
<path d="M38.7042 29.9281C41.3811 26.7833 42.3159 23.6202 41.0304 21.4058C40.0844 19.7764 38.0843 18.9162 35.4267 18.8819C35.3155 18.8805 35.2083 18.923 35.1287 19.0001C35.049 19.0772 35.0034 19.1826 35.0018 19.2932C35.0006 19.3757 35.024 19.4567 35.0692 19.5259C35.1144 19.5951 35.1792 19.6494 35.2555 19.6818C35.3061 19.7035 35.3604 19.715 35.4155 19.7157C37.8059 19.7465 39.5291 20.4877 40.3043 21.8228C41.3719 23.6621 40.5385 26.4828 38.0643 29.3895C38.0275 29.4311 37.9993 29.4796 37.9816 29.5321C37.9638 29.5846 37.9568 29.6402 37.9609 29.6955C37.9649 29.7507 37.9801 29.8046 38.0054 29.854C38.0307 29.9034 38.0657 29.9473 38.1083 29.983C38.1508 30.0188 38.2001 30.0457 38.2533 30.0623C38.3064 30.0789 38.3624 30.0848 38.4178 30.0797C38.4733 30.0746 38.5272 30.0585 38.5763 30.0325C38.6255 30.0065 38.669 29.971 38.7042 29.9281ZM31.8246 19.2701C29.4041 19.7859 26.828 20.7942 24.354 22.2146C18.2316 25.7296 14.2379 30.9123 14.7928 34.6708C14.7997 34.7259 14.8176 34.779 14.8454 34.8271C14.8733 34.8753 14.9105 34.9174 14.9549 34.951C14.9994 34.9846 15.0501 35.0091 15.1042 35.0229C15.1582 35.0368 15.2145 35.0398 15.2698 35.0317C15.325 35.0236 15.3781 35.0046 15.4258 34.9759C15.4736 34.9472 15.5151 34.9092 15.5479 34.8643C15.5808 34.8194 15.6042 34.7684 15.617 34.7143C15.6297 34.6603 15.6314 34.6042 15.6221 34.5495C15.1298 31.2128 18.9152 26.2997 24.7729 22.9367C27.173 21.5587 29.6677 20.5827 32.0004 20.0852C32.1058 20.0588 32.1968 19.9928 32.2542 19.901C32.3116 19.8093 32.331 19.6989 32.3082 19.5932C32.2854 19.4875 32.2223 19.3948 32.1321 19.3345C32.0418 19.2742 31.9316 19.2511 31.8246 19.2701Z" fill="#2DD0ED"/>
<path d="M21.9063 37.2763C23.3066 41.1625 25.5959 43.5556 28.1709 43.5556C30.0485 43.5556 31.7858 42.2828 33.1407 40.0417C33.1711 39.9948 33.1917 39.9422 33.2013 39.8872C33.2108 39.8322 33.2093 39.7759 33.1966 39.7215C33.1807 39.6534 33.1478 39.5903 33.101 39.5381C33.0542 39.4859 32.9949 39.4463 32.9286 39.4229C32.8624 39.3995 32.7913 39.393 32.7218 39.4041C32.6524 39.4152 32.5869 39.4435 32.5313 39.4864C32.487 39.5206 32.45 39.5633 32.4225 39.612C31.2048 41.6261 29.7091 42.7221 28.1709 42.7221C26.0324 42.7221 23.9899 40.5875 22.696 36.9951C22.6782 36.9425 22.6501 36.8939 22.6133 36.8522C22.5764 36.8105 22.5316 36.7765 22.4814 36.7522C22.4312 36.728 22.3767 36.714 22.3209 36.711C22.2652 36.7081 22.2095 36.7162 22.157 36.735C22.1045 36.7537 22.0562 36.7827 22.0151 36.8202C21.974 36.8577 21.9408 36.903 21.9175 36.9534C21.8942 37.0038 21.8812 37.0583 21.8793 37.1137C21.8775 37.1692 21.8868 37.2245 21.9067 37.2763H21.9063ZM34.6914 36.5158C35.4159 34.2138 35.8047 31.5573 35.8047 28.7892C35.8047 21.8827 33.3742 15.9287 29.9117 14.3998C29.8105 14.3575 29.6967 14.3563 29.5946 14.3965C29.4926 14.4367 29.4105 14.5152 29.3659 14.6149C29.3214 14.7147 29.3179 14.8279 29.3564 14.9302C29.3948 15.0324 29.472 15.1156 29.5715 15.1619C32.6596 16.5256 34.9666 22.176 34.9666 28.7892C34.9666 31.4743 34.5895 34.047 33.8914 36.267C33.8733 36.3196 33.866 36.3753 33.87 36.4308C33.8739 36.4863 33.889 36.5404 33.9144 36.59C33.9525 36.6647 34.0124 36.7262 34.0862 36.7665C34.1601 36.8069 34.2444 36.8242 34.3283 36.8162C34.4121 36.8082 34.4916 36.7753 34.5564 36.7217C34.6212 36.6681 34.6682 36.5964 34.6914 36.5158ZM42.5868 36.1077C42.5885 35.8446 42.5379 35.5838 42.4378 35.3402C42.3377 35.0967 42.1902 34.8752 42.0037 34.6886C41.8172 34.5019 41.5954 34.3538 41.3512 34.2527C41.1069 34.1517 40.8449 34.0996 40.5804 34.0996C40.3158 34.0997 40.0538 34.1517 39.8096 34.2528C39.5653 34.3539 39.3435 34.502 39.157 34.6886C38.9706 34.8753 38.8231 35.0967 38.723 35.3403C38.6229 35.5838 38.5723 35.8447 38.574 36.1078C38.5774 36.6347 38.7903 37.139 39.1662 37.5104C39.5421 37.8818 40.0505 38.0903 40.5804 38.0903C41.1104 38.0903 41.6188 37.8818 41.9947 37.5104C42.3706 37.1389 42.5834 36.6347 42.5868 36.1077ZM41.7483 36.1077C41.7482 36.4157 41.6252 36.7111 41.4061 36.9289C41.1871 37.1467 40.8901 37.2691 40.5804 37.2691C40.3494 37.2691 40.1236 37.201 39.9316 37.0734C39.7395 36.9458 39.5898 36.7644 39.5015 36.5522C39.4131 36.34 39.39 36.1065 39.435 35.8812C39.4801 35.6559 39.5913 35.449 39.7546 35.2866C39.918 35.1241 40.126 35.0135 40.3526 34.9687C40.5791 34.9239 40.8139 34.9469 41.0273 35.0348C41.2407 35.1227 41.4231 35.2715 41.5514 35.4625C41.6798 35.6535 41.7483 35.878 41.7483 36.1077ZM15.7325 38.103C15.996 38.103 16.257 38.0515 16.5004 37.9512C16.7439 37.8509 16.9651 37.704 17.1514 37.5187C17.3377 37.3334 17.4855 37.1134 17.5863 36.8713C17.6872 36.6292 17.739 36.3697 17.739 36.1077C17.739 35.8457 17.6871 35.5862 17.5863 35.3441C17.4855 35.102 17.3377 34.882 17.1513 34.6967C16.965 34.5114 16.7438 34.3645 16.5003 34.2642C16.2569 34.1639 15.996 34.1123 15.7325 34.1124C15.469 34.1124 15.2081 34.164 14.9646 34.2642C14.7212 34.3645 14.5 34.5115 14.3137 34.6968C14.1274 34.8821 13.9796 35.102 13.8788 35.3441C13.7779 35.5862 13.7261 35.8457 13.7261 36.1077C13.7261 36.3697 13.7779 36.6292 13.8788 36.8713C13.9796 37.1134 14.1274 37.3334 14.3137 37.5186C14.5 37.7039 14.7212 37.8509 14.9647 37.9512C15.2081 38.0514 15.469 38.103 15.7325 38.103ZM15.7325 37.2691C15.4227 37.2691 15.1256 37.1468 14.9065 36.9289C14.6874 36.711 14.5644 36.4156 14.5644 36.1075C14.5644 35.7994 14.6874 35.5039 14.9065 35.286C15.1256 35.0681 15.4227 34.9458 15.7325 34.9458C16.0424 34.9458 16.3395 35.0681 16.5586 35.286C16.7776 35.5039 16.9007 35.7994 16.9007 36.1075C16.9007 36.4156 16.7776 36.711 16.5586 36.9289C16.3395 37.1468 16.0424 37.2691 15.7325 37.2691Z" fill="#2DD0ED"/>
<path d="M28.1709 16.435C28.5678 16.435 28.9558 16.318 29.2857 16.0987C29.6157 15.8795 29.8728 15.5678 30.0247 15.2032C30.1509 14.9 30.1999 14.5706 30.1676 14.2441C30.1352 13.9176 30.0224 13.604 29.8391 13.3312C29.6557 13.0584 29.4076 12.8348 29.1167 12.6801C28.8257 12.5254 28.5009 12.4444 28.1709 12.4443C27.7741 12.4443 27.3861 12.5612 27.0561 12.7805C26.7261 12.9997 26.4689 13.3113 26.317 13.676C26.1652 14.0406 26.1254 14.4418 26.2029 14.8289C26.2803 15.2159 26.4715 15.5715 26.7522 15.8505C26.9385 16.0358 27.1597 16.1827 27.4031 16.283C27.6465 16.3833 27.9075 16.4349 28.1709 16.4349V16.435ZM28.1709 15.601C27.94 15.601 27.7142 15.5329 27.5221 15.4053C27.3301 15.2776 27.1803 15.0963 27.0919 14.8841C27.0332 14.7432 27.0029 14.5921 27.0029 14.4396C27.0029 14.2871 27.0332 14.136 27.0919 13.9951C27.1506 13.8542 27.2366 13.7262 27.345 13.6183C27.4535 13.5105 27.5822 13.425 27.724 13.3666C27.8835 13.3009 28.0558 13.2712 28.2283 13.2796C28.4008 13.288 28.5693 13.3344 28.7216 13.4154C28.8739 13.4963 29.0063 13.6099 29.1092 13.7479C29.2121 13.8858 29.2829 14.0447 29.3166 14.2132C29.3503 14.3817 29.346 14.5555 29.304 14.7221C29.2621 14.8887 29.1835 15.044 29.0739 15.1767C28.9643 15.3095 28.8265 15.4165 28.6704 15.4899C28.5142 15.5633 28.3437 15.6014 28.1709 15.6014V15.601ZM28.4774 30.2006C28.101 30.2814 27.7078 30.2102 27.3841 30.0028C27.1427 29.848 26.9528 29.6256 26.8386 29.3636C26.7243 29.1015 26.6908 28.8117 26.7422 28.5307C26.7936 28.2497 26.9277 27.9902 27.1274 27.7849C27.3272 27.5797 27.5836 27.438 27.8644 27.3778C28.2382 27.3035 28.6264 27.3784 28.9452 27.5862C29.264 27.7941 29.4878 28.1183 29.5684 28.4888C29.6488 28.8594 29.5795 29.2465 29.3754 29.5667C29.1713 29.8869 28.8488 30.1144 28.4774 30.2002V30.2006Z" fill="#2DD0ED"/>
</svg>
