<svg width="58" height="56" viewBox="0 0 58 56" fill="none" xmlns="http://www.w3.org/2000/svg">
<path d="M40.274 16.5606C37.3673 12.4259 31.6262 11.2003 27.4757 13.829L20.1867 18.4472C19.6963 18.7536 19.2389 19.1099 18.8227 19.5103C18.406 19.9106 18.0326 20.3531 17.7083 20.8303C17.384 21.3076 17.1104 21.817 16.8916 22.3503C16.6733 22.8839 16.5112 23.4386 16.408 24.0054C16.3218 24.4805 16.2748 24.9625 16.2686 25.4454C16.2618 25.9289 16.2957 26.4118 16.3694 26.8891C16.443 27.3669 16.5563 27.8379 16.7077 28.2969C16.8592 28.756 17.0488 29.2016 17.2743 29.6295C17.1192 29.864 16.9759 30.1061 16.8451 30.3549C16.714 30.6037 16.596 30.8592 16.491 31.1199C16.3861 31.3806 16.2947 31.6465 16.2169 31.9165C16.1391 32.1865 16.0754 32.4602 16.0252 32.7365C15.8169 33.8983 15.8444 35.0897 16.1062 36.2408C16.2367 36.8146 16.4242 37.3744 16.6665 37.9114C16.9088 38.4484 17.2038 38.9604 17.5485 39.4392C20.4551 43.5739 26.1957 44.7995 30.3463 42.1707L37.6352 37.5718C38.1256 37.2649 38.582 36.9081 38.9982 36.5072C39.4143 36.1066 39.7876 35.6642 40.1121 35.1871C40.4364 34.7104 40.71 34.2009 40.9288 33.6676C41.1476 33.1348 41.31 32.5802 41.4139 32.0136C41.5001 31.5385 41.5466 31.0571 41.5528 30.5741C41.5591 30.0911 41.5252 29.6082 41.451 29.1309C41.3774 28.6537 41.2641 28.1832 41.1121 27.7241C40.9601 27.2656 40.7706 26.82 40.545 26.3921C40.7001 26.1579 40.8437 25.9154 40.9748 25.6666C41.1053 25.4179 41.2239 25.1624 41.3288 24.9017C41.4338 24.641 41.5257 24.3751 41.604 24.1051C41.6818 23.8356 41.7466 23.5619 41.7972 23.2856C41.9006 22.7061 41.9455 22.1177 41.932 21.5293C41.9184 20.9409 41.8458 20.3557 41.7153 19.7813C41.5847 19.2075 41.3972 18.6477 41.1549 18.1107C40.9129 17.5737 40.6178 17.0619 40.274 16.5829" fill="#FF3E00"/>
<path d="M26.7634 39.839C26.1929 39.9864 25.6031 40.0463 25.0145 40.0166C24.426 39.9865 23.8453 39.8681 23.2928 39.664C22.7403 39.4603 22.2222 39.1739 21.7564 38.815C21.2911 38.4557 20.8834 38.0281 20.5475 37.5468C20.3402 37.2586 20.1627 36.9512 20.0175 36.6281C19.8719 36.3053 19.7591 35.9689 19.6807 35.6238C19.6029 35.2785 19.559 34.9264 19.5512 34.5727C19.5433 34.2191 19.571 33.8654 19.6337 33.517C19.6436 33.4604 19.6551 33.4038 19.6676 33.3477C19.6796 33.2911 19.6932 33.235 19.7078 33.1794C19.7219 33.1233 19.7376 33.0678 19.7543 33.0122C19.7705 32.9572 19.7882 32.9021 19.8065 32.8476L19.9439 32.4306L20.3183 32.7084C20.5329 32.8642 20.7543 33.0112 20.9815 33.1483C21.2086 33.2859 21.4416 33.4136 21.6797 33.531C21.9173 33.6489 22.1606 33.7569 22.4076 33.854C22.6546 33.9516 22.9058 34.0384 23.1607 34.1147L23.44 34.1952L23.415 34.473C23.4015 34.6621 23.4213 34.8521 23.4735 35.0344C23.4991 35.1258 23.533 35.2141 23.5742 35.2992C23.6155 35.3844 23.6641 35.4659 23.7194 35.5428C23.8208 35.6878 23.9439 35.8165 24.0844 35.9245C24.2244 36.0325 24.3805 36.1187 24.5471 36.18C24.7137 36.2413 24.8881 36.2766 25.0657 36.2854C25.2427 36.2948 25.4203 36.2766 25.5921 36.2319C25.6317 36.2215 25.6704 36.2096 25.709 36.1961C25.7477 36.1826 25.7858 36.168 25.8229 36.1514C25.8605 36.1353 25.897 36.1177 25.9336 36.0985C25.9696 36.0798 26.0046 36.0595 26.0391 36.0377L33.3171 31.419C33.4063 31.3633 33.4894 31.2986 33.5651 31.2258C33.6408 31.1526 33.7082 31.0721 33.7672 30.9854C33.8262 30.8986 33.8753 30.8057 33.915 30.7086C33.9542 30.6115 33.9834 30.5107 34.0022 30.4079C34.0205 30.3025 34.0283 30.196 34.0257 30.089C34.0231 29.9826 34.0095 29.8766 33.9855 29.7723C33.962 29.6684 33.9275 29.5671 33.8832 29.4695C33.8393 29.3724 33.785 29.2799 33.7223 29.1932C33.621 29.0483 33.4983 28.9201 33.3578 28.8121C33.2173 28.704 33.0612 28.6178 32.8951 28.5566C32.7287 28.4953 32.5538 28.4595 32.3766 28.4506C32.199 28.4418 32.0215 28.46 31.8497 28.5041C31.8105 28.5145 31.7713 28.5264 31.7327 28.5399C31.6941 28.5534 31.6565 28.568 31.6189 28.5841C31.5813 28.6007 31.5447 28.6184 31.5087 28.6376C31.4726 28.6563 31.4371 28.677 31.4027 28.6988L28.6078 30.4634C28.494 30.5351 28.377 30.6026 28.2579 30.666C28.1383 30.7288 28.0172 30.7875 27.8934 30.8415C27.7697 30.8955 27.6438 30.9448 27.5164 30.989C27.389 31.0336 27.26 31.0731 27.1294 31.1079C26.5597 31.2544 25.9712 31.3136 25.3837 31.2834C24.7962 31.2533 24.2171 31.1344 23.6656 30.9313C23.1142 30.7278 22.5972 30.4416 22.1324 30.0833C21.6677 29.725 21.2603 29.2986 20.9246 28.8183C20.7183 28.5301 20.5413 28.2221 20.3966 27.8991C20.2514 27.5761 20.1392 27.2396 20.0614 26.8948C19.9836 26.5494 19.9407 26.1973 19.9334 25.8437C19.9256 25.4906 19.9533 25.1369 20.0164 24.789C20.1399 24.1039 20.4056 23.452 20.7966 22.8748C21.1879 22.2976 21.6961 21.808 22.2886 21.4374L29.589 16.8192C29.7024 16.7475 29.8183 16.68 29.9368 16.6166C30.0554 16.5538 30.1765 16.4951 30.2992 16.4411C30.4222 16.3871 30.5473 16.3379 30.6742 16.2936C30.8006 16.249 30.929 16.209 31.0591 16.1742C31.6293 16.0272 32.2189 15.967 32.8069 15.9966C33.3954 16.0267 33.9756 16.1451 34.5281 16.3492C35.0806 16.5528 35.5981 16.8394 36.0639 17.1983C36.5291 17.5577 36.9366 17.9855 37.2723 18.4669C37.4791 18.7546 37.6571 19.0621 37.8028 19.3851C37.9485 19.7081 38.0613 20.0441 38.1402 20.3894C38.2185 20.7347 38.2624 21.0868 38.2702 21.4405C38.2786 21.7941 38.2514 22.1478 38.1888 22.4962C38.1778 22.5534 38.1663 22.6105 38.1532 22.6671C38.1407 22.7237 38.1271 22.7803 38.1125 22.8364C38.0984 22.893 38.0827 22.9491 38.0666 23.0046C38.0504 23.0607 38.0337 23.1163 38.0154 23.1713L37.8759 23.5883L37.5041 23.3105C37.289 23.1532 37.067 23.0057 36.8394 22.867C36.6117 22.7289 36.3777 22.6001 36.1391 22.4812C35.6613 22.2442 35.1643 22.0475 34.6534 21.8933L34.3735 21.8128L34.3991 21.535C34.4069 21.44 34.4064 21.3444 34.3975 21.2499C34.3892 21.1554 34.3719 21.0614 34.3469 20.9695C34.3213 20.8781 34.2884 20.7882 34.2471 20.7025C34.2064 20.6163 34.1578 20.5343 34.1025 20.4564C34.0006 20.3141 33.8775 20.188 33.7375 20.0825C33.5976 19.9765 33.4423 19.8925 33.2769 19.8332C32.9445 19.7133 32.5832 19.6972 32.2413 19.787C32.2016 19.7974 32.1625 19.8093 32.1244 19.8223C32.0857 19.8358 32.0476 19.8509 32.01 19.867C31.9729 19.8831 31.9358 19.9013 31.8998 19.92C31.8638 19.9392 31.8283 19.9594 31.7938 19.9812L24.5022 24.5916C24.4134 24.6472 24.3304 24.7121 24.2552 24.7848C24.18 24.8575 24.1121 24.938 24.0531 25.0242C23.9946 25.1109 23.9451 25.2033 23.9053 25.3C23.8656 25.3971 23.8364 25.4973 23.8176 25.6001C23.7993 25.7056 23.7915 25.8125 23.7941 25.9195C23.8004 26.1336 23.8488 26.3445 23.9367 26.5401C23.981 26.6375 24.0347 26.7303 24.097 26.8174C24.1978 26.9607 24.32 27.0885 24.4594 27.1954C24.5985 27.3029 24.7533 27.3887 24.9184 27.4499C25.2504 27.5726 25.612 27.5924 25.9555 27.5065C25.9947 27.4956 26.0338 27.4837 26.0725 27.4702C26.1106 27.4567 26.1487 27.4416 26.1863 27.4255C26.2238 27.4093 26.2605 27.3916 26.2965 27.3725C26.3326 27.3538 26.3681 27.3336 26.4025 27.3118L29.1974 25.5503C29.3117 25.4776 29.4282 25.409 29.5478 25.3457C29.6668 25.2818 29.7885 25.2231 29.9128 25.1686C30.0367 25.1146 30.1626 25.0654 30.2904 25.0211C30.4183 24.9764 30.5478 24.937 30.6789 24.9027C31.2491 24.7552 31.8382 24.695 32.4267 24.7241C33.0152 24.7537 33.5954 24.8721 34.1479 25.0756C34.6999 25.2792 35.2179 25.5653 35.6832 25.9247C36.149 26.2835 36.5563 26.7109 36.8921 27.1923C37.0989 27.4805 37.2765 27.788 37.4221 28.111C37.5678 28.4338 37.6808 28.7702 37.7595 29.1153C37.8378 29.4601 37.8817 29.8122 37.89 30.1659C37.8984 30.5201 37.8707 30.8737 37.8086 31.2216C37.747 31.5633 37.6499 31.8976 37.5188 32.2192C37.3878 32.541 37.2232 32.8482 37.0279 33.1358C36.8331 33.4235 36.6086 33.6904 36.3579 33.9319C36.1072 34.1734 35.832 34.3884 35.5365 34.5732L28.2444 39.1915C28.13 39.2636 28.013 39.3317 27.894 39.395C27.7744 39.4584 27.6527 39.5171 27.5284 39.5711C27.4046 39.6256 27.2788 39.6749 27.1508 39.7196C27.0234 39.7642 26.8939 39.8042 26.7634 39.839Z" fill="white"/>
</svg>
