<svg width="58" height="56" viewBox="0 0 58 56" fill="none" xmlns="http://www.w3.org/2000/svg">
<path d="M42.8131 21.6543C42.8128 21.1363 42.7014 20.6786 42.4762 20.2859C42.2549 19.8995 41.9235 19.5757 41.479 19.3198C37.8098 17.2158 34.137 15.1183 30.469 13.0122C29.4801 12.4445 28.5213 12.4653 27.5397 13.0412C26.0793 13.8976 18.7673 18.0636 16.5884 19.3186C15.6911 19.8353 15.2544 20.6258 15.2542 21.6533C15.2528 25.8844 15.2542 30.1156 15.2528 34.3467C15.2528 34.8533 15.3597 35.3022 15.575 35.6891C15.7964 36.087 16.1324 36.4197 16.5872 36.6815C18.7662 37.9365 26.0792 42.1021 27.5393 42.9588C28.5213 43.535 29.4801 43.5556 30.4693 42.9878C34.1374 40.8816 37.8104 38.7841 41.4802 36.6802C41.9349 36.4185 42.2709 36.0856 42.4923 35.688C42.7074 35.3011 42.8145 34.8523 42.8145 34.3456C42.8145 34.3456 42.8145 25.8855 42.8131 21.6543Z" fill="#A179DC"/>
<path d="M29.0758 27.959L15.5751 35.6893C15.7965 36.0872 16.1325 36.4199 16.5872 36.6817C18.7662 37.9367 26.0792 42.1023 27.5394 42.959C28.5213 43.5352 29.4801 43.5558 30.4693 42.988C34.1375 40.8818 37.8105 38.7843 41.4802 36.6804C41.935 36.4187 42.271 36.0858 42.4924 35.6882L29.0758 27.959Z" fill="#280068"/>
<path d="M42.8131 21.654C42.8129 21.1361 42.7015 20.6784 42.4762 20.2856L29.0758 27.9587L42.4924 35.6878C42.7074 35.3009 42.8143 34.8521 42.8145 34.3453C42.8145 34.3453 42.8145 25.8853 42.8131 21.654Z" fill="#390091"/>
<path d="M37.0245 25.0688V26.5138H38.4775V25.0688H39.2041V26.5138H40.6571V27.2363H39.2041V28.6811H40.6571V29.4036H39.2041V30.8485H38.4775V29.4036H37.0245V30.8485H36.298V29.4036H34.8451V28.6811H36.298V27.2363H34.8451V26.5138H36.298V25.0688H37.0245ZM38.4775 27.2362H37.0245V28.6811H38.4775V27.2362Z" fill="white"/>
<path d="M29.1054 17.8121C32.8953 17.8121 36.2041 19.8589 37.9764 22.9013L37.9592 22.872L33.5 25.4252C32.6216 23.946 31.0111 22.9477 29.1635 22.9271L29.1053 22.9268C26.288 22.9268 24.004 25.1982 24.004 27.9998C24.003 28.8828 24.235 29.7507 24.6768 30.5167C25.5561 32.0433 27.2092 33.0729 29.1054 33.0729C31.0134 33.0729 32.6758 32.0302 33.5506 30.4873L33.5294 30.5243L37.9817 33.0893C36.2288 36.1059 32.9653 38.1464 29.2195 38.187L29.1054 38.1877C25.3035 38.1877 21.9853 36.1283 20.2174 33.0698C19.3544 31.5767 18.8606 29.8457 18.8606 27.9998C18.8606 22.3734 23.4472 17.812 29.1053 17.812L29.1054 17.8121Z" fill="white"/>
</svg>
