<svg width="57" height="56" viewBox="0 0 57 56" fill="none" xmlns="http://www.w3.org/2000/svg">
<path d="M41.1009 18.4922C39.2098 16.057 36.6351 14.2342 33.7022 13.2543C30.7694 12.2744 27.6102 12.1815 24.6242 12.9872C21.6382 13.7929 18.9596 15.4611 16.927 17.7808C14.8945 20.1005 13.5994 22.9675 13.2054 26.0192C12.8115 29.071 13.3365 32.1703 14.714 34.9253C16.0915 37.6803 18.2596 39.9672 20.9441 41.4968C23.6287 43.0264 26.7091 43.7299 29.7957 43.5184C32.8823 43.3069 35.8366 42.1899 38.2848 40.3086C45.1185 35.0567 46.3797 25.2904 41.1004 18.4922H41.1009Z" fill="#FF6C37"/>
<path d="M33.9963 22.3557L27.4006 28.9668L25.5367 27.0612C32.0283 20.6057 32.6799 21.189 33.9967 22.3557H33.9963Z" fill="white"/>
<path d="M27.4007 29.1478C27.3422 29.1464 27.2865 29.1233 27.2442 29.0832L25.3672 27.2165C25.3249 27.173 25.3013 27.1149 25.3013 27.0544C25.3013 26.9939 25.3249 26.9358 25.3672 26.8923C31.7673 20.5277 32.6408 20.8257 34.1528 22.1868C34.1781 22.2069 34.1983 22.2327 34.2119 22.2619C34.2255 22.2912 34.232 22.3232 34.231 22.3555C34.2407 22.4187 34.2163 22.4833 34.166 22.5241L27.5703 29.0837C27.524 29.1258 27.4634 29.1489 27.4007 29.1483V29.1478ZM25.8623 27.061L27.4007 28.5907L33.6576 22.3686C33.4415 22.0993 33.1333 21.9188 32.7918 21.8614C32.4502 21.804 32.0994 21.8738 31.8064 22.0575C30.6723 22.563 28.8476 24.1054 25.8623 27.061Z" fill="#FF6C37"/>
<path d="M29.2909 30.7943L27.4921 28.9666L34.0878 22.4849C35.8608 24.2091 33.2275 27.0868 29.2909 30.7938V30.7943Z" fill="white"/>
<path d="M29.291 31.0279C29.2332 31.0233 29.1785 31.0007 29.1345 30.9632L27.2966 29.1744C27.269 29.1079 27.269 29.0333 27.2966 28.9668C27.277 28.9122 27.277 28.8527 27.2966 28.7981L33.8922 22.2391C33.9381 22.1962 33.9987 22.1724 34.0616 22.1724C34.1246 22.1724 34.1851 22.1962 34.231 22.2391C34.4446 22.4346 34.6134 22.6735 34.7258 22.9397C34.8382 23.2058 34.8917 23.493 34.8826 23.7815C34.8826 25.5315 32.875 27.735 29.4601 30.9501C29.4145 30.995 29.3544 31.0225 29.2905 31.0279H29.291ZM27.8308 28.9668L29.3037 30.4309C31.9106 27.981 34.4006 25.4532 34.4133 23.7421C34.4275 23.3794 34.3069 23.0241 34.0746 22.7441L27.8308 28.9668Z" fill="#FF6C37"/>
<path d="M25.5886 27.1L26.8923 28.3964C26.9006 28.4037 26.9073 28.4127 26.9118 28.4228C26.9164 28.4328 26.9188 28.4437 26.9188 28.4548C26.9188 28.4658 26.9164 28.4767 26.9118 28.4868C26.9073 28.4968 26.9006 28.5058 26.8923 28.5131L24.1417 29.0964C24.0862 29.1083 24.0282 29.1019 23.9767 29.078C23.9252 29.0542 23.883 29.0143 23.8564 28.9643C23.8299 28.9144 23.8204 28.8572 23.8296 28.8015C23.8387 28.7457 23.8659 28.6945 23.907 28.6555L25.5104 27.0742C25.5104 27.0742 25.5627 27.0742 25.5886 27.1Z" fill="white"/>
<path d="M24.0766 29.3559C23.9897 29.3548 23.9046 29.3316 23.8293 29.2884C23.7539 29.2453 23.691 29.1837 23.6465 29.1094C23.5964 29.0154 23.5782 28.9078 23.5947 28.8027C23.6111 28.6975 23.6614 28.6005 23.7379 28.5261L25.328 26.9317C25.3854 26.8807 25.4596 26.8525 25.5365 26.8525C25.6134 26.8525 25.6876 26.8807 25.745 26.9317L27.0487 28.2281C27.1259 28.3011 27.1562 28.4114 27.1269 28.5135C27.0976 28.6156 27.0115 28.6967 26.9055 28.721L24.1549 29.3044L24.0766 29.3559ZM25.5368 27.3857L24.0639 28.8504L26.5017 28.3317L25.5368 27.3857Z" fill="#FF6C37"/>
<path d="M37.5032 18.7129C36.5598 17.8077 35.0776 17.7698 34.0882 18.6239C33.0989 19.478 32.9297 20.9441 33.7001 21.9989C34.4705 23.0538 35.9228 23.3493 37.0471 22.6795L35.2741 20.9164L37.5032 18.7129Z" fill="white"/>
<path d="M35.7434 23.2754C35.2013 23.2685 34.6733 23.1031 34.2251 22.7999C33.777 22.4967 33.4284 22.069 33.223 21.5702C33.0176 21.0717 32.9638 20.5243 33.068 19.9957C33.1723 19.4671 33.4301 18.9805 33.8096 18.5961C34.3314 18.0867 35.0335 17.8013 35.7649 17.8013C36.4962 17.8013 37.1983 18.0867 37.7202 18.5961C37.77 18.638 37.7984 18.6997 37.7984 18.7648C37.7983 18.7969 37.7912 18.8285 37.7777 18.8576C37.7642 18.8867 37.7446 18.9126 37.7202 18.9335L35.6084 20.9168L37.2118 22.4855C37.2378 22.5102 37.2573 22.5408 37.2686 22.5747C37.2799 22.6086 37.2828 22.6447 37.2768 22.6799C37.2729 22.7139 37.2616 22.7467 37.2436 22.7758C37.2256 22.8049 37.2014 22.8298 37.1727 22.8486C36.7419 23.1164 36.2468 23.2641 35.739 23.2764L35.7434 23.2754ZM35.7434 18.2457C34.8146 18.2505 33.9836 18.8061 33.635 19.6554C33.2865 20.5046 33.4762 21.4822 34.1273 22.1345C34.4512 22.4585 34.8658 22.6776 35.317 22.7632C35.7683 22.8488 36.2349 22.7969 36.656 22.6143L35.1177 21.0845C35.0932 21.0651 35.0735 21.0404 35.0599 21.0124C35.0463 20.9843 35.0393 20.9536 35.0393 20.9224C35.0393 20.8913 35.0463 20.8605 35.0599 20.8325C35.0735 20.8044 35.0932 20.7797 35.1177 20.7603L37.1512 18.725C36.7469 18.4169 36.2526 18.2484 35.7434 18.2452V18.2457Z" fill="#FF6C37"/>
<path d="M37.5422 18.752L35.3132 20.9555L37.0862 22.7186C37.2646 22.6167 37.4307 22.4949 37.5813 22.3555C38.046 21.867 38.3017 21.2182 38.2944 20.5458C38.2871 19.8735 38.0174 19.2303 37.5422 18.752Z" fill="white"/>
<path d="M37.0466 22.9127C37.0173 22.9143 36.988 22.9093 36.961 22.8981C36.9339 22.8869 36.9097 22.8698 36.8902 22.848L35.1172 21.0849C35.0927 21.0655 35.073 21.0408 35.0594 21.0127C35.0459 20.9847 35.0388 20.9539 35.0388 20.9228C35.0388 20.8917 35.0459 20.8609 35.0594 20.8329C35.073 20.8048 35.0927 20.7801 35.1172 20.7607L37.333 18.5961C37.3544 18.564 37.3835 18.5376 37.4176 18.5194C37.4517 18.5012 37.4898 18.4917 37.5286 18.4917C37.5673 18.4917 37.6054 18.5012 37.6395 18.5194C37.6736 18.5376 37.7027 18.564 37.7241 18.5961C37.9842 18.8495 38.1909 19.152 38.332 19.4859C38.473 19.8198 38.5457 20.1783 38.5457 20.5405C38.5457 20.9026 38.473 21.2612 38.332 21.595C38.1909 21.9289 37.9842 22.2315 37.7241 22.4849C37.5706 22.6468 37.3951 22.7864 37.2025 22.8996C37.154 22.9239 37.098 22.9286 37.0461 22.9127H37.0466ZM35.6129 20.9167L37.0857 22.3814C37.187 22.3108 37.2829 22.2328 37.3726 22.148C37.8056 21.7187 38.0494 21.1359 38.0506 20.5278C38.0516 19.9837 37.8522 19.458 37.4899 19.0501L35.6129 20.9167Z" fill="#FF6C37"/>
<path d="M34.2701 22.6277C34.0935 22.4629 33.8604 22.3711 33.6182 22.3711C33.376 22.3711 33.1429 22.4629 32.9664 22.6277L27.0619 28.4863L28.0395 29.4717L34.2833 24.0273C34.3785 23.9365 34.454 23.8273 34.5052 23.7065C34.5564 23.5856 34.5822 23.4556 34.5809 23.3244C34.5797 23.1933 34.5515 23.0638 34.498 22.9439C34.4446 22.824 34.367 22.7162 34.2701 22.6273V22.6277Z" fill="white"/>
<path d="M27.9872 29.7057C27.9288 29.7043 27.873 29.6813 27.8308 29.6411L26.8399 28.6558C26.7977 28.6123 26.774 28.5541 26.774 28.4936C26.774 28.4332 26.7977 28.375 26.8399 28.3315L32.7449 22.4851C32.915 22.3162 33.1322 22.202 33.3683 22.1573C33.6045 22.1126 33.8487 22.1395 34.0693 22.2344C34.2899 22.3294 34.4767 22.4881 34.6055 22.69C34.7343 22.8918 34.7991 23.1275 34.7916 23.3664C34.7848 23.5286 34.7456 23.6878 34.6762 23.8347C34.6068 23.9816 34.5086 24.1133 34.3874 24.222L28.1436 29.6664C28.0982 29.6983 28.0424 29.7122 27.9872 29.7053V29.7057ZM27.2965 28.4866L27.9481 29.1477L34.0745 23.8457C34.226 23.7145 34.3165 23.5268 34.3223 23.3271C34.3282 23.1273 34.249 22.9319 34.1009 22.7957C33.9641 22.6603 33.779 22.5842 33.5859 22.5842C33.3929 22.5842 33.2077 22.6603 33.071 22.7957L27.2965 28.4866Z" fill="#FF6C37"/>
<path d="M22.4865 35.1625C22.4699 35.185 22.4609 35.2123 22.4609 35.2403C22.4609 35.2682 22.4699 35.2955 22.4865 35.318L22.7471 36.4458C22.7575 36.5122 22.7476 36.5801 22.7187 36.6408C22.6897 36.7015 22.6431 36.7521 22.5848 36.7861C22.5267 36.8199 22.4593 36.8344 22.3924 36.8277C22.3255 36.821 22.2624 36.7933 22.2123 36.7487L20.4266 35.0376L25.9928 29.4585H27.9222L29.2259 30.7549C27.1923 32.5231 24.9247 34.0061 22.4865 35.1625Z" fill="white"/>
<path d="M22.3692 37.0681C22.2215 37.0652 22.0759 37.0049 21.9781 36.8994L20.2706 35.2015C20.2462 35.182 20.2264 35.1573 20.2129 35.1293C20.1993 35.1012 20.1923 35.0705 20.1923 35.0393C20.1923 35.0082 20.1993 34.9775 20.2129 34.9494C20.2264 34.9213 20.2462 34.8967 20.2706 34.8772L25.8755 29.2904C25.9069 29.2572 25.9479 29.2346 25.9928 29.2257H27.9349C27.9855 29.208 28.0407 29.208 28.0913 29.2257L29.395 30.5222C29.4198 30.5449 29.4387 30.5733 29.45 30.6049C29.4613 30.6365 29.4647 30.6703 29.46 30.7035C29.4609 30.7357 29.4544 30.7677 29.4408 30.797C29.4272 30.8262 29.407 30.852 29.3818 30.8722L29.2777 30.9631C27.2358 32.6559 24.9894 34.0885 22.5906 35.2277L22.8384 36.2777C22.8576 36.3587 22.8583 36.4429 22.8406 36.5242C22.8228 36.6056 22.7871 36.6819 22.7359 36.7477C22.6847 36.8135 22.6193 36.8672 22.5446 36.9047C22.47 36.9422 22.3878 36.9627 22.3041 36.9646L22.3692 37.0681ZM20.779 35.0328L22.3168 36.5752C22.3312 36.5879 22.3497 36.5949 22.3689 36.5949C22.3881 36.5949 22.4066 36.5879 22.421 36.5752C22.4306 36.562 22.4357 36.5461 22.4357 36.5297C22.4357 36.5134 22.4306 36.4975 22.421 36.4843L22.1604 35.3565C22.1399 35.2756 22.1481 35.1901 22.1838 35.1145C22.2194 35.0389 22.2803 34.9779 22.356 34.9419C24.6903 33.8179 26.8788 32.4162 28.8734 30.7677L27.8044 29.7046H26.0578L20.779 35.0328Z" fill="#FF6C37"/>
<path d="M19.0843 36.3682L20.3879 35.0718L22.3955 37.0682L19.2021 36.848C19.1472 36.8437 19.0952 36.8223 19.0533 36.7869C19.0114 36.7514 18.9818 36.7037 18.9688 36.6506C18.9558 36.5975 18.96 36.5416 18.9808 36.491C19.0017 36.4404 19.038 36.3976 19.0847 36.3687L19.0843 36.3682Z" fill="white"/>
<path d="M22.4341 37.2626L19.2534 37.0423C19.0647 37.0248 18.9024 36.8965 18.8359 36.7249C18.7695 36.5533 18.81 36.3496 18.9405 36.2126L20.2442 34.9161C20.288 34.8741 20.3464 34.8506 20.4073 34.8506C20.4681 34.8506 20.5265 34.8741 20.5703 34.9161L22.5647 36.8994C22.5923 36.937 22.6072 36.9824 22.6072 37.029C22.6072 37.0755 22.5923 37.1209 22.5647 37.1585C22.5345 37.207 22.4884 37.2436 22.4341 37.2621V37.2626ZM19.2534 36.5368L21.8603 36.7055L20.4266 35.3701L19.2534 36.5368Z" fill="#FF6C37"/>
<path d="M28.1046 29.6152L25.4713 30.0172L26.9964 28.5137L28.1046 29.6152Z" fill="white"/>
<path d="M25.4713 30.2628C25.4275 30.2639 25.3844 30.2522 25.3473 30.2292C25.3102 30.2061 25.2807 30.1726 25.2626 30.133C25.2348 30.0955 25.2198 30.0501 25.2198 30.0035C25.2198 29.9569 25.2348 29.9115 25.2626 29.8739L26.7745 28.3572C26.8203 28.3144 26.8809 28.2905 26.9439 28.2905C27.0068 28.2905 27.0674 28.3144 27.1132 28.3572L28.2219 29.4588C28.244 29.4937 28.2558 29.5342 28.2558 29.5754C28.2558 29.6167 28.244 29.6572 28.2219 29.6921C28.211 29.7347 28.188 29.7732 28.1557 29.8032C28.1233 29.8331 28.083 29.8531 28.0395 29.8608L25.4327 30.2628H25.4713ZM26.9964 28.8497L26.1493 29.6921L27.6094 29.4719L26.9964 28.8497Z" fill="#FF6C37"/>
<path d="M28.1045 29.6142L26.2665 29.8476C26.2174 29.8587 26.1659 29.8537 26.1198 29.8334C26.0736 29.8132 26.0353 29.7786 26.0104 29.735C25.9856 29.6913 25.9755 29.6409 25.9818 29.5911C25.988 29.5413 26.0102 29.4949 26.0451 29.4587L26.9968 28.5122L28.1045 29.6142Z" fill="white"/>
<path d="M26.2142 30.0947C26.129 30.0939 26.0456 30.0706 25.9723 30.0273C25.8991 29.9841 25.8387 29.9222 25.7973 29.8482C25.7475 29.7595 25.7282 29.657 25.7423 29.5564C25.7564 29.4558 25.8032 29.3624 25.8755 29.2907L26.8272 28.3442C26.8731 28.3013 26.9336 28.2775 26.9966 28.2775C27.0595 28.2775 27.1201 28.3013 27.166 28.3442L28.2741 29.4462C28.3071 29.4773 28.3303 29.5171 28.3409 29.561C28.3515 29.6049 28.3491 29.651 28.3339 29.6935C28.3187 29.7361 28.2915 29.7733 28.2555 29.8008C28.2194 29.8282 28.1762 29.8447 28.1309 29.8482L26.3061 30.0815L26.2142 30.0947ZM26.2142 29.6149L27.5961 29.4462L26.9836 28.8371L26.2015 29.6149H26.2142ZM37.5549 20.2427C37.5303 20.2018 37.4915 20.1713 37.4459 20.157C37.4002 20.1426 37.3508 20.1455 37.3071 20.1649C37.2855 20.1758 37.2663 20.1909 37.2507 20.2093C37.2351 20.2276 37.2233 20.2489 37.2161 20.2719C37.2016 20.3182 37.2062 20.3684 37.2289 20.4114C37.3203 20.6024 37.2948 20.8285 37.1638 20.9947C37.1476 21.0107 37.1348 21.0299 37.1264 21.0511C37.118 21.0723 37.1141 21.095 37.115 21.1177C37.1154 21.1633 37.1328 21.2071 37.1638 21.2407C37.1973 21.2538 37.2345 21.2538 37.268 21.2407C37.2983 21.2483 37.3302 21.2475 37.3601 21.2383C37.39 21.2291 37.4168 21.212 37.4376 21.1887C37.5449 21.058 37.6129 20.8998 37.6337 20.7323C37.6544 20.5648 37.6271 20.3949 37.5549 20.2422V20.2427Z" fill="#FF6C37"/>
</svg>
