<svg width="57" height="56" viewBox="0 0 57 56" fill="none" xmlns="http://www.w3.org/2000/svg">
<path d="M14.2221 14.0123C14.0758 14.0104 13.9309 14.0404 13.7975 14.1002C13.6641 14.1599 13.5455 14.248 13.4499 14.3582C13.3544 14.4684 13.2843 14.5981 13.2446 14.7381C13.2048 14.8781 13.1964 15.0251 13.2198 15.1687L17.4749 40.8563C17.5279 41.1707 17.6906 41.4564 17.9344 41.6633C18.1782 41.8702 18.4875 41.9851 18.8081 41.9877H39.2214C39.4616 41.9908 39.695 41.9079 39.8789 41.7542C40.0629 41.6005 40.1852 41.3863 40.2236 41.1504L44.4788 15.1737C44.5023 15.0301 44.4938 14.8831 44.454 14.7431C44.4142 14.6031 44.3441 14.4735 44.2486 14.3633C44.153 14.2531 44.0344 14.1651 43.901 14.1053C43.7676 14.0456 43.6227 14.0156 43.4764 14.0175L14.2221 14.0123ZM32.1395 32.5778H25.6241L23.8599 23.4122H33.7183L32.1395 32.5778Z" fill="#2684FF"/>
<path d="M43.0997 23.3994H33.7001L32.1225 32.5577H25.6124L17.9254 41.6313C18.169 41.8408 18.4796 41.9573 18.8017 41.9599H39.2038C39.4438 41.963 39.677 41.8802 39.8609 41.7267C40.0447 41.5731 40.167 41.359 40.2054 41.1233L43.0997 23.3994Z" fill="url(#paint0_linear_179_1100)"/>
<defs>
<linearGradient id="paint0_linear_179_1100" x1="45.273" y1="25.9641" x2="34.4957" y2="41.3522" gradientUnits="userSpaceOnUse">
<stop offset="0.18" stop-color="#0052CC"/>
<stop offset="1" stop-color="#2684FF"/>
</linearGradient>
</defs>
</svg>
