<svg width="56" height="56" viewBox="0 0 56 56" fill="none" xmlns="http://www.w3.org/2000/svg">
<path d="M27.9596 12.4471C27.9596 12.4471 37.0967 12.0358 41.9392 21.2185H27.1827C27.1827 21.2185 24.3957 21.1269 22.02 24.5081C21.3349 25.9245 20.6041 27.3864 21.4263 30.2641C20.2386 28.2544 15.1216 19.3456 15.1216 19.3456C15.1216 19.3456 18.7312 12.8124 27.9596 12.4471Z" fill="#C6352E"/>
<path d="M41.4636 35.7617C41.4636 35.7617 37.2501 43.8792 26.8761 43.4803C28.1559 41.2651 34.2561 30.7017 34.2561 30.7017C34.2561 30.7017 35.7289 28.3343 33.9899 24.5863C33.1058 23.2845 32.2055 21.9204 29.3018 21.193C31.6371 21.1699 41.9099 21.1945 41.9099 21.1945C41.9099 21.1945 45.7622 27.5874 41.4636 35.7617Z" fill="#F4D911"/>
<path d="M14.5207 35.8233C14.5207 35.8233 9.59766 28.1145 15.1309 19.3306C16.4095 21.5466 22.5065 32.1119 22.5065 32.1119C22.5065 32.1119 23.82 34.571 27.9357 34.9392C29.5046 34.8248 31.1365 34.7271 33.2182 32.5765C32.0705 34.61 26.912 43.4945 26.912 43.4945C26.912 43.4945 19.4497 43.6336 14.5207 35.8233Z" fill="#81B354"/>
<path d="M26.8761 43.5553L28.9518 34.8937C28.9518 34.8937 31.2341 34.7156 33.1465 32.6167C31.9593 34.7051 26.8761 43.5553 26.8761 43.5553Z" fill="#7BAA50"/>
<path d="M21.0078 28.0968C21.0078 24.2785 24.1029 21.1831 27.9215 21.1831C31.7398 21.1831 34.8352 24.2784 34.8352 28.0968C34.8352 31.9153 31.74 35.0108 27.9215 35.0108C24.1029 35.0108 21.0078 31.9154 21.0078 28.0968Z" fill="white"/>
<path d="M22.1649 28.0967C22.1649 24.9176 24.7421 22.3403 27.9215 22.3403C31.1004 22.3403 33.6778 24.9176 33.6778 28.0967C33.6778 31.2758 31.1004 33.8533 27.9215 33.8533C24.7421 33.8533 22.1649 31.2757 22.1649 28.0967Z" fill="url(#paint0_linear_179_893)"/>
<path d="M41.91 21.1947L33.3629 23.7007C33.3629 23.7007 32.074 21.8092 29.3018 21.1932C31.7039 21.185 41.91 21.1947 41.91 21.1947Z" fill="#E7CE12"/>
<path d="M21.2601 29.9531C20.059 27.8729 15.1219 19.3452 15.1219 19.3452L21.4535 25.6086C21.4535 25.6086 20.8028 26.947 21.0496 28.8586L21.2601 29.9531Z" fill="#BC332C"/>
<defs>
<linearGradient id="paint0_linear_179_893" x1="27.9213" y1="22.4218" x2="27.9213" y2="33.5089" gradientUnits="userSpaceOnUse">
<stop stop-color="#A2C0E6"/>
<stop offset="1" stop-color="#406CB1"/>
</linearGradient>
</defs>
</svg>
