<svg width="56" height="56" viewBox="0 0 56 56" fill="none" xmlns="http://www.w3.org/2000/svg">
<path d="M12.4445 12.4443H43.5556V43.5554H12.4445V12.4443Z" fill="#017ACB"/>
<path d="M27.3827 23.965H28.875V26.5414H24.8403V38.0039L24.7334 38.033C24.5875 38.0719 22.6674 38.0719 22.2542 38.0282L21.9236 37.999V26.5414H17.8889V23.965L19.1674 23.9504C19.8674 23.9407 21.666 23.9407 23.1632 23.9504C24.6605 23.9601 26.5563 23.965 27.3827 23.965ZM38.7723 36.7886C38.1792 37.4157 37.5424 37.7657 36.4827 38.0525C36.0209 38.1789 35.9431 38.1837 34.9028 38.1789C33.8626 38.174 33.7799 38.174 33.2744 38.0427C31.9667 37.7073 30.9119 37.0511 30.1924 36.1226C29.9882 35.8601 29.6528 35.3157 29.6528 35.2476C29.6528 35.2282 29.7014 35.1844 29.7646 35.1553C29.8278 35.1261 29.9591 35.0434 30.066 34.9803C30.173 34.9171 30.3674 34.8004 30.4987 34.7323C30.6299 34.6643 31.0091 34.4407 31.3396 34.2414C31.6702 34.0421 31.9716 33.8816 32.0056 33.8816C32.0396 33.8816 32.1028 33.9497 32.1514 34.0323C32.4431 34.5233 33.1237 35.1504 33.6049 35.3643C33.9014 35.4907 34.5577 35.6316 34.8737 35.6316C35.1653 35.6316 35.7001 35.5053 35.9869 35.374C36.2931 35.233 36.4487 35.0921 36.6334 34.8101C36.7598 34.6108 36.7744 34.5573 36.7695 34.1782C36.7695 33.8282 36.7501 33.7309 36.6528 33.5705C36.3806 33.1233 36.0112 32.89 34.5139 32.2289C32.9681 31.5434 32.273 31.1351 31.7091 30.5858C31.291 30.1775 31.2084 30.0657 30.9459 29.5553C30.6056 28.899 30.5619 28.6851 30.557 27.708C30.5521 27.0226 30.5667 26.799 30.6396 26.5657C30.7417 26.2157 31.0723 25.54 31.223 25.3698C31.5341 25.0053 31.6459 24.8934 31.8646 24.7136C32.5257 24.1691 33.5563 23.8094 34.5431 23.7754C34.6549 23.7754 35.0244 23.7948 35.3695 23.8191C36.3612 23.9018 37.0369 24.1448 37.6883 24.665C38.1792 25.0539 38.923 25.9678 38.8501 26.0893C38.8015 26.1622 36.8619 27.4553 36.7355 27.4941C36.6577 27.5184 36.6042 27.4893 36.4973 27.3629C35.8362 26.5705 35.5688 26.4004 34.9271 26.3615C34.4702 26.3323 34.2271 26.3858 33.9209 26.59C33.6001 26.8039 33.4445 27.1296 33.4445 27.5816C33.4494 28.2428 33.7021 28.5539 34.6355 29.0157C35.2383 29.3122 35.7535 29.5553 35.7924 29.5553C35.8508 29.5553 37.1001 30.1775 37.4258 30.3719C38.9424 31.2615 39.5598 32.1754 39.7202 33.7504C39.8369 34.9365 39.5015 36.0205 38.7723 36.7886Z" fill="white"/>
</svg>
