<svg width="56" height="56" viewBox="0 0 56 56" fill="none" xmlns="http://www.w3.org/2000/svg">
<path d="M30.6049 32.1343L22.9749 30.5399C22.9429 30.6016 22.9074 30.6615 22.8684 30.7191L29.8145 40.8517L30.2335 40.4332L31.4152 33.0845C31.2155 33.0001 31.0382 32.8703 30.8975 32.7053C30.7568 32.5403 30.6566 32.3447 30.6049 32.1342V32.1343ZM27.8215 22.1602C27.5356 22.5986 27.0422 22.8888 26.4803 22.8888C26.3938 22.8888 26.3097 22.8801 26.227 22.867L22.7474 28.3114L32.0439 24.3108C32.041 24.2734 32.0327 24.2384 32.0327 24.2C32.0327 24.1217 32.0434 24.0459 32.056 23.971L27.8215 22.1603V22.1602ZM28.0742 21.168L32.5786 23.094C32.7221 22.9818 32.8863 22.8989 33.0618 22.85L33.8021 18.2466L30.9816 15.4261L27.8069 20.3938C27.9625 20.6239 28.0547 20.891 28.0742 21.1682V21.168ZM37.5125 21.957L34.6858 19.1298L34.0714 22.9467C34.2272 23.025 34.3671 23.1315 34.4841 23.2607L37.5125 21.957ZM30.74 31.1289C30.8506 30.9281 31.0096 30.758 31.2024 30.634C31.3952 30.51 31.616 30.436 31.8446 30.4187L32.6564 25.3695C32.5927 25.3273 32.5358 25.2767 32.4799 25.2247L23.1299 29.2487C23.1538 29.3464 23.1703 29.446 23.1781 29.5496L30.74 31.1289ZM38.2825 22.7275L35.012 24.1347L43.0815 27.5847L43.1106 27.5556L38.2825 22.7275ZM32.4381 33.0997L31.4552 39.2105L37.1625 33.5032L33.0516 32.6447C32.8939 32.851 32.6813 33.0087 32.4381 33.0997ZM21.3445 31.5286C21.1379 31.5286 20.9401 31.4931 20.7548 31.4303L18.859 34.3971L18.1265 33.665L19.9222 30.8553C19.8777 30.8002 19.8364 30.7428 19.7982 30.6831L16.5452 32.0837L15.7741 31.3126L19.3348 29.78L12.8975 28.4364L12.017 27.5556L12.2956 27.277L19.719 28.8267C19.8043 28.6648 19.9136 28.5166 20.0432 28.3873L16.4402 23.1319L17.1679 22.4042L20.9322 27.8953C21.0673 27.864 21.2056 27.8478 21.3444 27.8472C21.5033 27.8472 21.6574 27.8696 21.8047 27.9075L25.3271 22.3959C25.0404 22.0985 24.8802 21.7013 24.8804 21.2881C24.8804 21.1617 24.8964 21.0392 24.9242 20.9216L20.5298 19.0428L21.3006 18.2718L25.4641 20.0524C25.6752 19.8784 25.9276 19.7617 26.1969 19.7134C26.4662 19.6651 26.7433 19.687 27.0018 19.7768L30.2494 14.694L27.5556 12L12 27.5556L27.5556 43.1111L29.0863 41.5804L22.0882 31.371C21.854 31.4748 21.6007 31.5285 21.3445 31.5286ZM33.6466 25.5872L32.8207 30.7201C32.965 30.8361 33.0845 30.9799 33.1721 31.143C33.2597 31.3061 33.3136 31.4852 33.3306 31.6696L38.0181 32.6481L42.3104 28.3558L34.5629 25.0434C34.3412 25.3385 34.0118 25.534 33.6466 25.5873V25.5872Z" fill="#25C7B7"/>
</svg>
