<svg width="56" height="56" viewBox="0 0 56 56" fill="none" xmlns="http://www.w3.org/2000/svg">
<path fill-rule="evenodd" clip-rule="evenodd" d="M30.6544 16.0063L37.043 19.6949C37.2274 19.4998 37.4391 19.3323 37.6714 19.1976C38.9963 18.4359 40.6863 18.8882 41.4559 20.2132C42.2176 21.5382 41.7654 23.2281 40.4404 23.9977C40.2098 24.1305 39.9613 24.2294 39.7025 24.2915V31.6715C39.9585 31.7337 40.2042 31.832 40.4325 31.9634C41.7654 32.733 42.2176 34.423 41.448 35.748C40.6863 37.0729 38.9884 37.5251 37.6634 36.7635C37.4067 36.6162 37.1755 36.4285 36.9786 36.2076L30.6289 39.8736C30.7219 40.1551 30.7691 40.4498 30.7688 40.7463C30.7688 42.2696 29.5312 43.5154 27.9999 43.5154C26.4686 43.5154 25.2309 42.2775 25.2309 40.7463C25.2309 40.4741 25.27 40.2112 25.3429 39.9629L18.9561 36.2753C18.7737 36.4666 18.565 36.631 18.3363 36.7635C17.0034 37.5251 15.3134 37.0729 14.5517 35.748C13.7901 34.423 14.2424 32.733 15.5673 31.9634C15.7955 31.8319 16.0413 31.7336 16.2972 31.6714V24.2915C16.0385 24.2294 15.79 24.1305 15.5594 23.9977C14.2344 23.2361 13.7821 21.5382 14.5438 20.2132C15.3055 18.8882 17.0033 18.4359 18.3283 19.1976C18.5594 19.3316 18.77 19.498 18.9537 19.6918L25.3441 16.0022C25.2688 15.7465 25.2307 15.4813 25.2309 15.2147C25.2309 13.6836 26.4686 12.4458 27.9999 12.4458C29.5312 12.4458 30.7688 13.6835 30.7688 15.2147C30.7688 15.49 30.7288 15.7556 30.6544 16.0063ZM29.9888 17.1428L36.3927 20.8401C36.2907 21.1966 36.2614 21.5699 36.3067 21.9379C36.3519 22.3058 36.4706 22.661 36.6559 22.9821C37.0457 23.6602 37.6807 24.1098 38.3855 24.285V31.6742C38.3495 31.683 38.3138 31.6926 38.2782 31.7027L29.9144 17.2168C29.9397 17.1926 29.9645 17.168 29.9888 17.1429V17.1428ZM26.0871 17.2184L17.7233 31.7041C17.6872 31.6937 17.6508 31.684 17.6142 31.675V24.285C18.319 24.1098 18.954 23.6602 19.3439 22.9821C19.5295 22.6603 19.6483 22.3045 19.6934 21.9357C19.7384 21.567 19.7087 21.193 19.606 20.836L26.008 17.1398C26.0338 17.1664 26.0602 17.1927 26.0871 17.2183V17.2184ZM28.7736 17.8746L37.1354 32.3571C36.9438 32.5398 36.7796 32.7493 36.6479 32.9789C36.5165 33.2072 36.4182 33.4529 36.356 33.7089H19.6439C19.5817 33.4529 19.4833 33.2072 19.3519 32.9789C19.2196 32.7509 19.0558 32.5427 18.8651 32.3606L27.2285 17.8752C27.4793 17.9474 27.7389 17.9839 27.9999 17.9837C28.2685 17.9837 28.5281 17.9457 28.7736 17.8746ZM30.0476 38.8809L36.4098 35.2076C36.3908 35.1476 36.3737 35.087 36.3587 35.0259H19.6404C19.6315 35.0619 19.6219 35.0975 19.6116 35.133L26.005 38.8244C26.2631 38.5559 26.573 38.3425 26.9158 38.1969C27.2587 38.0514 27.6274 37.9767 27.9999 37.9774C28.3854 37.9767 28.7667 38.0567 29.1194 38.2124C29.4721 38.368 29.7882 38.5957 30.0476 38.8809Z" fill="#E535AB"/>
</svg>
