<svg width="56" height="56" viewBox="0 0 56 56" fill="none" xmlns="http://www.w3.org/2000/svg">
<path d="M33.1888 42.6803C35.4873 34.4385 34.6602 30.2839 30.6307 29.4857C31.2462 32.2843 31.9386 35.1598 28.9958 37.1024C27.4571 38.1218 26.2357 37.7275 23.5045 35.631C22.2446 38.218 22.6678 40.7954 23.2544 43.5554C19.3403 42.8726 16.2532 41.2474 14.8203 37.4679C13.3392 34.025 14.1567 30.0339 16.8495 27.4373C17.7919 26.4756 18.8113 25.6004 19.8981 24.8118C24.3027 21.5036 25.1586 18.2915 22.8313 13.3195C22.7255 13.031 22.6389 12.7425 22.5812 12.4443C27.4763 13.1848 32.1117 15.1563 36.0547 18.1569C44.6427 25.1773 43.6041 37.8045 34.1217 42.4399C33.7947 42.4591 33.4869 42.536 33.1888 42.6803Z" fill="#EE4854"/>
</svg>
