<svg width="57" height="56" viewBox="0 0 57 56" fill="none" xmlns="http://www.w3.org/2000/svg">
<path d="M14.1822 14.1299H42.7007V41.8707H14.1822V14.1299Z" fill="url(#paint0_radial_179_3029)"/>
<path d="M14.1822 14.1298H42.7008V41.8705H14.1822V14.1298ZM12.8859 43.1669H43.997V12.8335H12.8859V43.1669ZM34.897 27.4557C35.5581 27.4557 35.7914 27.4557 35.8562 27.4298C35.8562 27.3391 35.8822 27.2742 35.8822 27.2094C35.8822 26.5094 35.5451 25.2131 34.197 25.2131C32.9525 25.2131 32.4211 26.302 32.2914 27.4557H34.897ZM32.2656 29.2316C32.2915 30.9816 33.1211 32.1613 35.0915 32.1613C35.8563 32.1613 36.5174 32.0576 37.2045 31.7595C37.2952 31.7206 37.3601 31.7336 37.3601 31.8502V33.4706C37.3601 33.6002 37.3212 33.665 37.2304 33.7298C36.5434 34.0668 35.6878 34.2224 34.6249 34.2224C31.2027 34.2224 29.9193 31.6947 29.9193 28.8817C29.9193 25.8225 31.5009 23.3206 34.2879 23.3206C37.1138 23.3206 38.099 25.6928 38.099 27.6243C38.099 28.2466 38.0601 28.7521 37.9953 28.9984C37.9694 29.1021 37.9305 29.1411 37.8268 29.167C37.5675 29.2059 36.8027 29.2576 35.6619 29.2576H32.2656V29.2316ZM25.3175 27.9094C24.9545 26.4705 24.073 23.3335 23.7489 21.8168H23.723C23.4508 23.3335 22.7378 25.9001 22.2063 27.9094H25.3175ZM21.6748 30.0095L20.6507 33.8854C20.6248 33.989 20.5859 34.0279 20.4563 34.0279H18.5507C18.4211 34.0279 18.3951 33.9891 18.4211 33.8335L22.1026 20.9613C22.1674 20.728 22.2062 20.5465 22.2322 19.8983C22.2322 19.8076 22.2711 19.7687 22.3359 19.7687H25.0581C25.1488 19.7687 25.1877 19.7947 25.2137 19.8983L29.3359 33.8595C29.3618 33.9631 29.3359 34.0279 29.2322 34.0279H27.0933C26.9896 34.0279 26.9248 33.9891 26.8988 33.8984L25.8359 30.0095H21.6748V30.0095Z" fill="#D8A1FF"/>
<defs>
<radialGradient id="paint0_radial_179_3029" cx="0" cy="0" r="1" gradientUnits="userSpaceOnUse" gradientTransform="translate(23.5748 20.3466) scale(21.6741 20.9845)">
<stop stop-color="#442F55" stop-opacity="0.98"/>
<stop offset="1" stop-color="#12002C"/>
</radialGradient>
</defs>
</svg>
