<svg width="57" height="56" viewBox="0 0 57 56" fill="none" xmlns="http://www.w3.org/2000/svg">
<g clip-path="url(#clip0_604_2916)">
<path d="M30.5343 43.255C29.7472 44.2429 28.1515 43.7016 28.1325 42.4402L27.8552 23.9907H40.301C42.5553 23.9907 43.8125 26.586 42.4108 28.3457L30.5343 43.255Z" fill="url(#paint0_linear_604_2916)"/>
<path d="M30.5343 43.255C29.7472 44.2429 28.1515 43.7016 28.1325 42.4402L27.8552 23.9907H40.301C42.5553 23.9907 43.8125 26.586 42.4108 28.3457L30.5343 43.255Z" fill="url(#paint1_linear_604_2916)" fill-opacity="0.2"/>
<path d="M25.4726 13.5683C26.2596 12.5803 27.8554 13.1217 27.8744 14.3831L27.9959 32.8325H15.7059C13.4515 32.8325 12.1942 30.2373 13.5961 28.4775L25.4726 13.5683Z" fill="#3ECF8E"/>
</g>
<defs>
<linearGradient id="paint0_linear_604_2916" x1="27.8552" y1="28.0814" x2="38.9058" y2="32.7311" gradientUnits="userSpaceOnUse">
<stop stop-color="#249361"/>
<stop offset="1" stop-color="#3ECF8E"/>
</linearGradient>
<linearGradient id="paint1_linear_604_2916" x1="22.9512" y1="21.3887" x2="27.9702" y2="30.8676" gradientUnits="userSpaceOnUse">
<stop/>
<stop offset="1" stop-opacity="0"/>
</linearGradient>
<clipPath id="clip0_604_2916">
<rect width="30" height="31" fill="white" transform="translate(13 13)"/>
</clipPath>
</defs>
</svg>
