<svg width="58" height="56" viewBox="0 0 58 56" fill="none" xmlns="http://www.w3.org/2000/svg">
<path d="M40.679 29.3141C40.679 29.5787 40.8071 29.7884 41.1656 29.7884C41.5874 29.7884 42.0368 29.4872 42.0638 28.8038C41.867 28.7724 41.6683 28.7544 41.469 28.75C41.0456 28.7495 40.679 28.8678 40.679 29.3141Z" fill="black"/>
<path d="M13.4524 23.0112V32.9885H44.7373V23.0112H13.4524ZM22.3087 30.5359H20.5784V28.2203C20.5784 27.5094 20.3399 27.2357 19.8727 27.2357C19.3044 27.2357 19.0751 27.6369 19.0751 28.2112V29.6437H19.6223V30.5369H17.8919V28.2203C17.8919 27.5094 17.654 27.2357 17.1862 27.2357C16.6179 27.2357 16.3886 27.6369 16.3886 28.2112V29.6437H17.1749V30.5369H14.6539V29.6437H15.2039V27.318H14.6091V26.4248H16.3865V27.0443C16.6341 26.6071 17.0651 26.3425 17.6421 26.3425C18.2369 26.3425 18.7879 26.6254 18.9896 27.2271C19.2189 26.6802 19.6861 26.3425 20.3372 26.3425C21.0796 26.3425 21.7583 26.7894 21.7583 27.7649V29.6437H22.3082L22.3087 30.5359ZM24.9395 30.6267C23.6655 30.6267 22.7851 29.8519 22.7851 28.5392C22.7851 27.3358 23.5184 26.342 25.0022 26.342C26.486 26.342 27.2117 27.3358 27.2117 28.4844C27.2128 29.7975 26.2594 30.6273 24.9395 30.6273V30.6267ZM31.5214 30.5359H27.9093L27.7903 29.9158L30.0614 27.3175H28.769L28.5857 27.9558L27.733 27.8649L27.8795 26.4243H31.5133L31.6047 27.0443L29.312 29.6437H30.6481L30.8406 29.0054L31.7756 29.0963L31.5214 30.5359ZM33.758 30.5359H32.5202V29.0592H33.758V30.5359ZM33.758 27.9009H32.5202V26.4248H33.758V27.9009ZM34.4069 30.5359L36.1962 24.2663H37.3604L35.5727 30.5359H34.4069ZM36.8089 30.5359L38.5971 24.2663H39.7613L37.9747 30.5359H36.8089ZM42.9691 30.6267C42.4191 30.6267 42.1168 30.3073 42.0617 29.8061C41.8232 30.2256 41.4014 30.6267 40.7325 30.6267C40.1377 30.6267 39.4585 30.3073 39.4585 29.4507C39.4585 28.4387 40.4394 28.2021 41.3836 28.2021C41.6103 28.2001 41.837 28.2123 42.0622 28.2386V28.102C42.0622 27.6826 42.053 27.1814 41.3836 27.1814C41.1359 27.1814 40.9434 27.1997 40.7509 27.2997L40.5979 27.8832L39.6537 27.7826L39.8371 26.7163C40.5611 26.4243 40.9277 26.3399 41.6064 26.3399C42.4959 26.3399 43.2475 26.7959 43.2475 27.7348V29.5217C43.2475 29.7588 43.3389 29.8411 43.532 29.8411C43.591 29.8402 43.6497 29.831 43.7061 29.8137L43.7153 30.4337C43.4866 30.5575 43.231 30.624 42.9707 30.6273L42.9691 30.6267Z" fill="black"/>
<path d="M24.9849 27.2451C24.3798 27.2451 24.004 27.6914 24.004 28.4669C24.004 29.1778 24.3339 29.7246 24.9774 29.7246C25.5917 29.7246 25.9951 29.2326 25.9951 28.4486C25.9934 27.6188 25.5446 27.2451 24.9849 27.2451Z" fill="black"/>
</svg>
