<svg width="56" height="56" viewBox="0 0 56 56" fill="none" xmlns="http://www.w3.org/2000/svg">
<g clip-path="url(#clip0_604_792)">
<path d="M33.2008 21.0119H34.3805L37.7413 17.6511L37.9066 16.2251C31.6532 10.7058 22.1071 11.3005 16.5879 17.5539C15.0533 19.291 13.94 21.3571 13.334 23.5933C13.7083 23.4394 14.1231 23.415 14.5137 23.522L21.2337 22.4136C21.2337 22.4136 21.5756 21.8481 21.7523 21.8837C24.742 18.6007 29.7735 18.2182 33.2251 21.0119H33.2008Z" fill="#EA4335"/>
<path d="M42.5281 23.5932C41.7551 20.7493 40.1703 18.1922 37.9649 16.2363L33.2494 20.9519C35.2409 22.5788 36.3752 25.0305 36.3266 27.6022V28.44C38.6455 28.44 40.5236 30.3197 40.5236 32.637C40.5236 34.9558 38.6438 36.8339 36.3266 36.8339H27.931L27.0933 37.6831V42.7178L27.931 43.5556H36.3266C41.1393 43.5929 45.4092 40.4735 46.8385 35.8779C48.2645 31.2806 46.5144 26.2896 42.5281 23.5932Z" fill="#4285F4"/>
<path d="M19.5241 43.5087H27.9197V36.7887H19.5241C18.9262 36.7887 18.3347 36.6607 17.7902 36.4111L16.6106 36.7757L13.2271 40.1366L12.9321 41.3162C14.8297 42.7487 17.1453 43.5184 19.5241 43.5087Z" fill="#34A853"/>
<path d="M19.5242 21.7071C14.8605 21.7346 10.73 24.7211 9.24239 29.1401C7.75481 33.5591 9.23753 38.4367 12.9338 41.2789L17.8033 36.4095C15.6902 35.455 14.7519 32.9692 15.7064 30.8562C16.6608 28.7431 19.1466 27.8049 21.2597 28.7593C22.1898 29.1806 22.9352 29.926 23.3566 30.8562L28.226 25.9867C26.1535 23.2789 22.9336 21.6957 19.5242 21.7071Z" fill="#FBBC05"/>
</g>
<defs>
<clipPath id="clip0_604_792">
<rect width="38.6592" height="31.1111" fill="white" transform="translate(8.67041 12.4443)"/>
</clipPath>
</defs>
</svg>
