<svg width="57" height="56" viewBox="0 0 57 56" fill="none" xmlns="http://www.w3.org/2000/svg">
<path d="M21.1544 35.8536C20.7656 36.086 14.7777 39.8824 14.7777 40.1149C14.7777 40.4248 14.7777 40.4248 14.7777 40.4248L15.8664 43.214H40.1291C40.1291 43.214 41.2955 39.495 41.2178 38.5653C41.2178 38.1004 37.3295 35.5437 37.3295 35.5437C37.3295 35.5437 40.3624 32.522 40.4401 25.9364C40.4401 25.3166 40.4401 24.6967 40.3624 24.0769C39.818 16.639 35.0743 14.0048 30.0974 13.7723C25.0426 13.6174 22.2431 15.9417 22.2431 15.9417C22.2431 15.9417 19.0547 17.0264 18.7437 19.5832C18.7437 19.5832 16.2552 20.0481 17.5772 25.0841C16.5662 25.8589 16.333 26.9436 16.333 27.7184C16.333 28.7256 16.644 29.8878 17.2661 30.5851C18.5881 31.9797 19.6768 31.6698 19.6768 31.6698C19.6768 31.6698 20.1434 34.1491 21.1544 35.8536Z" fill="#FFE0B2"/>
<path d="M37.9516 38.4878C37.7961 37.4806 37.3295 37.0157 36.3186 37.0157H36.163C35.852 37.0932 35.3854 37.2482 34.0634 38.1779L33.2857 38.7203C33.1302 38.6428 32.8969 38.5653 32.6636 38.5653C32.2748 38.5653 31.9637 38.7203 31.6527 38.9527L30.875 38.5653L29.553 37.868C28.8531 37.5581 28.1532 37.3257 27.6089 37.3257C27.2201 37.3257 26.909 37.4031 26.5979 37.5581C26.2091 37.868 26.0536 38.3329 26.1313 38.9527C26.1313 39.2626 26.2091 39.65 26.2091 39.9599C26.3646 41.587 26.4424 42.7491 27.9977 42.8266C28.0755 42.8266 28.1532 42.8266 28.231 42.8266C29.0864 42.8266 30.0974 42.5167 31.0305 41.8194L31.7304 41.3545C31.9637 41.5095 32.2748 41.6644 32.5858 41.6644C32.9747 41.6644 33.2857 41.5095 33.519 41.3545L34.6077 41.587C35.0743 41.6644 35.4632 41.7419 35.852 41.7419H36.163C36.5519 41.7419 36.9407 41.7419 37.3295 41.5095C37.7961 41.277 38.0294 40.7347 38.0294 39.8824C38.0294 39.495 37.9516 39.1077 37.9516 38.7977V38.4878Z" fill="#F44336"/>
<path d="M26.2091 40.0374C26.2091 39.7275 26.1313 39.4176 26.1313 39.0302C26.0536 38.5653 26.1313 38.2554 26.2869 37.9455C22.3986 37.868 21.1544 35.8536 21.1544 35.8536C21.1544 35.8536 20.9211 37.0932 22.0098 38.4878C23.6429 40.4248 26.1313 40.6572 26.1313 40.6572H26.2869C26.2869 40.5023 26.2869 40.2698 26.2091 40.0374Z" fill="white"/>
<path d="M27.1423 43.214L26.5979 42.1293C26.5202 41.8969 26.4424 41.6644 26.3646 41.277L26.2869 40.7347L25.7425 40.6572C25.0426 40.5023 23.3318 40.0374 22.0876 38.5653C21.6987 38.1004 21.4654 37.5581 21.3099 37.0157L20.9989 36.0085L20.1434 36.5509C18.5881 37.5581 16.0219 39.1851 15.1665 39.8824L14.6999 40.2698L15.8664 43.214H27.1423Z" fill="#546E7A"/>
<path d="M18.8214 43.214H27.1423L26.5979 42.1293C26.5202 41.8969 26.4424 41.6644 26.3646 41.277L26.2869 40.7347L25.7425 40.6572C25.0426 40.5023 23.3318 40.0374 22.0876 38.5653C22.0098 38.4878 21.932 38.3329 21.8543 38.2554L17.8883 40.8897L18.8214 43.214Z" fill="#455A64"/>
<path d="M40.9845 38.1779C40.5179 37.7131 39.1181 36.7058 38.5738 36.3184L38.0294 35.9311C37.8739 36.086 37.5628 36.4734 37.0185 36.8608L37.5628 37.4031C37.7961 37.6356 37.9516 38.023 38.0294 38.4104V38.6428C38.1072 38.9527 38.1072 39.3401 38.1072 39.7275C38.1072 41.0446 37.6406 41.277 37.4073 41.3545C37.2517 41.432 37.0185 41.5095 36.7852 41.5095L36.8629 43.059H40.0513L40.2068 42.5167C40.5956 41.277 41.0622 39.495 41.14 38.7203V38.3329L40.9845 38.1779Z" fill="#546E7A"/>
<path d="M40.1291 43.214L40.2846 42.6716C40.5179 42.0518 40.6734 41.1996 40.9067 40.5023L38.0294 38.9527C38.0294 39.1851 38.1072 39.495 38.1072 39.805C38.1072 41.1221 37.6406 41.3545 37.4073 41.432C37.2517 41.5095 37.0185 41.587 36.7852 41.587L36.8629 43.1365L40.1291 43.214Z" fill="#455A64"/>
<path d="M17.3439 25.2391L17.4217 25.1616C17.8105 24.8517 18.3548 24.6193 18.8214 24.6193C19.288 24.6193 19.5213 24.7742 19.7546 24.8517C20.7656 25.394 20.9989 26.4013 21.0766 27.0986V27.2535C21.5432 27.0986 22.0098 26.9436 22.1653 26.8661C22.1653 26.7887 22.1653 26.6337 22.0876 26.4013C22.0098 26.0914 21.932 25.704 21.7765 25.3166C21.4654 24.4643 21.5432 23.3796 22.0098 21.985L22.0876 21.8301C22.1653 21.5201 22.3209 21.2102 22.3209 20.9778C22.3209 20.7454 22.3986 20.5129 22.3986 20.4355C22.3986 20.203 22.3209 20.0481 22.2431 19.8156L22.0876 19.4282L22.3209 19.0409C23.0207 17.8787 25.587 14.0048 30.7973 14.0048C30.9528 14.0048 31.1083 14.0048 31.3416 14.0048H31.1861C30.875 13.8498 30.4862 13.7723 30.0974 13.7723C29.9418 13.7723 29.7085 13.7723 29.553 13.7723C25.3537 13.7723 22.7875 15.5543 22.3209 15.8643L22.2431 15.9417L22.1653 16.0192C21.6987 16.1742 19.288 17.1814 18.8214 19.2733L18.6659 19.5057L18.3548 19.6607C18.0438 19.8156 17.8105 20.0481 17.655 20.358C17.1106 21.2877 17.0328 22.6823 17.4217 24.6193L17.4994 25.0067L17.1884 25.394L17.1106 25.4715C17.1884 25.394 17.2661 25.3166 17.3439 25.2391Z" fill="#616161"/>
<path d="M31.1083 41.6644H35.7742V43.214H31.1083V41.6644ZM20.3767 27.2535C20.299 26.5562 20.0657 25.9364 19.5213 25.6265C19.288 25.549 19.1325 25.4715 18.8992 25.4715C18.5104 25.4715 18.0438 25.6265 17.655 26.1688L17.1106 24.6193C17.8105 24.2319 18.4326 23.9994 19.0547 23.9994C19.4436 23.9994 19.8324 24.0769 20.2212 24.2319C20.5323 24.3868 20.8433 24.6193 21.0766 24.8517C20.9211 23.767 21.1544 22.6048 21.4654 21.6751C21.621 21.2877 21.6987 20.9003 21.7765 20.6679C21.8543 20.203 21.7765 20.1255 21.621 19.8931C20.1434 20.0481 18.8992 20.4355 18.8992 20.4355L18.5104 18.9634C18.5881 18.9634 20.1434 18.4985 21.932 18.3436L22.4764 18.2661L22.7097 18.7309C22.7097 18.7309 22.7874 18.8084 22.7874 18.8859C23.0207 19.1183 23.3318 19.5832 23.4096 20.358C23.4096 20.5129 23.4096 20.8228 23.3318 21.0553C23.254 21.4427 23.0985 21.7526 23.0207 22.2175C22.7097 23.1472 22.4764 24.2319 22.7874 25.0067C22.943 25.4715 23.0207 25.9364 23.0985 26.2463C23.1763 26.5562 23.254 27.2535 22.943 27.486C22.6319 27.7184 20.8433 28.2607 20.8433 28.2607C20.8433 28.2607 20.4545 27.9508 20.3767 27.2535Z" fill="#263238"/>
<path d="M22.943 19.6607L21.5432 19.0409C21.5432 18.9634 24.4205 12.6877 31.6527 13.1525L31.5749 14.7021C25.3537 14.3922 22.943 19.6607 22.943 19.6607Z" fill="#263238"/>
<path d="M26.4424 37.9455C22.4764 37.9455 21.1544 35.8536 21.1544 35.8536C21.1544 35.8536 20.9211 37.0932 22.0098 38.4878C23.6429 40.4248 26.1313 40.6572 26.1313 40.6572" fill="white"/>
<path d="M26.0536 41.432C25.9758 41.432 23.254 41.1221 21.4654 38.9527C20.1434 37.2482 20.3767 35.8536 20.4545 35.6986L20.8433 33.6842L21.932 35.4662C22.0098 35.5437 23.0985 37.1707 26.5202 37.1707V38.7203C24.8871 38.7203 23.6429 38.4104 22.7097 37.9455C22.7097 37.9455 22.7097 37.9455 22.7097 38.023C24.1095 39.65 26.2091 39.8824 26.2869 39.8824L26.0536 41.432ZM36.3186 42.4392C36.2408 42.4392 36.163 42.4392 36.0853 42.4392C34.6855 42.4392 33.3635 41.9743 33.2857 41.9743L33.8301 40.5023C33.8301 40.5023 34.9188 40.8897 36.0075 40.8897H36.0853C36.4741 40.8897 36.8629 40.8897 37.0962 40.8122C37.3295 40.6572 37.3295 40.1149 37.3295 39.805C37.3295 39.495 37.2518 39.1077 37.2518 38.7977V38.5653C37.174 37.9455 36.9407 37.7131 36.3186 37.7131C35.852 37.7905 34.3744 38.8752 33.8301 39.2626L33.4413 39.5725L32.5081 38.3329L32.8191 38.1004C34.2967 37.0158 35.4632 36.241 36.2408 36.241C37.6406 36.241 38.496 37.0157 38.7293 38.4104V38.6428C38.807 38.9527 38.8071 39.4176 38.8848 39.805C38.8848 40.9671 38.5738 41.8194 37.7961 42.1293C37.2517 42.4392 36.7852 42.4392 36.3186 42.4392Z" fill="#263238"/>
<path d="M28.231 43.6789C28.1532 43.6789 28.0755 43.6789 27.9977 43.6789C25.7425 43.5239 25.587 41.7419 25.5092 40.1149C25.5092 39.805 25.4315 39.495 25.4315 39.1851C25.2759 37.9455 25.8203 37.3257 26.2091 37.0157C27.2201 36.3184 28.7754 36.6284 29.9418 37.1707L32.2748 38.4104L31.5749 39.805L29.242 38.5653C28.3088 38.1004 27.3756 38.023 27.1423 38.2554C26.9868 38.4104 26.9868 38.7203 26.9868 38.9527C27.0645 39.2626 27.0645 39.65 27.0645 39.9599C27.2201 41.8194 27.3756 42.0518 28.1532 42.1293C29.7863 42.2843 31.4194 40.7347 31.4194 40.6572L32.5081 41.7419C32.3526 41.8969 30.4862 43.6789 28.231 43.6789ZM25.6648 21.8301C25.6648 21.8301 25.5092 22.2949 25.1982 22.2949C25.0426 22.2949 24.8871 21.985 24.8871 21.6751C24.8871 20.7454 25.5092 19.5832 26.1313 19.0409C26.5979 18.6535 27.2201 18.421 27.9199 18.421C28.231 18.421 28.6198 18.421 28.9309 18.576C29.3197 18.7309 29.553 19.0409 29.553 19.6607C29.553 19.6607 29.553 19.9706 28.5421 19.9706C27.9199 19.9706 27.1423 20.0481 26.8312 20.358C26.5202 20.6679 26.0536 20.9778 25.6648 21.8301ZM29.8641 26.1688C29.4752 26.1688 29.0087 26.0914 28.6198 26.0139C28.1532 25.9364 27.9199 25.4715 28.0755 25.0841L28.231 24.8517C28.3088 24.6967 28.4643 24.6193 28.6198 24.6193C28.6976 24.6193 28.7754 24.6193 28.8531 24.6193C29.4752 24.7742 30.4084 24.7742 30.7195 24.7742C30.3307 23.3021 30.4084 22.2175 30.6417 22.2175C30.875 22.2175 31.4971 23.9994 31.8082 24.3868C32.1193 24.7742 32.0415 25.2391 31.7304 25.549C31.1861 26.0139 30.564 26.1688 29.8641 26.1688ZM37.6406 26.1688C37.485 26.1688 37.4073 26.1688 37.2518 26.1688C36.7852 26.0914 36.5519 25.7814 36.5519 25.3166C36.5519 25.3166 36.6296 24.6193 37.0185 24.6193C37.3295 24.6193 37.7183 24.7742 37.8739 24.7742C37.7183 23.8445 37.485 22.2949 37.7183 22.2949C37.9516 22.2949 38.496 24.1544 39.5847 24.8517C39.8958 25.0841 39.8958 25.549 39.4292 25.8589C38.8071 26.0914 38.2627 26.1688 37.6406 26.1688ZM39.1181 21.1328C38.9626 20.5129 38.2627 19.9706 37.485 19.7382C36.4741 19.5057 35.7742 19.9706 35.7742 19.9706C35.7742 19.2733 36.3186 18.7309 36.5519 18.6535C36.8629 18.4985 37.0185 18.421 37.3295 18.421C38.9626 18.421 39.5847 19.4282 40.1291 20.4355L39.1181 21.1328Z" fill="#263238"/>
<path d="M34.1411 30.8175C34.0634 30.8175 33.9079 30.8175 33.8301 30.8175C33.2857 30.8175 32.8191 30.6626 32.5081 30.2752C31.886 29.5779 31.8082 28.6481 32.0415 28.4932C32.2748 28.3382 32.4303 28.8806 33.208 29.113C33.208 29.113 33.7523 29.1905 33.9079 29.1905C34.0634 29.1905 34.1411 29.1905 34.2967 29.1905C35.3076 29.1905 36.163 28.958 36.4741 28.7256C36.5519 28.6481 36.5519 28.4932 36.5519 28.4932C36.5519 28.4932 36.5519 28.2607 35.5409 27.331C34.53 26.4013 34.2189 25.2391 34.2189 24.2319C34.2189 23.0697 34.3744 22.2949 34.53 22.2949C34.7633 22.2949 34.9966 24.7742 36.6296 26.1688C37.7961 27.176 38.1072 27.8733 38.1072 28.5706C38.1072 29.268 37.7183 29.6553 37.485 29.8878C36.6296 30.6626 35.2299 30.8175 34.1411 30.8175ZM33.7523 33.1418C31.3416 33.0644 30.0974 31.5923 30.0974 31.5923C30.0974 31.5923 32.8191 31.8247 34.6077 31.8247V33.1418H33.7523ZM35.4632 33.1418V31.7472C35.6187 31.6698 36.8629 31.8247 38.2627 31.2824C37.9516 32.9094 35.5409 33.1418 35.4632 33.1418ZM31.9637 35.4662C30.2529 35.4662 29.3975 35.0013 28.7754 32.9869C28.7754 32.9869 28.6976 32.8319 28.9309 32.7545C29.1642 32.677 29.242 32.8319 29.242 32.8319C29.553 33.6842 30.875 33.9166 32.5081 33.9166C32.5858 33.9166 32.6636 33.9166 32.7414 33.9166C33.519 33.9166 35.0743 33.9166 35.0743 33.9166C35.0743 33.9166 34.7633 35.4662 33.1302 35.4662C32.8969 35.4662 32.1193 35.4662 31.9637 35.4662Z" fill="#263238"/>
<path d="M31.886 38.5653C29.3975 38.5653 27.4534 37.7905 25.3537 35.5437C24.1872 34.304 24.1872 32.677 24.3428 32.522C24.4983 32.3671 24.7316 33.4518 25.6648 34.459C27.5311 36.4734 30.1751 37.0932 32.4303 36.9383C35.3854 36.7058 36.6296 35.0013 36.8629 34.8464L38.1849 35.7761C38.1072 35.8536 36.3186 38.1779 32.5858 38.4878C32.2748 38.5653 32.1193 38.5653 31.886 38.5653ZM19.7546 32.3671L19.5991 30.8175C19.5991 30.8175 19.7546 30.74 20.0657 30.5076C20.299 30.3526 20.5323 30.3526 20.7656 30.5076L21.1544 30.8175C21.3877 31.0499 21.3877 31.4373 21.1544 31.6698C20.4545 32.2896 19.8324 32.3671 19.7546 32.3671ZM19.4436 27.7184L20.6878 28.1833C20.61 27.8733 20.2212 26.4787 19.1325 26.1688C18.8214 26.0914 18.2771 26.3238 18.1993 26.8661C18.1993 26.8661 18.1993 27.0211 18.1993 27.0986V27.176C18.2771 28.4932 19.4436 29.268 19.4436 29.268V27.7184Z" fill="#263238"/>
<path d="M32.6636 42.4392C31.3416 42.4392 30.3307 41.432 30.3307 40.1149C30.3307 38.7977 31.3416 37.7905 32.6636 37.7905C33.9856 37.7905 34.9966 38.7977 34.9966 40.1149C34.9966 41.432 33.9856 42.4392 32.6636 42.4392ZM32.6636 39.3401C32.2748 39.3401 31.886 39.65 31.886 40.1149C31.886 40.5797 32.197 40.8897 32.6636 40.8897C33.1302 40.8897 33.4413 40.5797 33.4413 40.1149C33.4413 39.65 33.1302 39.3401 32.6636 39.3401Z" fill="#263238"/>
<path d="M40.1291 43.9888H15.8664C15.5553 43.9888 15.2442 43.8338 15.1665 43.5239L14.0778 40.8122C14 40.5797 14 40.5023 14 40.3473V40.0374C14.0778 39.2626 18.4326 36.5509 20.1434 35.5437C19.5991 34.3815 19.2103 33.1418 19.0547 32.3671C18.4326 32.2896 17.655 31.9797 16.7218 31.0499C15.8664 30.1977 15.5553 28.7256 15.5553 27.7184C15.5553 27.0211 15.7108 25.8589 16.644 24.8517C16.1774 22.7598 16.2552 21.1328 16.9551 20.0481C17.2661 19.5057 17.655 19.2733 17.966 19.0409C18.5881 16.639 21.1544 15.5543 21.7765 15.2444C22.3986 14.7796 25.2759 12.8426 30.0974 12.9976C36.6296 13.23 40.6734 17.2589 41.14 23.9994C41.2178 24.6193 41.2178 25.2391 41.2178 25.8589C41.2178 30.895 39.4292 33.9941 38.496 35.2338C41.9954 37.6356 41.9954 38.023 41.9954 38.4104C42.0732 39.4176 41.14 42.4392 40.8289 43.3689C40.7512 43.7563 40.4401 43.9888 40.1291 43.9888ZM16.4107 42.4392H39.5069C39.9735 40.9671 40.3624 39.4176 40.4401 38.7977C39.9735 38.3329 38.3405 37.0932 36.8629 36.1635C36.7074 36.0085 36.5519 35.8536 36.5519 35.6211C36.5519 35.3887 36.6296 35.1563 36.7852 35.0013C36.7852 35.0013 39.5847 32.1346 39.6625 25.9364C39.6625 25.394 39.6625 24.7742 39.5847 24.1544C39.0403 16.0967 33.3635 14.7021 30.0196 14.5471C25.3537 14.3922 22.7097 16.4841 22.6319 16.5616C22.5542 16.639 22.4764 16.639 22.3986 16.7165C22.3986 16.7165 19.6768 17.6462 19.4436 19.7382C19.3658 20.0481 19.1325 20.358 18.8214 20.4355C18.2771 20.5904 17.4217 21.7526 18.2771 25.0067C18.3548 25.3166 18.2771 25.6265 18.0438 25.7814C17.2661 26.4013 17.1884 27.331 17.1884 27.7959C17.1884 28.7256 17.4994 29.6553 17.966 30.1202C18.8992 31.1274 19.5991 30.9725 19.5991 30.9725C19.8324 30.895 20.0657 30.9725 20.2212 31.0499C20.3767 31.2049 20.5323 31.3599 20.5323 31.5923C20.5323 31.5923 20.9211 33.9941 21.932 35.5437C22.0098 35.6986 22.0876 35.9311 22.0098 36.1635C21.932 36.3959 21.8543 36.5509 21.621 36.6284C21.0766 36.9383 16.7218 39.7275 15.6331 40.5023L16.4107 42.4392Z" fill="#263238"/>
</svg>
