<svg width="57" height="56" viewBox="0 0 57 56" fill="none" xmlns="http://www.w3.org/2000/svg">
<path d="M28.1106 12.4443C19.519 12.4443 12.5551 19.4082 12.5551 27.9999C12.5551 36.5915 19.519 43.5554 28.1106 43.5554C36.7023 43.5554 43.6662 36.5915 43.6662 27.9999C43.6662 19.4082 36.7023 12.4443 28.1106 12.4443ZM15.8976 28.1617L27.9488 40.2129C21.3309 40.127 15.9835 34.7796 15.8976 28.1617ZM30.8447 39.908L16.2025 25.2658C17.4445 19.8363 22.304 15.7844 28.1106 15.7844C32.1687 15.7844 35.7652 17.7643 37.9865 20.8107L36.2953 22.3028C34.4934 19.7194 31.4992 18.0282 28.1106 18.0282C23.7961 18.0282 20.1213 20.7684 18.7325 24.6038L31.5067 37.3768C34.6091 36.253 36.9947 33.6347 37.7936 30.3917H32.4998V27.9999H40.3273C40.3261 33.8065 36.2742 38.666 30.8447 39.908Z" fill="#744C9E"/>
</svg>
