<svg width="57" height="56" viewBox="0 0 57 56" fill="none" xmlns="http://www.w3.org/2000/svg">
<g clip-path="url(#clip0_179_3137)">
<path d="M12.8268 12.5142H44.1118V43.7991H12.8268V12.5142Z" fill="#6762A5"/>
<path d="M30.5654 37.1653V27.3118C30.5654 27.3118 31.2061 24.9542 22.6704 28.2767C22.6553 28.3192 22.6553 19.164 22.6553 19.164L25.4447 19.1465V25.0118C25.4447 25.0118 33.2534 21.9358 33.2534 27.3444V37.1653H30.5654ZM32.1547 22.6967H29.1964C30.2613 21.3952 31.2249 19.164 31.2249 19.164H34.2833C34.2845 19.164 33.7602 20.6181 32.1547 22.6967ZM22.7054 37.1491V31.5378L25.511 34.3434L22.7054 37.1491Z" fill="white"/>
</g>
<defs>
<clipPath id="clip0_179_3137">
<rect width="31.2849" height="31.2849" fill="white" transform="translate(12.8268 12.5142)"/>
</clipPath>
</defs>
</svg>
