<svg width="57" height="56" viewBox="0 0 57 56" fill="none" xmlns="http://www.w3.org/2000/svg">
<path d="M43.6901 25.2655C43.6058 25.1985 42.8181 24.6038 41.1569 24.6038C40.7183 24.6057 40.2806 24.6433 39.8481 24.7163C39.5266 22.5126 37.7047 21.4382 37.623 21.39L37.177 21.1328L36.8836 21.5562C36.5162 22.1248 36.248 22.7517 36.0905 23.4102C35.7931 24.6681 35.974 25.8496 36.613 26.8597C35.8414 27.2897 34.6036 27.3955 34.3531 27.4049H13.8597C13.3244 27.4056 12.8901 27.8382 12.8872 28.3734C12.8633 30.1688 13.1674 31.9534 13.7847 33.6394C14.4907 35.4908 15.5409 36.8545 16.9073 37.6891C18.4385 38.6268 20.9262 39.1626 23.746 39.1626C25.0199 39.1666 26.2914 39.0513 27.5439 38.8184C29.2849 38.4987 30.9601 37.8902 32.5004 37.0179C33.7696 36.2829 34.9118 35.348 35.8829 34.2489C37.5066 32.411 38.4738 30.364 39.1931 28.5449H39.4798C41.2574 28.5449 42.3506 27.8335 42.9534 27.2374C43.354 26.8572 43.6668 26.3941 43.8697 25.8804L43.997 25.508L43.6901 25.2655Z" fill="#2496ED"/>
<path d="M15.7593 26.8045H18.5055C18.6379 26.8045 18.7452 26.6971 18.7452 26.5647V24.1186C18.746 23.9861 18.6392 23.8782 18.5068 23.8774C18.5064 23.8774 18.5059 23.8774 18.5055 23.8774H15.7593C15.6268 23.8774 15.5195 23.9848 15.5195 24.1172V24.1186V26.5647C15.5195 26.6971 15.6268 26.8045 15.7593 26.8045Z" fill="#2496ED"/>
<path d="M19.5437 26.8045H22.2899C22.4223 26.8045 22.5297 26.6971 22.5297 26.5647V24.1186C22.5304 23.9861 22.4236 23.8782 22.2912 23.8774C22.2908 23.8774 22.2903 23.8774 22.2898 23.8774H19.5436C19.4105 23.8774 19.3025 23.9854 19.3025 24.1186V26.5647C19.3033 26.6974 19.411 26.8045 19.5437 26.8045Z" fill="#2496ED"/>
<path d="M23.3857 26.8045H26.1319C26.2643 26.8045 26.3716 26.6971 26.3716 26.5647V24.1186C26.3724 23.9861 26.2656 23.8782 26.1332 23.8774C26.1327 23.8774 26.1323 23.8774 26.1318 23.8774H23.3856C23.2532 23.8774 23.1458 23.9848 23.1458 24.1172V24.1186V26.5647C23.1459 26.6971 23.2533 26.8045 23.3857 26.8045Z" fill="#2496ED"/>
<path d="M27.1821 26.8045H29.9283C30.061 26.8045 30.1687 26.6974 30.1695 26.5647V24.1186C30.1695 23.9854 30.0615 23.8774 29.9283 23.8774H27.1821C27.0497 23.8774 26.9424 23.9848 26.9424 24.1172V24.1186V26.5647C26.9424 26.6971 27.0497 26.8045 27.1821 26.8045Z" fill="#2496ED"/>
<path d="M19.5437 23.2854H22.2899C22.4225 23.2847 22.5297 23.1769 22.5297 23.0443V20.5982C22.5297 20.4657 22.4223 20.3584 22.2899 20.3584H19.5437C19.4111 20.3584 19.3033 20.4655 19.3026 20.5982V23.0443C19.3033 23.1772 19.4108 23.2847 19.5437 23.2854Z" fill="#2496ED"/>
<path d="M23.3856 23.2854H26.1318C26.2645 23.2847 26.3716 23.1769 26.3716 23.0443V20.5982C26.3716 20.4657 26.2643 20.3584 26.1318 20.3584H23.3856C23.2532 20.3584 23.1459 20.4658 23.1459 20.5982V23.0443C23.1459 23.1769 23.253 23.2847 23.3856 23.2854Z" fill="#2496ED"/>
<path d="M27.1821 23.2854H29.9283C30.0612 23.2847 30.1687 23.1772 30.1695 23.0443V20.5982C30.1687 20.4655 30.061 20.3584 29.9283 20.3584H27.1821C27.0497 20.3584 26.9424 20.4658 26.9424 20.5982V23.0443C26.9424 23.1769 27.0495 23.2847 27.1821 23.2854Z" fill="#2496ED"/>
<path d="M27.1821 19.765H29.9283C30.061 19.765 30.1687 19.6578 30.1695 19.5252V17.0777C30.1687 16.945 30.061 16.8379 29.9283 16.8379H27.1821C27.0497 16.8379 26.9424 16.9452 26.9424 17.0777V19.5251C26.9424 19.6576 27.0497 19.765 27.1821 19.765Z" fill="#2496ED"/>
<path d="M31.0121 26.8045H33.7583C33.8909 26.8045 33.9987 26.6974 33.9994 26.5647V24.1186C33.9994 23.9854 33.8915 23.8774 33.7583 23.8774H31.0121C30.8797 23.8774 30.7723 23.9848 30.7723 24.1172V24.1186V26.5647C30.7723 26.6971 30.8797 26.8045 31.0121 26.8045Z" fill="#2496ED"/>
</svg>
