<svg width="259" height="259" viewBox="0 0 259 259" fill="none" xmlns="http://www.w3.org/2000/svg">
<path d="M193.447 113.818C194.565 114.368 195.789 114.669 197.034 114.698C197.104 114.69 197.172 114.668 197.233 114.634C197.295 114.6 197.349 114.553 197.392 114.498C197.435 114.443 197.467 114.379 197.486 114.311C197.505 114.243 197.509 114.172 197.5 114.103C197.397 113.287 196.477 113.986 193.926 112.808L194.056 111.849C194.12 111.577 193.797 111.137 193.447 111.266C193.097 111.396 193.007 111.81 192.903 112.561C192.8 113.313 192.748 113.468 193.447 113.818ZM58.275 117.495C59.8333 117.072 61.2968 116.355 62.5873 115.385C63.0924 114.996 62.924 114.09 62.7816 113.572C62.741 113.437 62.6523 113.323 62.5324 113.25C62.4125 113.177 62.2699 113.15 62.1319 113.176C61.9939 113.202 61.8702 113.277 61.7846 113.389C61.699 113.5 61.6574 113.639 61.6679 113.779C61.6925 114.059 61.7445 114.337 61.8233 114.608C58.7541 116.848 57.5627 116.291 57.744 117.198C57.7843 117.301 57.8593 117.387 57.9561 117.442C58.053 117.496 58.1657 117.515 58.275 117.495ZM54.7526 115.1C57.3426 115.1 56.462 113.572 55.7627 113.805L54.7655 113.96C53.9108 109.907 54.5972 109.052 53.859 109.026C53.7477 109.019 53.638 109.056 53.5533 109.128C53.4687 109.201 53.4157 109.304 53.4058 109.415C53.3143 111.016 53.4319 112.622 53.7554 114.193C53.8979 114.892 54.1569 115.1 54.7526 115.1ZM129.953 112.872C130.691 112.872 134.576 112.031 135.237 111.927C136.208 111.759 137.361 111.461 137.438 110.412C137.438 109.764 136.972 109.013 136.441 109.402C136.331 109.479 136.249 109.591 136.209 109.72C136.169 109.849 136.174 109.988 136.221 110.114C136.415 110.619 136.001 110.58 129.746 111.94C129.631 111.975 129.534 112.053 129.473 112.157C129.413 112.261 129.394 112.384 129.42 112.502C129.446 112.619 129.515 112.722 129.614 112.791C129.713 112.86 129.834 112.889 129.953 112.872ZM44.7811 81.1707C45.066 81.4944 45.7653 81.1707 45.5581 80.6786C44.2631 77.5188 41.8803 73.9964 40.3781 70.5258C40.145 69.9689 39.6788 69.0236 39.2255 68.9718C39.1688 68.9638 39.1109 68.9717 39.0584 68.9945C39.0058 69.0174 38.9606 69.0543 38.9277 69.1013C38.6428 69.4898 39.0572 70.5646 39.2514 71.0179C39.8471 72.2999 42.735 78.8267 44.7811 81.1707ZM86.765 75.7058C86.7893 75.8069 86.8396 75.8999 86.9109 75.9755C86.9823 76.0512 87.0722 76.1068 87.1717 76.1369C87.2712 76.167 87.3769 76.1706 87.4782 76.1472C87.5795 76.1238 87.6729 76.0743 87.7492 76.0036C88.8184 75.0301 89.7899 73.9545 90.65 72.792C94.535 85.224 94.535 85.6644 95.1436 85.6644C95.2309 85.6619 95.3166 85.6407 95.3949 85.6023C95.4733 85.5638 95.5424 85.5089 95.5977 85.4414C95.653 85.3738 95.6931 85.2951 95.7153 85.2107C95.7375 85.1263 95.7413 85.0381 95.7264 84.9521C94.276 80.3678 92.7479 75.8871 91.427 71.3158C91.3974 71.2021 91.3349 71.0998 91.2473 71.0216C91.1597 70.9434 91.051 70.8928 90.9348 70.8762C90.8186 70.8596 90.7 70.8777 90.594 70.9283C90.4881 70.9788 90.3994 71.0596 90.3392 71.1604C89.5955 72.3301 88.7271 73.4156 87.7492 74.3979C86.9722 70.8496 85.1592 62.7429 85.1592 62.7429C85.1266 62.6123 85.0434 62.5001 84.9281 62.4309C84.8127 62.3617 84.6746 62.3411 84.5441 62.3738C84.4136 62.4064 84.3013 62.4895 84.2321 62.6049C84.1629 62.7203 84.1424 62.8584 84.175 62.9889C84.6153 64.9961 86.493 74.8122 86.765 75.7058ZM19.3084 143.072C15.1385 141.077 11.4219 139.031 7.14839 136.778C6.31959 136.338 5.74979 137.853 7.04479 138.202C10.7759 140.531 14.7544 142.438 18.907 143.888C19.425 144.03 19.7876 143.357 19.3084 143.072ZM22.6236 113.17C22.7127 113.249 22.8236 113.299 22.9417 113.312C23.0597 113.326 23.1792 113.304 23.2841 113.248C24.1388 112.833 23.038 111.81 23.4524 105.659C33.9549 118.337 33.3721 118.013 33.8124 118.013C33.9036 118.019 33.9945 117.999 34.0744 117.954C34.1543 117.91 34.2199 117.844 34.2635 117.764C34.307 117.683 34.3267 117.592 34.3202 117.501C34.3137 117.41 34.2813 117.323 34.2268 117.249C32.5822 115.177 25.382 106.229 23.4654 103.794C23.3933 103.703 23.2966 103.634 23.1866 103.596C23.0767 103.558 22.9581 103.552 22.845 103.58C22.7319 103.607 22.629 103.666 22.5485 103.75C22.4679 103.834 22.4131 103.939 22.3905 104.053C22.1273 106.418 22.0839 108.803 22.261 111.176C18.376 107.692 14.6594 104.002 10.7355 100.609C10.6168 100.513 10.4682 100.463 10.3159 100.466C10.1636 100.47 10.0174 100.527 9.90297 100.627C9.78853 100.728 9.7132 100.865 9.6902 101.016C9.66721 101.166 9.69803 101.32 9.77724 101.45C11.3053 103.82 19.93 110.723 22.6236 113.17ZM124.773 65.1386C124.773 65.2657 124.824 65.3876 124.914 65.4774C125.003 65.5673 125.125 65.6177 125.252 65.6177C125.379 65.6177 125.501 65.5673 125.591 65.4774C125.681 65.3876 125.732 65.2657 125.732 65.1386C125.954 60.382 125.754 55.6151 125.136 50.8936C125.123 50.769 125.073 50.651 124.994 50.5538C124.915 50.4566 124.81 50.3845 124.69 50.3461C124.571 50.3077 124.443 50.3047 124.322 50.3376C124.201 50.3704 124.093 50.4376 124.009 50.531C123.426 51.2821 124.825 53.6519 124.773 65.1386ZM159.816 87.6327C169.671 71.0049 169.14 71.8338 169.062 71.5359C168.842 70.7848 168.22 71.1474 163.235 72.6496C164.53 68.0523 166.148 63.1443 167.223 58.4952C167.246 58.3449 167.211 58.1917 167.126 58.0657C167.041 57.9396 166.912 57.8499 166.764 57.8142C166.617 57.7785 166.461 57.7994 166.328 57.8727C166.195 57.946 166.094 58.0664 166.045 58.2104C164.582 63.3904 163.131 68.4538 161.733 73.4266C161.71 73.5294 161.714 73.6362 161.744 73.7371C161.774 73.838 161.829 73.9296 161.904 74.0034C161.979 74.0772 162.072 74.1307 162.173 74.1589C162.274 74.1871 162.381 74.1891 162.484 74.1648C162.484 74.1648 165.915 73.1028 167.301 72.6496L159.026 87.1925C158.977 87.2964 158.969 87.4149 159.005 87.5243C159.04 87.6336 159.115 87.7255 159.215 87.7814C159.316 87.8373 159.434 87.853 159.545 87.8254C159.656 87.7979 159.753 87.729 159.816 87.6327ZM252.408 125.615C251.735 125.291 239.277 133.035 239.148 133.126C238.694 133.45 239.148 134.253 239.614 134.007C240.365 133.67 252.266 127.053 252.667 126.34C252.698 126.276 252.716 126.206 252.719 126.134C252.723 126.063 252.712 125.991 252.688 125.924C252.664 125.857 252.627 125.795 252.579 125.742C252.531 125.689 252.473 125.646 252.408 125.615ZM219.438 110.813C219.438 110.813 231.922 101.295 234.253 99.482C234.758 99.0805 234.253 98.187 233.657 98.2518C231.307 98.3078 228.967 98.5721 226.664 99.0417C230.007 95.4756 232.967 91.5693 235.496 87.3867C235.923 86.6874 234.887 85.9622 234.473 86.6744C231.62 91.3285 228.225 95.6277 224.359 99.482C223.944 99.8834 224.203 100.868 224.877 100.777C227.163 100.195 229.493 99.8051 231.844 99.6115C231.844 99.6115 221.95 107.576 218.894 110.101C218.842 110.184 218.817 110.28 218.822 110.377C218.827 110.474 218.861 110.568 218.92 110.645C218.979 110.722 219.06 110.78 219.153 110.81C219.245 110.84 219.345 110.841 219.438 110.813ZM201.58 73.323C209.531 59.6219 210.917 57.6276 209.583 57.2909C209.013 57.1485 209.039 57.2003 200.686 72.8309C200.647 72.9461 200.65 73.0715 200.694 73.1849C200.738 73.2984 200.82 73.3928 200.927 73.4515C201.033 73.5102 201.157 73.5295 201.277 73.506C201.396 73.4825 201.503 73.4177 201.58 73.323Z" fill="black"/>
<path d="M238.28 157.848C232.996 141.181 219.645 128.361 201.619 122.688C201.607 122.358 201.572 122.03 201.515 121.704C206.436 119.555 207.537 112.16 206.449 105.724C207.394 104.183 209.907 96.2575 208.055 97.3453L204.675 99.3396C204.196 98.0446 203.639 96.8402 203.043 95.6488C203.173 93.5768 201.282 89.8731 197.954 87.4515C194.898 85.2241 189.64 83.2298 181.973 86.4155C175.991 88.9019 169.244 94.3927 168.221 102.37C166.926 112.73 170.357 117.754 163.947 127.376C156.864 124.169 149.314 122.114 141.582 121.29C141.583 120.709 141.544 120.13 141.466 119.555C144.768 117.884 145.467 112.445 145.61 110.671C149.495 107.304 149.948 100.596 146.905 100.44C147.687 95.6346 147.986 90.7627 147.798 85.8975C147.63 82.8801 146.335 82.2067 145.739 82.0772C145.319 81.9977 144.885 82.0381 144.486 82.1939C144.088 82.3496 143.741 82.6143 143.486 82.9578C142.515 80.9765 140.65 81.2225 139.601 82.7247C139.498 82.1915 139.23 81.7042 138.835 81.3317C138.44 80.9591 137.938 80.7202 137.399 80.6486C136.861 80.577 136.314 80.6764 135.835 80.9328C135.357 81.1891 134.971 81.5895 134.732 82.0772C134.481 81.5426 134.076 81.0947 133.57 80.7904C133.064 80.4861 132.479 80.3392 131.889 80.3684C131.299 80.3975 130.731 80.6014 130.257 80.9541C129.783 81.3068 129.425 81.7924 129.228 82.3492C127.933 79.539 124.631 80.1865 123.893 83.0355C122.921 80.847 120.267 80.8599 119.347 83.3981C116.926 81.611 115.022 83.3981 114.633 86.3378C114.398 91.3364 114.606 96.346 115.255 101.308C110.865 100.324 114.284 110.606 116.9 110.852C117.353 114.737 118.959 119.011 122.08 120.047C122.08 120.565 122.002 121.096 122.002 121.614C113.629 122.951 105.571 125.808 98.2258 130.044C94.1854 127.195 85.1981 123.323 76.5604 124.035C74.9954 120.729 73.8177 117.252 73.051 113.675C72.4812 110.554 73.9445 109.324 73.9316 106.63C75.6083 103.251 76.0261 99.3857 75.11 95.7265C71.0308 82.7765 46.3869 87.6975 47.0862 101.917C47.1769 103.535 47.3193 105.154 47.4618 106.41C44.4185 107.33 44.8718 107.55 45.7135 111.254C46.1668 113.274 46.6848 114.944 48.8086 114.504C49.7798 118.713 52.2274 125.434 58.0031 125.434C58.3527 125.434 58.0031 125.214 58.3268 127.389C43.8358 133.696 25.641 145.519 20.9272 166.239C19.7876 171.238 19.1013 178.335 22.3647 183.696C25.9518 189.666 32.2973 190.041 36.8557 189.744C35.7888 195.606 35.4452 201.578 35.8327 207.524C35.835 207.607 35.8602 207.688 35.9054 207.758C35.9506 207.827 36.0141 207.883 36.0889 207.919C36.1638 207.955 36.2471 207.97 36.3298 207.962C36.4125 207.954 36.4914 207.923 36.5579 207.874C37.2572 207.459 35.8845 207.019 38.073 189.653C50.2719 188.526 61.901 183.281 72.6495 177.765C74.4237 179.06 76.1849 180.355 78.0108 181.52C79.5121 184.556 81.8126 187.124 84.6648 188.95C87.5171 190.775 90.8132 191.788 94.1983 191.88C93.8746 197.332 93.8746 202.798 94.1983 208.249C94.2032 208.315 94.2212 208.379 94.2514 208.438C94.2816 208.497 94.3233 208.549 94.3741 208.591C94.4249 208.633 94.4836 208.665 94.5469 208.684C94.6101 208.703 94.6766 208.709 94.7422 208.702C95.8559 208.599 94.4185 208.042 95.2991 191.867C106.073 191.867 114.918 184.835 123.789 179.461C134.227 184.24 159.816 193.136 173.349 190.572C173.97 196.089 173.88 201.321 174.411 206.656C174.428 206.752 174.478 206.839 174.553 206.901C174.627 206.963 174.721 206.998 174.819 206.998C174.916 206.998 175.01 206.963 175.085 206.901C175.159 206.839 175.209 206.752 175.227 206.656C175.566 201.205 175.345 195.733 174.566 190.326C183.955 188.099 189.718 181.481 191.246 171.199C191.867 170.785 192.541 170.319 193.24 169.788C201.256 172.986 217.845 180.769 225.952 181.054C225.576 187.076 225.045 193.434 224.955 199.676C224.973 199.782 225.027 199.877 225.109 199.946C225.191 200.015 225.294 200.053 225.401 200.053C225.508 200.053 225.612 200.015 225.694 199.946C225.775 199.877 225.83 199.782 225.848 199.676C226.029 197.954 227.208 183.256 227.143 181.015C240.119 180.717 242.165 170.098 238.28 157.848ZM145.869 102.499C146.218 102.033 146.413 101.489 146.918 101.645C148.731 102.176 147.28 106.682 145.765 108.689C145.895 106.63 145.934 104.545 145.869 102.499ZM114.957 102.499C115.372 102.499 115.32 102.681 116.252 102.862L116.77 109.259C114.854 107.485 113.468 102.525 114.957 102.525V102.499ZM204.934 101.204C204.989 101.022 205.114 100.87 205.281 100.78C205.449 100.69 205.645 100.67 205.827 100.725C206.009 100.78 206.162 100.905 206.252 101.073C206.342 101.24 206.361 101.437 206.307 101.619C205.853 103.225 205.504 104.39 205.206 105.504C205.129 105.642 205.021 105.761 204.891 105.851C204.761 105.941 204.611 105.999 204.455 106.022C203.315 106.061 204.532 102.37 204.934 101.178V101.204ZM183.139 106.384C183.877 105.828 184.771 106.54 184.913 106.553C186.13 107.33 187.503 106.203 187.153 105.879L186.894 105.672C185.936 104.921 183.968 103.367 184.382 102.305C184.693 101.502 185.962 101.619 186.791 101.58C186.82 101.579 186.849 101.571 186.875 101.558C186.901 101.544 186.924 101.525 186.941 101.501C186.959 101.477 186.971 101.45 186.976 101.421C186.981 101.392 186.98 101.362 186.972 101.334C186.843 100.919 186.687 100.505 186.532 100.039C191.426 97.6116 196.792 96.2856 202.253 96.1539C202.81 97.4489 203.289 98.6791 203.717 99.8964C202.098 100.816 200.259 101.826 199.832 103.665C199.447 103.617 199.056 103.656 198.689 103.78C198.321 103.903 197.986 104.107 197.708 104.377C195.675 101.93 187.257 102.137 185.561 102.202C183.372 102.292 189.148 106.708 190.741 107.951C196.089 112.108 199.585 109.246 198.252 105.452C198.439 105.223 198.684 105.049 198.963 104.948C199.241 104.848 199.541 104.825 199.832 104.882C199.88 105.128 199.958 105.367 200.065 105.594C200 105.562 199.929 105.546 199.857 105.546C199.786 105.546 199.715 105.562 199.65 105.594C199.119 105.931 199.65 106.384 200.868 108.547C200.717 108.7 200.557 108.842 200.388 108.974C199.896 109.337 200.324 110.917 201.968 108.974C202.214 108.677 201.748 107.809 201.23 107.045C201.855 107.471 202.604 107.677 203.359 107.63C204.114 107.583 204.832 107.286 205.4 106.786C205.966 110.263 205.645 113.826 204.468 117.146C203.173 120.319 199.922 120.5 200.583 121.704C200.753 125.974 200.406 130.248 199.547 134.434C196.218 133.709 189.666 125.589 187.05 121.821C187.321 118.672 186.915 115.501 185.858 112.523C184.991 111.02 183.268 110.334 182.815 108.638C182.638 108.259 182.575 107.838 182.632 107.424C182.69 107.011 182.866 106.622 183.139 106.307V106.384ZM202.771 104.222C202.629 104.649 202.538 105.245 202.072 105.245C201.606 105.245 201.373 104.701 201.424 104.235C201.476 103.768 201.606 102.694 202.098 102.409C202.192 102.362 202.297 102.338 202.402 102.338C202.508 102.338 202.612 102.362 202.706 102.409C203.315 102.577 202.991 103.484 202.771 104.144V104.222ZM195.791 107.2C195.649 107.55 195.506 108.184 195.092 108.379C195.019 108.414 194.939 108.433 194.859 108.433C194.778 108.433 194.698 108.414 194.626 108.379C193.849 108.094 194.703 105.206 195.403 104.649C195.464 104.587 195.539 104.541 195.623 104.516C195.706 104.491 195.795 104.487 195.88 104.505C195.965 104.523 196.044 104.563 196.11 104.619C196.176 104.676 196.227 104.749 196.257 104.83C196.529 105.426 195.869 106.928 195.791 107.123V107.2ZM192.955 105.944C192.787 106.281 192.709 106.592 192.269 106.592C192.165 106.599 192.061 106.58 191.967 106.538C191.872 106.496 191.789 106.431 191.725 106.349C191.661 106.267 191.618 106.171 191.6 106.069C191.582 105.967 191.589 105.862 191.621 105.763C191.764 105.335 191.919 104.364 192.437 104.105C192.519 104.067 192.608 104.047 192.698 104.044C192.789 104.042 192.879 104.059 192.962 104.093C193.046 104.127 193.122 104.178 193.185 104.242C193.249 104.307 193.298 104.383 193.331 104.468C193.512 104.895 193.214 105.478 192.955 105.944ZM186.48 122.546C190.158 128.891 199.844 138.086 200.596 135.004C201.443 131.345 201.834 127.596 201.761 123.841C219.503 130.109 231.546 141.595 236.791 157.097C232.994 155.285 228.823 154.397 224.618 154.507C224.437 150.246 218.596 142.01 216.356 139.536C215.902 139.031 215.061 139.679 215.553 140.184C218.912 143.988 221.482 148.42 223.116 153.225C216.77 148.446 203.988 141.777 186.467 147.268C181.921 139.509 175.284 133.185 167.314 129.021C173.049 125.27 179.645 123.042 186.48 122.546ZM118.946 93.3308C126.733 91.2052 134.916 90.9699 142.813 92.6444C142.68 94.839 142.749 97.0412 143.02 99.223H142.787C141.712 94.2761 134.822 92.748 132.504 97.928C131.32 97.5264 130.037 97.5264 128.853 97.928C126.612 93.266 120.124 94.7682 118.933 99.3784H118.687C118.959 97.3748 119.046 95.3503 118.946 93.3308ZM136.558 103.989C136.791 103.328 138.889 98.4331 140.249 98.2906C140.362 98.2892 140.474 98.3147 140.575 98.3652C140.676 98.4156 140.764 98.4894 140.831 98.5806C140.898 98.6717 140.943 98.7775 140.961 98.8892C140.979 99.001 140.97 99.1154 140.935 99.223C139.779 100.87 138.749 102.601 137.853 104.403C137.529 105.206 136.26 104.895 136.558 103.989ZM134.68 102.176C134.525 102.564 133.825 102.797 133.579 102.344C133.333 101.891 133.929 100.168 135.612 97.6431C136.04 97.0086 136.441 96.6978 136.791 96.7496C136.905 96.7821 137.009 96.8419 137.094 96.9239C137.179 97.0059 137.243 97.1075 137.28 97.2199C137.318 97.3323 137.326 97.452 137.307 97.5687C137.287 97.6854 137.239 97.7954 137.166 97.8892C136.181 99.2211 135.347 100.659 134.68 102.176ZM123.414 104.325C123.97 103.108 124.592 101.878 125.188 100.673C125.251 100.557 125.345 100.46 125.459 100.393C125.573 100.325 125.703 100.29 125.835 100.29C125.968 100.29 126.098 100.325 126.212 100.393C126.325 100.46 126.419 100.557 126.483 100.673C126.564 100.796 126.607 100.94 126.607 101.088C126.607 101.235 126.564 101.379 126.483 101.502C125.913 102.629 125.33 103.807 124.709 104.947C124.216 105.594 123.025 105.102 123.414 104.325ZM121.847 102.694L121.769 102.784C121.367 103.367 120.357 102.991 120.629 102.253C121.377 100.264 122.332 98.3581 123.478 96.5683C124.035 95.8949 125.162 96.4776 124.773 97.2676C123.854 99.1065 122.727 100.829 121.847 102.694ZM117.223 102.81C118.052 102.461 118.285 101.515 118.518 100.699L118.79 100.622C118.723 101.52 118.833 102.423 119.115 103.279C119.397 104.134 119.846 104.926 120.435 105.607C121.133 106.293 122.009 106.772 122.963 106.989C123.918 107.207 124.914 107.155 125.841 106.839C126.767 106.523 127.588 105.957 128.211 105.202C128.835 104.447 129.236 103.534 129.371 102.564C129.237 103.811 129.18 105.065 129.202 106.32C129.202 107.097 129.021 108.068 129.979 108.133H131.274C131.948 108.133 132.129 106.967 131.352 106.954H130.394C130.318 104.647 130.444 102.337 130.769 100.052C130.86 99.4173 129.94 99.3266 129.811 99.9223C129.241 102.707 129.811 101.114 129.306 99.0547C130.21 98.7305 131.199 98.7305 132.103 99.0547C131.818 100.093 131.762 101.181 131.938 102.243C132.115 103.305 132.52 104.316 133.126 105.206C133.588 105.804 134.172 106.295 134.84 106.648C135.508 107 136.244 107.204 136.998 107.247C137.752 107.29 138.507 107.171 139.21 106.897C139.914 106.623 140.551 106.201 141.077 105.659C142.35 104.239 143.027 102.385 142.968 100.479H143.214C143.369 101.606 143.603 103.16 144.794 103.069C144.664 107.498 145.053 115.087 141.544 117.858C141.09 118.221 140.572 118.635 140.508 119.049C140.345 120.422 140.345 121.808 140.508 123.181C140.883 126.768 134.602 133.864 131.352 136.895C125.084 128.373 123.284 127.532 123.297 120.06C123.297 119.308 123.206 119.192 122.688 118.933C117.444 116.395 117.923 109.078 117.223 102.81ZM122.067 122.753C122.209 126.729 125.33 132.103 130.834 137.892C131.948 139.342 141.79 127.26 141.595 124.644V122.455C168.104 125.576 187.102 140.831 190.132 161.396C179.124 159.233 165.216 161.772 162.859 162.225C161.848 155.784 159.944 149.516 157.2 143.603C157.154 143.488 157.064 143.396 156.949 143.347C156.835 143.299 156.706 143.297 156.591 143.344C156.476 143.39 156.384 143.48 156.336 143.594C156.287 143.708 156.286 143.837 156.332 143.952C158.714 149.789 160.451 155.869 161.512 162.082C154.701 154.908 144.341 151.722 129.901 152.37C121.21 152.773 112.577 154 104.118 156.035C104.795 152.086 106.407 148.356 108.819 145.157C108.872 145.06 108.888 144.948 108.864 144.84C108.84 144.733 108.778 144.638 108.689 144.573C108.6 144.508 108.491 144.478 108.382 144.487C108.272 144.497 108.17 144.546 108.094 144.626C105.373 147.988 103.586 152.008 102.914 156.281C93.5247 158.533 84.4067 161.794 75.7187 166.006C76.9101 140.637 100.363 127.04 122.067 122.753ZM65.9026 98.7698C65.8893 99.9993 65.9629 101.228 66.1227 102.448C61.4607 102.564 54.0533 104.377 48.5366 106.087C48.3942 104.947 48.0704 102.875 48.0575 101.645C53.6084 98.9991 59.8017 98.0013 65.9026 98.7698ZM61.7845 105.724C59.1945 110.127 59.7513 110.904 58.8837 110.904C58.7863 110.91 58.689 110.892 58.5998 110.853C58.5107 110.813 58.4323 110.753 58.3714 110.677C58.3105 110.6 58.2687 110.511 58.2497 110.415C58.2307 110.319 58.2349 110.221 58.2621 110.127C59.4405 105.672 60.5672 104.843 61.137 104.74C61.2612 104.714 61.3902 104.727 61.5072 104.776C61.6243 104.824 61.7241 104.907 61.7937 105.013C61.8634 105.119 61.8998 105.243 61.8981 105.37C61.8965 105.496 61.8569 105.62 61.7845 105.724ZM57.7829 106.695C57.3038 107.485 57.1872 108.586 56.4879 108.418C55.7886 108.249 56.2937 106.669 56.7081 105.828C57.1225 104.986 57.4851 104.973 57.7311 105.038C57.8698 105.075 57.9931 105.156 58.0837 105.267C58.1743 105.379 58.2277 105.516 58.2362 105.659C58.1854 106.04 58.0283 106.399 57.7829 106.695ZM48.1481 109.285C48.0057 109.622 47.9927 110.658 47.2934 110.658C47.1574 110.663 47.0234 110.623 46.9131 110.543C46.8027 110.463 46.7224 110.348 46.6848 110.218C46.6163 109.312 46.9044 108.415 47.4877 107.718C47.608 107.611 47.7592 107.544 47.9197 107.528C48.0803 107.511 48.2418 107.546 48.3812 107.628C48.692 107.835 48.6273 108.379 48.1481 109.246V109.285ZM48.6273 112.303C49.8057 108.068 50.4791 107.446 50.8806 107.356C50.9631 107.337 51.0493 107.341 51.1294 107.369C51.2095 107.396 51.2804 107.445 51.3338 107.511C51.5099 107.715 51.5983 107.98 51.5799 108.249L49.8705 112.665C49.8173 112.83 49.7007 112.967 49.5465 113.046C49.3923 113.125 49.213 113.139 49.0482 113.086C48.8833 113.033 48.7463 112.916 48.6674 112.762C48.5885 112.608 48.5741 112.429 48.6273 112.264V112.303ZM49.9223 114.258C52.4087 113.533 53.2116 113.74 52.9396 109.959C52.849 108.884 52.6418 106.436 53.7296 106.475C54.6102 106.475 54.6361 110.567 55.944 111.836C57.252 113.105 58.9484 112.212 60.3729 111.836C64.2579 110.774 63.4032 109.117 63.1183 103.976L66.3817 103.717C67.8451 111.305 69.8135 105.62 71.1344 104.766C71.9761 104.235 72.7013 105.4 72.8567 106.294C73.1546 108.21 71.5617 110.308 71.8984 113.118C72.6616 117.186 73.9683 121.132 75.7834 124.851C72.9474 130.238 64.8018 135.211 61.1758 137.179C59.6477 131.637 59.5182 124.359 58.5858 124.385C54.2864 124.411 51.4633 121.16 49.8705 114.219L49.9223 114.258ZM58.4434 128.632C58.6765 130.588 59.6348 138.992 61.0334 138.293C64.5558 136.636 75.2784 129.591 76.8065 125.058C79.0727 125.576 86.1434 124.204 97.125 130.821C89.0213 135.661 82.5187 142.777 78.4252 151.282C67.9487 149.987 54.9857 148.368 44.0948 154.118C47.4229 146.27 49.4172 145.493 48.4719 144.872C48.423 144.838 48.3678 144.815 48.3096 144.803C48.2515 144.792 48.1916 144.792 48.1335 144.804C48.0755 144.816 48.0205 144.84 47.9718 144.874C47.9231 144.908 47.8818 144.951 47.8503 145.001C47.5136 145.506 42.7868 153.315 42.6703 154.908C40.8443 156.022 36.9464 158.871 35.7809 161.111C31.0201 161.204 26.3808 162.631 22.3906 165.229C26.3274 149.987 38.7723 137.335 58.3916 128.594L58.4434 128.632ZM24.864 185.185C19.9171 180.005 20.979 171.342 22.0021 166.589C34.6413 158.288 51.3468 161.836 71.6783 177.156C64.8407 180.083 34.965 195.662 24.864 185.185ZM37.0888 161.085C47.3711 149.702 62.2377 150.427 77.8943 152.357C73.8798 161.616 73.5301 171.393 76.8842 179.371C65.2292 170.642 51.4633 161.046 37.0888 161.046V161.085ZM95.2084 190.87C82.4527 190.87 75.6021 179.668 75.7834 167.236C93.9134 159.091 109.751 154.921 127.104 153.717C142.955 152.616 153.626 155.504 160.619 162.782C126.457 170.435 112.354 190.831 95.2084 190.831V190.87ZM173.53 189.446C160.852 192.308 139.86 184.823 124.942 178.853C148.718 164.815 170.111 159.518 190.3 162.665C191.893 177.13 185.936 186.636 173.53 189.446ZM191.492 169.839C192.164 162.351 190.581 154.833 186.946 148.252C200.855 144.652 212.6 146.75 222.805 154.649C209.402 155.646 195.895 166.11 191.479 169.839H191.492ZM226.716 179.902C218.79 179.902 202.111 172.132 194.431 168.998C202.642 162.782 212.367 156.19 224.074 155.724C228.647 155.441 233.209 156.442 237.244 158.612C240.715 170.319 238.979 179.824 226.703 179.902H226.716Z" fill="black"/>
</svg>
