<svg width="352" height="319" viewBox="0 0 352 319" fill="none" xmlns="http://www.w3.org/2000/svg">
<rect width="352" height="319" rx="16" fill="#F7F6F3"/>
<path fill-rule="evenodd" clip-rule="evenodd" d="M159.232 140.816C159.052 141.163 158.525 144.671 160.594 144.671C160.955 144.672 161.305 144.543 161.579 144.307C161.853 144.071 162.032 143.744 162.085 143.386C162.522 139.454 159.952 139.467 159.232 140.816ZM177.864 140.765C177.98 142.127 178.134 143.335 179.496 143.335C179.858 143.336 180.207 143.206 180.481 142.97C180.755 142.734 180.934 142.408 180.987 142.05C181.015 141.223 180.924 140.397 180.717 139.596C179.972 138.221 177.672 138.555 177.864 140.765ZM168.869 153.178C169.268 153.178 172.724 153.011 173.534 152.381C173.778 152.202 173.752 151.855 173.752 151.533C173.675 147.888 173.323 144.254 172.699 140.662C172.699 140.469 172.532 140.431 172.429 140.457C172.326 140.482 172.275 140.662 172.288 140.971C172.288 142.024 172.198 142.384 172.57 148.282C172.814 152.137 172.712 151.058 172.789 151.7C171.584 152.142 170.346 152.49 169.088 152.741C168.253 152.921 168.844 153.178 168.869 153.178ZM172.93 162.07C171.977 162.581 170.925 162.884 169.846 162.957C169.792 162.957 169.739 162.979 169.701 163.017C169.662 163.056 169.64 163.108 169.64 163.163C169.64 163.217 169.662 163.269 169.701 163.308C169.739 163.347 169.792 163.368 169.846 163.368C170.45 163.585 171.095 163.663 171.733 163.597C172.371 163.53 172.986 163.32 173.532 162.983C174.077 162.646 174.54 162.19 174.885 161.65C175.231 161.109 175.45 160.497 175.526 159.86C175.533 159.834 175.534 159.807 175.53 159.78C175.526 159.753 175.517 159.728 175.504 159.704C175.49 159.681 175.472 159.661 175.45 159.644C175.429 159.628 175.404 159.616 175.378 159.61C175.352 159.603 175.325 159.601 175.298 159.605C175.271 159.609 175.245 159.618 175.222 159.632C175.199 159.645 175.178 159.663 175.162 159.685C175.146 159.707 175.134 159.731 175.127 159.757C174.607 160.705 173.85 161.502 172.93 162.07ZM115.336 62.9711C118.639 74.0093 130.319 73.4696 131.682 74.292C131.682 74.4205 134.354 84.7133 135.434 86.1268C136.038 86.9107 137.49 86.6023 138.453 86.4224C140.715 85.9726 143.336 85.8313 145.251 84.3021C145.739 83.9038 145.457 82.2847 145.328 81.7321C144.919 79.4216 144.353 77.1418 143.632 74.9088C143.349 74.2351 143.108 73.5441 142.912 72.8399C143.799 72.0544 144.764 71.3612 145.791 70.7711C147.486 69.616 148.995 68.2075 150.263 66.5948C152.716 63.0004 153.825 58.6565 153.395 54.3257C152.965 49.995 151.024 45.9541 147.911 42.9123C138.389 33.5703 121.17 36.6158 115.58 48.3992C113.666 52.4855 114.038 58.6792 115.336 62.9711ZM144.66 83.6853C142.951 85.0603 140.432 85.2402 138.235 85.6899C137.644 85.8184 136.243 86.1654 135.871 85.6899C135.144 84.6404 134.62 83.4634 134.329 82.2204C137.657 81.7513 140.913 80.8619 144.018 79.5733C144.438 80.9038 144.654 82.2901 144.66 83.6853ZM143.876 79.0465C140.593 79.6584 137.368 80.5527 134.239 81.7193C133.907 80.2279 133.478 78.7598 132.954 77.3246C136.274 76.9769 139.53 76.1726 142.63 74.9345C143.148 76.2928 143.577 77.6836 143.915 79.0979L143.876 79.0465ZM116.39 48.7976C121.774 37.6695 138.235 34.8553 147.23 43.6576C150.154 46.5252 151.983 50.3247 152.4 54.3985C152.818 58.4723 151.798 62.564 149.517 65.9652C147.294 69.1006 142.797 71.2594 142.103 72.3902C141.859 72.7885 142.308 73.8037 142.591 74.5233C141.126 74.806 139.52 75.1529 138.081 75.4742C137.695 73.7137 135.896 66.6077 135.228 64.9372C134.971 64.269 134.74 64.3204 134.059 64.5131C130.307 64.5131 126.182 63.5622 124.858 60.0285C124.698 59.6143 124.586 59.1831 124.524 58.7435C124.344 56.8931 125.809 54.7343 127.428 54.8885C127.197 56.302 127.428 59.0005 128.636 59.81C129.844 60.6196 131.206 59.3346 131.206 58.1781C131.138 57.3441 130.866 56.5395 130.416 55.8341C129.966 55.1287 129.351 54.5438 128.623 54.1303C128.825 53.6716 129.125 53.2623 129.501 52.9307C129.877 52.5992 130.32 52.3534 130.8 52.2104C131.281 52.0674 131.787 52.0305 132.283 52.1024C132.779 52.1744 133.253 52.3533 133.673 52.6269C132.658 54.6058 133.673 59.1418 135.472 58.0753C137.271 57.0087 136.68 54.3873 135.562 52.9353C135.023 52.2285 134.907 52.4213 135.177 52.2157C137.271 50.6865 139.649 52.4598 140.651 54.7857C142.09 57.9853 139.006 61.9303 137.053 63.1253C137.005 63.1543 136.971 63.201 136.958 63.2552C136.944 63.3095 136.953 63.3667 136.982 63.4144C137.011 63.4622 137.058 63.4964 137.112 63.5097C137.166 63.5229 137.224 63.5141 137.271 63.4851C139.661 62.0845 142.681 57.9596 141.306 54.4901C139.931 51.0206 136.475 49.6842 134.29 51.7531C133.74 51.3757 133.112 51.1265 132.453 51.0239C131.794 50.9213 131.12 50.9679 130.482 51.1602C129.843 51.3526 129.255 51.6858 128.763 52.1353C128.27 52.5849 127.884 53.1393 127.634 53.7577C125.244 53.4493 123.226 56.2377 123.496 58.7692C123.641 59.888 124.064 60.9528 124.726 61.8663C125.388 62.7798 126.269 63.513 127.287 63.9991C128.495 64.5774 132.787 65.6311 134.483 65.1428C135.074 66.4278 137.22 73.9707 137.605 75.5513C131.9 76.8363 133.056 77.4402 132.774 76.605C132.44 75.5641 132.234 74.035 131.951 73.9322C124.858 72.3259 118.459 71.1437 116.069 62.727C114.899 58.6535 114.591 52.614 116.39 48.7976ZM128.315 55.1455C128.802 55.491 129.209 55.9371 129.508 56.4537C129.807 56.9703 129.992 57.5453 130.05 58.1395C130.05 58.4865 129.266 59.4245 128.765 58.3965C128.381 57.3585 128.245 56.2454 128.366 55.1455H128.315ZM134.38 53.1794C135.408 54.1817 136.051 56.5204 134.933 57.2015C134.545 56.6153 134.294 55.9495 134.199 55.2533C134.103 54.5572 134.165 53.8484 134.38 53.1794ZM95.83 102.228C101.06 100.596 107.395 102.009 109.837 107.792C114.064 117.584 102.885 122.569 103 123.083C103.257 124.368 103.72 126.617 103.913 127.915C103.928 128.024 103.986 128.123 104.074 128.189C104.162 128.255 104.273 128.284 104.382 128.268C104.491 128.253 104.589 128.195 104.656 128.107C104.722 128.019 104.75 127.908 104.735 127.799C104.581 126.514 104.414 124.664 104.234 123.328C106.051 122.599 107.732 121.569 109.207 120.282C118.279 109.578 108.153 96.0727 95.2132 100.3C93.1643 100.898 91.3521 102.118 90.0281 103.792C88.7041 105.466 87.9339 107.511 87.8245 109.642C87.4133 114.705 91.4482 119.074 97.9631 118.509C98.0613 118.492 98.1503 118.44 98.2144 118.364C98.2785 118.287 98.3137 118.191 98.3137 118.091C98.3137 117.991 98.2785 117.895 98.2144 117.819C98.1503 117.742 98.0613 117.691 97.9631 117.674C92.1806 117.969 89.0838 113.819 89.6363 109.835C89.7644 108.085 90.4272 106.417 91.5351 105.056C92.643 103.695 94.1423 102.708 95.83 102.228ZM191.807 68.7022C191.916 68.7312 192.032 68.7156 192.129 68.659C192.227 68.6024 192.298 68.5093 192.327 68.4002C192.356 68.2912 192.341 68.1751 192.284 68.0775C192.227 67.9799 192.134 67.9088 192.025 67.8798C186.461 66.3121 184.855 61.3906 186.654 57.7797C187.354 56.167 188.534 54.8089 190.033 53.8894C191.532 52.9699 193.277 52.5336 195.032 52.6397C204.695 52.8839 208.936 61.7761 205.312 68.124C202.909 72.4673 199.697 73.6366 195.585 74.1763C195.455 74.1946 195.334 74.2546 195.242 74.3473C195.149 74.4401 195.089 74.5605 195.071 74.6903C194.929 75.8725 194.621 78.1984 194.39 79.5476C194.367 79.655 194.389 79.7667 194.449 79.8583C194.509 79.9499 194.603 80.0138 194.711 80.0359C194.818 80.0581 194.93 80.0367 195.021 79.9764C195.113 79.9162 195.177 79.822 195.199 79.7147C195.495 78.3269 195.893 76.6949 196.163 75.32C198.115 75.215 200.035 74.7805 201.843 74.035C206.199 71.465 208.846 67.4044 208.499 62.2644C207.689 50.1982 190.085 45.8806 185.022 57.1244C183.056 61.699 185.446 67.263 191.807 68.7022ZM263.201 128.994C263.054 126.613 262.204 124.328 260.76 122.428C259.37 120.864 257.675 119.602 255.779 118.718C253.883 117.834 251.826 117.347 249.735 117.288C247.606 117.189 245.499 117.755 243.706 118.906C241.912 120.057 240.521 121.737 239.724 123.713C237.707 128.378 240.136 133.813 246.471 135.355C246.527 135.381 246.588 135.393 246.65 135.393C246.712 135.392 246.773 135.377 246.829 135.35C246.885 135.324 246.934 135.285 246.973 135.237C247.012 135.189 247.04 135.133 247.056 135.073C247.071 135.013 247.073 134.95 247.061 134.889C247.05 134.829 247.025 134.771 246.989 134.721C246.953 134.671 246.906 134.629 246.852 134.599C246.798 134.568 246.738 134.55 246.676 134.546C241.151 132.875 239.506 128.121 241.318 124.446C242.018 122.833 243.198 121.475 244.697 120.555C246.196 119.636 247.941 119.199 249.696 119.306C251.478 119.355 253.232 119.765 254.851 120.512C256.469 121.259 257.92 122.326 259.115 123.649C260.319 125.22 261.034 127.11 261.171 129.084C262.083 140.418 249.876 140.457 249.76 141.356C249.606 142.641 249.323 144.903 249.079 146.213C249.057 146.321 249.078 146.433 249.139 146.524C249.199 146.616 249.293 146.68 249.4 146.702C249.508 146.724 249.62 146.702 249.711 146.642C249.803 146.582 249.867 146.488 249.889 146.38C250.197 145.006 250.583 143.361 250.852 141.986C252.808 141.876 254.732 141.442 256.545 140.701C260.837 138.182 263.548 134.186 263.201 128.994ZM109.631 137.655C110.184 135.368 108.526 132.965 106.881 133.158C105.814 133.042 104.74 133.012 103.669 133.068C100.88 133.736 99.5694 137.385 102.191 139.172C105.198 141.176 109.091 139.788 109.631 137.655ZM107.639 137.398C107.183 137.779 106.624 138.016 106.033 138.079C102.538 138.568 101.792 135.509 104.144 134.507L106.907 133.993C108.102 134.096 108.372 136.653 107.639 137.334V137.398ZM193.323 84.4563C190.329 83.3641 187.091 86.7436 189.211 89.5963C191.331 92.449 195.533 92.449 196.741 90.5472C197.949 88.6454 197.217 85.767 195.597 85.4072C195.456 85.343 194.338 84.829 193.323 84.4563ZM194.942 89.5963C194.367 89.7919 193.752 89.8356 193.155 89.723C192.558 89.6104 192.001 89.3455 191.537 88.9538C191.157 88.6811 190.845 88.3251 190.624 87.913C190.252 86.8721 191.588 85.8056 192.565 85.7413L195.34 86.1397C196.42 86.7179 195.88 89.2365 194.942 89.6349V89.5963ZM250.249 152.15C249.992 152.034 248.668 151.482 247.987 151.225C244.98 150.133 241.755 153.512 243.875 156.365C245.995 159.218 250.184 159.218 251.405 157.316C252.626 155.414 251.88 152.51 250.249 152.15ZM249.593 156.403C249.018 156.598 248.403 156.641 247.806 156.528C247.21 156.416 246.653 156.151 246.188 155.761C245.811 155.48 245.5 155.12 245.276 154.707C244.916 153.679 246.239 152.613 247.216 152.548L249.992 152.947C251.071 153.487 250.531 155.992 249.593 156.403Z" fill="black"/>
<path fill-rule="evenodd" clip-rule="evenodd" d="M239.75 223.031C237.18 210.386 227.183 190.906 215.181 185.933L212.765 180.883C212.748 180.846 212.723 180.814 212.692 180.788C212.661 180.761 212.625 180.742 212.586 180.731C212.547 180.72 212.506 180.718 212.466 180.724C212.426 180.73 212.388 180.745 212.354 180.767L209.784 182.425C208.967 176.97 206.475 171.905 202.652 167.93C205.325 163.805 209.604 162.546 214.024 162.353C217.687 162.199 220.385 161.981 222.505 158.845C226.707 152.651 225.718 146.612 220.783 140.855C213.266 132.091 210.311 134.713 206.648 129.868C199.684 120.771 198.103 107.317 187.849 100.313C174.742 91.434 167.674 98.5915 164.924 100.802C160.902 98.3602 151.933 99.2083 148.078 102.511C144.801 105.312 140.458 108.936 138.775 112.983C135.19 121.529 135.575 131.642 130.332 139.39C129.047 141.318 126.85 142.616 125.295 144.44C123.161 147.116 121.345 150.031 119.885 153.127C117.983 156.725 116.531 160.721 118.266 164.448C120.592 169.434 125.796 174.188 131.347 173.828C134.56 173.61 138.813 171.682 141.833 172.954C143.632 173.7 144.326 175.434 145.688 176.887C148.772 180.317 155.968 181.358 159.951 178.981C155.57 184.558 148.888 184.365 137.233 190.79C119.345 200.633 112.818 211.813 110.903 223.262C110.171 226.824 109.63 230.423 109.284 234.043C108.179 252.714 113.846 276.384 132.221 280.303C137.258 281.383 143.028 282.077 148.014 280.83C157.459 278.479 168.728 272.118 177.003 266.952C180.858 264.549 195.122 254.925 201.753 253.665C202.152 257.095 203.016 260.454 204.323 263.65C209.63 274.559 218.123 281.01 230.023 278.209C237.733 276.397 239.93 268.186 240.135 260.322C244.003 252.02 240.932 229.07 239.75 223.031ZM195.289 162.867C197.576 163.291 199.144 165.437 200.84 167.185C205.325 171.669 208.409 176.475 209.334 182.605C205.62 184.969 203.205 186.46 203.153 186.537C203.102 186.614 201.316 182.065 200.236 181.512C198.621 180.711 197.157 179.637 195.906 178.339C194.942 177.272 193.76 175.396 193.914 173.982C194.597 173.619 195.343 173.388 196.111 173.301V172.505C192.141 172.62 190.779 176.244 190.419 177.054C190.162 177.632 189.802 178.21 188.98 178.12C188.157 178.03 187.862 177.079 188.17 176.231C188.478 175.383 189.224 171.657 194.479 170.847C194.545 170.838 194.609 170.816 194.666 170.782C194.723 170.748 194.773 170.703 194.813 170.65C194.853 170.597 194.882 170.537 194.899 170.472C194.915 170.408 194.919 170.341 194.91 170.275C194.901 170.209 194.878 170.146 194.845 170.089C194.811 170.032 194.766 169.981 194.713 169.942C194.66 169.902 194.6 169.872 194.535 169.856C194.471 169.839 194.404 169.835 194.338 169.845C193.238 169.985 192.172 170.32 191.19 170.834C190.307 171.265 189.523 171.875 188.888 172.625C188.254 173.375 187.781 174.248 187.502 175.19C186.885 176.951 184.726 176.167 185.24 174.651C185.757 173.176 186.527 171.802 187.515 170.59C188.611 169.545 189.929 168.758 191.37 168.29C192.501 167.827 193.464 168.046 193.721 167.673C193.978 167.3 193.374 166.054 193.066 165.681C191.408 163.702 186.641 165.411 184.816 163.201C183.647 161.749 186.101 161.698 187.091 161.569C189.866 161.261 192.501 162.34 195.289 162.867ZM200.005 194.709C196.332 195.907 192.584 196.864 188.787 197.575C190.072 190.263 190.946 183.993 190.817 181.718C193.811 182.296 197.242 182.708 200.994 183.324C202.01 185.008 202.562 186.421 202.806 186.82L200.313 188.4C200.185 188.567 200.211 187.873 200.005 194.709ZM186.05 231.833C186.619 234.301 187.022 236.803 187.258 239.325C181.989 238.991 177.967 239.055 175.988 238.978C176.065 235.367 176.104 234.249 176.168 233.491C179.411 232.669 182.716 232.114 186.05 231.833ZM165.837 200.184C173.127 200.235 180.407 199.642 187.592 198.41C185.305 210.746 181.822 225.575 180.177 228.544C176.399 218.238 176.785 218.199 165.837 200.184ZM181.257 228.376C183.338 223.712 186.5 209.795 188.607 198.205C192.443 197.486 196.225 196.507 199.928 195.275C199.529 209.153 199.414 226.475 200.249 240.391C197.808 240.173 194.261 239.864 190.817 239.594C190.599 237.513 189.738 230.265 189.005 228.364C188.813 227.85 188.581 227.644 187.72 227.618C185.571 227.712 183.432 227.966 181.321 228.376H181.257ZM185.844 179.354C184.543 178.593 183.503 177.455 182.863 176.09C183.458 176.341 184.078 176.526 184.713 176.642C184.954 176.914 185.265 177.113 185.612 177.22C185.959 177.326 186.328 177.335 186.679 177.246C187.258 177.066 186.885 176.989 187.193 177.799C187.312 178.125 187.511 178.416 187.773 178.643C188.035 178.871 188.351 179.028 188.69 179.1C189.029 179.172 189.382 179.157 189.713 179.055C190.045 178.953 190.345 178.768 190.586 178.518C191.087 178.069 191.126 177.529 191.73 176.373C192.321 176.257 192.899 176.103 193.464 175.936C194.993 179.945 199.786 181.885 200.121 182.181C194.479 181.345 189.481 180.819 185.908 179.354H185.844ZM161.211 177.812C164.295 174.239 163.665 171.682 160.491 169.151C154.066 164.114 154.863 165.463 152.164 159.835C148.99 150.698 151.727 136.306 154.079 126.939C154.722 124.369 159.103 121.619 162.29 122.03C166.711 122.595 164.86 124.921 168.638 126.245C169.294 126.436 169.972 126.54 170.656 126.553C170.696 126.566 170.739 126.57 170.781 126.566C170.823 126.563 170.864 126.551 170.902 126.531C170.939 126.511 170.973 126.484 171 126.452C171.027 126.419 171.048 126.382 171.06 126.341C171.073 126.301 171.078 126.258 171.074 126.216C171.07 126.173 171.058 126.132 171.038 126.095C171.018 126.057 170.992 126.024 170.959 125.997C170.926 125.969 170.889 125.949 170.848 125.936C168.844 124.734 166.997 123.288 165.348 121.632C166.132 118.432 168.124 116.684 171.863 116.659C174.433 116.659 176.464 118.612 178.288 120.282C180.499 122.3 182.876 127.748 182.696 130.742C182.29 134.211 183.103 137.714 184.996 140.65C186.281 142.885 188.697 144.826 190.136 146.715C190.933 147.768 190.47 152.472 190.008 154.54C189.404 156.352 188.119 159.809 187.823 160.593C182.452 160.785 182.683 163.664 185.253 164.897C182.85 167.776 176.978 170.976 181.18 175.01C182.079 176.899 183.518 179.482 185.446 180.266C186.814 180.82 188.229 181.251 189.674 181.551C189.956 183.543 189.031 190.135 187.618 197.806C180.243 199.033 172.773 199.597 165.297 199.49C160.658 191.895 156.045 184.699 154.876 183.543C157.472 182.223 159.678 180.247 161.275 177.812H161.211ZM152.447 184.584C155.017 183.62 153.732 183.787 154.349 184.262C154.966 184.738 159.206 191.458 164.128 199.438C158.294 199.348 151.727 198.911 149.247 198.629C149.993 198.038 148.065 187.886 147.32 186.601C149.183 185.856 150.905 185.2 152.511 184.584H152.447ZM146.369 186.999C147.426 190.783 148.144 194.653 148.515 198.564C142.97 197.77 137.531 196.36 132.298 194.362C136.782 191.494 141.513 189.03 146.433 186.999H146.369ZM147.538 279.905C142.72 281.113 137.078 280.406 132.221 279.365C124.627 277.733 119.371 272.658 115.953 266.155C110.518 255.875 108.898 240.597 110.556 229.893C110.89 227.747 111.314 225.627 111.674 223.468C113.717 211.222 121.157 201.995 131.54 195.018C141.73 198.757 148.579 200.068 164.59 200.158C175.68 218.148 175.924 219.947 179.098 228.749C178.121 228.929 173.598 229.841 172.827 230.471C172.519 230.715 172.519 231.203 172.827 238.926C161.134 239.158 149.697 240.982 138.942 247.921C137.657 238.656 139.134 235.855 142.129 230.548C146.832 222.208 145.984 220.666 143.015 215.925C142.526 215.285 142.176 214.549 141.987 213.766C141.987 213.458 140.702 213.034 142.514 216.22C145.084 220.898 145.778 222.003 141.229 230.034C137.901 235.919 136.539 238.939 138.543 248.191C137.644 248.795 136.616 249.476 135.626 250.273C134.115 251.337 132.696 252.528 131.386 253.832C131.36 253.882 131.355 253.939 131.372 253.992C131.389 254.045 131.426 254.089 131.476 254.115C131.525 254.141 131.583 254.145 131.636 254.129C131.689 254.112 131.733 254.074 131.759 254.025C132.157 253.318 138.8 248.885 140.587 247.973C150.558 242.948 161.583 238.605 179.638 239.8C179.41 247.44 180.201 255.075 181.989 262.506C172.712 268.366 159.527 276.924 147.603 279.905H147.538ZM182.786 261.992C181.135 254.745 180.405 247.319 180.614 239.89C200.121 241.175 194.004 240.764 200.3 241.175C200.532 244.927 200.879 249.001 201.393 252.74C196.356 253.678 187.296 259.204 182.85 261.992H182.786ZM229.483 277.284C218.136 279.969 210.079 273.776 204.965 263.29C199.311 251.725 200.249 201.494 200.57 188.696L212.315 181.423C228.172 215.668 230.074 218.906 233.633 230.253C238.234 244.709 244.299 273.865 229.547 277.284H229.483ZM239.84 257.623C239.542 250.742 238.482 243.916 236.679 237.269C232.605 221.425 228.198 213.483 216.003 187.848L216.363 187.655C227.131 193.412 236.255 211.286 238.645 223.224C239.956 229.456 242.461 249.836 239.904 257.623H239.84Z" fill="black"/>
</svg>
