<svg width="352" height="319" viewBox="0 0 352 319" fill="none" xmlns="http://www.w3.org/2000/svg">
<rect width="352" height="319" rx="16" fill="#F7F6F3"/>
<path d="M207.735 75.4999C207.215 75.0333 205.663 75.131 205.392 75.9013C205.757 75.7475 206.146 75.6558 206.542 75.6301C206.936 75.5599 207.335 75.5164 207.735 75.4999ZM211.414 76.0858C212.021 76.2715 212.602 76.5379 213.139 76.8778C213.095 76.7009 213.011 76.5362 212.895 76.3958C212.779 76.2555 212.632 76.1431 212.467 76.0671C212.301 75.991 212.12 75.9532 211.938 75.9564C211.756 75.9597 211.576 76.0039 211.414 76.0858ZM210.22 78.2449V81.3589C210.287 81.7947 210.199 82.2403 209.971 82.6175C209.699 82.9213 208.886 83.1817 208.506 82.8887C208.829 83.1787 209.243 83.3474 209.678 83.3661C211.924 83.3878 210.122 79.3733 210.22 78.2449ZM206.455 77.735C206.021 77.735 205.956 78.9827 206.401 78.9827C206.846 78.9827 206.965 77.735 206.455 77.735ZM212.119 77.9845C211.641 77.9845 211.728 79.2106 212.119 79.2106C212.509 79.2106 212.52 77.9845 212.119 77.9845ZM205.652 82.5415C205.294 84.1907 207.269 85.9701 208.842 85.0913C208.118 85.029 207.429 84.7536 206.861 84.2998C206.293 83.846 205.873 83.2341 205.652 82.5415ZM124.288 109.515C124.339 109.636 124.401 109.752 124.473 109.862C124.43 109.737 124.368 109.62 124.288 109.515ZM168.719 208.564C167.84 207.902 166.701 208.271 165.713 208.402C128.91 212.98 98.8774 214.358 97.3584 215.183C95.4271 216.203 96.0564 219.61 98.4434 219.414C120.556 217.581 142.679 215.79 164.737 213.067C165.949 213.031 167.151 212.845 168.317 212.514C168.693 212.357 169.019 212.102 169.262 211.776C169.504 211.449 169.654 211.063 169.695 210.659C169.736 210.254 169.667 209.846 169.495 209.477C169.323 209.108 169.055 208.793 168.719 208.564ZM262.051 229.472C261.41 226.857 258.796 227.302 256.788 227.432L249.595 227.932C247.674 228.073 245.135 227.932 244.495 230.232C244.3 230.937 244.387 230.98 244.777 236.666C244.908 238.499 244.549 241.906 246.101 243.252C247.457 244.434 249.92 243.827 251.526 243.718C262.268 242.959 259.707 243.165 260.108 243.111C260.869 243.042 261.574 242.681 262.075 242.105C262.576 241.529 262.836 240.781 262.799 240.018C262.799 238.272 262.55 236.514 262.43 234.767C262.445 232.995 262.318 231.224 262.051 229.472ZM79.4016 139.2C91.9539 139.015 104.47 137.799 116.823 135.565C98.3674 137.616 90.9243 138.245 79.4016 139.2ZM92.4433 128.828C101.204 128.628 109.933 127.691 118.538 126.028C109.836 126.831 101.112 127.775 92.4433 128.828ZM215.938 125.475C228.567 124.39 241.175 122.828 253.739 121.135C267.432 119.323 265.306 119.54 251.179 121.037C239.417 122.307 227.645 123.696 215.938 125.475ZM238.007 114.039C248.054 113.269 258.166 112.021 268.105 110.318C261.747 110.795 248.542 112.238 238.007 114.039ZM94.7218 80.2956C106.692 79.8332 118.618 78.5645 130.418 76.4981C126.762 76.8019 94.8303 80.2305 94.7218 80.2956Z" fill="black"/>
<path d="M267.931 193.483C266.683 179.595 266 174.832 262.81 149.584C262.688 147.736 262.323 145.912 261.725 144.159C261.167 142.712 260.18 141.471 258.896 140.602C257.612 139.733 256.093 139.278 254.542 139.298C252.199 139.2 223.37 141.403 218.303 141.772C217.783 141.598 217.338 140.687 216.969 140.166C212.629 134.491 203.037 127.71 196.853 124.976C197.612 123.891 197.385 122.404 197.645 121.146C198.274 118.162 201.464 116.198 204.025 110.48C205.641 106.878 205.11 107.323 205.826 107.16C210.825 107.427 215.836 107.394 220.831 107.063C240.904 105.359 255.79 93.3156 259.045 85.0262C259.87 85.1578 260.708 85.187 261.541 85.113C262.212 85.0671 262.842 84.7732 263.309 84.2884C264.21 83.3336 264.676 81.6844 263.201 81.0334C263.808 80.9141 265.143 80.632 264.861 79.7097C264.459 78.4403 261.074 78.9068 259.707 79.3191C257.537 79.9484 257.309 80.5126 256.68 80.5777C256.05 80.6428 256.973 80.3607 254.51 80.7405C251.418 81.2179 247.891 81.6627 244.647 82.1944C230.455 84.5271 229.848 87.6194 226.68 87.4132C221.446 86.8166 216.163 86.7948 210.925 87.3481C213.974 83.9629 214.278 75.6518 214.311 75.5433C214.452 75.0225 214.441 75.207 215.037 75.1527C217.967 74.8489 220.593 72.8851 220.17 70.0098C220.004 68.9635 219.544 67.986 218.842 67.1923C218.141 66.3985 217.227 65.8214 216.209 65.5288C218.032 64.6825 217.359 62.2738 216.079 61.3081C215.505 60.8251 214.815 60.4992 214.077 60.3622C213.339 60.2253 212.579 60.2821 211.869 60.5269C212.173 59.3443 211.142 58.5739 210.155 58.2593C209.558 58.069 208.927 58.0103 208.305 58.087C207.683 58.1638 207.085 58.3743 206.553 58.7041C207.312 55.7963 200.151 55.3623 200.303 58.9754C196.538 57.1851 193.913 62.8271 194.781 62.7078C193.142 62.9139 191.363 65.3009 192.762 66.7331C192.221 66.9546 191.729 67.2817 191.316 67.6952C190.902 68.1088 190.575 68.6005 190.354 69.1418C190.255 69.3969 190.21 69.6695 190.221 69.9427C190.232 70.2159 190.3 70.484 190.419 70.7301C190.538 70.9763 190.706 71.1954 190.913 71.3739C191.12 71.5523 191.362 71.6863 191.623 71.7675C190.451 72.5053 190.354 74.8598 191.981 75.1419C191.756 75.3446 191.58 75.5959 191.467 75.8767C191.353 76.1575 191.305 76.4604 191.326 76.7625C191.347 77.0646 191.437 77.358 191.588 77.6205C191.739 77.883 191.947 78.1077 192.198 78.2775C192.437 78.4511 192.958 78.5705 192.936 78.9611C192.936 79.0913 192.469 79.5687 192.404 79.7423C192.263 80.1127 192.263 80.522 192.404 80.8924C192.686 81.5759 193.196 81.5759 193.771 81.8363C193.913 81.9123 194.509 82.2486 194.498 82.7911C194.423 83.4792 194.117 84.1215 193.63 84.6139C193.218 84.8635 193.175 84.6139 192.795 84.3861C187.851 80.8749 182.283 78.3378 176.39 76.9104C167.335 74.6147 157.841 74.7001 148.829 77.1583C139.818 79.6166 131.595 84.364 124.961 90.9395C124.787 91.1131 124.158 92.0245 123.876 92.0245C123.566 91.8747 123.268 91.7005 122.986 91.5037C122.558 91.3073 122.099 91.1862 121.63 91.1456C121.803 90.8201 122.552 90.0606 122.346 89.7568C122.346 89.6917 113.59 89.9087 113.557 89.9304C113.069 90.1366 112.95 91.0805 112.809 91.5688C111.431 96.6032 112.722 99.4025 112.809 102.278C112.891 104.889 113.45 107.463 114.458 109.873C114.697 110.426 115.098 111.847 115.706 112.108C118.724 112.196 121.742 111.934 124.7 111.327C125.167 111.164 125.124 111.327 125.048 110.947C124.919 110.559 124.733 110.193 124.494 109.862C124.646 110.263 124.809 110.86 124.907 111.045C122.495 111.387 120.062 111.558 117.626 111.554C117.194 111.603 116.757 111.603 116.324 111.554C115.966 111.663 115.76 111.554 115.695 111.175C114.174 108.207 113.245 104.971 112.961 101.648C113.631 104.015 114.759 106.227 116.281 108.158C116.758 108.744 117.648 110.101 118.451 110.328C118.941 110.366 119.434 110.31 119.905 110.166C124.624 109.526 124.245 109.45 124.364 109.558C124.841 109.482 125.33 109.45 125.796 109.352C126.588 109.167 126.328 109.016 125.796 108.354C124.331 106.49 123.119 104.439 122.194 102.256C123.116 102.256 124.158 100.542 124.516 100.249C124.874 99.9558 124.776 100.086 125.33 100.303C126.238 100.568 127.183 100.693 128.129 100.672C131.63 100.871 135.143 100.708 138.61 100.184C149.46 98.6213 152.194 94.1185 156.762 96.2885C154.115 98.8166 151.109 101.855 149.851 105.381C149.265 107.008 149.851 107.334 149.851 108.039C149.851 108.495 149.851 108.408 149.395 108.744C131.015 122.611 139.435 137.497 142.223 148.195C82.5481 153.088 89.5247 151.678 86.7254 153.023C80.7036 155.92 82.776 163.602 83.2208 168.864C90.6422 257.509 89.1883 256.001 91.7055 259.614C93.8755 262.793 97.9443 262.771 101.405 262.413C138.892 258.605 258.275 251.899 265.447 250.478C269.537 249.686 271.425 246.518 271.588 242.557C271.816 236.894 268.441 199.233 267.931 193.483ZM262.137 84.6356C260.944 83.67 261.204 83.1709 263.125 83.8002C262.885 84.1694 262.541 84.46 262.137 84.6356ZM263.385 83.3879C263.197 83.2969 263.001 83.2242 262.799 83.1709C262.956 82.9713 263.088 82.7525 263.19 82.5199C263.247 82.3594 263.26 82.1869 263.23 82.0194C263.2 81.8519 263.126 81.6953 263.016 81.5651C263.808 81.9665 263.83 82.4005 263.494 83.1709L263.385 83.3879ZM261.085 79.4819C261.66 79.4276 263.96 79.1781 264.264 79.8725C264.481 80.3716 263.179 80.5235 262.745 80.632C261.942 80.849 261.345 80.5018 260.521 80.632C261.131 80.7091 261.706 80.9574 262.181 81.3481C262.951 82.0642 263.005 82.4331 261.541 82.2378C261.324 82.2378 261.085 82.6826 260.933 82.8237C260.784 82.9893 260.604 83.1235 260.403 83.2186C260.202 83.3136 259.983 83.3675 259.761 83.377C260.002 83.4539 260.258 83.4673 260.505 83.4159C260.752 83.3646 260.982 83.2503 261.172 83.0841C260.347 83.6483 261.486 84.4403 261.964 84.679C261.404 84.8812 260.8 84.9263 260.217 84.8092C259.846 84.801 259.48 84.7313 259.132 84.6031C259.023 84.5163 258.145 81.9014 256.908 80.9032C258.186 80.179 259.588 79.6971 261.041 79.4819H261.085ZM122.834 91.7641C123.102 91.925 123.359 92.1026 123.605 92.2957C123.097 92.8242 122.706 93.4523 122.454 94.1402C122.227 94.7153 122.368 94.7587 121.836 94.878C121.467 94.9648 121.011 94.878 120.632 94.9757C120.66 94.039 120.835 93.1125 121.152 92.2306C121.63 90.972 121.38 90.9178 122.834 91.7641ZM122.574 94.9106H122.194C122.313 94.7153 122.433 94.5308 122.563 94.3464C122.542 94.5341 122.546 94.7238 122.574 94.9106ZM122.183 102.636C123.081 104.886 124.294 106.998 125.785 108.907L120.002 109.591C119.581 109.701 119.147 109.759 118.711 109.764C118.147 109.656 117.626 108.885 117.225 108.441C115.418 106.321 114.103 103.827 113.375 101.139C112.647 98.4505 112.524 95.6341 113.015 92.8925C113.102 92.4259 113.275 90.7225 113.688 90.3861C113.818 90.2993 113.362 90.4729 122.096 89.9955C121.192 91.2755 120.645 92.7737 120.512 94.3355C120.512 94.9757 120.436 94.8455 119.85 94.9974C119.531 95.0653 119.225 95.1902 118.95 95.3663C118.364 95.8111 118.397 96.3753 119.167 96.6249C118.712 96.6877 118.277 96.8548 117.897 97.1131C117.767 97.2216 117.604 97.5471 117.463 97.6014C117.197 97.6293 116.927 97.6293 116.661 97.6014C116.179 97.6421 115.717 97.8116 115.324 98.0923C114.931 98.3729 114.62 98.7543 114.425 99.1963C113.34 102.061 118.7 103.656 120.024 101.128C120.176 100.846 120.154 100.422 120.36 100.281C120.519 100.26 120.679 100.26 120.838 100.281C121.814 100.205 121.207 100.694 121.369 101.366C121.532 102.039 121.836 101.768 122.183 102.636ZM118.147 99.9124C118.266 100.368 120.133 100.704 120.208 100.412C119.612 103.026 114.783 102.332 114.914 99.8148C114.979 98.5019 116.324 97.9703 117.431 97.7641C117.073 97.8292 117.561 98.5562 117.637 98.5996C118.066 98.768 118.539 98.7909 118.982 98.6647C118.581 98.8708 117.995 99.4025 118.147 99.9124ZM121.402 100.314C121.517 100.298 121.634 100.298 121.749 100.314C121.65 100.417 121.573 100.539 121.521 100.672C121.478 100.531 121.435 100.422 121.402 100.314ZM123.897 100.639C123.409 101.117 122.313 102.451 121.847 101.507C121.456 100.737 122.237 100.759 122.378 100.162C122.52 99.5652 122.227 99.8365 121.847 99.8473L120.48 99.9124C120.067 99.9124 118.733 100.227 118.689 99.6086C118.646 98.9902 120.241 98.7081 120.61 98.5236C121.239 98.2198 121.109 97.992 120.512 97.9269C119.427 97.8184 117.963 98.567 117.952 97.9269C117.941 97.2867 119.623 97.1891 119.959 97.124C120.295 97.0589 121.044 96.9938 120.588 96.5164C120.306 96.2234 118.581 96.6466 119.145 95.7894C119.406 95.4097 122.151 94.8346 122.606 95.1818C122.73 95.6365 122.814 96.1012 122.856 96.5706C123.129 97.7927 123.729 98.9176 124.592 99.8256C124.375 100.129 124.136 100.39 123.897 100.639ZM155.362 95.3337C153.242 95.1711 151.12 95.6392 149.265 96.6791C145.066 98.7189 136.039 100.531 128.65 99.9341C125.981 99.7063 125.275 99.6195 124.06 97.3518C123.538 96.5191 123.26 95.5569 123.257 94.5742C123.467 93.6248 124.01 92.7819 124.787 92.1981C143.232 73.3191 172.527 71.1382 191.862 84.0497C192.018 84.1424 192.167 84.2476 192.307 84.3644C192.383 84.8635 192.502 85.6338 192.535 86.0027C192.817 89.3228 194.911 93.8256 198.057 94.8346C200.01 95.4748 202.94 94.227 202.397 91.7641C202.538 94.5851 198.253 95.746 195.724 92.4042C194.018 90.0683 192.902 87.3548 192.469 84.4946C192.914 84.8092 193.055 85.1781 193.554 84.8852C194.26 84.4837 194.401 82.943 194.585 82.7152C194.932 82.2812 195.898 83.1275 196.755 82.3354C196.938 82.1303 197.074 81.8889 197.157 81.6271C197.239 81.3653 197.265 81.089 197.233 80.8164C197.154 80.5023 197.096 80.1834 197.059 79.8616C197.059 79.6229 197.243 79.4493 197.276 79.2323C197.363 78.5596 196.896 78.3969 196.495 77.9195C196.13 77.4774 195.904 76.9378 195.844 76.3679C195.757 75.5759 195.952 74.0677 197.059 74.1979C198.166 74.3281 198.144 75.8146 198.708 76.5307C198.877 76.7074 199.095 76.8291 199.334 76.8801C199.573 76.931 199.821 76.9087 200.048 76.8162C200.274 76.7237 200.467 76.5651 200.601 76.3613C200.736 76.1575 200.806 75.9178 200.802 75.6735C200.802 74.2739 200.271 72.7983 200.184 71.3335C202.549 71.5071 202.972 70.4655 203.678 70.6283C204.155 70.7368 204.155 71.2142 206.151 72.6681C208.443 74.239 211.133 75.1269 213.909 75.2287C213.754 76.8755 213.489 78.5102 213.117 80.122C212.607 82.4656 211.848 85.2649 210.046 86.9792C208.517 88.4548 206.075 88.4765 204.144 87.8906C203.68 87.7316 203.227 87.5432 202.788 87.3264C202.234 87.0877 202.213 87.0335 202.007 87.6519C201.69 88.3108 201.54 89.0373 201.571 89.7676C201.601 90.4979 201.81 91.2096 202.18 91.84C200.932 89.5615 203.189 88.368 205.186 88.8129C206.057 89.1088 206.987 89.1864 207.895 89.0389C208.803 88.8913 209.661 88.5231 210.394 87.9666C211.341 87.6533 212.337 87.5136 213.334 87.5543C216.669 87.332 220.016 87.3538 223.349 87.6194C225.367 87.8147 227.027 88.444 228.98 87.5543C236.021 84.2993 237.985 83.9412 254.26 81.3806C254.846 81.283 255.953 80.8707 256.517 81.207C256.81 81.3698 258.427 83.8327 258.351 84.755C258.157 85.6115 257.759 86.4083 257.19 87.0769C251.71 95.1059 243.378 100.097 234.209 103.623C225.041 107.149 215.113 107.648 205.544 106.878C206.129 105.585 206.555 104.226 206.813 102.831C206.162 105.12 202.82 112.715 201.215 114.31C200.781 114.744 200.998 114.571 200.401 114.441C198.231 113.931 198.133 117.327 194.878 113.573C191.818 110.046 189.128 112.965 187.381 111.999C186.155 111.327 186.057 109.384 185.319 108.299C184.804 107.588 184.127 107.009 183.344 106.611C182.561 106.213 181.695 106.007 180.817 106.01C179.157 105.912 177.117 106.325 175.869 104.925C174.621 103.525 174.35 101.431 172.798 100.184C170.878 98.6321 168.849 99.8582 168.372 96.9287C168.328 96.9721 166.093 96.3319 155.308 95.3337H155.362ZM202.017 89.0082C202.159 88.5742 202.31 88.1402 202.462 87.7062C204.177 88.8454 204.437 87.9991 201.974 88.9756L202.017 89.0082ZM151.63 103.851C153.298 101.115 155.299 98.597 157.587 96.3536C157.825 96.1692 165.247 96.8744 165.301 96.907C165.616 97.0589 165.551 97.1999 165.627 97.6014C165.741 98.4193 166.048 99.1985 166.521 99.8754C166.995 100.552 167.621 101.108 168.35 101.497C170.52 102.582 170.52 100.987 172.451 104.903C175.619 111.207 180.252 107.214 182.661 109.656C184.527 111.544 183.833 115.558 189.269 114.853C190.354 114.723 191.504 114.321 192.383 115.07C193.598 116.155 194.379 118.943 198.383 117.913C196.365 120.799 196.885 121.515 196.213 123.869C195.29 127.309 191.048 130.282 187.598 131.464C185.283 132.154 182.832 132.251 180.469 131.746C161.959 128.654 150.849 108.961 150.523 106.987C150.534 105.848 150.923 104.744 151.63 103.851ZM178.343 145.189C172.744 145.678 173.515 145.765 173.2 145.265C172.885 144.766 172.853 144.289 172.213 142.998C176.01 143.226 176.683 144.43 178.375 145.189H178.343ZM83.8501 167.454C83.4921 162.625 82.1467 155.725 87.8863 153.685C89.7851 152.991 141.952 149.215 142.06 149.226C142.603 149.291 142.505 149.302 142.657 149.985C146.292 166.087 138.903 182.296 126.567 193.06C127.413 193.96 128.281 194.839 129.171 195.707L128.379 196.336C127.294 195.251 126.209 194.166 125.124 192.984C129.415 189.324 133.115 185.024 136.093 180.235C119.116 181.682 102.118 183.049 85.0979 184.336L83.8501 167.454ZM132.968 199.353C131.753 201.523 137.699 208.185 134.574 208.217C133.315 208.217 131.775 206.297 130.983 205.494C129.553 204.068 128.222 202.545 127.001 200.937C126.469 200.221 126.067 199.656 126.599 198.821C127.375 197.953 128.228 197.158 129.149 196.445C129.615 195.989 129.615 196.174 130.093 196.629C133.923 200.318 132.827 199.222 132.968 199.353ZM260.933 249.849C206.39 252.604 156.089 255.979 102.154 261.133C96.0021 261.718 91.6947 261.274 91.1305 255.089C90.3493 246.604 90.8592 251.4 86.9098 206.166C98.975 204.973 112.407 203.693 123.995 202.629C124.948 202.411 125.926 202.32 126.903 202.358C127.521 202.499 128.227 203.725 128.704 204.235C129.959 205.695 131.371 207.012 132.914 208.163C134.259 209.074 136.408 209.324 136.049 207.078C135.626 204.42 132.534 201.273 133.294 199.689C136.842 203.042 137.558 201.707 141.474 199.689C154.201 193.155 164.312 182.466 170.129 169.396C173.178 162.43 175.663 154.054 173.601 146.47C193.045 144.897 208.18 143.215 220.007 141.902L248.217 139.83C256.951 140.198 260.542 142.857 262.43 149.671C265.197 170.459 264.828 167.465 265.023 169.667C263.352 169.559 167.026 177.588 166.939 177.642C160.621 187.74 151.6 195.867 140.899 201.1C158.91 199.494 266.564 190.369 266.673 190.391C267.237 190.532 266.89 190.043 267.15 190.792C267.15 190.901 269.559 214.575 270.492 241.136C270.72 248.362 267.443 249.556 260.933 249.849Z" fill="black"/>
</svg>
