<svg width="352" height="319" viewBox="0 0 352 319" fill="none" xmlns="http://www.w3.org/2000/svg">
<rect width="352" height="319" rx="16" fill="#F7F6F3"/>
<path d="M99.383 155.554C97.407 139.042 98.296 122.461 101.909 106.137C102.434 103.766 104.607 105.923 119.926 102.492C121.098 102.23 122.26 101.956 123.411 101.673C123.927 100.718 124.499 99.7671 125.135 98.8311C111.796 101.998 101.328 103.074 100.955 103.399C100.293 103.975 100.087 104.219 99.624 106.203C95.166 125.313 95.05 145.56 98.631 164.967C98.808 161.88 99.059 158.709 99.382 155.553L99.383 155.554Z" fill="black"/>
<path d="M248.84 116.049C246.22 113.541 241.803 110.852 239.927 110.185C237.315 109.255 214.117 107.031 181.275 87.466C169.003 80.156 170.532 78.864 165.968 82.129C164.37 83.272 162.697 84.355 160.966 85.38C161.72 85.495 162.468 85.629 163.211 85.783C169.217 82.063 168.3 81.293 169.714 82.353C184.022 93.083 209.588 105.783 234.374 110.828C237.048 111.372 238.55 110.611 238.129 113.117C237.505 116.83 236.037 139.296 225.274 165.442C211.197 199.639 182.139 231.068 154.639 245.643C152.552 246.749 150.448 248.267 147.599 246.042C141.095 240.962 136.498 236.969 130.491 229.809C120.05 217.364 116.602 211.31 112.013 200.475C111.284 200.197 110.51 199.899 109.632 199.57C109.53 199.532 109.429 199.494 109.329 199.456C116.389 215.202 126.087 229.3 137.964 240.336C140.184 242.399 155.693 255.858 158.785 254.958C168.07 252.256 194.186 234.839 212.334 212.389C245.116 171.835 250.685 117.818 248.839 116.051L248.84 116.049ZM247.524 117.409C243.185 169.825 215.019 220.483 167.641 248.749C157.344 254.892 158.032 253.962 155.927 252.398C155.393 252.001 152.438 249.772 152.364 249.697C151.466 248.793 151.159 249.936 158.317 245.964C182.632 232.473 203.38 209.34 216.91 186.994C228.21 168.331 233.284 152.697 236.945 134.527C241.937 109.756 238.52 111.233 242.048 113.193C243.813 114.173 245.413 115.404 247.09 116.517C247.539 116.815 247.536 116.825 247.524 117.409Z" fill="black"/>
<path d="M139.198 119.849C172.776 120.71 172.359 124.881 172.769 120.941C174.106 108.082 167.04 100.858 155.624 100.198C149.87 103.036 144.023 105.183 138.544 106.82C137.093 108.81 136.002 111.219 135.202 114.014C134.619 116.052 134.449 117.54 134.453 119.361C134.454 120.016 134.41 119.726 139.198 119.849Z" fill="black"/>
<path d="M117.209 120.569C118.717 120.541 118.231 119.795 118.301 119.435C118.573 118.036 118.874 114.889 119.845 111.039C114.844 111.851 111.607 112.166 111.256 112.428C110.866 112.718 110.526 113.076 110.421 113.596C109.761 116.844 109.223 120.032 108.797 123.158C111.271 121.627 114.707 120.616 117.209 120.569Z" fill="black"/>
<path d="M224.297 118.489C223.026 118.048 208.002 116.082 188.445 106.359C188.184 106.23 187.928 106.101 187.674 105.974C188.024 107.085 188.309 108.238 188.524 109.432C190.608 121.001 186.969 124.824 188.684 125.293C197.174 127.618 201.289 129.149 202.843 138.712C204.67 149.957 200.354 178.874 196.382 194.777C209.259 176.554 221.978 145.865 225.363 120.283C225.38 119.002 225.25 118.819 224.298 118.489H224.297Z" fill="black"/>
<path d="M172.534 209.312C160.704 209.312 151.483 210.289 124.724 204.211C136.692 223.975 150.866 234.122 152.964 233.482C158.138 231.904 165.332 226.162 168.303 223.904C176.083 217.992 181.031 213.376 185.673 208.154C181.462 209.05 176.497 209.092 172.534 209.312Z" fill="black"/>
<path d="M202.843 138.712C201.289 129.149 197.174 127.618 188.684 125.293C186.969 124.823 190.608 121.001 188.524 109.432C184.573 87.4972 157.088 79.6012 137.488 88.4582C120.139 96.2982 119.094 115.344 118.3 119.436C118.23 119.796 118.716 120.541 117.208 120.569C113.445 120.64 107.568 122.89 106.033 125.81C99.0541 139.088 96.4511 180.326 99.7181 190.273C100.639 193.077 100.196 196.04 109.631 199.57C114.448 201.372 116.146 202.254 124.302 204.116C151.387 210.3 160.642 209.313 172.534 209.313C180.182 208.889 191.565 209.126 194.053 202.611C198.343 191.376 205.041 152.245 202.842 138.713L202.843 138.712ZM120.503 120.005C120.563 117.253 122.748 107.556 125.88 102.131C129.12 96.5182 132.36 93.7802 136.754 91.2962C142.239 88.1962 152.423 86.9882 153.638 86.9642C160.648 86.8252 167.506 88.9232 172.924 91.7962C180.742 95.9412 183.975 100.849 185.56 107.125C186.991 112.792 186.946 119.559 186.174 123.782C185.882 125.377 186.117 124.603 175.27 123.043C174.886 122.988 174.793 122.89 174.851 122.457C178.787 93.0892 142.988 92.0052 134.691 109.109C132.343 113.949 132.458 119.655 132.454 119.682C132.355 120.241 127.839 119.835 127.839 119.988C120.193 119.988 120.494 120.446 120.503 120.005ZM172.769 120.941C172.359 124.881 172.776 120.71 139.198 119.849C134.41 119.726 134.453 120.017 134.452 119.361C134.449 117.54 134.618 116.051 135.201 114.014C137.802 104.922 143.49 99.9042 154.583 100.156C166.608 100.429 174.145 107.696 172.768 120.94L172.769 120.941ZM193.938 194.755C191.995 203.261 192.102 204.052 184.257 205.843C179.974 206.821 160.526 207.291 156.169 206.737C152.985 206.332 152.823 207.952 130.341 203.277C97.0461 196.355 103.041 193.62 100.691 182.485C99.3361 152.394 105.599 129.95 107.467 127.383C108.987 125.295 110.264 125.022 111.518 124.123C111.912 123.841 111.75 124.022 113.753 123.357C115.199 122.877 117.452 122.803 117.476 122.803C138.108 121.108 155.475 122.845 175.986 125.637C186.126 127.017 198.113 127.995 199.971 135.791C203.051 148.715 196.742 182.486 193.939 194.754L193.938 194.755Z" fill="black"/>
<path d="M136.044 145.466C132.906 151.25 133.945 158.951 139.688 163.964C139.931 164.176 140.026 164.413 139.981 164.72C139.535 167.793 138.833 175.03 138.85 178.856C138.879 185.248 139.148 188.782 144.554 191.065C148.381 192.682 152.373 191.184 153.977 186.211C154.648 184.129 154.691 182.596 155.487 175.379C156.484 166.346 155.704 166.627 156.608 166.235C160.925 164.363 165.109 158.991 165.003 152.638C165.617 138.317 143.617 131.507 136.043 145.465L136.044 145.466ZM144.801 170.688C142.868 188.939 145.603 190.831 142.512 188.36C140.412 186.681 140.321 182.678 140.353 179.753C140.483 167.901 142.664 164.451 141.351 163.3C136.539 159.086 134.088 152.191 138.31 145.364C139.293 143.775 141.553 142.08 141.705 141.936C143.401 140.333 145.976 140.16 144.987 141.253C138.493 148.437 140.989 156.377 145.657 159.99C146.559 160.688 145.883 160.458 144.799 170.687L144.801 170.688Z" fill="black"/>
<path d="M189.004 139.67C188.686 152.592 184.019 204.007 181.888 198.005C181.348 196.485 187.551 141.026 187.511 138.776C187.426 134.008 186.252 133.453 186.957 133.069C187.469 132.79 188.061 133.631 188.246 134.119C188.918 135.893 189.052 137.773 189.005 139.671L189.004 139.67Z" fill="black"/>
<path d="M94.896 231.403C94.322 231.208 99.635 225.736 99.538 224.72C99.457 223.87 98.446 223.379 97.761 223.988C96.829 224.818 95.086 226.653 93.73 228.036C93.158 228.62 93.458 223.81 91.48 220.114C91.009 219.234 89.855 219.444 89.822 220.513C89.755 222.691 90.852 228.467 91.224 230.209C89.344 229.733 83.941 228.245 83.896 230.209C83.886 230.648 84.137 230.907 84.475 231.074C88.525 233.069 89.613 232.614 89.189 233.178C86.931 236.183 86.214 236.972 85.826 238.128C85.549 238.951 85.767 239.868 86.676 239.875C87.671 239.883 88.001 239.059 90.212 236.388C93.139 232.852 91.591 233.781 93.531 239.148C94.014 240.484 94.135 240.819 94.763 240.725C95.847 240.563 95.127 236.982 94.901 235.028C94.792 234.087 100.249 237.197 101.027 235.208C101.676 233.55 98.768 232.717 94.896 231.401V231.403Z" fill="black"/>
<path d="M229.652 76.368C228.874 76.131 231.562 74.939 233.511 72.231C234.073 71.45 233.368 70.622 231.451 71.815C227.501 74.273 227.452 75.186 227.334 74.58C226.904 72.382 226.672 70.699 225.981 69.4619C225.252 68.1559 223.332 67.7689 223.916 71.911C224.638 77.026 225.481 75.043 221.228 75.26C219.289 75.359 218.594 76.527 219.183 77.295C219.53 77.748 220.11 77.837 221.302 78.091C223.626 78.586 223.176 77.716 219.451 81.373C219.059 81.758 218.56 82.617 219.086 83.206C220.004 84.233 221.581 82.66 225.015 79.956C225.478 79.591 225.094 79.946 226.227 83.162C226.607 84.239 226.843 84.968 227.627 84.973C228.287 84.978 228.97 84.268 228.795 82.962C227.857 75.978 227.297 80.707 233.452 78.697C235.573 78.004 231.646 76.976 229.652 76.368Z" fill="black"/>
<path d="M227.791 243.977C226.978 247.06 231.8 247.183 231.529 244.499C231.711 242.594 228.476 241.377 227.791 243.977Z" fill="black"/>
<path d="M118.391 65.0061C117.016 64.9221 112.926 66.4691 114.387 69.5231C115.516 71.8831 118.796 72.4851 120.705 70.3511C122.852 67.9511 120.666 64.8441 118.391 65.0061ZM117.904 69.7271C115.782 69.8771 115.432 67.4171 116.174 67.1641C116.864 66.9291 117.527 66.5721 118.291 66.6221C120.469 66.7651 119.831 69.8941 117.904 69.7271Z" fill="black"/>
<path d="M267.825 178.171C266.197 174.515 260.745 175.938 259.122 177.757C255.871 181.398 260.782 188.482 265.807 184.191C267.507 182.739 268.659 180.044 267.825 178.171ZM262.414 183.464C261.714 183.56 260.011 181.917 260.443 179.985C260.726 178.716 261.968 177.73 262.557 177.836C262.937 177.905 263.336 177.848 263.725 177.875C267.433 178.132 265.465 183.323 262.414 183.464Z" fill="black"/>
</svg>
