<svg width="56" height="56" viewBox="0 0 56 56" fill="none" xmlns="http://www.w3.org/2000/svg">
<path d="M36.1558 37.5425L33.0415 27.9562L41.1941 22.0332H31.1165L28.0018 12.447L28.0008 12.4444H38.08L41.1954 22.0321L41.1956 22.0319L41.1982 22.0305C43.0074 27.5925 41.144 33.9188 36.1558 37.5424V37.5425ZM19.8469 37.5425L19.8444 37.5444L27.9992 43.4691L36.1558 37.5428L28.0018 31.618L19.847 37.5425H19.8469ZM14.8068 22.0307C12.9022 27.8939 15.113 34.1066 19.8454 37.5437L19.8462 37.5407L22.9611 27.9549L14.8102 22.033H24.8854L28.0002 12.4469L28.0008 12.4443H17.9212L14.8067 22.0307H14.8068Z" fill="#EB5424"/>
</svg>
