<svg width="56" height="56" viewBox="0 0 56 56" fill="none" xmlns="http://www.w3.org/2000/svg">
<path d="M36.3699 32.0473V33.4697H38.9395C39.4661 33.4697 40.3698 33.0846 40.4012 32.008V31.458C40.4012 30.5385 39.6468 29.9963 38.9395 29.9963H37.6586V29.3362H40.1969V27.906H37.7608C37.1321 27.906 36.2913 28.4246 36.2913 29.3912V29.8863C36.2913 30.8529 37.1243 31.3479 37.7608 31.3479C39.5289 31.3558 37.3365 31.3479 38.971 31.3479V32.0395L36.3699 32.0473ZM22.6021 31.7016C22.6021 31.7016 23.9773 31.5837 23.9773 29.8077C23.9773 28.0317 22.3113 27.8667 22.3113 27.8667H19.3094V33.4697H20.8182V32.1181L22.1227 33.4697H24.3545L22.6021 31.7016ZM22.0206 30.5542H20.8182V29.2733H22.0284C22.0284 29.2733 22.3663 29.3991 22.3663 29.9099C22.3663 30.4207 22.0206 30.5542 22.0206 30.5542ZM27.7021 27.906H26.1698C25.0775 27.906 24.7081 28.8961 24.7081 29.3676V33.4697H26.2405V32.4874H27.6786V33.4697H29.1638V29.3676C29.1638 28.1732 28.0793 27.906 27.7021 27.906ZM27.6786 30.9H26.2326V29.5405C26.2326 29.5405 26.2326 29.234 26.712 29.234H27.2385C27.6628 29.234 27.6707 29.5405 27.6707 29.5405V30.9H27.6786ZM29.8632 27.906H31.4584V33.4697H29.8632V27.906ZM33.698 32.0316V27.906H32.1107V33.4697H35.8434V32.0316H33.698Z" fill="#CC0000"/>
<path d="M9.84021 33.4695H16.0483C16.0483 33.4695 14.8617 28.0551 18.7908 25.8627C19.6474 25.4462 22.3742 23.8902 26.8378 27.1907C26.9792 27.0728 27.1128 26.9785 27.1128 26.9785C27.1128 26.9785 23.0265 22.9001 18.4765 23.3559C16.1897 23.5602 13.3765 25.6426 11.7262 28.393C10.076 31.1435 9.84021 33.4695 9.84021 33.4695Z" fill="#CC0000"/>
<path d="M9.84021 33.4695H16.0483C16.0483 33.4695 14.8617 28.0551 18.7908 25.8627C19.6474 25.4462 22.3742 23.8902 26.8378 27.1907C26.9792 27.0728 27.1128 26.9785 27.1128 26.9785C27.1128 26.9785 23.0265 22.9001 18.4765 23.3559C16.1897 23.5602 13.3765 25.6426 11.7262 28.393C10.076 31.1435 9.84021 33.4695 9.84021 33.4695Z" fill="#CC0000"/>
<path d="M9.84021 33.4698H16.0483C16.0483 33.4698 14.8617 28.0554 18.7908 25.8629C19.6474 25.4464 22.3742 23.8905 26.8378 27.191C26.9792 27.0731 27.1128 26.9788 27.1128 26.9788C27.1128 26.9788 23.0265 22.9003 18.4765 23.3561C16.1819 23.5604 13.3686 25.6429 11.7183 28.3933C10.0681 31.1437 9.84021 33.4698 9.84021 33.4698ZM22.775 23.7962L22.8064 23.2697C22.7357 23.2304 22.5393 23.1361 22.0442 22.9946L22.0128 23.5133C22.2721 23.5997 22.5235 23.694 22.775 23.7962Z" fill="#CC0000"/>
<path d="M22.0284 25.4619L21.997 25.957C22.2563 25.9649 22.5157 25.9963 22.775 26.0513L22.8064 25.5641C22.5392 25.5091 22.2799 25.4776 22.0284 25.4619ZM19.1209 23.0101H19.1995L19.0423 22.5308C18.7987 22.5308 18.5472 22.5465 18.2879 22.5779L18.4372 23.0416C18.6651 23.018 18.893 23.0101 19.1209 23.0101ZM19.4981 25.902L19.6788 26.4442C19.9067 26.3342 20.1346 26.2399 20.3625 26.1692L20.1896 25.6505C19.9224 25.7291 19.6945 25.8155 19.4981 25.902ZM15.9304 23.8352L15.5768 23.293C15.3803 23.3952 15.176 23.5052 14.9638 23.6309L15.3253 24.181C15.5296 24.0553 15.7261 23.9374 15.9304 23.8352ZM17.5413 27.3715L17.9185 27.9373C18.0521 27.7408 18.2093 27.5601 18.3822 27.3793L18.0286 26.845C17.8478 27.01 17.6828 27.1907 17.5413 27.3715ZM16.4019 29.9019L17.0384 30.4048C17.0698 30.0983 17.1249 29.7919 17.2034 29.4854L16.6376 29.0375C16.5355 29.3282 16.4648 29.619 16.4019 29.9019ZM12.9599 26.1692L12.402 25.682C12.1977 25.8784 12.0012 26.0749 11.8205 26.2713L12.4256 26.79C12.5906 26.5778 12.7713 26.3656 12.9599 26.1692ZM10.5867 29.6818L9.68302 29.3518C9.53371 29.6897 9.36868 30.0826 9.2901 30.2948L10.1938 30.6248C10.296 30.3577 10.461 29.9726 10.5867 29.6818ZM16.284 31.8979C16.2997 32.3144 16.339 32.6523 16.3783 32.888L17.3213 33.2259C17.2506 32.9195 17.1799 32.5737 17.1327 32.2044L16.284 31.8979Z" fill="#CC0000"/>
</svg>
