<svg width="56" height="56" viewBox="0 0 56 56" fill="none" xmlns="http://www.w3.org/2000/svg">
<path d="M21.9019 38.5139C21.8788 38.474 21.8582 38.4328 21.8402 38.3905C21.716 38.1096 21.6778 37.7997 21.7303 37.4981H14.3754L25.3057 18.7164L28.8941 24.8759L29.9344 23.0784L26.8063 17.6978C26.6564 17.4222 26.4381 17.1877 26.1715 17.0158C25.9049 16.8438 25.5983 16.7398 25.2799 16.7134C24.9621 16.7275 24.6548 16.8284 24.3929 17.0046C24.1309 17.1808 23.9249 17.4253 23.7982 17.7101L12.7251 36.7197C12.5596 36.9881 12.4641 37.2921 12.4472 37.6049C12.4302 37.9178 12.4923 38.2299 12.6279 38.5139C12.7982 38.7761 13.0402 38.9865 13.3266 39.1214C13.613 39.2563 13.9324 39.3102 14.2486 39.2771H23.5231C23.2069 39.3107 22.8873 39.257 22.6008 39.1221C22.3143 38.9872 22.0723 38.7764 21.9024 38.5139H21.9019Z" fill="#00C492"/>
<path d="M43.2247 36.719L34.1252 21.0685C33.9759 20.79 33.7572 20.5527 33.4893 20.3785C33.2213 20.2043 32.9127 20.0988 32.592 20.0718C32.2747 20.0852 31.9675 20.1855 31.7057 20.3611C31.4439 20.5368 31.238 20.7808 31.1113 21.0652L29.9344 23.0777L30.9815 24.8757L32.6017 22.0748L41.604 37.4975H38.1808C38.2246 37.7524 38.1999 38.014 38.1094 38.2569C38.0903 38.3106 38.0664 38.3625 38.0379 38.4121L38.0087 38.4691C37.8228 38.7255 37.575 38.9333 37.2872 39.0741C36.9994 39.2148 36.6806 39.2841 36.3589 39.276H41.7139C42.0356 39.2844 42.3546 39.2152 42.6424 39.0744C42.9302 38.9336 43.1779 38.7257 43.3637 38.4691C43.5104 38.1938 43.5751 37.884 43.5505 37.5746C43.5259 37.2653 43.4131 36.9689 43.2247 36.719Z" fill="#008776"/>
<path d="M38.0093 38.47L38.0384 38.413C38.0667 38.3634 38.0905 38.3115 38.1094 38.2578C38.2 38.0149 38.2246 37.7533 38.1809 37.4984C38.1303 37.2234 38.0292 36.9597 37.8824 36.72L30.9884 24.8761L29.935 23.0786L28.8879 24.8761L21.9963 36.72C21.8625 36.9626 21.7725 37.2259 21.7304 37.4984C21.6749 37.7992 21.7098 38.1093 21.831 38.3912C21.849 38.4335 21.8696 38.4747 21.8927 38.5146C22.0631 38.7767 22.3051 38.9871 22.5916 39.1219C22.878 39.2567 23.1973 39.3105 23.5134 39.2773H36.3492C36.6725 39.2867 36.9931 39.2179 37.2826 39.0771C37.5722 38.9364 37.8216 38.728 38.0088 38.4704L38.0093 38.47ZM29.9345 26.6741L36.2359 37.4979H23.6359L29.9345 26.6741Z" fill="#2D4A5D"/>
</svg>
