<svg width="57" height="56" viewBox="0 0 57 56" fill="none" xmlns="http://www.w3.org/2000/svg">
<path d="M28.0586 12.5293L28.8935 14.0886C29.0812 14.3764 29.2845 14.6311 29.524 14.8683C30.2262 15.5579 30.8807 16.2938 31.4831 17.0712C32.8977 18.9183 33.8518 20.9695 34.5332 23.1879C34.9418 24.5431 35.1637 25.9333 35.1803 27.339C35.2488 31.5416 33.8 35.1502 30.8789 38.1493C30.4038 38.6249 29.8905 39.0612 29.3441 39.454C29.0548 39.454 28.9179 39.2333 28.7986 39.0301C28.5815 38.6533 28.4369 38.2396 28.3724 37.81C28.2698 37.3016 28.2023 36.7932 28.2356 36.2682V36.031C28.2121 35.9805 27.9569 12.6489 28.0586 12.5293Z" fill="#599636"/>
<path d="M28.0586 12.4778C28.0244 12.4097 27.9901 12.4613 27.9559 12.4943C27.9725 12.8346 27.8533 13.1379 27.6666 13.4276C27.4613 13.7153 27.1895 13.936 26.9168 14.1732C25.4015 15.4778 24.2089 17.0537 23.2538 18.8162C21.9829 21.1882 21.3279 23.7304 21.1422 26.4068C21.0571 27.3721 21.4491 30.7785 21.7551 31.7614C22.59 34.3706 24.0896 36.557 26.032 38.4546C26.5091 38.9115 27.0194 39.3354 27.5473 39.7427C27.7008 39.7427 27.7174 39.6066 27.7526 39.5055C27.8199 39.2892 27.8712 39.0682 27.9061 38.8444L28.2482 36.3032L28.0586 12.4778Z" fill="#6CAC48"/>
<path d="M28.8934 40.4862C28.9276 40.0973 29.1153 39.7745 29.3196 39.4528C29.1143 39.3682 28.9618 39.2 28.8425 39.0124C28.7397 38.8347 28.6546 38.6475 28.5884 38.4534C28.3498 37.7418 28.299 36.9952 28.2306 36.268V35.8276C28.1455 35.8957 28.1279 36.4712 28.1279 36.5567C28.0782 37.3253 27.9756 38.0896 27.821 38.8442C27.7701 39.1495 27.7359 39.4537 27.5472 39.725C27.5472 39.759 27.5472 39.793 27.5639 39.8436C27.8708 40.7418 27.9549 41.6566 28.0067 42.5889V42.9292C28.0067 43.3355 27.9901 43.25 28.3293 43.3861C28.4662 43.4366 28.6187 43.4541 28.7555 43.5552C28.8582 43.5552 28.8748 43.4706 28.8748 43.4026L28.824 42.8436V41.2843C28.8073 41.0121 28.8582 40.7418 28.8924 40.4871L28.8934 40.4862Z" fill="#C2BFBF"/>
</svg>
