<svg width="57" height="56" viewBox="0 0 57 56" fill="none" xmlns="http://www.w3.org/2000/svg">
<path d="M42.5155 21.5952C42.5153 21.0735 42.4031 20.6125 42.1762 20.2168C41.9533 19.8277 41.6195 19.5016 41.1718 19.2438C37.4761 17.1247 33.7768 15.012 30.0823 12.8908C29.0863 12.3189 28.1206 12.3398 27.1319 12.9198C25.6609 13.7825 18.2961 17.9785 16.1015 19.2426C15.1977 19.7629 14.7579 20.5592 14.7577 21.5942C14.7563 25.8559 14.7577 30.1175 14.7563 34.3792C14.7565 34.8895 14.8639 35.3415 15.0808 35.7313C15.3038 36.1321 15.6423 36.4671 16.1003 36.7308C18.295 37.9949 25.6608 42.1906 27.1315 43.0535C28.1206 43.6339 29.0863 43.6546 30.0826 43.0826C33.7772 40.9612 37.4767 38.8486 41.173 36.7295C41.631 36.466 41.9695 36.1307 42.1925 35.7302C42.4091 35.3405 42.5167 34.8884 42.5169 34.3781C42.5169 34.3781 42.5169 25.857 42.5155 21.5952Z" fill="#5C8DBC"/>
<path d="M28.6791 27.9453L15.0808 35.7314C15.3038 36.1322 15.6423 36.4673 16.1003 36.7309C18.295 37.995 25.6608 42.1907 27.1315 43.0536C28.1205 43.634 29.0863 43.6547 30.0826 43.0827C33.7772 40.9613 37.4767 38.8488 41.173 36.7297C41.631 36.4661 41.9695 36.1308 42.1925 35.7303L28.6791 27.9453Z" fill="#1A4674"/>
<path d="M24.6514 30.2516C25.4427 31.6253 26.9302 32.5519 28.6366 32.5519C30.3535 32.5519 31.8495 31.6135 32.6368 30.2251L28.6791 27.9453L24.6514 30.2516Z" fill="#1A4674"/>
<path d="M42.5155 21.5952C42.5153 21.0735 42.4031 20.6125 42.1762 20.2168L28.6791 27.9452L42.1925 35.7302C42.4091 35.3405 42.5167 34.8884 42.5169 34.3781C42.5169 34.3781 42.5169 25.857 42.5155 21.5952Z" fill="#1B598E"/>
<path d="M41.7725 28.5015H40.7165V29.5518H39.6603V28.5015H38.6044V27.4515H39.6603V26.4014H40.7165V27.4515H41.7725V28.5015ZM37.9193 28.5015H36.8634V29.5518H35.8074V28.5015H34.7515V27.4515H35.8074V26.4014H36.8634V27.4515H37.9193V28.5015Z" fill="white"/>
<path d="M32.6368 30.2253C31.8495 31.6137 30.3535 32.552 28.6366 32.552C26.9302 32.552 25.4427 31.6255 24.6515 30.2517C24.254 29.5624 24.0452 28.7815 24.046 27.9869C24.046 25.4658 26.1014 23.4219 28.6366 23.4219C30.332 23.4219 31.8117 24.3369 32.6069 25.6966L36.6194 23.3989C35.0245 20.6612 32.047 18.8193 28.6366 18.8193C23.5451 18.8193 19.4177 22.9239 19.4177 27.9869C19.4177 29.6479 19.8621 31.2056 20.6387 32.5492C22.2295 35.3014 25.2155 37.1546 28.6366 37.1546C32.064 37.1546 35.0547 35.2939 36.6432 32.5336L32.6368 30.2253Z" fill="white"/>
</svg>
