<svg width="57" height="56" viewBox="0 0 57 56" fill="none" xmlns="http://www.w3.org/2000/svg">
<path d="M12.6426 12.4443H43.9275V43.5554H12.6426V12.4443Z" fill="#34BDB2"/>
<path d="M33.2296 23.0222C31.5779 22.0692 30.1117 21.3198 28.1935 21.3528C27.0961 21.3718 26.1539 21.9649 25.9558 23.0506C25.7714 24.0606 26.6742 24.6208 27.6135 24.9647C29.1713 25.5352 30.5274 26.1375 32.058 26.7717C34.8406 27.9249 36.2673 29.7924 36.0987 32.1886C35.8841 35.2373 34.039 37.424 31.1067 38.1449C27.275 39.087 23.5542 37.652 20.4104 35.6487C21.2039 34.4467 22.1245 33.6261 22.9132 32.4314C24.7294 33.2002 26.1563 34.239 28.0564 34.401C29.3961 34.5152 30.9142 34.4517 31.2152 32.8868C31.4865 31.4756 30.2515 30.7191 29.0469 30.2965C27.6128 29.7935 26.1814 29.1782 24.775 28.607C22.1753 27.5511 21.1175 25.4857 21.2955 23.0526C21.2955 21.626 22.4858 18.7425 25.4043 17.8456C29.8883 16.4675 32.3588 17.8787 35.6103 19.9567C34.7467 21.0925 34.0828 21.9 33.2296 23.0222Z" fill="white"/>
</svg>
