<svg width="57" height="56" viewBox="0 0 57 56" fill="none" xmlns="http://www.w3.org/2000/svg">
<path d="M28.4237 12.5254C20.4817 12.5254 20.9775 15.9504 20.9775 15.9504L20.9864 19.4988H28.5653V20.5642H17.9761C17.9761 20.5642 12.894 19.991 12.894 27.96C12.894 35.9292 17.3298 35.6465 17.3298 35.6465H19.9771V31.9485C19.9771 31.9485 19.8344 27.5374 24.3421 27.5374H31.8591C31.8591 27.5374 36.0823 27.6052 36.0823 23.4784V16.6549C36.0823 16.6549 36.7238 12.5254 28.4237 12.5254ZM24.2447 14.9116C24.4238 14.9115 24.6012 14.9464 24.7666 15.0145C24.9321 15.0826 25.0825 15.1825 25.2091 15.3084C25.3358 15.4343 25.4362 15.5839 25.5047 15.7484C25.5731 15.913 25.6083 16.0894 25.6081 16.2675C25.6083 16.4456 25.5731 16.622 25.5047 16.7866C25.4362 16.9511 25.3358 17.1007 25.2091 17.2266C25.0825 17.3526 24.9321 17.4524 24.7666 17.5205C24.6012 17.5886 24.4238 17.6235 24.2447 17.6234C24.0656 17.6235 23.8882 17.5886 23.7227 17.5205C23.5572 17.4524 23.4069 17.3526 23.2802 17.2266C23.1536 17.1007 23.0532 16.9511 22.9847 16.7866C22.9162 16.622 22.8811 16.4456 22.8812 16.2675C22.8811 16.0894 22.9162 15.913 22.9847 15.7484C23.0532 15.5839 23.1536 15.4343 23.2802 15.3084C23.4069 15.1825 23.5572 15.0826 23.7227 15.0145C23.8882 14.9464 24.0656 14.9115 24.2447 14.9116Z" fill="url(#paint0_linear_179_999)"/>
<path d="M28.6493 43.475C36.5914 43.475 36.0955 40.0499 36.0955 40.0499L36.0866 36.5016H28.5075V35.4363H39.0968C39.0968 35.4363 44.1789 36.0095 44.1789 28.0403C44.1789 20.0712 39.7431 20.3538 39.7431 20.3538H37.0958V24.0517C37.0958 24.0517 37.2385 28.4629 32.7308 28.4629H25.2138C25.2138 28.4629 20.9906 28.395 20.9906 32.522V39.3456C20.9906 39.3456 20.3493 43.475 28.6492 43.475H28.6493ZM32.8283 41.089C32.6492 41.0891 32.4719 41.0542 32.3064 40.9861C32.1409 40.918 31.9905 40.8181 31.8639 40.6922C31.7372 40.5663 31.6368 40.4167 31.5683 40.2522C31.4999 40.0876 31.4647 39.9112 31.4649 39.7331C31.4647 39.555 31.4998 39.3786 31.5683 39.214C31.6368 39.0494 31.7372 38.8999 31.8638 38.7739C31.9905 38.648 32.1408 38.5481 32.3063 38.48C32.4718 38.4119 32.6492 38.3769 32.8283 38.3771C33.0074 38.3769 33.1848 38.4119 33.3503 38.48C33.5158 38.5481 33.6662 38.6479 33.7928 38.7739C33.9194 38.8998 34.0199 39.0493 34.0883 39.2139C34.1568 39.3785 34.1919 39.5549 34.1918 39.733C34.1919 39.9111 34.1568 40.0875 34.0883 40.252C34.0199 40.4166 33.9194 40.5661 33.7928 40.6921C33.6662 40.818 33.5158 40.9179 33.3503 40.986C33.1848 41.054 33.0074 41.089 32.8283 41.0888V41.089Z" fill="url(#paint1_linear_179_999)"/>
<defs>
<linearGradient id="paint0_linear_179_999" x1="15.9005" y1="15.3091" x2="31.3188" y2="30.6589" gradientUnits="userSpaceOnUse">
<stop stop-color="#387EB8"/>
<stop offset="1" stop-color="#366994"/>
</linearGradient>
<linearGradient id="paint1_linear_179_999" x1="25.4167" y1="25.1109" x2="41.9785" y2="40.8547" gradientUnits="userSpaceOnUse">
<stop stop-color="#FFE052"/>
<stop offset="1" stop-color="#FFC331"/>
</linearGradient>
</defs>
</svg>
