<svg width="56" height="56" viewBox="0 0 56 56" fill="none" xmlns="http://www.w3.org/2000/svg">
<path d="M42.2559 12.4443H27.2744C27.2744 14.238 27.9869 15.9581 29.2552 17.2264C30.5235 18.4947 32.2437 19.2072 34.0373 19.2072H36.7971V21.8718C36.7995 25.6035 39.8239 28.628 43.5555 28.6305V13.744C43.5555 13.0264 42.9738 12.4443 42.2559 12.4443Z" fill="#2684FF"/>
<path d="M34.8431 19.9092H19.8617C19.864 23.6408 22.8884 26.6654 26.6202 26.6678H29.38V29.3409C29.3847 33.0726 32.4112 36.095 36.1429 36.095V21.2091C36.1429 20.4913 35.5609 19.9093 34.8431 19.9093V19.9092Z" fill="url(#paint0_linear_179_872)"/>
<path d="M27.426 27.3696H12.4445C12.4445 31.1047 15.4724 34.1325 19.2073 34.1325H21.9758V36.797C21.9782 40.5252 24.9974 43.5484 28.7257 43.5555V28.6694C28.7257 27.9516 28.1438 27.3696 27.426 27.3696Z" fill="url(#paint1_linear_179_872)"/>
<defs>
<linearGradient id="paint0_linear_179_872" x1="35.8223" y1="19.9352" x2="29.4881" y2="26.5447" gradientUnits="userSpaceOnUse">
<stop offset="0.18" stop-color="#0052CC"/>
<stop offset="1" stop-color="#2684FF"/>
</linearGradient>
<linearGradient id="paint1_linear_179_872" x1="28.834" y1="27.4433" x2="21.507" y2="34.6521" gradientUnits="userSpaceOnUse">
<stop offset="0.18" stop-color="#0052CC"/>
<stop offset="1" stop-color="#2684FF"/>
</linearGradient>
</defs>
</svg>
