<svg width="57" height="56" viewBox="0 0 57 56" fill="none" xmlns="http://www.w3.org/2000/svg">
<path d="M34.1117 33.8597C35.2598 33.7408 36.1308 32.7511 36.0912 31.5633C36.0517 30.3756 35.0618 29.4254 33.8741 29.4254H33.795C32.5676 29.465 31.6175 30.4943 31.6571 31.7217C31.6967 32.3156 31.9342 32.8302 32.2905 33.1866C30.9445 35.8393 28.8858 37.7792 25.7978 39.4025C23.6995 40.511 21.522 40.907 19.3446 40.6299C17.563 40.3923 16.1774 39.6005 15.3063 38.2939C14.0395 36.3539 13.9207 34.2555 14.9897 32.1572C15.7419 30.6527 16.9295 29.5441 17.6818 28.9898C17.5234 28.4752 17.2858 27.6042 17.1671 26.9708C11.4265 31.1279 12.0204 36.7499 13.7624 39.4025C15.0688 41.3821 17.7214 42.6095 20.6511 42.6095C21.4428 42.6095 22.2346 42.5302 23.0264 42.3324C28.094 41.3425 31.9343 38.3335 34.1117 33.8597ZM41.0797 28.9503C38.0707 25.4266 33.6367 23.4867 28.5691 23.4867H27.9357C27.5794 22.7741 26.8271 22.2989 25.9957 22.2989H25.9165C24.6893 22.3385 23.7392 23.3678 23.7787 24.5953C23.8183 25.783 24.808 26.7332 25.9957 26.7332H26.0748C26.9458 26.6936 27.6981 26.1393 28.0148 25.387H28.7274C31.7363 25.387 34.5868 26.258 37.1603 27.9605C39.1397 29.267 40.565 30.9695 41.3567 33.0282C42.0298 34.6911 41.9901 36.3143 41.2775 37.7001C40.169 39.7984 38.3083 40.9466 35.8537 40.9466C34.2701 40.9466 32.7657 40.4714 31.9738 40.1151C31.5384 40.511 30.7465 41.1444 30.1922 41.5405C31.8947 42.3322 33.6367 42.7678 35.2994 42.7678C39.1001 42.7678 41.911 40.6694 42.98 38.5711C44.1281 36.2747 44.0488 32.3156 41.0797 28.9503ZM20.9678 34.5326C21.0074 35.7204 21.9971 36.6705 23.1848 36.6705H23.264C24.4913 36.631 25.4414 35.6016 25.4018 34.3742C25.3623 33.1864 24.3725 32.2363 23.1848 32.2363H23.1057C23.0264 32.2363 22.9076 32.2363 22.8286 32.2758C21.2053 29.5836 20.5323 26.6539 20.7699 23.4866C20.9281 21.1111 21.72 19.0523 23.1057 17.3498C24.2538 15.8849 26.4708 15.1722 27.9753 15.1328C32.1718 15.0535 33.9533 20.2796 34.0721 22.378C34.5868 22.4967 35.4578 22.7739 36.0517 22.9719C35.5765 16.5582 31.6175 13.2324 27.817 13.2324C24.2538 13.2324 20.9678 15.8059 19.6612 19.6067C17.8401 24.6744 19.0278 29.5441 21.2448 33.3845C21.047 33.6616 20.9281 34.0972 20.9678 34.5327V34.5326Z" fill="#764ABC"/>
</svg>
