<svg width="56" height="56" viewBox="0 0 56 56" fill="none" xmlns="http://www.w3.org/2000/svg">
<path d="M33.7811 23.017L33.7741 22.9504L33.6662 22.9596L33.673 23.0262L33.7811 23.017ZM34.5071 24.7632L34.5094 24.8L34.5853 24.7931C34.583 24.7702 34.5921 24.7334 34.6082 24.6875L34.6013 24.6208C34.5692 24.6231 34.537 24.6714 34.5071 24.7632ZM31.674 26.9622C31.6695 26.9001 31.4764 26.6589 31.095 26.2338C31.0881 26.1557 31.2191 26.0385 31.4879 25.8846L32.2553 25.2159C32.4277 24.9976 32.5288 24.6438 32.5587 24.1521L32.5494 24.0395C32.5196 23.6995 32.2738 23.426 31.8073 23.2169C31.5316 23.0308 31.0353 22.9274 30.3184 22.909C29.7256 22.9596 28.9512 23.1709 27.9977 23.5455C27.7357 23.7339 27.4371 23.9223 27.1016 24.1107L27.1062 24.1682C27.1269 24.1659 27.159 24.1544 27.1958 24.1291C27.2348 24.1245 27.2578 24.1429 27.2601 24.1797L27.3175 24.1498L27.3451 24.1475L27.3474 24.1727C27.3498 24.2026 27.1429 24.3658 26.7247 24.6576L26.7569 24.7173L26.7294 24.7196L26.6604 24.6943C26.6627 24.715 26.6329 24.7288 26.5754 24.7334L26.5777 24.7587L26.6443 24.8414C26.6237 24.8437 26.5915 24.8345 26.5479 24.8184C26.4513 24.8276 26.3571 24.8782 26.2629 24.9746L26.302 24.8046C26.4421 24.2003 26.5386 23.6649 26.5892 23.2008L26.5823 23.1709C26.4858 23.1089 26.3916 23.0216 26.3042 22.9113C26.3066 22.8401 26.3066 22.7988 26.3042 22.7895L26.2974 22.7642L26.2698 22.7712C25.9665 23.2261 25.3829 24.0027 24.5166 25.101C23.8572 25.8823 23.5171 26.3166 23.4965 26.4039C23.2277 26.6819 23.099 26.8496 23.1127 26.9071C23.0415 26.953 23.0116 26.9989 23.0231 27.0495C23.0025 27.0541 22.9887 27.0472 22.984 27.0265C22.8692 27.2126 22.6991 27.3321 22.4717 27.385L22.2327 27.4401C22.2006 27.447 22.1845 27.47 22.1868 27.509L22.1936 27.5389L22.2833 27.5182L22.2902 27.5435L22.088 27.6216L21.7295 27.7043L21.5411 27.7158C21.5135 27.7434 21.6904 27.7136 21.6215 27.7296L21.3872 27.7848C21.2447 27.8169 21.1666 27.8055 21.1528 27.748L21.1252 27.7549C21.1298 27.7802 21.1321 27.7986 21.1275 27.8146L21.1137 27.7572L20.9253 27.8008C20.9115 27.7136 20.6565 27.3965 20.1625 26.8496C20.1533 26.7439 20.3279 26.5899 20.6841 26.3901L21.6904 25.5054C21.9156 25.2159 22.0489 24.7518 22.0926 24.113L22.0788 23.9637C22.0397 23.5133 21.7134 23.1503 21.0999 22.87C20.7369 22.6241 20.0843 22.4931 19.1423 22.4725C18.3611 22.5391 17.3408 22.8171 16.0863 23.3019C15.7417 23.5523 15.3488 23.8005 14.9076 24.0464L14.9145 24.1245C14.9444 24.1222 14.9834 24.1061 15.0316 24.0786C15.0822 24.0739 15.1098 24.0969 15.1144 24.1429L15.1925 24.0992L15.2315 24.0969L15.2339 24.1337C15.2362 24.1704 14.9627 24.3841 14.409 24.7747L14.4526 24.8437L14.4136 24.846L14.3285 24.8161C14.3308 24.8391 14.2918 24.8552 14.2114 24.8621L14.2159 24.9034L14.3079 25.0045C14.278 25.0069 14.2367 24.9976 14.1838 24.9793C14.0046 24.9954 13.83 25.124 13.6576 25.3676L13.7013 25.4365C13.8506 25.2986 13.9379 25.2297 13.9632 25.2274L13.9724 25.34C13.9471 25.3423 13.9081 25.3584 13.8552 25.386L13.9494 25.5284C14.1274 25.3361 14.3289 25.167 14.5492 25.0252C14.6571 25.0528 14.7146 25.0872 14.7169 25.124L14.7996 25.1171C15.3924 24.6782 15.9783 24.3612 16.5597 24.1659L16.5665 24.244C16.4586 24.4048 16.385 24.4876 16.346 24.4921C16.3506 24.5473 16.3689 24.5955 16.4034 24.6369C16.4126 24.7357 16.1484 25.4021 15.613 26.6336C14.3975 29.4966 13.3773 31.615 12.5479 32.9845C12.5501 33.0121 12.5662 33.0488 12.5961 33.0948C12.8006 33.0466 12.9293 32.996 12.9844 32.9477L13.0281 32.9432L13.0349 33.0213L13.1108 33.0144L13.1889 32.9707C13.1912 32.9937 13.2165 33.0052 13.2693 33.0006L13.2762 33.0787C13.2831 33.1546 13.2395 33.2694 13.1475 33.428C13.0648 33.5222 12.9752 33.7198 12.881 34.0208L12.8833 34.0576L12.9591 34.0506C13.29 33.6807 13.5404 33.3176 13.7128 32.9638C14.6778 32.6812 15.4131 32.4032 15.9232 32.1298C16.4356 32.0861 16.8262 31.9505 17.0927 31.7276L17.0881 31.6863L16.8951 31.7437L16.8515 31.7484L16.8468 31.707C17.2237 31.6496 17.4833 31.5668 17.6281 31.452C18.3611 30.8867 18.9148 30.4869 19.2894 30.2502C20.0591 29.685 20.56 29.1335 20.7874 28.5982C20.8305 28.5888 20.8734 28.5788 20.9161 28.5683C21.0241 28.5637 21.0838 28.5614 21.0999 28.5568C21.0953 28.5361 21.1046 28.5247 21.1252 28.52C21.2975 28.5017 21.2148 28.5315 21.3251 28.5062L21.6146 28.4396C21.5963 28.4442 21.5893 28.4534 21.594 28.4718L21.6376 28.4442C21.6284 28.4442 21.6215 28.442 21.6146 28.4396L21.6629 28.4282L21.6399 28.442C21.6721 28.4465 21.7065 28.4442 21.7456 28.435L21.7663 28.52L20.4497 30.6133L20.1579 30.9786L20.0154 31.4565L20.043 31.4496L20.1854 31.3899L20.1395 31.576L20.1533 31.6311L20.1923 31.6794C20.174 31.684 20.1671 31.6955 20.1717 31.7162L20.1786 31.7461L20.2383 31.7323C20.3256 31.6564 20.3624 31.5875 20.3486 31.5255C20.4428 31.5415 20.5048 31.5484 20.537 31.5393L20.5439 31.5691C20.4865 31.5829 20.4566 31.6288 20.452 31.707L20.4589 31.7369L20.491 31.73C20.969 31.2084 22.1408 29.423 23.0806 28.2121C23.0507 28.0812 23.5401 27.8996 24.5511 27.6653L24.5833 27.6584C24.6201 27.8169 24.5419 28.2007 24.3489 28.8096C24.2248 29.1772 24.1651 29.3794 24.1743 29.4116C24.0135 29.901 23.9376 30.1652 23.9468 30.2066L23.5883 31.3807C23.3563 31.9827 23.1794 32.6146 23.0553 33.2809C23.076 33.2763 23.1081 33.2786 23.1541 33.2901L23.2046 33.2464C23.2092 33.2672 23.223 33.274 23.2437 33.2694L23.223 33.1844L23.3793 33.1798C23.4252 33.1684 23.4643 33.1109 23.4965 33.0052C23.4895 32.8467 23.5218 32.7617 23.593 32.7432C23.6895 32.3665 23.7492 32.178 23.7699 32.1711C23.8595 31.7966 23.9261 31.5829 23.9698 31.53C24.1054 31.043 24.2041 30.7925 24.2685 30.7764L24.2823 30.8362L24.1835 31.0912C24.0111 31.8563 23.8365 32.4606 23.6596 32.9041L23.7102 33.1247L23.7423 33.1178C24.1697 32.1987 24.7855 30.3789 25.5874 27.6584C25.6104 27.4194 25.7252 27.2333 25.9298 27.1024L25.8838 27.0541L25.8769 27.0288C25.9688 27.0082 26.0331 26.9714 26.0699 26.9209C26.0653 26.9001 25.9849 26.8703 25.8287 26.8289L26.2285 25.1148C26.3157 25.0367 26.3663 24.9954 26.3824 24.9954L26.3893 25.0827C26.3686 25.0849 26.3365 25.0964 26.2997 25.1217L26.3755 25.2297C26.5133 25.0804 26.6627 24.9517 26.8258 24.8437C26.9085 24.8667 26.9499 24.8943 26.9545 24.9218L27.0143 24.9172C27.4692 24.5841 27.915 24.3451 28.3538 24.2003L28.3584 24.2578C28.278 24.3795 28.2229 24.4416 28.193 24.4439C28.1976 24.4853 28.2091 24.522 28.2297 24.5542C28.2367 24.63 28.0391 25.1355 27.6347 26.073C26.7109 28.2443 25.9366 29.8504 25.3071 30.8936C25.3094 30.9143 25.3232 30.9418 25.3484 30.9786C25.5023 30.9418 25.6012 30.9028 25.6402 30.866L25.6678 30.8637L25.6724 30.9212L25.7367 30.9166L25.7942 30.8867C25.7964 30.9028 25.8172 30.9097 25.8562 30.9074L25.8608 30.9694C25.8654 31.0245 25.8333 31.1119 25.762 31.2313C25.6954 31.3026 25.6264 31.452 25.5529 31.6794L25.5552 31.7093L25.6149 31.7047C25.8654 31.4244 26.0561 31.1486 26.1871 30.8775C26.92 30.6615 27.4784 30.4524 27.8644 30.2456C28.2573 30.2112 28.5537 30.11 28.756 29.94L28.7536 29.9102L28.6043 29.9538L28.5721 29.9561L28.5698 29.9262C28.8548 29.8849 29.0547 29.8206 29.1626 29.7356C29.7187 29.3081 30.1392 29.0026 30.4241 28.8234C31.311 28.1777 31.7246 27.5573 31.674 26.9622ZM31.5224 27.0012L31.5431 27.2333C31.5155 27.2908 31.4856 27.3206 31.4581 27.3229L31.4236 26.9277C31.4879 26.9507 31.5201 26.9737 31.5224 27.0012ZM14.1241 25.1309L14.085 25.1332L14.0781 25.062L14.2367 25.0482L14.239 25.0849C14.2137 25.0872 14.1746 25.101 14.1241 25.1309ZM13.3498 32.8765C13.2578 32.8352 13.1751 32.8191 13.1039 32.8259L13.0947 32.7134C13.0901 32.6697 13.1154 32.6398 13.1705 32.6283C13.2211 32.6238 13.251 32.6605 13.2555 32.7341C13.3888 32.5709 13.4623 32.4882 13.4761 32.4859L13.5612 32.5204C13.5336 32.7502 13.4623 32.8673 13.3498 32.8765ZM21.6239 24.221C21.5848 24.2256 21.5066 24.1038 21.394 23.8625L21.3872 23.7913C21.4607 23.7845 21.5365 23.9039 21.6169 24.1498L21.6239 24.221ZM21.5135 23.364L21.4814 23.4398L20.3578 22.9711C21.1068 22.9964 21.4928 23.1273 21.5135 23.364ZM16.7688 27.4378L16.6102 27.4516L16.6033 27.3803L16.7618 27.3666L16.7688 27.4378ZM16.6401 24.9907L16.6791 24.9884L16.6883 25.101C16.6515 25.1033 16.6033 25.1585 16.5436 25.2642L16.5366 25.186C16.6079 25.101 16.6447 25.0367 16.6401 24.9907ZM16.3069 25.7765L16.3207 25.9259L16.2816 25.9282L16.2678 25.7789L16.3069 25.7765ZM16.1323 26.0569L16.2081 26.05C16.2012 26.1741 16.1668 26.2407 16.1047 26.2453L16.0657 26.2476C16.1139 26.1649 16.1369 26.1005 16.1323 26.0569ZM16.0013 26.4475L16.0449 26.4429L16.0472 26.4796L15.976 26.5992L15.9002 26.606L15.8979 26.5693C15.9737 26.5624 16.0082 26.5233 16.0013 26.4475ZM15.8726 26.7991L15.8496 26.9875L15.8106 26.9898L15.7945 26.8036L15.8726 26.7991ZM14.5836 30.4639C14.5331 30.7213 14.4779 30.8522 14.4205 30.8568L14.4182 30.8201C14.4044 30.6937 14.4595 30.5742 14.5836 30.4639ZM14.3469 30.9763L14.3493 31.0131C14.3538 31.0636 14.3308 31.0935 14.2803 31.0958L14.278 31.059C14.2734 31.0154 14.2964 30.9878 14.3469 30.9763ZM14.278 32.0401L14.3975 32.0287L14.4021 32.07C14.3722 32.0723 14.3332 32.0884 14.2849 32.116L14.2091 32.1228C14.2045 32.0838 14.2297 32.0539 14.278 32.0401H14.278ZM17.6786 30.9901C17.0077 31.3209 16.6125 31.5461 16.4953 31.6633C15.7692 31.9161 15.4085 32.0723 15.4154 32.1343C14.7697 32.3894 14.3446 32.5778 14.1402 32.695C14.0919 32.6996 14.023 32.6812 13.9311 32.6398C13.9196 32.5089 13.9793 32.4032 14.1057 32.3182C14.2183 32.309 14.3262 32.3251 14.4296 32.3687C14.5492 32.3067 14.7583 32.2378 15.0547 32.1642L15.0477 32.0861L14.8088 32.1068C14.8387 32.0654 15.0684 31.9574 15.5004 31.7828L15.6199 31.7713L15.6222 31.8081C15.4177 31.8264 15.3051 31.8862 15.2798 31.9942C15.2844 32.0425 15.312 32.0631 15.3626 32.0586C15.5165 31.962 15.5923 31.9046 15.59 31.8885C15.8818 31.8334 16.6883 31.4106 18.0095 30.6225L18.0164 30.6937C18.0187 30.7281 17.9061 30.8246 17.6786 30.9901ZM15.652 31.6564C15.8451 31.6403 16.0105 31.5622 16.1484 31.4267C16.2035 31.4221 16.2334 31.4427 16.2357 31.491C16.1414 31.5002 15.9599 31.5783 15.6957 31.73L15.6567 31.7323L15.652 31.6564ZM18.9217 29.145L17.9084 29.947C17.1547 30.441 16.7503 30.6891 16.6929 30.6937C15.4935 31.3532 14.7468 31.6955 14.4572 31.7208L14.4136 31.7253C14.4504 31.5898 14.9834 30.4984 16.0174 28.4442C16.4723 28.4051 17.1892 28.1938 18.1658 27.8078L18.4047 27.787C18.8987 27.7434 19.2686 27.8399 19.5122 28.0697L19.526 28.219C19.3422 28.7475 19.14 29.0554 18.9217 29.145ZM16.9411 28.0306L17.1042 28.0169L17.1065 28.0536L16.9434 28.0674L16.9411 28.0306ZM19.2319 27.6423L19.3514 27.6308C19.4617 27.6837 19.5191 27.7296 19.5237 27.771L19.526 27.8078C19.4203 27.8169 19.3215 27.7618 19.2319 27.6423ZM19.5559 25.7973C19.4502 25.9236 19.1607 26.1396 18.6873 26.4429C18.5311 26.4567 17.9498 26.6819 16.9434 27.123C16.8931 27.1 16.8376 27.0905 16.7825 27.0955L16.7756 27.0242C16.7641 26.8795 16.8285 26.698 16.9709 26.4774C17.0491 26.0638 17.1341 25.8271 17.2283 25.7697L18.067 23.8833C18.0577 23.7661 18.237 23.6764 18.6046 23.6144L18.7241 23.6029L18.7333 23.7109C19.094 23.6558 19.3192 23.6236 19.4065 23.6167C20.0729 23.5593 20.4198 23.6948 20.4474 24.0188L20.5232 24.0119L20.5071 23.8212L20.5898 23.8143C20.7851 23.9223 20.8909 24.0533 20.9046 24.2072C20.9138 24.3129 20.8564 24.4439 20.7346 24.6002C20.6841 24.6047 20.6542 24.568 20.6496 24.4944L20.5669 24.5014L20.5485 24.7311C20.2107 25.2366 19.9649 25.4962 19.8132 25.51C19.6753 25.7008 19.5903 25.795 19.5559 25.7973ZM20.0705 27.1185C20.0016 27.0725 19.9465 27.0518 19.9051 27.0541L19.8959 26.9415L19.9717 26.9346L20.1395 27.0334C20.1464 27.0863 20.1234 27.1138 20.0705 27.1185ZM20.6036 27.7503C20.6771 27.7802 20.7208 27.8123 20.73 27.8422L20.6933 27.8514L20.6956 27.8537C20.6886 27.8537 20.6795 27.856 20.6725 27.8583L20.6174 27.9019L20.6036 27.7503ZM20.6542 28.0674L20.6473 28.0375L20.7438 28.0145L20.7507 28.0444L20.6542 28.0674ZM20.8862 28.3271C20.985 28.3109 21.0333 28.3041 21.2171 28.2627L21.224 28.2926L20.8748 28.373C20.8794 28.3569 20.8839 28.3408 20.8862 28.3271ZM21.2263 28.4718C21.0793 28.4856 21.1114 28.4672 20.8771 28.52L20.8701 28.4902L21.162 28.396L21.3022 28.3638L21.3159 28.4189C21.2539 28.4327 21.2999 28.4327 21.2263 28.4718ZM21.5365 28.3983C21.502 28.4074 21.4745 28.3914 21.4584 28.3523L21.548 28.3316C21.587 28.3224 21.6123 28.3385 21.6215 28.3776L21.5365 28.3983ZM22.3774 27.4929L22.3706 27.4631L22.5153 27.4287L22.5291 27.4838L22.3774 27.4929ZM23.2759 33.0029C23.2851 32.9615 23.2874 32.9317 23.2828 32.911L23.315 32.9041C23.354 32.8949 23.377 32.9087 23.3862 32.9455L23.3931 32.9753L23.2759 33.0029ZM23.9055 27.7296L23.8411 27.7181C23.7377 27.7595 23.6504 27.7894 23.5792 27.8055L23.5194 27.8192C23.485 27.8284 23.4574 27.8146 23.4436 27.7779L23.8641 27.6814L24.002 27.617L24.0479 27.6699C23.9812 27.6837 23.933 27.7043 23.9055 27.7296ZM24.2294 27.6262L24.2225 27.5964C24.2432 27.5917 24.2708 27.5757 24.3007 27.5458L24.5993 27.4769L24.6063 27.5067C24.4477 27.5458 24.3213 27.5849 24.2294 27.6262ZM24.2754 27.0219C24.2547 27.0265 24.2272 27.0449 24.1926 27.0725C24.1881 27.0518 24.1467 27.0518 24.0686 27.0702C24.0548 27.0127 24.2754 26.9323 24.7327 26.8266L24.7969 26.8128L24.8107 26.868C24.4891 26.9622 24.3099 27.015 24.2754 27.0219ZM25.0796 26.1534C25.0474 26.5187 24.9188 26.7256 24.6913 26.7784L24.6844 26.7485L24.4822 26.8266L24.3926 26.8473C24.3466 26.8588 24.3052 26.8565 24.2685 26.845L24.2501 26.7646C24.2432 26.7347 24.535 26.3303 25.1279 25.5537L25.1968 25.5652C25.222 25.6709 25.183 25.8662 25.0796 26.1534ZM26.5019 24.9356L26.4743 24.9379L26.4697 24.8805L26.5892 24.869L26.5915 24.8988C26.5708 24.9034 26.5409 24.9149 26.5019 24.9356ZM25.916 30.8201C25.847 30.7879 25.785 30.7741 25.7322 30.7787L25.7252 30.6914C25.7229 30.6615 25.7413 30.6408 25.7804 30.6293C25.8195 30.6248 25.8424 30.6523 25.847 30.7121C25.9458 30.5857 26.001 30.5214 26.0125 30.5214L26.0745 30.5466C26.0515 30.7213 25.9987 30.8131 25.916 30.8201ZM32.1979 24.2486C32.168 24.2509 32.1106 24.159 32.021 23.9728L32.0164 23.9154C32.0738 23.9108 32.1336 24.0004 32.1933 24.1842L32.1979 24.2486ZM32.1152 23.5914L32.0876 23.6511L31.2375 23.295C31.805 23.3134 32.0991 23.4122 32.1152 23.5914ZM28.5101 26.6865L28.3906 26.698L28.386 26.6405L28.5055 26.6313L28.5101 26.6865ZM28.4113 24.8276L28.4434 24.8253L28.4503 24.9126C28.4205 24.9149 28.3837 24.9563 28.34 25.0367L28.3355 24.9793C28.3883 24.9126 28.4135 24.8621 28.4113 24.8276ZM28.1608 25.425L28.17 25.5376L28.1379 25.5399L28.1286 25.4273L28.1608 25.425ZM28.0253 25.6387L28.085 25.6341C28.0781 25.7306 28.0529 25.7812 28.0092 25.7858L27.977 25.788C28.0115 25.7237 28.0276 25.6732 28.0253 25.6387ZM27.9288 25.9328L27.9564 25.9305L27.9586 25.9604L27.9058 26.0523L27.846 26.0569L27.8438 26.027C27.9058 26.0224 27.9333 25.9903 27.9288 25.9328ZM27.8323 26.1993L27.8116 26.3464L27.784 26.3487L27.7725 26.204L27.8323 26.1993ZM26.8511 28.9865C26.8121 29.1795 26.7707 29.2783 26.727 29.2829L26.7247 29.2576C26.7179 29.1611 26.7592 29.0692 26.8511 28.9865ZM26.6696 29.3748L26.6719 29.4001C26.6765 29.4414 26.6581 29.4644 26.6168 29.4667L26.6144 29.4368C26.6121 29.4069 26.6306 29.3863 26.6696 29.3748ZM26.6191 30.1836L26.7109 30.1767L26.7133 30.2065C26.6926 30.2088 26.6604 30.2203 26.6236 30.2411L26.5639 30.2456C26.5616 30.2135 26.58 30.1928 26.6191 30.1836ZM29.1994 29.3863C28.6939 29.6368 28.3929 29.8068 28.2987 29.8941C27.7472 30.0871 27.4738 30.2066 27.4784 30.2548C26.989 30.4501 26.6673 30.5903 26.5156 30.6799C26.4789 30.6822 26.426 30.6684 26.3571 30.6363C26.3479 30.5375 26.3939 30.457 26.4904 30.3973C26.5777 30.3904 26.6604 30.4019 26.7362 30.434C26.8282 30.3881 26.9867 30.3375 27.2119 30.2801L27.2073 30.2226L27.0188 30.2364C27.0419 30.2043 27.2187 30.1215 27.5474 29.9883L27.6392 29.9814L27.6415 30.0067C27.4853 30.0205 27.398 30.0664 27.3796 30.1491C27.3819 30.1859 27.4049 30.2043 27.4439 30.1997C27.5588 30.1238 27.614 30.0802 27.614 30.0664C27.8345 30.0273 28.4458 29.7057 29.4499 29.1037L29.4544 29.1611C29.4567 29.1864 29.3717 29.2599 29.1994 29.3863ZM27.66 29.8918C27.8093 29.878 27.9356 29.8206 28.0414 29.7195C28.0804 29.7148 28.1034 29.7332 28.1057 29.77C28.0368 29.7769 27.9012 29.8344 27.6967 29.9446L27.6645 29.947L27.66 29.8918ZM30.146 27.9824L29.3809 28.5982C28.8088 28.9727 28.4986 29.1611 28.4503 29.1657C27.5404 29.6666 26.9752 29.9262 26.7523 29.9446L26.7202 29.947C26.7477 29.8435 27.1545 29.014 27.9403 27.4562C28.2826 27.4263 28.8249 27.2632 29.5693 26.9691L29.7555 26.953C30.1299 26.9209 30.4103 26.9944 30.5941 27.1713L30.6033 27.2839C30.4631 27.6791 30.3115 27.9111 30.146 27.9824ZM28.6434 27.1368L28.7628 27.1253L28.7651 27.1552L28.6457 27.1667L28.6434 27.1368ZM30.3827 26.8404L30.4747 26.8335C30.5597 26.8749 30.6033 26.9117 30.6056 26.9415L30.6079 26.9668C30.5275 26.9737 30.4516 26.9323 30.3827 26.8404ZM30.624 25.4411C30.5436 25.5376 30.3253 25.703 29.9692 25.9328C29.8496 25.9443 29.4085 26.1143 28.6457 26.4452C28.6089 26.4314 28.5675 26.4268 28.5238 26.4292L28.5193 26.3717C28.5101 26.2614 28.5583 26.1235 28.664 25.9558C28.7237 25.6387 28.7904 25.4618 28.8593 25.4204L29.5004 23.9866C29.4935 23.9016 29.6291 23.8327 29.9048 23.7798L29.9967 23.773L30.0036 23.8603C30.2747 23.8166 30.4448 23.7913 30.5137 23.7845C31.0192 23.7408 31.2834 23.8419 31.3041 24.09L31.3638 24.0854L31.3523 23.9476L31.4121 23.943C31.5592 24.0234 31.6373 24.1199 31.6465 24.2348C31.6534 24.3175 31.612 24.4186 31.5247 24.5358C31.4856 24.5404 31.4627 24.5128 31.4581 24.4531L31.3983 24.4577L31.3799 24.63C31.1249 25.0183 30.9388 25.2182 30.8216 25.2274C30.7182 25.3676 30.6539 25.4388 30.624 25.4411ZM30.8928 26.3969L30.8859 26.3096L30.9456 26.3051L31.0743 26.3832C31.0766 26.4199 31.0582 26.4406 31.0192 26.4452C30.9641 26.4107 30.9227 26.3946 30.8928 26.3969ZM20.1969 31.9781L20.1372 31.9919L20.0866 32.0355C20.0958 32.0723 20.1188 32.0861 20.1579 32.0769C20.1969 32.0677 20.213 32.0448 20.2039 32.008L20.1969 31.9781ZM19.9695 31.5255L19.9764 31.5553C20.0154 31.5461 20.0315 31.5232 20.0223 31.4864L20.0154 31.4565C19.9787 31.4657 19.9626 31.4887 19.9695 31.5255ZM21.587 27.6768L21.656 27.6607L21.6422 27.601L21.5733 27.617L21.587 27.6768ZM42.4366 29.4277C41.738 29.5839 41.6507 29.5563 41.5037 29.5678L41.5083 29.6253L41.5726 29.6207L41.6071 29.6183L41.5979 29.6115L41.6737 29.5816C42.3653 29.5057 42.4458 29.5333 42.4388 29.4552L42.4366 29.4277ZM38.6752 29.9262L38.6798 29.9837H38.689L38.6844 29.9262H38.6752ZM38.2432 28.4121L38.1812 28.3914C38.1306 28.527 38.1053 28.6074 38.1076 28.6303L38.1099 28.6556C38.1582 28.6533 38.2019 28.5706 38.2432 28.4121ZM42.579 29.4162L42.5836 29.4736L42.6847 29.492L42.6801 29.4345L42.579 29.4162ZM37.825 29.9975L37.6688 29.9791L37.6412 30.0388L37.6435 30.0687L38.5741 29.9906L38.5695 29.9332L37.825 29.9975ZM37.4022 27.9594L37.4 27.9295L37.3678 27.9318L37.3104 27.9686L37.3425 28.0237C37.3862 28.0192 37.4068 27.9984 37.4022 27.9594ZM43.0202 28.9934L43.0638 28.9888C43.0891 28.9865 43.1006 28.9658 43.0983 28.929L43.073 28.8739C42.9145 28.8877 42.841 28.8946 42.7123 28.9658L42.71 28.936L42.5193 28.9543C42.5147 28.8969 42.4986 28.867 42.4733 28.8693L42.3745 28.8785C42.2596 28.8877 42.2045 28.8831 42.147 28.9267C42.1447 28.9061 42.1379 28.8969 42.1264 28.8969L42.0161 28.9061L41.9517 28.9428C41.9494 28.9222 41.9426 28.9129 41.931 28.9129L41.892 28.9474L41.8897 28.9176L41.7357 28.9061L41.699 28.9084L41.7036 28.9658L41.7817 28.9865L41.8552 28.9819C41.8805 28.998 41.9081 29.0026 41.9403 29.0003L42.0046 28.9681L42.0069 28.9934C41.6462 29.083 41.6484 29.0669 41.4002 29.1083C41.3727 29.0899 41.352 29.0807 41.3382 29.083L41.3337 29.0876C41.3061 29.0853 41.29 29.0669 41.2877 29.037L41.4164 29.021C41.4255 29.021 41.4325 29.0301 41.5037 29.0439C41.6071 28.9934 41.6116 28.9727 41.6668 28.9681L41.6622 28.9106C41.3084 28.9796 41.4508 28.9337 41.0073 28.9727L40.9867 28.975L40.9821 28.9176C41.5519 28.8486 41.3612 28.8877 41.5565 28.8325C41.5588 28.8532 41.5657 28.8624 41.5772 28.8624C41.5981 28.841 41.6257 28.8272 41.6553 28.8234L41.6944 28.8211C41.8943 28.805 41.9609 28.844 42.3561 28.7337L42.3584 28.759L42.4228 28.7268L42.4825 28.7223C42.4779 28.6648 42.5652 28.6556 42.5951 28.6533L42.5905 28.5913C41.8966 28.7314 41.7151 28.6924 41.5221 28.7475L41.5198 28.7223C41.3383 28.7544 41.3313 28.7406 41.2854 28.7429C41.2716 28.7452 41.251 28.7567 41.2279 28.7797C41.2257 28.759 41.2187 28.7498 41.205 28.7498C41.1981 28.7498 41.1958 28.7521 41.1935 28.7521L40.6053 28.8486C40.603 28.8325 40.5961 28.8234 40.5823 28.8256C40.2767 28.89 40.3594 28.9015 39.9504 28.9382C39.932 28.9405 39.9068 28.9497 39.8746 28.9704C39.8723 28.9543 39.8631 28.9451 39.8424 28.9474L39.592 28.9681L39.4243 29.0094C39.422 28.9934 39.4128 28.9842 39.3921 28.9865C39.2979 29.0117 39.2152 29.0278 39.1485 29.0325H39.1439C39.1026 29.037 39.1646 29.021 39.1324 29.0072L39.0819 29.037C39.0083 29.0439 39.0474 29.0325 38.7947 29.0347C38.3512 29.0899 38.3995 29.0967 38.3512 29.0991L38.1858 29.0876C38.1881 29.1037 38.1789 29.1152 38.1605 29.1152C37.9721 29.0899 37.8756 29.06 37.8733 29.0255C37.8985 28.8463 37.9422 28.7544 38.0043 28.7498L38.0364 28.7475L38.0088 28.8073L38.041 28.805C38.1008 28.7728 38.1284 28.7429 38.126 28.7153L38.1214 28.6533L38.0617 28.6579L38.0571 28.6005C38.0525 28.5568 38.0594 28.5177 38.0755 28.4856L38.2111 28.2673L38.2157 28.3247L38.28 28.3201L38.2754 28.2627L38.2386 28.2098C38.2869 28.1685 38.3237 28.1455 38.3535 28.1432L38.3512 28.1133L38.2639 28.1203L38.257 28.033C38.4316 27.6699 38.5143 27.4585 38.5098 27.3988L38.5718 27.424C38.6109 27.4217 38.6292 27.3988 38.6269 27.3574L38.5672 27.362L38.5649 27.3367C38.5607 27.2948 38.5687 27.2525 38.5879 27.2149C38.6821 27.1161 38.7257 27.0173 38.7166 26.9139C38.735 26.9116 38.7441 26.9209 38.7464 26.9415C38.8268 26.8956 38.8889 26.7738 38.9348 26.5716C39.0773 26.3142 39.2795 25.7996 39.5437 25.0298C40.0492 23.6696 40.0286 23.5248 40.0998 23.2031L40.04 23.2077C40.0446 23.2491 40.0354 23.2881 40.0171 23.3249C39.9757 23.3088 39.9436 23.2996 39.9206 23.3019L39.9183 23.2767C39.909 23.1594 39.9573 23.0193 40.0676 22.8539L40.0952 22.8516L40.1457 23.0492L40.2054 23.0446C40.2032 23.0308 40.2192 22.9527 40.2514 22.8079C40.2491 22.778 40.2262 22.7597 40.1802 22.7574L40.1227 22.7941C40.1182 22.7528 40.1204 22.6448 40.1274 22.4725L40.0975 22.4748C40.0469 22.4242 40.0216 22.3828 40.0193 22.3484L39.6908 22.3805C39.6885 22.3575 39.677 22.3231 39.654 22.2795C39.6517 22.2496 39.7252 22.2197 39.8769 22.1898L39.9436 22.2151L40.0056 22.1784C40.0078 22.199 40.0193 22.2082 40.0423 22.2059L40.1043 22.1692C40.1066 22.1898 40.1181 22.199 40.1412 22.1967L40.171 22.1945L40.1664 22.1278C40.1204 22.1324 39.9987 22.1324 39.8057 22.1255L39.7436 22.1669L39.7413 22.1301C38.1996 22.2564 37.3241 22.3277 37.1151 22.3484C37.0875 22.3507 36.9795 22.3484 36.7888 22.3438C36.7911 22.369 36.7681 22.3828 36.7222 22.3874L36.6555 22.3575L36.4303 22.415C36.3774 22.4196 36.2879 22.4173 36.1638 22.4035C36.1293 22.4311 36.088 22.4472 36.0374 22.4518C36.0098 22.454 36.366 22.4334 36.6968 22.4104C36.6624 22.438 36.6096 22.454 36.536 22.461C36.4855 22.4656 36.4418 22.4587 36.405 22.438C36.3545 22.461 36.1914 22.4977 35.9179 22.5528L35.8513 22.5276L34.776 22.693C34.7346 22.6724 34.6863 22.6654 34.6312 22.6701C34.5737 22.6747 34.4772 22.6953 34.344 22.7321L33.8247 22.948L33.8638 23.0124C33.889 23.0101 33.9258 22.9964 33.9694 22.9711L34.1533 22.9871L34.1303 23.1594C33.9603 23.2353 33.8615 23.3479 33.8339 23.4904C33.5788 23.6029 33.4525 23.6834 33.4525 23.7316L33.4548 23.7615L33.4938 23.7592L33.5627 23.7224L33.6432 23.8189L33.6547 23.9522C33.6592 23.9936 33.2296 24.8966 32.3702 26.6612C31.6258 28.3615 31.2352 29.2921 31.1984 29.4598C30.9434 29.531 30.7963 29.6344 30.7527 29.7723C30.7573 29.8159 30.833 29.8458 30.9801 29.8573L30.987 29.9239L30.9204 30.0342L30.9318 30.1675C30.9388 30.2364 31.1249 30.2893 31.4902 30.3261C31.4879 30.3031 31.4994 30.2893 31.5247 30.287C31.5316 30.3697 31.5086 30.5305 31.4558 30.7695L31.4948 30.7672C31.6464 30.5604 31.7177 30.4179 31.7108 30.3399L31.743 30.3375C31.7797 30.3352 31.8188 30.3766 31.8648 30.4662C31.8188 30.4846 31.658 30.8499 31.3822 31.5646L31.4213 31.6288L31.4604 31.6266C31.7981 30.7718 32.0095 30.2985 32.0968 30.2088C32.5403 30.1698 33.3077 30.0917 34.3968 29.9745L34.4658 29.9332C34.4681 29.9561 34.4819 29.9676 34.5071 29.9653L34.5783 29.9584L34.6473 29.9171C34.6496 29.94 34.6634 29.9515 34.6886 29.9492L35.5135 29.878C35.7318 29.8596 35.8352 29.793 35.826 29.6804C35.8237 29.6505 35.9524 29.616 36.212 29.5793C36.2373 29.577 36.2741 29.5839 36.3246 29.6C36.3223 29.5793 36.4533 29.5586 36.7152 29.5356C36.7222 29.3978 36.7658 29.3242 36.8439 29.3174L36.837 29.2507C36.7635 29.2576 36.6808 29.276 36.5843 29.3081C36.412 29.299 36.3017 29.2852 36.2557 29.2691C36.2097 29.2944 36.1753 29.3081 36.15 29.3105L35.5755 29.3289L35.5066 29.3656C35.5043 29.3449 35.4905 29.3357 35.4653 29.338L35.4331 29.3403L35.3596 29.3771C35.3573 29.3564 35.2976 29.3403 35.178 29.3242L35.1046 29.3679L34.9621 29.3794L34.9598 29.3426C35.6996 29.2622 36.065 29.1611 36.0558 29.0416C36.1041 29.037 36.1293 29.06 36.1339 29.1083L36.3499 29.0531L36.343 28.9865L34.5715 29.0347C34.5737 29.0577 34.5622 29.0715 34.537 29.0738L34.321 29.0554C34.2658 29.06 34.2199 29.0761 34.1831 29.1037L34.1027 29.0738C33.8799 29.0922 33.7144 29.1198 33.6041 29.1542C33.4525 29.1427 33.2847 29.145 33.0986 29.1611L32.7011 29.1955L32.5173 29.1749C32.5081 29.0577 32.7356 28.481 33.2043 27.447C33.3399 27.0977 33.4639 26.8795 33.5835 26.7968C33.6087 26.7945 33.6455 26.8036 33.6961 26.8243L33.9787 26.7278L34.1234 26.7508C34.3669 26.7301 34.6496 26.6612 34.9736 26.5417C35.054 26.5348 35.1137 26.5394 35.1574 26.5578L35.3734 26.5072L36.0168 26.4521C36.2901 26.4292 36.5865 26.3694 36.9082 26.2706L36.9014 26.204C36.7819 26.2154 36.7199 26.1948 36.7152 26.1465C36.7084 26.0569 36.621 26.0201 36.4533 26.0339L36.4464 25.9673L36.6234 25.9167L37.0875 25.8777L37.0805 25.8111C37.0622 25.8133 36.968 25.8111 36.7934 25.8041L36.7864 25.7329L36.9657 25.7168C37.0139 25.7123 37.0346 25.6892 37.0301 25.6433C36.7888 25.6502 36.667 25.6387 36.6647 25.6065C34.9827 25.6892 34.1395 25.7053 34.1349 25.6525C34.1096 25.6548 34.0752 25.6709 34.0292 25.6985L33.9855 25.6295C34.4313 24.6829 34.6933 24.2049 34.7691 24.198C34.7713 24.2348 34.753 24.2945 34.7116 24.375L34.7139 24.4048L34.7851 24.3979C34.9621 23.9751 35.1114 23.7569 35.2355 23.7477C35.764 23.7017 35.162 23.6673 36.2924 23.4904C36.3384 23.511 36.3706 23.5202 36.3935 23.5179C36.837 23.4283 37.4551 23.3341 38.2478 23.2376L38.2432 23.1709L37.8204 23.21L37.8158 23.1434C37.8664 23.1388 37.9077 23.1227 37.9422 23.0952L37.9445 23.1319C37.9675 23.1296 37.9997 23.1135 38.041 23.0859C38.1146 23.0791 38.1697 23.0859 38.2087 23.1066C38.3558 23.0676 38.4753 23.0446 38.5626 23.0354L38.8268 23.0101C38.8912 22.9688 38.921 22.932 38.9188 22.8976L38.9165 22.8677C38.8498 22.8745 38.774 22.87 38.6844 22.8539C38.6821 22.8171 38.7004 22.7918 38.7441 22.7803L39.2358 22.7344L39.461 22.6769C39.4633 22.7022 39.4748 22.7114 39.4932 22.7114C39.5161 22.7091 39.5483 22.693 39.5897 22.6654C39.6012 22.6677 39.6149 22.6677 39.6264 22.6701C39.5966 22.7321 39.5621 22.8217 39.5276 22.9389L39.4633 22.9435C39.4587 22.8998 39.4472 22.8608 39.4265 22.8263L39.3944 22.8286C38.7969 24.4921 38.5304 25.2665 37.979 26.544C37.8779 26.8703 37.7929 27.0518 37.7194 27.0909C37.7217 27.1276 37.7446 27.146 37.7837 27.1414C37.7974 27.3023 37.7607 27.4608 37.6711 27.617C37.416 28.3523 37.246 28.7544 37.1587 28.8279L37.2161 29.1749C37.2184 29.2117 37.2001 29.2323 37.161 29.2369L37.1013 29.2415C37.092 29.145 37.0576 29.0991 36.9955 29.106L36.9634 29.1083C36.8852 29.2301 36.8255 29.3702 36.7864 29.5333L36.8462 29.5287C36.9266 29.4759 36.9634 29.4139 36.9565 29.3426L37.076 29.3311L37.1449 29.3564C37.0898 29.4437 37.0645 29.5127 37.0691 29.5655L37.1013 29.6207L37.0231 29.8045L37.0254 29.8344C37.0943 29.8274 37.1702 29.8504 37.2506 29.8986C37.3057 29.8941 37.3655 29.8688 37.4321 29.8251C37.501 29.8183 37.7584 29.8159 38.2019 29.8159L38.4247 29.7401C38.6959 29.7378 38.7395 29.7447 38.9739 29.7241L39.0704 29.7148L39.1209 29.6804L39.1232 29.7103C39.3691 29.6896 39.3852 29.7057 39.5782 29.7286L39.5805 29.7585L39.4449 29.77L39.4495 29.8274C39.4909 29.8229 39.5276 29.8113 39.5575 29.7861C39.592 29.7838 39.6126 29.8022 39.6149 29.8435C39.5598 29.8482 39.4978 29.8619 39.4288 29.8849L39.3691 29.8642C39.2749 29.8895 39.2956 29.8964 39.2312 29.901L39.137 29.8826C39.1393 29.8986 39.1301 29.9101 39.1141 29.9101C39.1163 29.947 39.137 29.9653 39.1715 29.963L39.268 29.9538L39.7712 29.9101L39.9619 29.8688C39.9642 29.8849 39.9711 29.8941 39.9872 29.8918L40.0791 29.8573L40.2514 29.8435C40.3847 29.8321 40.3824 29.8229 40.6719 29.7769C40.6696 29.7585 40.6765 29.7516 40.6903 29.7494L40.6926 29.7746C41.1636 29.6942 41.1935 29.6896 41.2693 29.6643L41.2762 29.6781C41.3934 29.6505 41.3267 29.6574 41.3589 29.6344C41.3612 29.6551 41.3681 29.6643 41.3796 29.6643L41.4623 29.6574L41.4577 29.5954L41.29 29.5931L41.2877 29.5885C41.2808 29.5908 41.2762 29.5908 41.2693 29.5931H41.2463V29.5977C41.1337 29.6207 41.1314 29.6046 41.0579 29.6115L40.6374 29.6344L40.6351 29.6046L40.8695 29.5724L40.9545 29.5655L41.0028 29.531L41.005 29.5609C41.336 29.5333 41.4531 29.616 42.9834 29.2898C43.0661 29.2829 43.0592 29.214 43.1121 29.0715C43.0841 29.0734 43.0561 29.067 43.0316 29.0531C42.9053 29.1014 42.8387 29.0784 42.5951 29.1175C42.5744 29.1198 42.5583 29.1014 42.5514 29.0646L42.5491 29.0393L42.7835 29.0462C42.8272 29.0416 42.9122 29.0347 43.0386 28.9635C43.0386 28.9842 42.9926 28.9957 43.0202 28.9934ZM31.7062 29.1749L31.5982 29.1841C31.5936 29.1404 31.651 28.975 31.7705 28.6924L31.8418 28.6855C31.8441 28.7521 31.8004 28.9152 31.7062 29.1749ZM31.8372 28.651L31.8349 28.6211C31.8325 28.5844 31.8556 28.5591 31.9061 28.5476L31.9084 28.5775C31.9107 28.6211 31.8877 28.6464 31.8372 28.651ZM33.2733 29.7608L33.2756 29.7907L33.0963 29.8068L33.094 29.7769L33.2733 29.7608ZM33.0572 29.7424C33.0596 29.7792 33.0044 29.8206 32.8849 29.8619L32.6643 29.8458L32.5931 29.8527L32.5863 29.7861L33.0572 29.7424ZM34.5094 23.0584L34.4014 23.0676L34.3992 23.0308C34.3968 22.994 34.4175 22.9688 34.4634 22.9573L34.5025 22.955L34.576 22.9848C34.5783 23.0285 34.5577 23.0538 34.5094 23.0584ZM36.1523 22.7367L36.1868 22.7344L36.1913 22.801L36.0925 22.8102C36.0903 22.7735 36.1086 22.7482 36.1523 22.7367ZM35.7387 22.8815L35.5755 22.863L35.5732 22.8332C35.7869 22.8148 35.8582 22.7918 35.9892 22.7551C35.9915 22.7803 36.0144 22.7895 36.0558 22.785L36.0604 22.8516L35.996 22.8585C35.9455 22.863 35.9018 22.8562 35.8651 22.8355C35.826 22.8608 35.7846 22.8768 35.7387 22.8815ZM35.9432 23.4766L35.9409 23.4467L36.2051 23.4214L36.2074 23.4513L35.9432 23.4766ZM36.2258 23.2468L36.2235 23.21L36.3522 23.1985L36.3545 23.2353L36.2258 23.2468ZM36.2557 22.7964L36.2212 22.7988L36.2511 22.7275L36.5452 22.7L36.5475 22.7367C36.4717 22.7436 36.3729 22.7642 36.2557 22.7964ZM36.405 23.4306L36.4004 23.364L36.5291 23.3525C36.5728 23.3479 36.5958 23.3685 36.5981 23.4145L36.405 23.4306ZM37.184 22.369L37.0185 22.415L36.9887 22.4173C36.9105 22.4242 36.8094 22.4219 36.69 22.4104C36.9037 22.3966 37.1081 22.3805 37.184 22.369ZM37.007 23.1043L37.0093 23.1342L36.7819 23.1549L36.7796 23.125L37.007 23.1043ZM37.3793 23.2812C37.3769 23.2537 37.3333 23.2353 37.2437 23.2261L37.0163 23.2905L36.8416 23.2973C36.8025 23.2697 36.7819 23.2514 36.7796 23.2376L36.9818 23.2491L37.4367 23.1755L37.6688 23.1847L37.6711 23.2215C37.5562 23.233 37.4597 23.2537 37.3793 23.2812ZM39.7207 22.6769C39.7482 22.6792 39.7666 22.6792 39.7735 22.6792C39.8539 22.6011 39.9436 22.5391 40.0469 22.4954C39.9642 22.8585 39.8355 23.1273 39.6586 23.3019L39.5299 23.2238C39.6379 22.9504 39.7023 22.7689 39.7207 22.6769ZM39.3255 23.3548L39.3576 23.3525C39.3139 23.4352 39.2749 23.4788 39.2427 23.4811L39.2358 23.3938C39.2565 23.3938 39.2864 23.38 39.3255 23.3548ZM39.0704 23.9637C39.1324 23.7155 39.1922 23.5754 39.2473 23.5386L39.2496 23.5684C39.2174 23.7983 39.1669 23.92 39.1003 23.9292L39.1118 24.0739C39.0566 24.1521 39.0313 24.2118 39.0336 24.2578L39.0015 24.2601L38.9831 24.0601C39.0198 24.0556 39.0497 24.0234 39.0704 23.9637ZM38.9716 24.2945C38.9739 24.329 38.9509 24.4094 38.905 24.5335L38.8728 24.5358L38.8659 24.4485C38.9095 24.3474 38.9463 24.2968 38.9716 24.2945ZM37.1174 29.6758L37.1151 29.6505L37.1748 29.6459L37.1817 29.7332C37.1495 29.7356 37.1265 29.7171 37.1174 29.6758ZM39.7666 29.7447C39.7643 29.7241 39.7551 29.7148 39.7345 29.7171L39.5851 29.7309L39.5828 29.701H39.5966L39.9504 29.6712L39.9527 29.701C39.8493 29.7057 39.7873 29.7218 39.7666 29.7447ZM39.5897 29.6712C39.6035 29.6781 39.5966 29.685 39.5897 29.6896C39.5828 29.6873 39.5736 29.6804 39.5897 29.6712ZM39.6081 29.2576L39.4105 29.2737L39.4082 29.2438L39.5874 29.2278L39.7436 29.1887C39.746 29.207 39.7551 29.214 39.7758 29.2117C39.9619 29.1795 39.9436 29.1703 40.0331 29.1634C40.063 29.1611 40.0814 29.1795 40.0837 29.2163L39.6081 29.2576ZM40.2997 29.1979C40.1894 29.1864 40.1825 29.1772 40.1044 29.1841L40.1021 29.1588L40.279 29.1427L40.2813 29.168C40.2629 29.1703 40.3295 29.1749 40.2997 29.1979ZM40.3135 29.1657L40.3112 29.1404L40.4077 29.1313L40.41 29.1565L40.3135 29.1657ZM40.5271 29.1473L40.5249 29.122C40.5409 29.1198 40.5639 29.1083 40.5938 29.0853C40.642 29.0807 40.6673 29.1128 40.6719 29.1496L40.5271 29.1473ZM40.8006 29.1128L40.7983 29.083L40.9155 29.0738L40.9178 29.1037L40.8006 29.1128ZM40.9637 29.0991C40.9614 29.0646 40.9752 29.0439 41.0051 29.0393L41.0441 29.0899C41.0419 29.0738 41.0487 29.0646 41.0625 29.0623L41.0924 29.1175L40.9637 29.0991ZM39.229 29.8482L39.2244 29.7907L39.2059 29.793L39.2106 29.8504L39.229 29.8482ZM43.2661 28.8026C43.2844 28.7912 43.2936 28.7797 43.25 28.7728C43.2292 28.7958 43.2729 28.8026 43.227 28.805L43.2292 28.8256C43.2339 28.8211 43.2453 28.8141 43.2545 28.8073L43.2292 28.8279V28.8302L43.181 28.8923L43.2775 28.8578H43.289L43.2844 28.8003L43.2661 28.8026ZM43.4338 28.9337L43.4154 28.936L43.42 28.9934L43.5555 28.9819C43.5532 28.9451 43.4636 28.9337 43.4338 28.9337ZM43.2247 28.8325L43.227 28.8302V28.8279C43.227 28.8279 43.2247 28.8302 43.2247 28.8325Z" fill="black"/>
<path d="M34.4037 24.5797L34.406 24.6164L34.4819 24.6096C34.4796 24.5866 34.4887 24.5498 34.5048 24.5038L34.498 24.4372C34.4658 24.4395 34.4336 24.4878 34.4037 24.5797ZM33.6777 22.8334L33.6708 22.7668L33.5628 22.7759L33.5697 22.8426L33.6777 22.8334ZM31.5707 26.7786C31.5661 26.7165 31.3731 26.4753 30.9917 26.0502C30.9847 25.9721 31.1157 25.8549 31.3846 25.701L32.152 25.0323C32.3243 24.814 32.4254 24.4602 32.4553 23.9685L32.4461 23.8559C32.4162 23.5158 32.1704 23.2424 31.7039 23.0333C31.4282 22.8472 30.9319 22.7438 30.215 22.7254C29.6222 22.7759 28.8479 22.9873 27.8943 23.3619C27.6324 23.5503 27.3337 23.7387 26.9982 23.9271L27.0028 23.9846C27.0235 23.9823 27.0556 23.9708 27.0924 23.9455C27.1315 23.9409 27.1545 23.9593 27.1567 23.9961L27.2142 23.9662L27.2417 23.9639L27.2441 23.9892C27.2464 24.019 27.0396 24.1821 26.6214 24.474L26.6535 24.5337L26.626 24.536L26.5571 24.5107C26.5594 24.5314 26.5295 24.5452 26.472 24.5498L26.4744 24.5751L26.541 24.6578C26.5203 24.6601 26.4881 24.6509 26.4445 24.6348C26.348 24.644 26.2537 24.6946 26.1595 24.7911L26.1986 24.621C26.3388 24.0167 26.4353 23.4813 26.4858 23.0172L26.4789 22.9873C26.3824 22.9253 26.2882 22.838 26.2009 22.7277C26.2032 22.6565 26.2032 22.6151 26.2009 22.6059L26.194 22.5806L26.1665 22.5876C25.8631 23.0425 25.2795 23.8191 24.4133 24.9174C23.7538 25.6987 23.4137 26.1329 23.3931 26.2202C23.1243 26.4983 22.9956 26.666 23.0094 26.7235C22.9381 26.7694 22.9082 26.8153 22.9198 26.8659C22.8991 26.8705 22.8853 26.8636 22.8807 26.8429C22.7658 27.029 22.5958 27.1485 22.3683 27.2014L22.1293 27.2565C22.0972 27.2634 22.0811 27.2864 22.0834 27.3255L22.0903 27.3553L22.1799 27.3346L22.1868 27.3599L21.9846 27.438L21.6261 27.5207L21.4378 27.5322C21.4102 27.5598 21.5871 27.5299 21.5181 27.546L21.2838 27.6012C21.1414 27.6333 21.0632 27.6219 21.0494 27.5644L21.0218 27.5713C21.0264 27.5966 21.0288 27.6149 21.0241 27.631L21.0103 27.5736L20.8219 27.6172C20.8082 27.5299 20.5531 27.2129 20.0591 26.666C20.0499 26.5603 20.2245 26.4063 20.5807 26.2065L21.5871 25.3218C21.8122 25.0323 21.9455 24.5682 21.9892 23.9294L21.9754 23.7801C21.9363 23.3297 21.6101 22.9667 20.9966 22.6864C20.6335 22.4405 19.981 22.3095 19.0389 22.2889C18.2577 22.3555 17.2375 22.6335 15.9829 23.1183C15.6383 23.3688 15.2454 23.6169 14.8042 23.8628L14.8111 23.9409C14.841 23.9386 14.8801 23.9226 14.9283 23.895C14.9789 23.8903 15.0064 23.9133 15.011 23.9593L15.0891 23.9156L15.1282 23.9133L15.1305 23.9501C15.1328 23.9868 14.8593 24.2005 14.3056 24.5911L14.3493 24.6601L14.3102 24.6624L14.2252 24.6325C14.2275 24.6555 14.1884 24.6716 14.108 24.6785L14.1126 24.7198L14.2045 24.8209C14.1746 24.8233 14.1333 24.814 14.0805 24.7957C13.9012 24.8117 13.7266 24.9404 13.5542 25.184L13.5979 25.2529C13.7473 25.115 13.8346 25.0461 13.8598 25.0438L13.8691 25.1564C13.8438 25.1587 13.8047 25.1748 13.7519 25.2024L13.8461 25.3448C14.024 25.1525 14.2255 24.9834 14.4458 24.8416C14.5538 24.8692 14.6112 24.9036 14.6135 24.9404L14.6962 24.9335C15.2891 24.4946 15.8749 24.1776 16.4563 23.9823L16.4632 24.0604C16.3552 24.2212 16.2816 24.304 16.2426 24.3085C16.2472 24.3637 16.2656 24.4119 16.3 24.4533C16.3092 24.5521 16.045 25.2185 15.5096 26.45C14.2941 29.313 13.2739 31.4315 12.4445 32.8009C12.4468 32.8285 12.4629 32.8652 12.4927 32.9112C12.6972 32.8629 12.8259 32.8124 12.881 32.7641L12.9247 32.7596L12.9316 32.8376L13.0074 32.8308L13.0855 32.7872C13.0878 32.8101 13.1131 32.8216 13.166 32.817L13.1728 32.8951C13.1797 32.971 13.1361 33.0858 13.0441 33.2443C12.9614 33.3386 12.8718 33.5362 12.7776 33.8372L12.7799 33.8739L12.8558 33.8671C13.1866 33.4971 13.4371 33.1341 13.6094 32.7802C14.5745 32.4976 15.3097 32.2196 15.8198 31.9462C16.3322 31.9025 16.7228 31.7669 16.9894 31.544L16.9847 31.5027L16.7917 31.5601L16.7481 31.5648L16.7435 31.5234C17.1203 31.466 17.3799 31.3832 17.5247 31.2684C18.2577 30.7031 18.8114 30.3033 19.186 30.0666C19.9557 29.5014 20.4566 28.9499 20.6841 28.4146C20.7254 28.4053 20.7668 28.3962 20.8127 28.3847C20.9207 28.3801 20.9805 28.3778 20.9966 28.3732C20.992 28.3525 21.0012 28.3411 21.0218 28.3364C21.1942 28.3181 21.1115 28.3479 21.2217 28.3226L21.5113 28.2561L21.5595 28.2445L21.5366 28.2583C21.5687 28.2629 21.6032 28.2606 21.6422 28.2514L21.6629 28.3364L20.3463 30.4296L20.0545 30.795L19.912 31.2729L19.9396 31.2661L20.0821 31.2063L20.0361 31.3924L20.0499 31.4476L20.089 31.4958C20.0706 31.5004 20.0637 31.5119 20.0683 31.5326L20.0752 31.5625L20.1349 31.5487C20.2222 31.4728 20.259 31.4039 20.2452 31.3419C20.3394 31.3579 20.4014 31.3649 20.4336 31.3557L20.4405 31.3855C20.3831 31.3993 20.3532 31.4452 20.3486 31.5234L20.3555 31.5532L20.3877 31.5464C20.8656 31.0248 22.0374 29.2395 22.9772 28.0286C22.9473 27.8976 23.4368 27.716 24.4478 27.4817L24.4799 27.4748C24.5167 27.6333 24.4386 28.0171 24.2455 28.626C24.1215 28.9936 24.0617 29.1958 24.0709 29.228C23.9101 29.7174 23.8342 29.9816 23.8435 30.0229L23.485 31.1971C23.2529 31.7991 23.076 32.431 22.9519 33.0973C22.9726 33.0927 23.0048 33.095 23.0507 33.1065L23.1013 33.0628C23.1058 33.0836 23.1196 33.0904 23.1404 33.0858L23.1196 33.0008L23.2759 32.9962C23.3219 32.9848 23.3609 32.9273 23.3931 32.8216C23.3862 32.6631 23.4184 32.5781 23.4896 32.5597C23.5861 32.1829 23.6459 31.9944 23.6665 31.9875C23.7561 31.613 23.8227 31.3993 23.8664 31.3464C24.002 30.8594 24.1008 30.6089 24.1651 30.5928L24.1789 30.6525L24.0801 30.9076C23.9077 31.6727 23.7332 32.277 23.5562 32.7205L23.6068 32.9411L23.6389 32.9342C24.0663 32.0151 24.6821 30.1953 25.484 27.4748C25.507 27.2358 25.6219 27.0497 25.8264 26.9188L25.7804 26.8705L25.7735 26.8452C25.8654 26.8245 25.9298 26.7878 25.9666 26.7373C25.9619 26.7165 25.8815 26.6867 25.7253 26.6453L26.1251 24.9312C26.2124 24.8531 26.263 24.8118 26.279 24.8118L26.2859 24.899C26.2653 24.9013 26.2331 24.9128 26.1963 24.9381L26.2721 25.0461C26.41 24.8968 26.5594 24.7681 26.7225 24.6601C26.8052 24.6831 26.8465 24.7107 26.8512 24.7382L26.9109 24.7336C27.3658 24.4005 27.8116 24.1615 28.2505 24.0167L28.255 24.0742C28.1746 24.1959 28.1195 24.258 28.0896 24.2603C28.0942 24.3017 28.1057 24.3384 28.1264 24.3706C28.1333 24.4464 27.9357 24.9519 27.5313 25.8894C26.6076 28.0607 25.8332 29.6668 25.2037 30.71C25.206 30.7307 25.2198 30.7582 25.245 30.795C25.399 30.7582 25.4978 30.7192 25.5369 30.6824L25.5644 30.6801L25.569 30.7375L25.6334 30.733L25.6908 30.7031C25.6931 30.7192 25.7138 30.726 25.7528 30.7238L25.7575 30.7858C25.762 30.8409 25.7299 30.9283 25.6587 31.0477C25.592 31.119 25.5231 31.2684 25.4496 31.4958L25.4518 31.5257L25.5116 31.5211C25.762 31.2408 25.9528 30.965 26.0837 30.6939C26.8167 30.4779 27.3751 30.2688 27.761 30.062C28.154 30.0276 28.4503 29.9265 28.6526 29.7564L28.6502 29.7265L28.5009 29.7702L28.4687 29.7725L28.4664 29.7426C28.7514 29.7013 28.9513 29.637 29.0593 29.552C29.6153 29.1246 30.0358 28.819 30.3207 28.6397C31.2076 27.9941 31.6212 27.3737 31.5707 26.7786ZM31.419 26.8176L31.4397 27.0497C31.4121 27.1072 31.3823 27.137 31.3547 27.1393L31.3202 26.7441C31.3846 26.7671 31.4167 26.7901 31.419 26.8176ZM14.0207 24.9473L13.9817 24.9496L13.9747 24.8784L14.1333 24.8646L14.1356 24.9013C14.1103 24.9036 14.0712 24.9174 14.0207 24.9473ZM13.2464 32.6929C13.1545 32.6515 13.0717 32.6355 13.0005 32.6424L12.9913 32.5298C12.9867 32.4861 13.012 32.4562 13.0672 32.4447C13.1177 32.4402 13.1476 32.477 13.1522 32.5505C13.2854 32.3873 13.359 32.3046 13.3727 32.3023L13.4578 32.3368C13.4302 32.5665 13.359 32.6837 13.2464 32.6929ZM21.5205 24.0374C21.4814 24.042 21.4032 23.9202 21.2907 23.679L21.2838 23.6077C21.3573 23.6009 21.4331 23.7203 21.5135 23.9662L21.5205 24.0374ZM21.4102 23.1804L21.378 23.2562L20.2544 22.7874C21.0035 22.8127 21.3895 22.9437 21.4102 23.1804ZM16.6654 27.2542L16.5068 27.268L16.5 27.1968L16.6585 27.183L16.6654 27.2542ZM16.5367 24.8072L16.5757 24.8048L16.585 24.9174C16.5482 24.9198 16.5 24.9749 16.4402 25.0806L16.4333 25.0024C16.5045 24.9174 16.5413 24.8531 16.5367 24.8072ZM16.2035 25.593L16.2173 25.7423L16.1783 25.7446L16.1645 25.5953L16.2035 25.593ZM16.0289 25.8733L16.1048 25.8664C16.0978 25.9905 16.0634 26.0571 16.0013 26.0617L15.9623 26.064C16.0105 25.9813 16.0335 25.9169 16.0289 25.8733ZM15.8979 26.2639L15.9416 26.2593L15.9439 26.2961L15.8726 26.4156L15.7968 26.4224L15.7946 26.3857C15.8704 26.3788 15.9048 26.3397 15.8979 26.2639ZM15.7693 26.6155L15.7463 26.8039L15.7072 26.8062L15.6911 26.62L15.7693 26.6155ZM14.4802 30.2803C14.4297 30.5377 14.3746 30.6686 14.3171 30.6732L14.3148 30.6365C14.301 30.5101 14.3562 30.3906 14.4802 30.2803ZM14.2436 30.7927L14.2459 30.8295C14.2505 30.88 14.2275 30.9099 14.177 30.9122L14.1746 30.8754C14.17 30.8318 14.193 30.8042 14.2436 30.7927ZM14.1746 31.8566L14.2941 31.8451L14.2987 31.8865C14.2688 31.8887 14.2298 31.9048 14.1815 31.9324L14.1057 31.9393C14.1011 31.9002 14.1264 31.8703 14.1746 31.8566ZM17.5752 30.8065C16.9043 31.1374 16.5091 31.3625 16.3919 31.4797C15.6659 31.7325 15.3051 31.8887 15.312 31.9507C14.6664 32.2058 14.2412 32.3942 14.0368 32.5114C13.9885 32.516 13.9196 32.4976 13.8277 32.4562C13.8162 32.3253 13.8759 32.2196 14.0023 32.1346C14.1149 32.1254 14.2229 32.1415 14.3263 32.1851C14.4458 32.1231 14.6549 32.0542 14.9513 31.9806L14.9444 31.9025L14.7054 31.9232C14.7353 31.8818 14.9651 31.7739 15.397 31.5992L15.5165 31.5877L15.5188 31.6245C15.3143 31.6428 15.2017 31.7026 15.1765 31.8106C15.181 31.8589 15.2086 31.8795 15.2592 31.8749C15.4131 31.7784 15.4889 31.721 15.4867 31.7049C15.7785 31.6498 16.585 31.227 17.9062 30.4389L17.913 30.5101C17.9153 30.5445 17.8027 30.641 17.5752 30.8065ZM15.5487 31.4728C15.7417 31.4567 15.9071 31.3786 16.045 31.2431C16.1001 31.2385 16.13 31.2591 16.1323 31.3074C16.0381 31.3166 15.8566 31.3947 15.5923 31.5464L15.5533 31.5487L15.5487 31.4728ZM18.8183 28.9614L17.805 29.7656C17.0514 30.2596 16.647 30.5078 16.5872 30.5124C15.3879 31.1718 14.6411 31.5142 14.3516 31.5395L14.3079 31.544C14.3447 31.4085 14.8777 30.3171 15.9117 28.2629C16.3666 28.2238 17.0835 28.0124 18.0601 27.6265L18.2991 27.6058C18.7931 27.5621 19.163 27.6586 19.4065 27.8884L19.4203 28.0377C19.2388 28.5639 19.0366 28.8718 18.8183 28.9614ZM16.8377 27.8471L17.0008 27.8333L17.0031 27.87L16.84 27.8838L16.8377 27.8471ZM19.1285 27.4587L19.248 27.4472C19.3583 27.5001 19.4157 27.546 19.4203 27.5874L19.4226 27.6242C19.3169 27.6333 19.2181 27.5782 19.1285 27.4587ZM19.4525 25.6137C19.3468 25.74 19.0573 25.956 18.584 26.2593C18.4277 26.2731 17.8464 26.4983 16.84 26.9394C16.7897 26.9164 16.7343 26.9069 16.6792 26.9118L16.6723 26.8406C16.6608 26.6959 16.7251 26.5144 16.8676 26.2938C16.9457 25.8802 17.0307 25.6435 17.1249 25.5861L17.9636 23.6997C17.9544 23.5825 18.1336 23.4928 18.5012 23.4308L18.6207 23.4193L18.6299 23.5273C18.9907 23.4722 19.2158 23.44 19.3031 23.4331C19.9695 23.3757 20.3164 23.5112 20.344 23.8352L20.4198 23.8283L20.4037 23.6376L20.4865 23.6307C20.6818 23.7387 20.7875 23.8697 20.8013 24.0236C20.8104 24.1293 20.753 24.2603 20.6312 24.4166C20.5807 24.4211 20.5508 24.3844 20.5462 24.3108L20.4635 24.3178L20.4451 24.5475C20.1073 25.053 19.8615 25.3126 19.7099 25.3264C19.572 25.5171 19.487 25.6114 19.4525 25.6137ZM19.9672 26.9349C19.8982 26.8889 19.8431 26.8682 19.8018 26.8705L19.7926 26.7579L19.8684 26.751L20.0361 26.8499C20.043 26.9027 20.02 26.9302 19.9672 26.9349ZM20.5003 27.5667C20.5738 27.5966 20.6174 27.6287 20.6266 27.6586L20.5899 27.6678L20.5922 27.6701C20.5853 27.6701 20.5761 27.6724 20.5692 27.6747L20.514 27.7184L20.5003 27.5667ZM20.5508 27.8838L20.5439 27.8539L20.6404 27.8309L20.6473 27.8608L20.5508 27.8838ZM20.7829 28.1435C20.8817 28.1274 20.93 28.1205 21.1138 28.0791L21.1206 28.1089L20.7714 28.1894C20.776 28.1733 20.7806 28.1572 20.7829 28.1435ZM21.1229 28.2882C20.9759 28.302 21.008 28.2836 20.7737 28.3364L20.7668 28.3065L21.0609 28.2124L21.2011 28.1802L21.2149 28.2353C21.1505 28.2491 21.1965 28.2491 21.1229 28.2882ZM21.4331 28.2147C21.3987 28.2238 21.3711 28.2078 21.355 28.1687L21.4446 28.148C21.4837 28.1388 21.509 28.1549 21.5181 28.194L21.4331 28.2147ZM22.2741 27.3094L22.2672 27.2795L22.412 27.245L22.4258 27.3002L22.2741 27.3094ZM23.1725 32.8193C23.1817 32.7779 23.184 32.7481 23.1794 32.7274L23.2116 32.7205C23.2506 32.7113 23.2736 32.7251 23.2828 32.7619L23.2897 32.7917L23.1725 32.8193ZM23.8021 27.546L23.7377 27.5345C23.6344 27.5759 23.5471 27.6058 23.4758 27.6219L23.416 27.6357C23.3816 27.6448 23.354 27.631 23.3402 27.5943L23.7607 27.4978L23.8986 27.4334L23.9446 27.4863C23.8779 27.5001 23.8297 27.5207 23.8021 27.546ZM24.1261 27.4426L24.1191 27.4128C24.1399 27.4082 24.1674 27.3921 24.1973 27.3622L24.496 27.2932L24.5029 27.3231C24.3443 27.3622 24.2179 27.4013 24.1261 27.4426ZM24.172 26.8383C24.1514 26.8429 24.1238 26.8613 24.0893 26.8889C24.0847 26.8682 24.0434 26.8682 23.9652 26.8866C23.9514 26.8291 24.172 26.7487 24.6293 26.643L24.6936 26.6292L24.7074 26.6844C24.3857 26.7786 24.2065 26.8314 24.172 26.8383ZM24.9762 25.9698C24.9441 26.3351 24.8154 26.5419 24.5879 26.5948L24.581 26.5649L24.3788 26.643L24.2892 26.6637C24.2432 26.6752 24.2019 26.6729 24.1651 26.6614L24.1467 26.581C24.1399 26.5511 24.4317 26.1467 25.0245 25.3701L25.0934 25.3816C25.1187 25.4873 25.0796 25.6826 24.9762 25.9698ZM26.3985 24.752L26.3709 24.7543L26.3663 24.6969L26.4858 24.6854L26.4881 24.7152C26.4674 24.7198 26.4376 24.7313 26.3985 24.752ZM25.8126 30.6365C25.7437 30.6043 25.6816 30.5905 25.6288 30.5951L25.6219 30.5078C25.6196 30.4779 25.6379 30.4572 25.677 30.4457C25.7161 30.4412 25.7391 30.4687 25.7437 30.5284C25.8425 30.4021 25.8976 30.3378 25.9091 30.3378L25.9711 30.363C25.9481 30.5377 25.8953 30.6295 25.8126 30.6365ZM32.0945 24.065C32.0647 24.0673 32.0072 23.9754 31.9176 23.7892L31.913 23.7318C31.9704 23.7272 32.0302 23.8168 32.09 24.0006L32.0945 24.065ZM32.0118 23.4078L31.9842 23.4676L31.1341 23.1114C31.7016 23.1298 31.9957 23.2286 32.0118 23.4078ZM28.4067 26.5029L28.2872 26.5144L28.2826 26.4569L28.4021 26.4454L28.4067 26.5029ZM28.3079 24.644L28.34 24.6417L28.347 24.729C28.3171 24.7313 28.2803 24.7727 28.2367 24.8531L28.2321 24.7957C28.2849 24.729 28.3102 24.6785 28.3079 24.644ZM28.0574 25.2414L28.0667 25.354L28.0345 25.3563L28.0253 25.2437L28.0574 25.2414ZM27.9219 25.4551L27.9816 25.4505C27.9747 25.547 27.9495 25.5976 27.9058 25.6021L27.8736 25.6044C27.9081 25.5401 27.9242 25.4896 27.9219 25.4551ZM27.8254 25.7492L27.853 25.7469L27.8553 25.7768L27.8024 25.8687L27.7427 25.8733L27.7404 25.8434C27.8024 25.8388 27.83 25.8067 27.8254 25.7492ZM27.7289 26.0157L27.7082 26.1628L27.6806 26.1651L27.6692 26.0204L27.7289 26.0157ZM26.7477 28.8029C26.7087 28.9959 26.6673 29.0947 26.6237 29.0993L26.6214 29.074C26.6145 28.9775 26.6559 28.8856 26.7477 28.8029ZM26.5662 29.1912L26.5685 29.2165C26.5732 29.2578 26.5547 29.2808 26.5134 29.2831L26.5111 29.2532C26.5088 29.2234 26.5272 29.2027 26.5662 29.1912ZM26.5157 30L26.6076 29.9931L26.6099 30.0229C26.5892 30.0253 26.5571 30.0367 26.5203 30.0575L26.4606 30.062C26.4583 30.0299 26.4766 30.0092 26.5157 30ZM29.096 29.2027C28.5905 29.4532 28.2895 29.6232 28.1953 29.7105C27.6439 29.9035 27.3704 30.0229 27.3751 30.0712C26.8856 30.2665 26.5639 30.4067 26.4123 30.4963C26.3756 30.4986 26.3227 30.4848 26.2537 30.4527C26.2445 30.3539 26.2905 30.2734 26.387 30.2137C26.4744 30.2068 26.5571 30.2183 26.6329 30.2504C26.7248 30.2045 26.8833 30.154 27.1085 30.0965L27.1039 30.039L26.9178 30.0551C26.9408 30.0229 27.1177 29.9402 27.4463 29.807L27.5381 29.8001L27.5405 29.8253C27.3842 29.8391 27.2969 29.8851 27.2785 29.9678C27.2808 30.0046 27.3038 30.0229 27.3429 30.0184C27.4578 29.9426 27.5129 29.8989 27.5129 29.8851C27.7335 29.8461 28.3447 29.5244 29.3488 28.9224L29.3533 28.9798C29.3533 29.0028 29.2683 29.0763 29.096 29.2027ZM27.5566 29.7082C27.7059 29.6944 27.8323 29.637 27.938 29.5359C27.977 29.5336 28 29.5497 28.0023 29.5864C27.9334 29.5933 27.7978 29.6508 27.5933 29.7611L27.5612 29.7633L27.5566 29.7082ZM30.0427 27.7988L29.2776 28.4146C28.7054 28.7891 28.3952 28.9775 28.347 28.9821C27.4371 29.483 26.8718 29.7426 26.6489 29.7611L26.6168 29.7633C26.6444 29.6599 27.0511 28.8305 27.8369 27.2726C28.1792 27.2428 28.7215 27.0796 29.4659 26.7855L29.6521 26.7694C30.0266 26.7373 30.3069 26.8108 30.4907 26.9877L30.5 27.1003C30.3598 27.4955 30.2081 27.7275 30.0427 27.7988ZM28.54 26.9532L28.6595 26.9417L28.6617 26.9716L28.5423 26.9831L28.54 26.9532ZM30.2793 26.6568L30.3713 26.6499C30.4563 26.6913 30.5 26.728 30.5022 26.7579L30.5045 26.7832C30.4241 26.7901 30.3483 26.7487 30.2793 26.6568ZM30.5206 25.2575C30.4402 25.354 30.2219 25.5194 29.8658 25.7492C29.7463 25.7607 29.3051 25.9307 28.5423 26.2616C28.5055 26.2478 28.4641 26.2432 28.4205 26.2455L28.4159 26.1881C28.4067 26.0778 28.455 25.9399 28.5607 25.7722C28.6204 25.4551 28.687 25.2782 28.756 25.2368L29.397 23.803C29.3901 23.718 29.5257 23.6491 29.8014 23.5963L29.8934 23.5894L29.9002 23.6766C30.1714 23.633 30.3414 23.6077 30.4103 23.6009C30.9158 23.5572 31.18 23.6583 31.2008 23.9065L31.2605 23.9018L31.249 23.764L31.3087 23.7594C31.4558 23.8398 31.5339 23.9363 31.5431 24.0512C31.55 24.1339 31.5086 24.235 31.4213 24.3522C31.3823 24.3568 31.3593 24.3292 31.3547 24.2695L31.2949 24.2741L31.2766 24.4464C31.0215 24.8347 30.8354 25.0346 30.7182 25.0438C30.6148 25.184 30.5505 25.2552 30.5206 25.2575ZM30.7894 26.2134L30.7826 26.126L30.8423 26.1215L30.9709 26.1996C30.9733 26.2363 30.9549 26.257 30.9158 26.2616C30.8607 26.2271 30.8193 26.211 30.7894 26.2134ZM20.0935 31.7945L20.0338 31.8083L19.9833 31.8519C19.9925 31.8887 20.0155 31.9025 20.0545 31.8933C20.0935 31.8841 20.1096 31.8612 20.1005 31.8244L20.0935 31.7945ZM19.8661 31.3419L19.873 31.3717C19.912 31.3625 19.9281 31.3396 19.919 31.3028L19.912 31.2729C19.8753 31.2821 19.8592 31.3051 19.8661 31.3419ZM21.4929 28.2859L21.5366 28.2583C21.5273 28.2583 21.5205 28.256 21.5135 28.2537C21.4975 28.2583 21.4906 28.2698 21.4929 28.2859ZM21.4837 27.4932L21.5526 27.4771L21.5388 27.4173L21.4699 27.4334L21.4837 27.4932ZM37.7217 29.8139L37.5654 29.7955L37.5378 29.8552L37.5401 29.8851L38.4707 29.807L38.4661 29.7496L37.7217 29.8139ZM38.5718 29.7426L38.5764 29.8001H38.5856L38.581 29.7426H38.5718ZM42.4756 29.2325L42.4802 29.29L42.5813 29.3084L42.5767 29.2509L42.4756 29.2325ZM42.3332 29.244C41.6347 29.4003 41.5474 29.3727 41.4003 29.3842L41.4049 29.4416L41.4692 29.4371L41.5037 29.4347L41.4945 29.4279L41.5704 29.398C42.262 29.3222 42.3424 29.3497 42.3355 29.2716L42.3332 29.244ZM38.1399 28.2285L38.0778 28.2078C38.0273 28.3433 38.002 28.4238 38.0043 28.4467L38.0065 28.472C38.0549 28.4697 38.0985 28.387 38.1399 28.2285ZM37.2989 27.7758L37.2966 27.7459L37.2644 27.7482L37.207 27.785L37.2392 27.8401C37.2828 27.8356 37.3035 27.8148 37.2989 27.7758ZM39.1256 29.6645L39.121 29.6071L39.1026 29.6094L39.1072 29.6668L39.1256 29.6645ZM42.9168 28.8098L42.9604 28.8052C42.9857 28.8029 42.9972 28.7822 42.9949 28.7454L42.9696 28.6903C42.8111 28.7041 42.7376 28.711 42.6089 28.7822L42.6066 28.7523L42.4159 28.7707C42.4113 28.7132 42.3952 28.6834 42.3699 28.6857L42.2711 28.6949C42.1562 28.7041 42.1011 28.6995 42.0436 28.7431C42.0414 28.7225 42.0345 28.7132 42.023 28.7132L41.9127 28.7225L41.8483 28.7592C41.846 28.7385 41.8392 28.7293 41.8277 28.7293L41.7886 28.7638L41.7863 28.734L41.6324 28.7225L41.5956 28.7248L41.6002 28.7822L41.6783 28.8029L41.7519 28.7983C41.7771 28.8144 41.8047 28.819 41.8369 28.8167L41.9012 28.7845L41.9035 28.8098C41.5428 28.8994 41.5451 28.8833 41.2969 28.9246C41.2693 28.9063 41.2487 28.8971 41.2349 28.8994L41.2303 28.904C41.2027 28.9017 41.1866 28.8833 41.1843 28.8534L41.313 28.8373C41.3222 28.8373 41.3291 28.8466 41.4003 28.8603C41.5037 28.8098 41.5083 28.7891 41.5634 28.7845L41.5589 28.727C41.205 28.796 41.3475 28.75 40.904 28.7891L40.8833 28.7914L40.8787 28.734C41.4486 28.665 41.2578 28.7041 41.4531 28.649C41.4554 28.6696 41.4624 28.6788 41.4739 28.6788C41.4948 28.6574 41.5223 28.6437 41.5519 28.6397L41.591 28.6375C41.7909 28.6214 41.8576 28.6604 42.2528 28.5501L42.255 28.5754L42.3194 28.5432L42.3791 28.5387C42.3746 28.4812 42.4619 28.472 42.4917 28.4697L42.4872 28.4077C41.7932 28.5478 41.6117 28.5088 41.4187 28.5639L41.4164 28.5387C41.2349 28.5708 41.228 28.557 41.182 28.5593C41.1682 28.5616 41.1476 28.5731 41.1246 28.5961C41.1223 28.5754 41.1154 28.5662 41.1016 28.5662C41.0947 28.5662 41.0924 28.5685 41.0901 28.5685L40.5019 28.665C40.4996 28.649 40.4927 28.6397 40.4789 28.642C40.1733 28.7064 40.256 28.7179 39.847 28.7546C39.8287 28.7569 39.8034 28.7661 39.7713 28.7868C39.7689 28.7707 39.7597 28.7615 39.7391 28.7638L39.4886 28.7845L39.3209 28.8258C39.3186 28.8098 39.3094 28.8006 39.2887 28.8029C39.1945 28.8281 39.1118 28.8442 39.0451 28.8488H39.0406C38.9992 28.8534 39.0612 28.8373 39.0291 28.8236L38.9785 28.8534C38.905 28.8603 38.9441 28.8488 38.6913 28.8511C38.2478 28.9063 38.2961 28.9132 38.2478 28.9155L38.0824 28.904C38.0847 28.9201 38.0755 28.9316 38.0571 28.9316C37.8687 28.9063 37.7722 28.8764 37.7699 28.8419C37.7952 28.6627 37.8388 28.5708 37.9009 28.5662L37.9331 28.5639L37.9055 28.6237L37.9376 28.6214C37.9974 28.5892 38.025 28.5593 38.0227 28.5317L38.0181 28.4697L37.9583 28.4743L37.9537 28.4168C37.9491 28.3732 37.9561 28.3341 37.9721 28.302L38.1077 28.0837L38.1123 28.1411L38.1766 28.1365L38.172 28.0791L38.1352 28.0262C38.1835 27.9849 38.2203 27.9619 38.2502 27.9596L38.2478 27.9297L38.1605 27.9366L38.1537 27.8493C38.3283 27.4863 38.411 27.2749 38.4064 27.2152L38.4684 27.2404C38.5075 27.2381 38.5258 27.2152 38.5236 27.1738L38.4638 27.1784L38.4616 27.1531C38.4573 27.1112 38.4653 27.0689 38.4845 27.0314C38.5787 26.9326 38.6224 26.8338 38.6132 26.7303C38.6316 26.728 38.6407 26.7373 38.6431 26.7579C38.7235 26.712 38.7855 26.5901 38.8315 26.388C38.9739 26.1307 39.1761 25.6159 39.4403 24.8462C39.9459 23.486 39.9252 23.3412 39.9964 23.0195L39.9367 23.0241C39.9413 23.0655 39.9321 23.1046 39.9137 23.1413C39.8723 23.1252 39.8402 23.116 39.8172 23.1183L39.8149 23.0931C39.8057 22.9759 39.854 22.8357 39.9642 22.6703L39.9918 22.668L40.0424 22.8656L40.1021 22.861C40.0998 22.8472 40.1159 22.7691 40.1481 22.6243C40.1457 22.5944 40.1228 22.5761 40.0768 22.5738L40.0194 22.6105C40.0148 22.5692 40.0171 22.4612 40.024 22.2889L39.9941 22.2912C39.9436 22.2406 39.9183 22.1992 39.916 22.1648L39.5874 22.1969C39.5851 22.174 39.5737 22.1395 39.5506 22.0958C39.5484 22.066 39.6219 22.0361 39.7735 22.0062L39.8402 22.0315L39.9022 21.9948C39.9045 22.0154 39.916 22.0246 39.939 22.0223L40.001 21.9855C40.0033 22.0062 40.0148 22.0154 40.0378 22.0131L40.0677 22.0108L40.063 21.9442C40.0171 21.9488 39.8953 21.9488 39.7023 21.9419L39.6402 21.9833L39.6379 21.9465C38.0962 22.0728 37.2208 22.1441 37.0117 22.1648C36.9841 22.1671 36.8761 22.1648 36.6854 22.1602C36.6877 22.1854 36.6647 22.1992 36.6188 22.2038L36.5521 22.174L36.327 22.2314C36.2741 22.236 36.1845 22.2337 36.0604 22.2199C36.026 22.2475 35.9846 22.2636 35.934 22.2682C35.9065 22.2704 36.2626 22.2498 36.5935 22.2268C36.559 22.2544 36.5062 22.2704 36.4326 22.2774C36.3821 22.2819 36.3385 22.2751 36.3017 22.2544C36.2511 22.2774 36.088 22.3141 35.8146 22.3692L35.748 22.344L34.6726 22.5094C34.6312 22.4888 34.583 22.4818 34.5278 22.4865C34.4704 22.491 34.3739 22.5117 34.2406 22.5485L33.7214 22.7645L33.7604 22.8288C33.7856 22.8265 33.8224 22.8127 33.8661 22.7874L34.0499 22.8035L34.0269 22.9759C33.8569 23.0517 33.7581 23.1643 33.7305 23.3067C33.4755 23.4193 33.3491 23.4998 33.3491 23.548L33.3514 23.5778L33.3904 23.5756L33.4594 23.5388L33.5398 23.6353L33.5513 23.7686C33.5559 23.81 33.1262 24.7129 32.2669 26.4776C31.5224 28.1779 31.1318 29.1085 31.095 29.2762C30.84 29.3474 30.6929 29.4509 30.6493 29.5887C30.6539 29.6324 30.7297 29.6623 30.8768 29.6737L30.8836 29.7403L30.817 29.8506L30.8285 29.9839C30.8354 30.0528 31.0215 30.1057 31.3869 30.1425C31.3846 30.1195 31.396 30.1057 31.4213 30.1034C31.4282 30.1861 31.4052 30.3469 31.3524 30.5859L31.3914 30.5836C31.5431 30.3768 31.6143 30.2343 31.6074 30.1563L31.6396 30.154C31.6764 30.1516 31.7154 30.193 31.7614 30.2826C31.7154 30.301 31.5546 30.6663 31.2788 31.3809L31.3179 31.4452L31.357 31.4429C31.6948 30.5882 31.9062 30.1149 31.9934 30.0253C32.4369 29.9862 33.2043 29.9081 34.2935 29.7909L34.3624 29.7495C34.3647 29.7725 34.3785 29.784 34.4037 29.7817L34.475 29.7748L34.5439 29.7335C34.5462 29.7564 34.56 29.7679 34.5853 29.7656L35.4102 29.6944C35.6284 29.676 35.7319 29.6094 35.7226 29.4968C35.7204 29.4669 35.849 29.4324 36.1087 29.3957C36.1339 29.3934 36.1707 29.4003 36.2212 29.4163C36.2189 29.3957 36.3499 29.375 36.6119 29.352C36.6188 29.2142 36.6624 29.1407 36.7405 29.1337L36.7337 29.0671C36.6601 29.074 36.5774 29.0924 36.4809 29.1246C36.3086 29.1154 36.1983 29.1016 36.1523 29.0855C36.1063 29.1108 36.0719 29.1246 36.0466 29.1269L35.4722 29.1452L35.4032 29.182C35.4009 29.1613 35.3872 29.1521 35.3619 29.1544L35.3297 29.1567L35.2562 29.1935C35.2539 29.1728 35.1942 29.1567 35.0747 29.1407L35.0012 29.1843L34.8587 29.1958L34.8564 29.159C35.5963 29.0786 35.9616 28.9775 35.9524 28.858C36.0007 28.8534 36.026 28.8764 36.0305 28.9246L36.2465 28.8695L36.2397 28.8029L34.4681 28.8511C34.4704 28.8741 34.4589 28.8879 34.4336 28.8902L34.2176 28.8718C34.1625 28.8764 34.1166 28.8925 34.0798 28.9201L33.9994 28.8902C33.7765 28.9086 33.611 28.9361 33.5007 28.9706C33.3491 28.9592 33.1814 28.9614 32.9952 28.9775L32.5978 29.012L32.414 28.9913C32.4047 28.8741 32.6322 28.2974 33.101 27.2634C33.2365 26.9141 33.3606 26.6959 33.4801 26.6132C33.5053 26.6109 33.5421 26.62 33.5927 26.6407L33.8753 26.5442L34.02 26.5672C34.2636 26.5465 34.5462 26.4776 34.8702 26.3581C34.9506 26.3512 35.0103 26.3558 35.054 26.3742L35.27 26.3236L35.9134 26.2685C36.1868 26.2455 36.4832 26.1858 36.8049 26.087L36.798 26.0204C36.6785 26.0319 36.6165 26.0111 36.6119 25.9629C36.605 25.8733 36.5177 25.8365 36.3499 25.8503L36.343 25.7837L36.52 25.7331L36.9841 25.6941L36.9772 25.6275C36.9588 25.6297 36.8646 25.6275 36.69 25.6205L36.6831 25.5493L36.8623 25.5332C36.9106 25.5287 36.9313 25.5056 36.9267 25.4597C36.6854 25.4666 36.5636 25.4551 36.5613 25.4229C34.8794 25.5056 34.0361 25.5217 34.0316 25.4689C34.0063 25.4712 33.9718 25.4873 33.9258 25.5149L33.8822 25.4459C34.3279 24.4993 34.5899 24.0213 34.6657 24.0144C34.668 24.0512 34.6496 24.1109 34.6105 24.1914L34.6128 24.2212L34.6841 24.2143C34.861 23.7915 35.0103 23.5733 35.1344 23.5641C35.6629 23.5181 35.0609 23.4837 36.1914 23.3067C36.2374 23.3274 36.2695 23.3366 36.2925 23.3343C36.7359 23.2447 37.354 23.1505 38.1467 23.054L38.1421 22.9873L37.7194 23.0264L37.7148 22.9598C37.7653 22.9552 37.8067 22.9391 37.8412 22.9115L37.8435 22.9483C37.8664 22.946 37.8986 22.9299 37.94 22.9023C38.0135 22.8955 38.0686 22.9023 38.1077 22.923C38.2547 22.884 38.3742 22.8609 38.4616 22.8518L38.7258 22.8265C38.7901 22.7852 38.82 22.7484 38.8177 22.7139L38.8154 22.6841C38.7487 22.6909 38.6729 22.6864 38.5833 22.6703C38.581 22.6335 38.5994 22.6082 38.6431 22.5967L39.1348 22.5508L39.3599 22.4933C39.3623 22.5186 39.3737 22.5278 39.3921 22.5278C39.4151 22.5255 39.4473 22.5094 39.4886 22.4818C39.5001 22.4842 39.5139 22.4842 39.5253 22.4865C39.4955 22.5485 39.4611 22.6381 39.4265 22.7553L39.3623 22.7599C39.3576 22.7162 39.3462 22.6771 39.3255 22.6427L39.2933 22.645C38.6959 24.3085 38.4293 25.0829 37.8779 26.3604C37.7768 26.6867 37.6918 26.8682 37.6183 26.9073C37.6206 26.944 37.6435 26.9624 37.6826 26.9578C37.6964 27.1187 37.6597 27.2772 37.57 27.4334C37.3149 28.1687 37.1449 28.5708 37.0576 28.6443L37.1151 28.9913C37.1173 29.0281 37.099 29.0487 37.0599 29.0533L37.0002 29.058C36.991 28.9614 36.9565 28.9155 36.8945 28.9224L36.8623 28.9246C36.7842 29.0464 36.7244 29.1866 36.6854 29.3497L36.7452 29.3451C36.8255 29.2923 36.8623 29.2303 36.8554 29.159L36.9749 29.1475L37.0438 29.1728C36.9887 29.2601 36.9634 29.3291 36.968 29.3819L37.0002 29.4371L36.922 29.6209L36.9243 29.6508C36.9933 29.6438 37.0691 29.6668 37.1495 29.7151C37.2047 29.7105 37.2644 29.6852 37.331 29.6415C37.4 29.6347 37.6573 29.6324 38.1008 29.6324L38.3237 29.5565C38.5948 29.5542 38.6384 29.5611 38.8728 29.5404L38.9693 29.5312L39.0198 29.4968L39.0222 29.5267C39.268 29.506 39.2841 29.5221 39.4771 29.545L39.4794 29.5749L39.3438 29.5864L39.3485 29.6438C39.3898 29.6392 39.4265 29.6277 39.4564 29.6025C39.4909 29.6002 39.5116 29.6186 39.5139 29.6599C39.4587 29.6645 39.3967 29.6783 39.3277 29.7013L39.268 29.6806C39.1738 29.7059 39.1945 29.7127 39.1301 29.7174L39.036 29.699C39.0383 29.7151 39.0291 29.7265 39.013 29.7265C39.0153 29.7633 39.036 29.7817 39.0704 29.7794L39.1669 29.7702L39.6701 29.7265L39.8608 29.6852C39.8631 29.7013 39.87 29.7105 39.8861 29.7082L39.978 29.6737L40.1504 29.6599C40.2836 29.6485 40.2813 29.6392 40.5708 29.5933C40.5685 29.5749 40.5754 29.568 40.5892 29.5657L40.5915 29.591C41.0625 29.5106 41.0924 29.506 41.1682 29.4807L41.1751 29.4945C41.2923 29.4669 41.2257 29.4738 41.2578 29.4509C41.2602 29.4715 41.267 29.4807 41.2785 29.4807L41.3613 29.4738L41.3566 29.4118L41.1889 29.4095L41.1866 29.4049C41.1797 29.4072 41.1751 29.4072 41.1682 29.4095H41.1453V29.4141C41.0327 29.4371 41.0303 29.421 40.9568 29.4279L40.5363 29.4509L40.5341 29.421L40.7685 29.3888L40.8535 29.3819L40.9017 29.3474L40.904 29.3773C41.2349 29.3497 41.352 29.4324 42.8823 29.1062C42.9651 29.0993 42.9581 29.0304 43.011 28.8879C42.983 28.8898 42.955 28.8834 42.9306 28.8695C42.8042 28.9178 42.7376 28.8948 42.494 28.9339C42.4734 28.9362 42.4573 28.9178 42.4503 28.881L42.448 28.8557L42.6824 28.8626C42.7261 28.858 42.8111 28.8511 42.9375 28.7799C42.9375 28.8006 42.8892 28.812 42.9168 28.8098H42.9168ZM31.6028 28.9913L31.4949 29.0005C31.4902 28.9568 31.5477 28.7914 31.6672 28.5088L31.7384 28.5019C31.7407 28.5685 31.697 28.7317 31.6028 28.9913ZM31.7338 28.4674L31.7315 28.4376C31.7292 28.4008 31.7522 28.3755 31.8027 28.364L31.805 28.3939C31.8074 28.4376 31.7843 28.4628 31.7338 28.4674ZM33.1699 29.5772L33.1722 29.6071L32.993 29.6232L32.9907 29.5933L33.1699 29.5772ZM32.9539 29.5588C32.9562 29.5956 32.901 29.637 32.7816 29.6783L32.561 29.6623L32.4897 29.6691L32.4829 29.6025L32.9539 29.5588ZM34.406 22.8747L34.2981 22.884L34.2958 22.8472C34.2935 22.8105 34.3142 22.7852 34.3601 22.7737L34.3992 22.7714L34.4727 22.8012C34.475 22.8449 34.4543 22.8702 34.406 22.8747ZM36.0489 22.5531L36.0834 22.5508L36.088 22.6174L35.9892 22.6266C35.9869 22.5898 36.0052 22.5646 36.0489 22.5531ZM35.6353 22.6979L35.4722 22.6794L35.4699 22.6496C35.6836 22.6312 35.7548 22.6082 35.8858 22.5715C35.8881 22.5967 35.911 22.6059 35.9524 22.6014L35.957 22.668L35.8927 22.6749C35.8421 22.6794 35.7985 22.6726 35.7617 22.6519C35.7226 22.6771 35.6813 22.6932 35.6353 22.6979ZM35.8398 23.293L35.8375 23.2631L36.1018 23.2378L36.1041 23.2677L35.8398 23.293ZM36.1224 23.0632L36.1201 23.0264L36.2488 23.0149L36.2511 23.0517L36.1224 23.0632ZM36.1523 22.6128L36.1178 22.6151L36.1477 22.5439L36.4418 22.5163L36.4441 22.5531C36.3683 22.56 36.2695 22.5806 36.1523 22.6128ZM36.3017 23.247L36.2971 23.1804L36.4258 23.1689C36.4694 23.1643 36.4924 23.1849 36.4947 23.2309L36.3017 23.247ZM37.0806 22.1854L36.9152 22.2314L36.8853 22.2337C36.8072 22.2406 36.7061 22.2383 36.5866 22.2268C36.8003 22.213 37.0048 22.1969 37.0806 22.1854ZM36.9037 22.9207L36.906 22.9506L36.6785 22.9713L36.6762 22.9414L36.9037 22.9207ZM37.2759 23.0976C37.2736 23.0701 37.2299 23.0517 37.1404 23.0425L36.9129 23.1069L36.7382 23.1137C36.6992 23.0861 36.6785 23.0678 36.6762 23.054L36.8784 23.0655L37.3333 22.992L37.5654 23.0011L37.5677 23.0379C37.4528 23.0494 37.3563 23.0701 37.2759 23.0976ZM39.6173 22.4933C39.6449 22.4956 39.6632 22.4956 39.6701 22.4956C39.7505 22.4175 39.8402 22.3555 39.9436 22.3118C39.8608 22.6749 39.7322 22.9437 39.5552 23.1183L39.4265 23.0402C39.5346 22.7668 39.5989 22.5853 39.6173 22.4933ZM39.2221 23.1711L39.2542 23.1689C39.2106 23.2516 39.1715 23.2952 39.1394 23.2975L39.1324 23.2102C39.1532 23.2102 39.183 23.1964 39.2221 23.1711ZM38.967 23.7801C39.0291 23.5319 39.0888 23.3918 39.1439 23.355L39.1462 23.3849C39.1141 23.6146 39.0635 23.7364 38.9969 23.7456L39.0084 23.8903C38.9533 23.9685 38.928 24.0282 38.9302 24.0742L38.8981 24.0765L38.8797 23.8766C38.9165 23.872 38.9463 23.8398 38.967 23.7801ZM38.8682 24.1109C38.8705 24.1454 38.8475 24.2258 38.8016 24.3499L38.7694 24.3522L38.7625 24.2649C38.8062 24.1638 38.843 24.1132 38.8682 24.1109H38.8682ZM37.014 29.4922L37.0117 29.4669L37.0714 29.4623L37.0783 29.5497C37.0461 29.552 37.0231 29.5336 37.014 29.4922ZM39.6632 29.5611C39.6609 29.5404 39.6517 29.5312 39.6311 29.5336L39.4817 29.5473L39.4794 29.5174H39.4932L39.847 29.4876L39.8493 29.5174C39.746 29.5221 39.6839 29.5382 39.6632 29.5611ZM39.4863 29.4876C39.5001 29.4945 39.4932 29.5014 39.4863 29.506C39.4794 29.5037 39.4702 29.4968 39.4863 29.4876ZM39.5047 29.074L39.3071 29.0901L39.3048 29.0602L39.484 29.0442L39.6402 29.0051C39.6426 29.0234 39.6517 29.0304 39.6725 29.0281C39.8586 28.9959 39.8402 28.9867 39.9298 28.9798C39.9596 28.9775 39.978 28.9959 39.9803 29.0327L39.5047 29.074ZM40.1963 29.0143C40.086 29.0028 40.0791 28.9936 40.001 29.0005L39.9987 28.9752L40.1756 28.9592L40.1779 28.9844C40.1595 28.9867 40.2262 28.9913 40.1963 29.0143ZM40.2101 28.9821L40.2078 28.9568L40.3043 28.9476L40.3066 28.9729L40.2101 28.9821ZM40.4238 28.9637L40.4215 28.9384C40.4376 28.9362 40.4606 28.9246 40.4904 28.9017C40.5386 28.8971 40.5639 28.9293 40.5685 28.966L40.4238 28.9637ZM40.6972 28.9293L40.6949 28.8994L40.8121 28.8902L40.8144 28.9201L40.6972 28.9293ZM40.8603 28.9155C40.8581 28.881 40.8718 28.8603 40.9017 28.8557L40.9408 28.9063C40.9385 28.8902 40.9453 28.881 40.9591 28.8787L40.989 28.9339L40.8603 28.9155ZM43.1213 28.649L43.1236 28.6466V28.6443C43.1236 28.6443 43.1213 28.6466 43.1213 28.649ZM43.1627 28.6191C43.181 28.6076 43.1903 28.5961 43.1466 28.5892C43.1259 28.6122 43.1695 28.6191 43.1236 28.6214L43.1259 28.642C43.1305 28.6375 43.142 28.6305 43.1512 28.6237L43.1259 28.6443V28.6466L43.0777 28.7087L43.1742 28.6742H43.1856L43.181 28.6167L43.1627 28.6191ZM43.3304 28.7501L43.312 28.7523L43.3166 28.8098L43.4522 28.7983C43.4499 28.7615 43.3603 28.7501 43.3304 28.7501Z" fill="#F9DC3E"/>
</svg>
