<svg width="58" height="56" viewBox="0 0 58 56" fill="none" xmlns="http://www.w3.org/2000/svg">
<path fill-rule="evenodd" clip-rule="evenodd" d="M43.2052 21.2486L43.3329 21.5449C44.2693 23.5978 44.7375 25.7565 44.7375 27.9999C44.7375 36.5713 37.7143 43.5554 29.095 43.5554C20.4757 43.5554 13.4526 36.5713 13.4526 27.9999C13.4526 19.4285 20.4757 12.4443 29.095 12.4443C31.6276 12.4443 34.0325 13.0369 36.2459 14.1375L36.5438 14.2856L36.2884 14.4972C35.65 15.0052 35.1605 15.6401 34.8413 16.3808L34.7561 16.5925L34.5646 16.5078C32.8407 15.7036 31.0105 15.2803 29.095 15.2803C22.0293 15.2803 16.3044 20.9734 16.3044 27.9999C16.3044 35.0263 22.0293 40.7195 29.095 40.7195C36.1607 40.7195 41.8857 35.0051 41.8857 27.9999C41.8857 26.328 41.5665 24.6771 40.9067 23.1322L40.8216 22.9205L41.0343 22.8358C41.7792 22.5607 42.4602 22.0951 42.9924 21.5025L43.2052 21.2486ZM39.3318 21.5449C41.1301 21.5449 42.588 20.0951 42.588 18.3068C42.588 16.5184 41.1301 15.0687 39.3318 15.0687C37.5335 15.0687 36.0756 16.5184 36.0756 18.3068C36.0756 20.0951 37.5335 21.5449 39.3318 21.5449ZM29.0949 20.91C25.1577 20.91 21.9654 24.0846 21.9654 28C21.9654 31.9153 25.1577 35.0899 29.0949 35.0899C33.0321 35.0899 36.2245 31.9153 36.2245 28C36.2245 24.0846 33.0321 20.91 29.0949 20.91Z" fill="#3880FF"/>
</svg>
