<svg width="56" height="56" viewBox="0 0 56 56" fill="none" xmlns="http://www.w3.org/2000/svg">
<path d="M39.2336 29.7468C38.1482 29.7525 37.2049 30.0139 36.415 30.4003C36.1252 29.8264 35.8354 29.315 35.7842 28.9399C35.7274 28.5023 35.6592 28.2353 35.7274 27.7125C35.7956 27.1897 36.1025 26.4453 36.0968 26.3884C36.0911 26.3316 36.0286 26.0645 35.4035 26.0588C34.7784 26.0532 34.2386 26.1782 34.1761 26.343C34.1136 26.5078 33.9942 26.8828 33.9147 27.2692C33.8067 27.8375 32.6645 29.8662 32.011 30.9288C31.8008 30.514 31.6189 30.1503 31.5791 29.8605C31.5223 29.4229 31.4541 29.1558 31.5223 28.633C31.5905 28.1102 31.8974 27.3658 31.8917 27.309C31.886 27.2522 31.8235 26.9851 31.1984 26.9794C30.5733 26.9737 30.0335 27.0988 29.971 27.2635C29.9085 27.4283 29.8403 27.8148 29.7096 28.1898C29.5789 28.5649 28.0616 31.9517 27.6639 32.8268C27.4593 33.2757 27.2831 33.6337 27.1581 33.878C27.1581 33.878 27.1524 33.8951 27.1354 33.9235C27.0274 34.1338 26.9649 34.2474 26.9649 34.2474C26.9649 34.2474 26.9649 34.2474 26.9649 34.2531C26.8797 34.4065 26.7887 34.5486 26.7433 34.5486C26.7092 34.5486 26.6467 34.1394 26.7546 33.5826C26.9819 32.4063 27.5218 30.5765 27.5161 30.514C27.5161 30.4799 27.6184 30.1617 27.1638 29.9969C26.7205 29.8321 26.5614 30.1048 26.5217 30.1048C26.4819 30.1048 26.4535 30.2014 26.4535 30.2014C26.4535 30.2014 26.9479 28.1443 25.5102 28.1443C24.6123 28.1443 23.3735 29.1274 22.7598 30.0139C22.3734 30.2242 21.5494 30.6731 20.6686 31.1561C20.3333 31.3436 19.9867 31.5311 19.6628 31.7073C19.6401 31.6846 19.6173 31.6562 19.5946 31.6334C17.8557 29.7752 14.6394 28.4626 14.7758 25.9679C14.8269 25.0587 15.1395 22.672 20.9527 19.7739C25.7375 17.4157 29.5448 18.0692 30.204 19.5182C31.1473 21.5867 28.1639 25.4281 23.2201 25.985C21.3335 26.1952 20.3447 25.4679 20.0947 25.1951C19.8333 24.911 19.7935 24.8939 19.6969 24.9507C19.5378 25.036 19.6401 25.2917 19.6969 25.4394C19.8446 25.8259 20.4527 26.5078 21.4812 26.843C22.3904 27.1385 24.601 27.3033 27.2774 26.2691C30.2722 25.1099 32.6134 21.8878 31.9258 19.1886C31.2382 16.4496 26.6921 15.5461 22.3904 17.0747C19.8333 17.9839 17.0602 19.4159 15.0656 21.2798C12.696 23.496 12.3209 25.4224 12.4744 26.2293C13.0256 29.0933 16.975 30.9572 18.5547 32.3381C18.4751 32.3835 18.4013 32.4233 18.3388 32.4574C17.5489 32.8495 14.5371 34.4236 13.787 36.0886C12.9346 37.9752 13.9234 39.3276 14.5769 39.5095C16.6056 40.072 18.6911 39.0605 19.8106 37.3899C20.93 35.7192 20.7936 33.5485 20.2765 32.554C20.2708 32.5426 20.2652 32.5313 20.2538 32.5199C20.4584 32.4006 20.6686 32.2756 20.8732 32.1562C21.2767 31.9176 21.6744 31.6959 22.0154 31.5141C21.8222 32.0426 21.6801 32.6733 21.6119 33.5826C21.5267 34.6509 21.9642 36.0374 22.5382 36.583C22.7939 36.8216 23.0951 36.8273 23.2883 36.8273C23.9588 36.8273 24.26 36.2704 24.5953 35.6112C25.0044 34.8043 25.3738 33.8667 25.3738 33.8667C25.3738 33.8667 24.9135 36.4011 26.1637 36.4011C26.6183 36.4011 27.0786 35.8101 27.2831 35.5089C27.2831 35.5146 27.2831 35.5146 27.2831 35.5146C27.2831 35.5146 27.2945 35.4976 27.3172 35.4578C27.3627 35.3839 27.3911 35.3385 27.3911 35.3385C27.3911 35.3385 27.3911 35.3328 27.3911 35.3271C27.5729 35.0089 27.9821 34.2872 28.5901 33.0882C29.3743 31.5425 30.1301 29.6104 30.1301 29.6104C30.1301 29.6104 30.1983 30.0821 30.4313 30.8663C30.5676 31.3266 30.8518 31.8323 31.0791 32.321C30.8972 32.5767 30.7836 32.7188 30.7836 32.7188C30.7836 32.7188 30.7836 32.7188 30.7893 32.7245C30.6415 32.9177 30.4824 33.128 30.3062 33.3325C29.6868 34.0713 28.9481 34.918 28.8458 35.1623C28.7265 35.4521 28.7549 35.6624 28.9822 35.8329C29.147 35.9579 29.4425 35.9749 29.7437 35.9579C30.3006 35.9181 30.6927 35.7817 30.8859 35.6965C31.187 35.5885 31.5394 35.4237 31.869 35.1794C32.477 34.7304 32.8464 34.0883 32.8123 33.2416C32.7952 32.7756 32.6418 32.3097 32.4543 31.8721C32.5111 31.7925 32.5622 31.713 32.6191 31.6334C33.5794 30.2298 34.3238 28.6899 34.3238 28.6899C34.3238 28.6899 34.392 29.1615 34.625 29.9457C34.7386 30.3435 34.9716 30.7754 35.1762 31.1959C34.2727 31.9289 33.7158 32.7813 33.5169 33.3382C33.1589 34.3724 33.4373 34.8384 33.9658 34.9464C34.2045 34.9975 34.5454 34.8839 34.7955 34.7759C35.1137 34.6736 35.4887 34.4974 35.8467 34.2361C36.4548 33.7871 37.0401 33.162 37.006 32.3153C36.9889 31.9289 36.8867 31.5482 36.7446 31.1788C37.5117 30.8606 38.5005 30.6844 39.762 30.8322C42.4669 31.1504 43.0011 32.8381 42.8988 33.5485C42.7965 34.2588 42.2283 34.6452 42.0407 34.7645C41.8532 34.8839 41.7907 34.9236 41.8078 35.0089C41.8305 35.1339 41.9214 35.1282 42.0805 35.1055C42.3021 35.0657 43.5012 34.5315 43.5523 33.2246C43.6375 31.5539 42.0464 29.7298 39.2336 29.7468ZM18.3672 36.7818C17.4693 37.7592 16.2192 38.1286 15.6793 37.8161C15.0997 37.4808 15.327 36.0374 16.4294 35.0032C17.1 34.3724 17.9637 33.7871 18.5377 33.4291C18.6684 33.3496 18.8616 33.2359 19.0945 33.0939C19.1343 33.0711 19.1571 33.0598 19.1571 33.0598C19.2025 33.0313 19.248 33.0029 19.2934 32.9745C19.6969 34.452 19.3105 35.7533 18.3672 36.7818ZM24.9021 32.3381C24.5896 33.0995 23.9361 35.0487 23.5383 34.9407C23.1974 34.8498 22.9871 33.3723 23.4701 31.9119C23.7145 31.1788 24.2316 30.3037 24.5328 29.9628C25.0215 29.4172 25.5613 29.2354 25.692 29.457C25.8568 29.7468 25.0953 31.8607 24.9021 32.3381ZM30.2949 34.918C30.1642 34.9861 30.0392 35.0316 29.9823 34.9975C29.9426 34.9748 30.0392 34.8839 30.0392 34.8839C30.0392 34.8839 30.7154 34.1565 30.9825 33.8269C31.1359 33.6337 31.3177 33.4064 31.511 33.1507C31.511 33.1734 31.511 33.2018 31.511 33.2246C31.511 34.094 30.6699 34.6793 30.2949 34.918ZM34.4545 33.969C34.3579 33.9008 34.375 33.6735 34.6989 32.9632C34.8239 32.6847 35.1194 32.2187 35.6251 31.7698C35.682 31.9517 35.7217 32.1278 35.7161 32.2926C35.7104 33.3893 34.9262 33.7985 34.4545 33.969Z" fill="#CD6799"/>
</svg>
