<svg width="58" height="56" viewBox="0 0 58 56" fill="none" xmlns="http://www.w3.org/2000/svg">
<path d="M32.5707 23.6817L29.442 26.5786L26.5377 20.7506L28.038 17.3997C28.4172 16.7312 29.0374 16.7224 29.4166 17.3997L32.5707 23.6817Z" fill="#FFA000"/>
<path d="M29.4433 26.5777L17.74 37.4025L26.539 20.751L29.4433 26.5777Z" fill="#F57F17"/>
<path d="M36.0014 19.2515C36.5619 18.7206 37.139 18.8997 37.2848 19.6539L40.3273 37.2563L30.2359 43.2811C29.8821 43.4778 28.9436 43.5547 28.9436 43.5547C28.9436 43.5547 28.0901 43.4513 27.7629 43.2722L17.74 37.4026L36.0014 19.2515Z" fill="#FFCA28"/>
<path d="M26.539 20.7509L17.74 37.4024L21.6614 13.0639C21.8085 12.3097 22.2384 12.2328 22.6265 12.9012L26.539 20.7509Z" fill="#FFA000"/>
</svg>
