<svg width="57" height="56" viewBox="0 0 57 56" fill="none" xmlns="http://www.w3.org/2000/svg">
<path d="M35.9201 32.3313C35.2018 32.3313 34.6174 31.7498 34.6174 31.0355C34.6174 30.3212 35.2018 29.7401 35.9201 29.7401C36.6385 29.7401 37.2228 30.321 37.2228 31.0355C37.2228 31.7499 36.6385 32.3313 35.9201 32.3313ZM21.5211 32.3313C20.8028 32.3313 20.2185 31.7498 20.2185 31.0355C20.2185 30.3212 20.8027 29.7401 21.5211 29.7401C22.2394 29.7401 22.8237 30.321 22.8237 31.0355C22.8237 31.7499 22.2395 32.3313 21.5211 32.3313ZM36.3873 24.5277L38.9909 20.0435C39.0625 19.9198 39.0819 19.7728 39.0448 19.6349C39.0076 19.4969 38.9169 19.3793 38.7926 19.3077C38.6682 19.2365 38.5204 19.2173 38.3817 19.2542C38.243 19.2912 38.1247 19.3813 38.0527 19.5049L35.4166 24.0458C33.4005 23.131 31.1365 22.6213 28.7206 22.6213C26.3047 22.6213 24.0406 23.131 22.0247 24.0458L19.3884 19.5049C19.3165 19.3813 19.1982 19.2912 19.0595 19.2542C18.9208 19.2173 18.773 19.2365 18.6486 19.3077C18.5242 19.3792 18.4335 19.4969 18.3963 19.6348C18.3591 19.7728 18.3785 19.9198 18.4503 20.0435L21.0539 24.5277C16.5831 26.9457 13.5254 31.4466 13.0781 36.7642H44.363C43.9154 31.4468 40.8577 26.9457 36.3873 24.5276" fill="#3DDB85"/>
</svg>
