<svg width="57" height="56" viewBox="0 0 57 56" fill="none" xmlns="http://www.w3.org/2000/svg">
<path d="M19.8412 37.0531L16.8131 37.7402V18.2383L19.8412 18.9266V37.0531Z" fill="#F68536"/>
<path d="M23.6193 38.2043L19.8412 39.272V16.7333L23.6193 17.7997V38.2043ZM28.4659 39.3869L23.6193 41.1508V14.8545L28.4659 16.6176V39.3869ZM41.4247 37.112L28.4659 43.5554V12.4443L41.4247 18.8878V37.112Z" fill="#F68536"/>
<path d="M25.8827 13.729L28.4659 12.4443V43.5554L25.8827 42.2712V13.729ZM21.6197 15.8484L23.6194 14.8541V41.1456L21.6197 40.1514V15.8484ZM18.2483 17.5249L19.8412 16.7329V39.2669L18.2483 38.4743V17.5249ZM16.8131 18.2384L15.5139 18.8843V37.1158L16.8131 37.7614V18.2384Z" fill="#9D5025"/>
</svg>
