<svg width="57" height="56" viewBox="0 0 57 56" fill="none" xmlns="http://www.w3.org/2000/svg">
<path d="M38.5882 24.4036C38.5397 23.3351 38.6854 22.3881 38.1997 21.5868C37.0342 19.5957 34.1204 18.4302 28.2927 18.4302V18.6002H28.1713H28.2927V18.4302C22.465 18.4302 19.4055 19.5957 18.2399 21.6111C17.7786 22.4367 17.8272 23.3594 17.7543 24.4278C17.7057 25.2777 17.3172 26.1761 17.4872 27.1474C17.6815 28.4101 17.7543 29.6727 17.9486 30.8383C18.0943 31.7853 19.4055 32.5866 19.5269 33.485C19.8668 35.9618 22.4407 37.103 28.2684 37.103V37.2973H28.1227H28.2927V37.103C34.1204 37.103 36.5971 35.9618 36.9128 33.485C37.0342 32.5623 38.2483 31.7853 38.394 30.8383C38.5882 29.6727 38.6611 28.4101 38.8553 27.1474C39.0253 26.1761 38.6368 25.2534 38.5882 24.4036Z" fill="#EFCCA3"/>
<path d="M28.1955 25.2778C29.2397 25.3021 29.9681 25.9577 30.648 26.5648C31.4493 27.269 32.8091 27.7546 33.3676 28.3616C33.9261 28.9687 34.6546 29.5757 34.9217 30.5227C35.1888 31.4697 35.2616 32.6838 35.2616 32.9995C35.2616 33.3152 35.4316 33.2423 35.9172 32.9995C37.0585 32.441 38.3211 30.9355 38.3211 30.9355C38.1754 31.8825 36.9371 32.7324 36.8156 33.6308C36.5243 36.1076 34.1203 37.2974 28.1713 37.2974H28.147H28.2927" fill="#CCAC8D"/>
<path d="M32.0321 23.3836C32.2507 24.1363 33.0277 26.6859 31.5222 25.836C31.5222 25.836 32.1535 26.2003 32.5421 27.5843C32.9549 28.9684 33.9504 29.1384 33.9504 29.1384C33.9504 29.1384 35.5773 29.4541 36.7914 28.4099C37.8112 27.5358 37.9812 25.9817 37.5441 24.7919C37.1071 23.6264 36.33 23.2621 35.1888 23.0193C34.0475 22.7522 31.765 22.5337 32.0321 23.3836Z" fill="#CCAC8D"/>
<path d="M34.9217 28.2888C36.1019 28.2888 37.0585 27.3321 37.0585 26.152C37.0585 24.9718 36.1019 24.0151 34.9217 24.0151C33.7416 24.0151 32.7849 24.9718 32.7849 26.152C32.7849 27.3321 33.7416 28.2888 34.9217 28.2888Z" fill="black"/>
<path d="M34.3632 25.7634C34.6716 25.7634 34.9217 25.5134 34.9217 25.205C34.9217 24.8965 34.6716 24.6465 34.3632 24.6465C34.0547 24.6465 33.8047 24.8965 33.8047 25.205C33.8047 25.5134 34.0547 25.7634 34.3632 25.7634Z" fill="white"/>
<path d="M31.668 26.0547C31.668 26.0547 33.5862 27.3659 34.6303 28.6529C35.6745 29.9398 35.6502 30.1826 35.6502 30.1826L34.8975 30.5226C34.8975 30.5226 33.829 28.5072 32.5178 27.7544C31.1823 27.0017 31.0366 26.3704 31.0366 26.3704L31.668 26.0547Z" fill="#EFCCA3"/>
<path d="M28.2685 25.2778C27.2243 25.3021 26.4473 25.9577 25.7431 26.5648C24.9418 27.269 23.5335 27.7546 22.975 28.3616C22.4165 28.9687 21.6638 29.5757 21.3967 30.5227C21.1296 31.4697 21.0324 32.6838 21.0324 32.9995C21.0324 33.3152 21.081 33.3395 20.3768 32.9995C19.2356 32.4653 17.9729 30.9355 17.9729 30.9355C18.1186 31.8825 19.357 32.7324 19.4784 33.6308C19.8183 36.1076 22.2223 37.2974 28.1713 37.2974H28.2928" fill="#CCAC8D"/>
<path d="M33.9019 29.3814C32.7364 27.9488 30.8667 26.6133 28.2685 26.6133H28.2442C25.646 26.6133 23.7763 27.9488 22.6108 29.3814C21.3967 30.8626 21.4938 31.4454 21.4938 32.8537C21.4938 37.953 23.2907 36.496 24.4805 37.1274C25.6946 37.7344 26.9573 37.5402 28.2442 37.5402H28.2685C29.5797 37.5402 30.8181 37.7101 32.0322 37.1031C33.222 36.496 35.0189 38.0015 35.0189 32.9023C35.0432 31.494 35.116 30.8626 33.9019 29.3814Z" fill="#56332B"/>
<path d="M28.147 27.876C28.147 27.876 27.977 30.2314 27.6371 30.6927L28.2684 30.547L28.147 27.876Z" fill="#442823"/>
<path d="M28.317 27.876C28.317 27.876 28.4869 30.2314 28.8269 30.6927L28.1956 30.547L28.317 27.876Z" fill="#442823"/>
<path d="M26.2773 27.3176C26.0345 26.7591 26.9087 25.8607 28.2928 25.8364C29.6768 25.8364 30.551 26.7349 30.3082 27.3176C30.0653 27.9004 29.1912 28.0704 28.2928 28.0946C27.4186 28.0704 26.5202 27.9004 26.2773 27.3176Z" fill="#56332B"/>
<path d="M28.2927 27.876C28.2927 27.7788 29.1183 27.7546 29.5554 27.4632C29.5554 27.4632 28.6569 27.7546 28.4627 27.6331C28.2684 27.536 28.2199 27.2446 28.2199 27.2446C28.2199 27.2446 28.147 27.536 28.0013 27.6331C27.8314 27.7303 26.8115 27.4632 26.8115 27.4632C26.8115 27.4632 28.1713 27.8031 28.1713 27.876C28.1713 27.9488 28.147 28.1916 28.147 28.3616C28.147 28.9687 28.147 30.4741 28.2441 30.5955C28.3898 30.8141 28.3413 28.9687 28.3413 28.3616C28.317 28.1673 28.317 27.9731 28.2927 27.876Z" fill="black"/>
<path d="M28.3412 31.1294C28.754 31.1294 29.4825 31.4208 30.1381 31.8822C29.5067 31.178 28.754 30.6924 28.3412 30.6924C27.9041 30.6924 26.9814 31.2266 26.3258 32.0036C27.0057 31.4694 27.8798 31.1294 28.3412 31.1294Z" fill="#7F4A41"/>
<path d="M28.1713 35.4278C27.2486 35.4278 26.3502 35.1364 25.5246 34.9179C25.3546 34.8693 25.1846 34.9907 25.0147 34.9422C23.4849 34.4565 22.2465 33.6309 21.4938 32.5868V32.8296C21.4938 37.9289 23.2906 36.4962 24.4805 37.1033C25.6946 37.7103 26.9572 37.5161 28.2442 37.5161H28.2685C29.5797 37.5161 30.8181 37.686 32.0322 37.079C33.222 36.4719 35.0188 37.9531 35.0188 32.8539C35.0188 32.6596 35.0189 32.4654 35.0431 32.2954C34.339 33.4367 33.052 34.3351 31.4494 34.8693C31.3037 34.9179 30.9638 34.7965 30.8181 34.8208C29.9439 35.1121 29.1669 35.4278 28.1713 35.4278Z" fill="#442823"/>
<path d="M25.8644 32.6836C25.8644 32.6836 25.2574 34.5048 25.6702 35.3061L25.1117 35.0632C25.1117 35.0632 25.5245 33.2178 25.8644 32.6836ZM30.6723 32.6836C30.6723 32.6836 31.2793 34.5048 30.8665 35.3061L31.425 35.0632C31.425 35.0632 30.9879 33.2178 30.6723 32.6836Z" fill="#442823"/>
<path d="M24.3104 23.3836C24.0919 24.1363 23.3148 26.6859 24.8203 25.836C24.8203 25.836 24.189 26.2003 23.8005 27.5843C23.412 28.9684 22.3921 29.1384 22.3921 29.1384C22.3921 29.1384 20.7652 29.4541 19.5511 28.4099C18.5313 27.5358 18.3613 25.9817 18.7984 24.7919C19.2355 23.6021 20.0125 23.2621 21.1538 23.0193C22.295 22.7522 24.5532 22.5337 24.3104 23.3836Z" fill="#CCAC8D"/>
<path d="M28.2684 30.6928C28.924 30.6928 30.9637 32.1011 30.988 33.8252V33.728C30.988 31.9312 29.3368 30.4985 28.2684 30.4985C27.2 30.4985 25.5488 31.9554 25.5488 33.728V33.8252C25.5731 32.1011 27.6128 30.6928 28.2684 30.6928Z" fill="black"/>
<path d="M28.7985 27.3307C28.9024 27.3039 28.9459 27.1242 28.8956 26.9295C28.8454 26.7347 28.7205 26.5985 28.6166 26.6253C28.5127 26.6521 28.4692 26.8317 28.5194 27.0265C28.5697 27.2213 28.6946 27.3575 28.7985 27.3307Z" fill="#331712"/>
<path d="M27.5504 27.327C27.6529 27.3588 27.7842 27.2288 27.8438 27.0367C27.9034 26.8446 27.8687 26.6631 27.7662 26.6313C27.6638 26.5995 27.5324 26.7295 27.4728 26.9216C27.4132 27.1137 27.4479 27.2952 27.5504 27.327Z" fill="#331712"/>
<path d="M21.5423 28.2888C22.7225 28.2888 23.6792 27.3321 23.6792 26.152C23.6792 24.9718 22.7225 24.0151 21.5423 24.0151C20.3622 24.0151 19.4055 24.9718 19.4055 26.152C19.4055 27.3321 20.3622 28.2888 21.5423 28.2888Z" fill="black"/>
<path d="M22.1007 25.7634C22.4092 25.7634 22.6592 25.5134 22.6592 25.205C22.6592 24.8965 22.4092 24.6465 22.1007 24.6465C21.7923 24.6465 21.5422 24.8965 21.5422 25.205C21.5422 25.5134 21.7923 25.7634 22.1007 25.7634Z" fill="white"/>
<path d="M28.8997 26.1759C28.8997 26.1516 28.3412 26.4187 28.1955 26.443C28.0498 26.4187 27.4913 26.1516 27.4913 26.1759H28.8997Z" fill="#7F4A41"/>
<path d="M24.6504 26.0547C24.6504 26.0547 22.7321 27.3659 21.688 28.6529C20.6439 29.9398 20.6681 30.1826 20.6681 30.1826L21.4209 30.5226C21.4209 30.5226 22.4893 28.5072 23.8005 27.7544C25.1117 27.0017 25.2817 26.3704 25.2817 26.3704L24.6504 26.0547Z" fill="#EFCCA3"/>
<path d="M20.4496 22.1697C20.4496 22.1697 19.794 23.9666 18.337 24.7193C18.337 24.7193 20.6195 24.4522 20.4496 22.1697ZM35.7715 22.1697C35.7715 22.1697 36.4271 23.9666 37.8841 24.7193C37.8841 24.7193 35.6015 24.4522 35.7715 22.1697ZM31.6193 25.5206C31.6193 25.5206 30.1867 24.0151 28.2684 23.9666H28.2927H28.3169C26.3744 24.0151 24.966 25.5206 24.966 25.5206C26.6415 24.3551 28.0741 24.3794 28.3169 24.3794C28.2927 24.3794 29.9438 24.3551 31.6193 25.5206ZM29.9438 22.364C29.9438 22.364 29.2154 21.3441 28.2441 21.3198H28.2927C27.5642 21.3441 26.6172 22.364 26.6172 22.364C27.4428 21.5626 28.2927 21.5869 28.2927 21.5869C28.2927 21.5869 29.094 21.5626 29.9438 22.364ZM21.5423 29.8185C21.5423 29.8185 20.401 30.377 19.5754 30.0371H19.5511C18.8227 29.6243 18.4584 28.3859 18.4584 28.3859C18.4584 28.3859 19.1869 30.5713 21.5423 29.8185ZM34.8488 29.8185C34.8488 29.8185 35.9901 30.377 36.8156 30.0371C37.7869 29.6243 37.9326 28.3859 37.9326 28.3859C37.9326 28.3859 37.2042 30.5713 34.8488 29.8185Z" fill="#CCAC8D"/>
<path d="M22.8536 22.0482C23.4849 21.9268 24.529 21.9025 25.3546 22.1696C26.3987 22.5339 25.5489 23.8694 25.7674 23.9422C25.986 24.0151 26.2773 23.0195 28.2199 23.1166C30.1867 23.2137 30.4053 24.0879 30.6724 23.9422C30.9395 23.7965 30.4053 21.514 33.3434 22.0482C33.3434 22.0482 30.2596 21.2226 30.4053 23.4566C30.4053 23.4566 28.6327 22.0968 26.1559 23.3109C26.1802 23.3109 26.8115 21.2226 22.8536 22.0482ZM33.6105 22.0482C33.6591 22.0482 33.6833 22.0725 33.7076 22.0725C33.7319 22.0725 33.6833 22.0482 33.6105 22.0482ZM22.0037 19.0615C22.0037 19.0615 19.3812 22.3639 18.9927 23.6265C18.6042 24.9135 18.3128 30.1827 17.9729 30.9354L16.7588 25.7391L18.9927 20.3242L22.0037 19.0615ZM34.339 19.0615C34.339 19.0615 36.9614 22.3639 37.3499 23.6265C37.7384 24.9135 38.0298 30.1827 38.3698 30.9354L39.5839 25.7391L37.3499 20.3242L34.339 19.0615Z" fill="#CCAC8D"/>
<path d="M34.2176 19.0617C34.2176 19.0617 37.0343 21.417 37.8599 24.1366C38.6855 26.8562 38.3455 30.1586 38.9769 30.5714C39.8753 31.1541 40.8951 27.6818 41.2351 27.3176C41.7693 26.7348 43.5419 25.2536 43.6633 24.9865C43.7847 24.7194 40.0696 20.6643 38.4427 19.863C36.4758 18.9403 34.0476 18.8674 34.2176 19.0617Z" fill="#56332B"/>
<path d="M36.6215 20.5186C36.6215 20.5186 39.9481 24.7679 39.8995 30.0614L41.235 27.3418C41.2108 27.3418 40.0452 23.8695 36.6215 20.5186Z" fill="#442823"/>
<path d="M22.0037 19.0617C22.0037 19.0617 19.1869 21.417 18.3614 24.1366C17.5358 26.8562 17.8757 30.1586 17.2444 30.5714C16.346 31.1541 15.3261 27.6818 14.9862 27.3176C14.452 26.7348 12.6794 25.2536 12.558 24.9865C12.4365 24.7194 16.1517 20.6643 17.7786 19.863C19.7454 18.9403 22.1736 18.8674 22.0037 19.0617Z" fill="#56332B"/>
<path d="M19.5998 20.5186C19.5998 20.5186 16.2732 24.7679 16.3217 30.0614L15.0105 27.3418C15.0105 27.3418 16.176 23.8695 19.5998 20.5186Z" fill="#442823"/>
<path d="M17.8029 30.1585C17.8029 30.1585 18.0457 31.4697 18.4342 31.8825C18.8227 32.2953 18.5556 31.5668 18.5556 31.5668C18.5556 31.5668 18.1428 31.3483 18.2157 29.6728C18.2885 27.9974 17.8029 30.1585 17.8029 30.1585ZM38.5154 30.1585C38.5154 30.1585 38.2726 31.4697 37.8841 31.8825C37.4956 32.2953 37.7627 31.5668 37.7627 31.5668C37.7627 31.5668 38.1755 31.3483 38.1026 29.6728C38.0298 27.9974 38.5154 30.1585 38.5154 30.1585Z" fill="#CCAC8D"/>
<path d="M25.7431 29.3573C25.8504 29.3573 25.9373 29.2703 25.9373 29.163C25.9373 29.0557 25.8504 28.9688 25.7431 28.9688C25.6358 28.9688 25.5488 29.0557 25.5488 29.163C25.5488 29.2703 25.6358 29.3573 25.7431 29.3573Z" fill="#442823"/>
<path d="M24.6261 30.5228C24.7334 30.5228 24.8204 30.4358 24.8204 30.3285C24.8204 30.2212 24.7334 30.1343 24.6261 30.1343C24.5189 30.1343 24.4319 30.2212 24.4319 30.3285C24.4319 30.4358 24.5189 30.5228 24.6261 30.5228Z" fill="#442823"/>
<path d="M24.2619 29.3573C24.3692 29.3573 24.4562 29.2703 24.4562 29.163C24.4562 29.0557 24.3692 28.9688 24.2619 28.9688C24.1546 28.9688 24.0676 29.0557 24.0676 29.163C24.0676 29.2703 24.1546 29.3573 24.2619 29.3573Z" fill="#442823"/>
<path d="M30.4781 29.3573C30.5854 29.3573 30.6724 29.2703 30.6724 29.163C30.6724 29.0557 30.5854 28.9688 30.4781 28.9688C30.3708 28.9688 30.2838 29.0557 30.2838 29.163C30.2838 29.2703 30.3708 29.3573 30.4781 29.3573Z" fill="#442823"/>
<path d="M31.595 30.5228C31.7023 30.5228 31.7893 30.4358 31.7893 30.3285C31.7893 30.2212 31.7023 30.1343 31.595 30.1343C31.4877 30.1343 31.4008 30.2212 31.4008 30.3285C31.4008 30.4358 31.4877 30.5228 31.595 30.5228Z" fill="#442823"/>
<path d="M31.9593 29.3573C32.0665 29.3573 32.1535 29.2703 32.1535 29.163C32.1535 29.0557 32.0665 28.9688 31.9593 28.9688C31.852 28.9688 31.765 29.0557 31.765 29.163C31.765 29.2703 31.852 29.3573 31.9593 29.3573Z" fill="#442823"/>
</svg>
