<svg width="57" height="56" viewBox="0 0 57 56" fill="none" xmlns="http://www.w3.org/2000/svg">
<path d="M43.8529 17.0491L29.4254 43.1494C29.1275 43.6883 28.3621 43.6914 28.0598 43.1552L13.3462 17.0516C13.0168 16.4673 13.5107 15.7594 14.1653 15.8779L28.6083 18.4895C28.7005 18.5061 28.7948 18.506 28.8869 18.489L43.0279 15.8815C43.6803 15.7612 44.1765 16.4636 43.8529 17.0491Z" fill="url(#paint0_linear_179_989)"/>
<path d="M35.4882 12.452L24.8115 14.5685C24.7262 14.5854 24.6489 14.6306 24.5917 14.6968C24.5345 14.763 24.5006 14.8466 24.4955 14.9344L23.8388 26.1562C23.8352 26.2178 23.8458 26.2793 23.8698 26.336C23.8938 26.3927 23.9305 26.4429 23.9771 26.4827C24.0236 26.5225 24.0787 26.5508 24.1379 26.5653C24.1972 26.5798 24.2589 26.5801 24.3183 26.5663L27.2909 25.8722C27.569 25.8073 27.8203 26.0551 27.7631 26.3381L26.88 30.7133C26.8206 31.0077 27.0938 31.2595 27.378 31.1721L29.2141 30.6078C29.4987 30.5204 29.7722 30.7729 29.712 31.0676L28.3085 37.94C28.2207 38.3699 28.7859 38.6043 29.0215 38.2358L29.179 37.9896L37.8791 20.4242C38.0249 20.1301 37.7735 19.7947 37.4544 19.8571L34.3944 20.4545C34.107 20.5106 33.8624 20.2397 33.9435 19.9552L35.9405 12.9512C36.0218 12.666 35.7762 12.3949 35.4884 12.452H35.4882Z" fill="url(#paint1_linear_179_989)"/>
<defs>
<linearGradient id="paint0_linear_179_989" x1="12.987" y1="17.9836" x2="28.7821" y2="39.1872" gradientUnits="userSpaceOnUse">
<stop stop-color="#41D1FF"/>
<stop offset="1" stop-color="#BD34FE"/>
</linearGradient>
<linearGradient id="paint1_linear_179_989" x1="29.9469" y1="13.0267" x2="33.2215" y2="35.2304" gradientUnits="userSpaceOnUse">
<stop stop-color="#FFEA83"/>
<stop offset="0.083" stop-color="#FFDD35"/>
<stop offset="1" stop-color="#FFA800"/>
</linearGradient>
</defs>
</svg>
