<svg width="57" height="56" viewBox="0 0 57 56" fill="none" xmlns="http://www.w3.org/2000/svg">
<path d="M19.896 23.5323H25.7638V23.9965H20.4339V27.4898H25.446V27.9539H20.4339V31.7892H25.8249V32.2534H19.896V23.5323ZM26.2895 23.5323H26.9129L29.6757 27.3676L32.4996 23.5323L36.3406 18.6606L30.0302 27.7707L33.282 32.2534H32.6341L29.6757 28.1738L26.7051 32.2534H26.0694L29.3456 27.7707L26.2895 23.5323ZM33.5142 23.9965V23.5323H40.2011V23.9965H37.1205V32.2534H36.5826V23.9965H33.5142Z" fill="black"/>
<path d="M12.5551 23.5322H13.2274L22.4988 37.3394L18.6674 32.2532L13.1174 24.1918L13.0929 32.2532H12.5551V23.5322Z" fill="black"/>
<path d="M40.1469 31.6492C40.2581 31.6492 40.3392 31.5644 40.3392 31.4549C40.3392 31.3454 40.2581 31.2607 40.1469 31.2607C40.037 31.2607 39.9546 31.3454 39.9546 31.4549C39.9546 31.5644 40.037 31.6492 40.1469 31.6492ZM40.6755 31.1381C40.6755 31.4615 40.9097 31.6727 41.2511 31.6727C41.6148 31.6727 41.8346 31.4549 41.8346 31.0769V29.7458H41.5415V31.0756C41.5415 31.2855 41.4356 31.3976 41.2485 31.3976C41.081 31.3976 40.9672 31.2933 40.9633 31.1381H40.6755ZM42.2179 31.1212C42.2388 31.4575 42.5201 31.6727 42.9388 31.6727C43.3862 31.6727 43.6662 31.4471 43.6662 31.0873C43.6662 30.8044 43.5065 30.648 43.1193 30.558L42.9113 30.5072C42.6653 30.4498 42.5659 30.3729 42.5659 30.2386C42.5659 30.0691 42.7203 29.9583 42.9518 29.9583C43.1716 29.9583 43.3234 30.0665 43.3509 30.2399H43.6361C43.6191 29.9231 43.3391 29.7002 42.9558 29.7002C42.5437 29.7002 42.2689 29.9231 42.2689 30.2582C42.2689 30.5345 42.4246 30.6988 42.7661 30.7783L43.0094 30.837C43.2593 30.8957 43.3692 30.9817 43.3692 31.1251C43.3692 31.292 43.1965 31.4132 42.961 31.4132C42.7085 31.4132 42.5332 31.2998 42.5083 31.1212H42.2179Z" fill="black"/>
</svg>
