<svg width="57" height="56" viewBox="0 0 57 56" fill="none" xmlns="http://www.w3.org/2000/svg">
<path d="M21.3303 25.4545C21.3303 25.8373 21.372 26.1478 21.4448 26.3754C21.528 26.603 21.6321 26.8514 21.7778 27.1204C21.8298 27.2032 21.8506 27.286 21.8506 27.3584C21.8506 27.4619 21.7882 27.5653 21.6529 27.6688L20.9974 28.1034C20.9037 28.1655 20.8101 28.1965 20.7268 28.1965C20.6228 28.1965 20.5187 28.1448 20.4147 28.0517C20.269 27.8965 20.1442 27.7309 20.0401 27.5653C19.9361 27.3894 19.832 27.1928 19.7176 26.9549C18.906 27.9068 17.8863 28.3828 16.6585 28.3828C15.7845 28.3828 15.0873 28.1344 14.5775 27.6378C14.0676 27.1411 13.8075 26.4789 13.8075 25.6511C13.8075 24.7716 14.1196 24.0576 14.7544 23.5196C15.3891 22.9815 16.2319 22.7125 17.3036 22.7125C17.6574 22.7125 18.0215 22.7435 18.4065 22.7953C18.7915 22.847 19.1869 22.9298 19.6031 23.0229V22.2676C19.6031 21.4812 19.4366 20.9328 19.1141 20.612C18.7811 20.2912 18.2192 20.136 17.418 20.136C17.0539 20.136 16.6793 20.1774 16.2943 20.2705C15.9093 20.3637 15.5347 20.4775 15.1706 20.6223C15.0041 20.6948 14.8792 20.7362 14.8064 20.7569C14.7335 20.7775 14.6815 20.7879 14.6399 20.7879C14.4942 20.7879 14.4214 20.6844 14.4214 20.4671V19.9601C14.4214 19.7946 14.4422 19.6704 14.4942 19.598C14.5463 19.5255 14.6399 19.4531 14.7856 19.3807C15.1497 19.1944 15.5868 19.0392 16.0966 18.915C16.6065 18.7805 17.1475 18.7184 17.7198 18.7184C18.958 18.7184 19.8632 18.9978 20.4459 19.5566C21.0182 20.1153 21.3095 20.9638 21.3095 22.102V25.4545H21.3303ZM17.1059 27.0273C17.4493 27.0273 17.803 26.9652 18.1776 26.841C18.5522 26.7169 18.8852 26.4892 19.1661 26.1788C19.3326 25.9822 19.4574 25.7649 19.5199 25.5166C19.5823 25.2683 19.6239 24.9682 19.6239 24.6164V24.1818C19.3222 24.1094 18.9996 24.0473 18.6666 24.0059C18.3337 23.9645 18.0111 23.9438 17.6886 23.9438C16.9914 23.9438 16.4816 24.0783 16.1382 24.3577C15.7949 24.6371 15.6284 25.0303 15.6284 25.5476C15.6284 26.0339 15.7532 26.3961 16.0134 26.6444C16.2631 26.9031 16.6273 27.0273 17.1059 27.0273ZM25.4611 28.1448C25.2739 28.1448 25.149 28.1137 25.0658 28.0413C24.9825 27.9792 24.9097 27.8344 24.8472 27.6378L22.4021 19.6394C22.3396 19.4324 22.3084 19.2979 22.3084 19.2255C22.3084 19.0599 22.3917 18.9668 22.5581 18.9668H23.5778C23.7755 18.9668 23.9108 18.9978 23.9836 19.0703C24.0669 19.1323 24.1293 19.2772 24.1917 19.4738L25.9398 26.3237L27.563 19.4738C27.615 19.2669 27.6774 19.1323 27.7607 19.0703C27.8439 19.0082 27.9896 18.9668 28.1769 18.9668H29.0093C29.207 18.9668 29.3422 18.9978 29.4255 19.0703C29.5087 19.1323 29.5815 19.2772 29.6232 19.4738L31.2672 26.4064L33.0672 19.4738C33.1297 19.2669 33.2025 19.1323 33.2753 19.0703C33.3586 19.0082 33.4938 18.9668 33.6811 18.9668H34.6488C34.8153 18.9668 34.9089 19.0496 34.9089 19.2255C34.9089 19.2772 34.8985 19.3289 34.8881 19.391C34.8777 19.4531 34.8569 19.5359 34.8153 19.6497L32.3077 27.6481C32.2452 27.8551 32.1724 27.9896 32.0892 28.0517C32.0059 28.1137 31.8706 28.1551 31.6938 28.1551H30.7989C30.6012 28.1551 30.466 28.1241 30.3827 28.0517C30.2995 27.9792 30.2267 27.8447 30.185 27.6378L28.5723 20.9638L26.9699 27.6274C26.9178 27.8344 26.8554 27.9689 26.7722 28.0413C26.6889 28.1137 26.5433 28.1448 26.356 28.1448H25.4611ZM38.8316 28.4242C38.2906 28.4242 37.7495 28.3621 37.2292 28.2379C36.709 28.1137 36.3032 27.9792 36.0327 27.824C35.8662 27.7309 35.7517 27.6274 35.7101 27.5343C35.6685 27.4412 35.6477 27.3377 35.6477 27.2446V26.7169C35.6477 26.4996 35.7309 26.3961 35.887 26.3961C35.9494 26.3961 36.0119 26.4064 36.0743 26.4271C36.1367 26.4478 36.2304 26.4892 36.3344 26.5306C36.6882 26.6858 37.0732 26.81 37.479 26.8928C37.8952 26.9755 38.301 27.0169 38.7172 27.0169C39.3727 27.0169 39.8825 26.9031 40.2363 26.6755C40.5901 26.4478 40.7774 26.1167 40.7774 25.6925C40.7774 25.4028 40.6837 25.1648 40.4964 24.9682C40.3091 24.7716 39.9554 24.5957 39.4455 24.4301L37.9368 23.9645C37.1772 23.7265 36.6153 23.3747 36.272 22.9091C35.9286 22.4538 35.7517 21.9468 35.7517 21.4087C35.7517 20.9741 35.8454 20.5913 36.0327 20.2602C36.22 19.9291 36.4697 19.6394 36.7818 19.4117C37.094 19.1737 37.4478 18.9978 37.864 18.8737C38.2802 18.7495 38.7172 18.6978 39.175 18.6978C39.4039 18.6978 39.6432 18.7081 39.8721 18.7391C40.1114 18.7702 40.3299 18.8116 40.5485 18.853C40.7566 18.9047 40.9543 18.9564 41.1415 19.0185C41.3288 19.0806 41.4745 19.1427 41.5786 19.2048C41.7242 19.2875 41.8283 19.3703 41.8907 19.4634C41.9531 19.5462 41.9844 19.66 41.9844 19.8049V20.2912C41.9844 20.5085 41.9011 20.6223 41.745 20.6223C41.6618 20.6223 41.5265 20.581 41.3496 20.4982C40.7566 20.2291 40.0906 20.0946 39.3519 20.0946C38.7588 20.0946 38.2906 20.1878 37.968 20.3844C37.6454 20.581 37.479 20.881 37.479 21.3053C37.479 21.595 37.583 21.8433 37.7911 22.0399C37.9992 22.2365 38.3842 22.4331 38.9357 22.609L40.4132 23.0746C41.1623 23.3126 41.7034 23.6437 42.026 24.068C42.3485 24.4922 42.5046 24.9785 42.5046 25.5166C42.5046 25.9615 42.411 26.3651 42.2341 26.7169C42.0468 27.0687 41.7971 27.3791 41.4745 27.6274C41.1519 27.8861 40.767 28.0724 40.3195 28.2069C39.8513 28.3517 39.3623 28.4242 38.8316 28.4242Z" fill="#252F3E"/>
<path fill-rule="evenodd" clip-rule="evenodd" d="M40.7981 33.4531C37.3749 35.9675 32.4013 37.3023 28.1248 37.3023C22.1315 37.3023 16.7313 35.0983 12.6525 31.4354C12.33 31.1457 12.6213 30.7525 13.0063 30.9801C17.418 33.5255 22.8598 35.0673 28.489 35.0673C32.2868 35.0673 36.4592 34.2809 40.2987 32.6667C40.871 32.408 41.36 33.0392 40.7981 33.4531Z" fill="#FF9900"/>
<path fill-rule="evenodd" clip-rule="evenodd" d="M42.2237 31.8389C41.7867 31.2802 39.3311 31.5699 38.2177 31.7044C37.8848 31.7458 37.8328 31.4561 38.1345 31.2388C40.0906 29.873 43.3058 30.2661 43.6804 30.7214C44.0549 31.1871 43.5763 34.3843 41.745 35.9157C41.4641 36.1537 41.1936 36.0296 41.3184 35.7191C41.7346 34.6948 42.6607 32.3873 42.2237 31.8389Z" fill="#FF9900"/>
</svg>
