<svg width="57" height="56" viewBox="0 0 57 56" fill="none" xmlns="http://www.w3.org/2000/svg">
<path d="M44.4246 12.4443H28.8473L13.9727 27.9999H28.7548L28.8239 27.9299L44.4246 12.4443Z" fill="url(#paint0_linear_179_1017)"/>
<path d="M44.4246 43.5552H13.1396H44.4246ZM28.8238 27.9297L28.7547 27.9997H28.8942L28.8238 27.9297Z" fill="url(#paint1_linear_179_1017)"/>
<path d="M28.8473 12.4443H13.1396V28.871V27.9999H13.9726L28.8473 12.4443Z" fill="url(#paint2_linear_179_1017)"/>
<path d="M28.7547 28H13.9726L13.1396 28.8711V43.5556L28.7547 28Z" fill="url(#paint3_linear_179_1017)"/>
<path d="M28.8942 28H28.7547L13.1396 43.5556H44.4246L28.8942 28Z" fill="url(#paint4_linear_179_1017)"/>
<path d="M13.9726 28H13.1396V28.8711L13.9726 28Z" fill="url(#paint5_linear_179_1017)"/>
<defs>
<linearGradient id="paint0_linear_179_1017" x1="7.55597" y1="40.8756" x2="36.5061" y2="11.7638" gradientUnits="userSpaceOnUse">
<stop stop-color="#C757BC"/>
<stop offset="0.108" stop-color="#C757BC"/>
<stop offset="0.173" stop-color="#CD5CA9"/>
<stop offset="0.492" stop-color="#E8744F"/>
<stop offset="0.716" stop-color="#F88316"/>
<stop offset="0.823" stop-color="#FF8900"/>
<stop offset="1" stop-color="#FF8900"/>
</linearGradient>
<linearGradient id="paint1_linear_179_1017" x1="23.2459" y1="49.1593" x2="37.3567" y2="34.9697" gradientUnits="userSpaceOnUse">
<stop stop-color="#00AFFF"/>
<stop offset="0.296" stop-color="#00AFFF"/>
<stop offset="0.694" stop-color="#5282FF"/>
<stop offset="1" stop-color="#945DFF"/>
</linearGradient>
<linearGradient id="paint2_linear_179_1017" x1="12.8097" y1="21.0423" x2="22.7086" y2="11.0878" gradientUnits="userSpaceOnUse">
<stop stop-color="#00AFFF"/>
<stop offset="0.296" stop-color="#00AFFF"/>
<stop offset="0.694" stop-color="#5282FF"/>
<stop offset="1" stop-color="#945DFF"/>
</linearGradient>
<linearGradient id="paint3_linear_179_1017" x1="7.73059" y1="41.0494" x2="36.6807" y2="11.9376" gradientUnits="userSpaceOnUse">
<stop stop-color="#AD4CA4"/>
<stop offset="0.108" stop-color="#AD4CA4"/>
<stop offset="0.173" stop-color="#B25093"/>
<stop offset="0.492" stop-color="#CA6545"/>
<stop offset="0.716" stop-color="#D87213"/>
<stop offset="0.823" stop-color="#DE7700"/>
<stop offset="1" stop-color="#DE7700"/>
</linearGradient>
<linearGradient id="paint4_linear_179_1017" x1="23.2459" y1="49.1596" x2="37.3567" y2="34.97" gradientUnits="userSpaceOnUse">
<stop stop-color="#0098DE"/>
<stop offset="0.296" stop-color="#0098DE"/>
<stop offset="0.694" stop-color="#4771DE"/>
<stop offset="1" stop-color="#8151DE"/>
</linearGradient>
<linearGradient id="paint5_linear_179_1017" x1="16.7219" y1="24.9327" x2="26.6207" y2="14.9783" gradientUnits="userSpaceOnUse">
<stop stop-color="#0098DE"/>
<stop offset="0.296" stop-color="#0098DE"/>
<stop offset="0.694" stop-color="#4771DE"/>
<stop offset="1" stop-color="#8151DE"/>
</linearGradient>
</defs>
</svg>
