<svg width="57" height="56" viewBox="0 0 57 56" fill="none" xmlns="http://www.w3.org/2000/svg">
<path d="M37.3939 15.3389C36.6371 16.2199 36.2836 18.2055 37.052 20.216C37.819 22.2279 38.9966 21.791 39.73 23.8424C40.6986 26.5484 40.2472 30.185 40.2472 30.185C40.2472 30.185 41.4115 33.5557 42.2224 29.9746C44.0164 23.2507 37.3939 16.9957 37.3939 15.3389Z" fill="url(#paint0_radial_179_814)"/>
<path d="M28.1548 43.2616C35.9081 43.2616 42.1888 36.9453 42.1888 29.1591C42.1888 21.3729 35.9081 15.0566 28.1621 15.0566C20.4161 15.0566 14.1355 21.3715 14.1355 29.1591C14.1209 36.954 20.4088 43.2616 28.1548 43.2616Z" fill="url(#paint1_radial_179_814)"/>
<path d="M38.6708 37.8541C38.3669 38.0689 38.0484 38.2603 37.7182 38.4283C38.1565 37.7869 38.5612 37.1221 38.9294 36.4368C39.2289 36.1052 39.5021 35.7837 39.7256 35.436C39.8337 35.265 39.9564 35.0546 40.0865 34.8092C40.8739 33.389 41.7432 31.0922 41.768 28.7325V28.7266C41.768 28.6682 41.7695 28.6098 41.768 28.5528C41.7724 27.961 41.711 27.3693 41.5869 26.7907C41.5927 26.836 41.5985 26.8813 41.6044 26.9266C41.5971 26.8915 41.5912 26.8564 41.5839 26.8214C41.5956 26.8857 41.6044 26.9485 41.6146 27.0099C41.7753 28.376 41.6614 29.71 41.0872 30.6918C41.0784 30.7064 41.0682 30.7196 41.0595 30.7342C41.3575 29.2409 41.4568 27.5914 41.1252 25.9403C41.1252 25.9403 40.9923 25.1382 40.0061 22.7011C39.4393 21.2984 38.4312 20.1486 37.54 19.3114C36.7599 18.3456 36.0498 17.6968 35.6598 17.2863C34.8431 16.4272 34.5012 15.7828 34.361 15.362C34.2397 15.3007 32.6809 13.787 32.5567 13.73C31.8759 14.7849 29.737 18.0826 30.7553 21.1655C31.217 22.5623 32.3828 24.0117 33.6027 24.8255C33.6568 24.8869 34.3288 25.6174 34.6488 27.2656C34.9789 28.9677 34.8051 30.2959 34.1257 32.261C33.3266 33.9851 31.2783 35.6888 29.3601 35.8626C25.2607 36.2352 23.7588 33.8039 23.7588 33.8039C25.2241 34.3898 26.8429 34.2671 27.829 33.6593C28.8225 33.0456 29.4229 32.5898 29.9094 32.7695C30.3901 32.9477 30.7729 32.4291 30.4295 31.8914C29.8875 31.0571 28.8999 30.6261 27.9196 30.7985C26.9262 30.9607 26.016 31.7467 24.7128 30.9855C24.6281 30.9373 24.5463 30.8832 24.4688 30.8248C24.3826 30.7678 24.7479 30.911 24.6631 30.8467C24.4104 30.7093 23.9619 30.4084 23.845 30.3017C23.826 30.2842 24.0422 30.3704 24.0218 30.3528C22.8048 29.3505 22.9567 28.6726 22.9947 28.2474C23.0254 27.907 23.246 27.4716 23.6185 27.2948C23.7982 27.3927 23.9107 27.4686 23.9107 27.4686C23.9107 27.4686 23.8333 27.3123 23.7924 27.229C23.807 27.2232 23.8202 27.2246 23.8348 27.2188C23.9823 27.2904 24.3081 27.4745 24.4805 27.587C24.704 27.7448 24.7756 27.8851 24.7756 27.8851C24.7756 27.8851 24.8341 27.8529 24.7902 27.7156C24.7742 27.6586 24.707 27.4803 24.4849 27.2992L24.498 27.3006C24.631 27.3766 24.7566 27.4628 24.8735 27.5607C24.9363 27.3342 25.0488 27.0961 25.024 26.6723C25.0094 26.3743 25.0152 26.2968 24.9626 26.1814C24.9159 26.0821 24.9889 26.0441 25.0707 26.1464C25.0561 26.066 25.0328 25.9871 25.0006 25.9126V25.9053C25.1029 25.5502 27.1584 24.6254 27.3075 24.5172C27.5529 24.3434 27.7589 24.1198 27.9123 23.8597C28.0263 23.6771 28.1124 23.4214 28.1329 23.0342C28.1446 22.7552 28.0146 22.5681 25.9356 22.3504C25.3673 22.2949 25.0342 21.8829 24.8443 21.503C24.8092 21.4212 24.7742 21.3467 24.7391 21.2721C24.7055 21.1859 24.6777 21.0968 24.6587 21.0062C24.9991 20.0302 25.5689 19.2047 26.409 18.5808C26.4543 18.5384 26.2264 18.591 26.2716 18.5501C26.3257 18.5019 26.6734 18.3616 26.7391 18.3295C26.8195 18.2915 26.3958 18.1118 26.0204 18.1556C25.639 18.198 25.5572 18.2448 25.3542 18.331C25.4389 18.2462 25.7077 18.1366 25.6449 18.1366C25.2329 18.1995 24.723 18.4391 24.2847 18.7094C24.2833 18.6626 24.2935 18.6159 24.311 18.572C24.108 18.6582 23.6069 19.0075 23.4622 19.3041C23.4681 19.2471 23.471 19.1901 23.471 19.1331C23.3161 19.2631 23.1759 19.4093 23.0532 19.57L23.0458 19.5773C21.8654 19.101 20.8252 19.0703 19.9457 19.2836C19.7528 19.0907 19.6593 19.231 19.2211 18.2696C19.1918 18.2112 19.2444 18.3266 19.2211 18.2696C19.1495 18.0826 19.2649 18.518 19.2211 18.2696C18.4847 18.8511 17.5161 19.5086 17.0515 19.9732C17.0457 19.9922 17.5936 19.8184 17.0515 19.9732C16.8616 20.0273 16.8748 20.1398 16.8455 21.1596C16.8382 21.2371 16.8441 21.3233 16.8382 21.3934C16.4672 21.8668 16.2144 22.2671 16.118 22.4746C15.6373 23.3031 15.1085 24.5932 14.5957 26.6344C14.8221 26.0806 15.0939 25.5473 15.4109 25.0403C14.9843 26.1244 14.5723 27.8251 14.4905 30.4449C14.5942 29.9043 14.7257 29.3695 14.8864 28.8435C14.7856 31.0176 15.1611 33.1874 15.985 35.2007C16.2802 35.9225 16.7681 37.0169 17.5979 38.2179C20.2072 40.9633 23.8874 42.6728 27.9634 42.6728C32.2236 42.6728 36.0454 40.8113 38.6708 37.8541Z" fill="url(#paint2_linear_179_814)"/>
<path d="M35.5224 39.8487C40.6723 39.2525 42.9514 33.9459 40.0236 33.8407C37.3793 33.7574 33.0826 40.1307 35.5224 39.8487Z" fill="url(#paint3_radial_179_814)"/>
<path d="M40.3947 32.7577C43.9376 30.6961 43.0143 26.2412 43.0143 26.2412C43.0143 26.2412 41.6468 27.8294 40.7176 30.3615C39.8001 32.8687 38.2646 34.0025 40.3947 32.7577Z" fill="url(#paint4_radial_179_814)"/>
<path d="M29.1468 42.4846C34.0863 44.0611 38.3319 40.1688 35.7153 38.8699C33.3354 37.6981 26.8034 41.7394 29.1468 42.4846Z" fill="url(#paint5_radial_179_814)"/>
<path d="M40.7629 34.6488C40.8827 34.4793 41.0448 33.9357 41.1895 33.6932C42.0617 32.2847 42.0675 31.1626 42.0675 31.1377C42.5949 28.5063 42.5467 27.4324 42.2224 25.4453C41.9609 23.8454 40.8213 21.553 39.8337 20.4498C38.8154 19.3131 39.5328 19.6828 38.5466 18.8529C37.6832 17.8944 36.8446 16.9461 36.3888 16.5648C33.0914 13.8077 33.1659 13.2218 33.2287 13.1224C33.2185 13.1341 33.2024 13.1517 33.182 13.175C33.1425 13.0187 33.1148 12.8887 33.1148 12.8887C33.1148 12.8887 31.3119 14.6917 30.9336 17.6942C30.6852 19.655 31.4201 21.6991 32.4822 23.0068C33.0359 23.6832 33.6612 24.2984 34.3478 24.8404V24.839C35.1513 25.9918 35.5925 27.4149 35.5925 28.9461C35.5925 32.78 32.4836 35.8878 28.6486 35.8878C28.1256 35.8878 27.6055 35.8293 27.0956 35.7139C25.2855 35.3691 24.2409 34.4559 23.7193 33.8364C23.4213 33.4813 23.2942 33.2227 23.2942 33.2227C24.9159 33.8042 26.7085 33.6815 27.7983 33.0795C28.897 32.4703 29.5617 32.0188 30.1008 32.197C30.6326 32.3738 31.0563 31.8595 30.6764 31.3262C30.3039 30.7929 29.3353 30.0302 27.8977 30.2421C26.7976 30.4028 25.7895 31.183 24.349 30.4262C24.2555 30.378 24.1664 30.3254 24.0787 30.2669C23.9838 30.2114 24.387 30.3517 24.2935 30.2889C24.013 30.153 23.5163 29.8549 23.3877 29.7497C23.3658 29.7322 23.6054 29.8184 23.5835 29.8008C22.2365 28.8058 22.4045 28.1352 22.4468 27.7129C22.4804 27.3754 22.7259 26.9444 23.1379 26.7691C23.3366 26.867 23.4608 26.9415 23.4608 26.9415C23.4608 26.9415 23.376 26.7866 23.3293 26.7033C23.3453 26.6975 23.3614 26.6989 23.376 26.6931C23.5396 26.7632 23.9005 26.9473 24.0904 27.0584C24.3373 27.2147 24.4162 27.355 24.4162 27.355C24.4162 27.355 24.482 27.3228 24.4337 27.1869C24.4162 27.1314 24.3417 26.9532 24.0963 26.7735L24.1109 26.7749C24.257 26.8494 24.3958 26.9356 24.5258 27.0335C24.5945 26.8085 24.7186 26.5733 24.6923 26.1525C24.6763 25.8573 24.6836 25.7799 24.6251 25.6659C24.5725 25.5681 24.6544 25.5301 24.7449 25.6309C24.7289 25.5505 24.704 25.4731 24.6675 25.3986L24.669 25.3913C24.7815 25.0391 27.0576 24.123 27.2227 24.0149C27.4901 23.8469 27.718 23.6248 27.8918 23.3633C28.0189 23.1821 28.1139 22.9293 28.1373 22.545C28.1446 22.3712 28.092 22.2353 27.4886 22.1038C27.1263 22.0249 26.5667 21.9489 25.7048 21.8671C25.0751 21.8116 24.7069 21.4025 24.4966 21.0255C24.4586 20.9437 24.4191 20.8706 24.3797 20.7976C24.3432 20.7114 24.3125 20.6237 24.2906 20.5331C24.669 19.5454 25.3468 18.7038 26.2307 18.1267C26.2819 18.0858 26.0277 18.1369 26.0788 18.096C26.1372 18.0478 26.5229 17.909 26.596 17.8768C26.6851 17.8389 26.2147 17.6606 25.8012 17.7044C25.379 17.7468 25.2899 17.7921 25.0634 17.8783C25.1569 17.795 25.455 17.6854 25.3848 17.6869C24.929 17.7497 24.3636 17.9864 23.88 18.2553C23.8786 18.2085 23.8888 18.1618 23.9093 18.1194C23.6843 18.2056 23.1306 18.5519 22.9699 18.8456C22.9772 18.79 22.9801 18.7331 22.9786 18.6761C22.8092 18.8032 22.6543 18.9478 22.517 19.1086L22.5082 19.1159C21.2006 18.6439 20.0509 18.6132 19.0764 18.8251C18.8631 18.6337 18.5213 18.3429 18.0362 17.3903C18.0026 17.3333 17.9851 17.5087 17.9602 17.4517C17.7718 17.0148 17.6578 16.2989 17.6768 15.8065C17.6768 15.8065 17.2867 15.9833 16.9653 16.7255C16.9054 16.8585 16.8674 16.933 16.8295 17.006C16.8119 17.028 16.8689 16.762 16.8601 16.7766C16.8046 16.8716 16.6585 17.0046 16.5957 17.1755C16.5519 17.3026 16.4905 17.3742 16.4511 17.532L16.4423 17.5466C16.4394 17.4999 16.454 17.3538 16.4438 17.3845C16.2933 17.6898 16.1633 18.0054 16.0552 18.3283C15.8813 18.8996 15.6797 19.6755 15.6475 20.6865C15.6402 20.7625 15.6461 20.8487 15.6402 20.9174C15.2297 21.3864 14.9492 21.7838 14.844 21.9898C14.3108 22.808 13.7249 24.088 13.1566 26.1116C13.4094 25.5593 13.7118 25.0289 14.0595 24.5307C13.5876 25.6046 13.1318 27.2921 13.0397 29.8914C13.1537 29.3537 13.3012 28.8234 13.478 28.3032C13.3962 30.0361 13.5978 32.1839 14.6935 34.6078C15.3437 36.0339 16.8411 38.9283 20.4994 41.1872C24.1576 43.446 21.7441 42.1135 23.883 42.8075C24.0408 42.8645 24.2015 42.9215 24.3651 42.9755C24.3154 42.9551 24.2657 42.9332 24.2161 42.9112C25.6405 43.3379 27.1175 43.5556 28.6048 43.5556C34.1433 43.56 35.7766 41.3362 35.7766 41.3362C35.7766 41.3362 35.7708 41.3406 35.7606 41.3479C35.838 41.2748 35.914 41.1974 35.987 41.1185C35.1134 41.944 33.1191 41.9981 32.3726 41.9396C33.6436 41.5656 34.4808 41.25 36.1083 40.6261C36.2982 40.556 36.494 40.4756 36.6927 40.385C36.7146 40.3762 36.7365 40.3646 36.7569 40.3558C36.7964 40.3368 36.8358 40.3207 36.8753 40.3003C37.6686 39.9262 38.4137 39.4601 39.0974 38.9093C40.7322 37.6031 41.0872 36.3305 41.2742 35.4918C41.2479 35.5722 41.1676 35.7592 41.1106 35.8819C40.6898 36.782 39.7563 37.3357 38.7424 37.8091C39.2245 37.1765 39.6715 36.5175 40.0821 35.8352C40.4123 35.5079 40.516 34.9936 40.7629 34.6488Z" fill="url(#paint6_radial_179_814)"/>
<path d="M38.7731 37.7709C39.4393 37.036 40.0383 36.1959 40.4912 35.2418C41.6585 32.7886 43.4613 28.7092 42.0413 24.4501C40.9178 21.0838 39.3765 19.2428 37.4202 17.4442C34.2412 14.5235 33.3529 13.2202 33.3529 12.4443C33.3529 12.4443 29.683 16.5369 31.274 20.8033C32.865 25.0696 36.1258 24.9148 38.2822 29.3682C40.8199 34.6091 36.2281 40.3278 32.4311 41.9292C32.6634 41.8781 40.871 40.0196 41.3035 35.3251C41.2947 35.4113 41.1092 36.7087 38.7731 37.7709Z" fill="url(#paint7_radial_179_814)"/>
<path d="M28.1388 22.5417C28.1519 22.2641 28.0073 22.0786 25.715 21.8638C24.7713 21.7761 24.4104 20.9053 24.3008 20.5371C23.9648 21.4094 23.8275 22.3226 23.902 23.4301C23.9531 24.1548 24.4396 24.9321 24.6719 25.3894C24.6719 25.3894 24.723 25.3222 24.7479 25.2974C25.1862 24.8415 27.0226 24.146 27.195 24.0467C27.3834 23.9268 28.1081 23.3979 28.1388 22.5417Z" fill="url(#paint8_linear_179_814)"/>
<path d="M18.045 17.3914C18.0114 17.3345 17.9939 17.5098 17.969 17.4528C17.7806 17.0159 17.6666 16.3088 17.6929 15.8076C17.6929 15.8076 17.3028 15.9844 16.9814 16.7266C16.9215 16.8596 16.8835 16.9341 16.8455 17.0072C16.828 17.0291 16.885 16.7632 16.8762 16.7778C16.8207 16.8728 16.6746 17.0057 16.6118 17.1694C16.5592 17.3038 16.5066 17.3754 16.4657 17.5419C16.454 17.5872 16.4774 17.3418 16.4672 17.3725C15.7177 18.8219 15.5745 21.012 15.6534 20.92C17.2488 19.2164 19.0779 18.8116 19.0779 18.8116C18.885 18.667 18.4614 18.2535 18.045 17.3914Z" fill="url(#paint9_linear_179_814)"/>
<path d="M24.1007 35.214C21.8961 34.2731 19.3905 32.945 19.484 29.9293C19.6126 25.958 23.1876 26.7426 23.1876 26.7426C23.0532 26.7748 22.6923 27.0319 22.5637 27.3066C22.4293 27.6485 22.1824 28.4214 22.929 29.2323C24.1021 30.5035 20.5199 32.248 26.0481 35.5428C26.1884 35.6173 24.7537 35.496 24.1007 35.214Z" fill="url(#paint10_linear_179_814)"/>
<path d="M23.3176 33.2338C24.8808 33.7773 26.7012 33.6824 27.7925 33.0804C28.523 32.6743 29.458 32.0227 30.0351 32.1834C29.5369 31.9862 29.1585 31.8941 28.7042 31.8722C28.6267 31.8722 28.5347 31.8708 28.45 31.862C28.2834 31.862 28.1169 31.8708 27.9518 31.8898C27.6698 31.9161 27.3586 32.0928 27.0752 32.0651C27.0606 32.0636 27.3499 31.9453 27.3265 31.9511C27.176 31.9818 27.0124 31.9891 26.84 32.011C26.7304 32.0227 26.6354 32.0373 26.5273 32.0417C23.2708 32.3178 20.5198 30.2769 20.5198 30.2769C20.2846 31.0643 21.5674 32.6246 23.3176 33.2338Z" fill="url(#paint11_linear_179_814)"/>
<path d="M38.7672 37.7914C42.0602 34.5579 43.7272 30.6276 43.0216 26.218C43.0216 26.218 43.3035 28.4783 42.2356 30.7912C42.7484 28.5339 42.8083 25.7285 41.4466 22.8239C39.6292 18.9461 36.6401 16.9065 35.4976 16.0546C33.7693 14.7645 33.052 13.4524 33.0388 13.1807C32.5216 14.2385 30.9599 17.8664 32.8708 20.9902C34.6619 23.9168 37.4831 24.7861 39.4568 27.4702C43.0961 32.4174 38.7672 37.7914 38.7672 37.7914Z" fill="url(#paint12_linear_179_814)"/>
<path d="M38.2953 29.3785C37.1441 27.0013 35.708 25.9639 34.3493 24.8389C34.5071 25.0595 34.5465 25.1384 34.6342 25.2816C35.8307 26.5556 37.5941 29.6663 36.3128 33.5689C33.9022 40.9167 24.2628 37.4569 23.2518 36.4852C23.6609 40.737 30.7772 42.7723 35.4114 40.0152C38.0484 37.5182 40.1814 33.2752 38.2953 29.3785Z" fill="url(#paint13_linear_179_814)"/>
<defs>
<radialGradient id="paint0_radial_179_814" cx="0" cy="0" r="1" gradientUnits="userSpaceOnUse" gradientTransform="translate(41.759 20.2245) rotate(2.55508) scale(10.873 15.9831)">
<stop offset="0.045" stop-color="#FFEA00"/>
<stop offset="0.12" stop-color="#FFDE00"/>
<stop offset="0.254" stop-color="#FFBF00"/>
<stop offset="0.429" stop-color="#FF8E00"/>
<stop offset="0.769" stop-color="#FF272D"/>
<stop offset="0.872" stop-color="#E0255A"/>
<stop offset="0.953" stop-color="#CC2477"/>
<stop offset="1" stop-color="#C42482"/>
</radialGradient>
<radialGradient id="paint1_radial_179_814" cx="0" cy="0" r="1" gradientUnits="userSpaceOnUse" gradientTransform="translate(34.0053 18.5504) scale(30.6446 30.6474)">
<stop stop-color="#00CCDA"/>
<stop offset="0.22" stop-color="#0083FF"/>
<stop offset="0.261" stop-color="#007AF9"/>
<stop offset="0.33" stop-color="#0060E8"/>
<stop offset="0.333" stop-color="#005FE7"/>
<stop offset="0.438" stop-color="#2639AD"/>
<stop offset="0.522" stop-color="#401E84"/>
<stop offset="0.566" stop-color="#4A1475"/>
</radialGradient>
<linearGradient id="paint2_linear_179_814" x1="30.1332" y1="35.5004" x2="24.0796" y2="15.6997" gradientUnits="userSpaceOnUse">
<stop stop-color="#000F43" stop-opacity="0.4"/>
<stop offset="0.485" stop-color="#001962" stop-opacity="0.173"/>
<stop offset="1" stop-color="#002079" stop-opacity="0"/>
</linearGradient>
<radialGradient id="paint3_radial_179_814" cx="0" cy="0" r="1" gradientUnits="userSpaceOnUse" gradientTransform="translate(38.5925 28.4392) rotate(5.67027) scale(10.3364 10.3373)">
<stop offset="0.003" stop-color="#FFEA00"/>
<stop offset="0.497" stop-color="#FF272D"/>
<stop offset="1" stop-color="#C42482"/>
</radialGradient>
<radialGradient id="paint4_radial_179_814" cx="0" cy="0" r="1" gradientUnits="userSpaceOnUse" gradientTransform="translate(38.641 18.4827) rotate(5.67019) scale(17.2611 17.2625)">
<stop offset="0.003" stop-color="#FFE900"/>
<stop offset="0.157" stop-color="#FFAF0E"/>
<stop offset="0.316" stop-color="#FF7A1B"/>
<stop offset="0.472" stop-color="#FF4E26"/>
<stop offset="0.621" stop-color="#FF2C2E"/>
<stop offset="0.762" stop-color="#FF1434"/>
<stop offset="0.892" stop-color="#FF0538"/>
<stop offset="1" stop-color="#FF0039"/>
</radialGradient>
<radialGradient id="paint5_radial_179_814" cx="0" cy="0" r="1" gradientUnits="userSpaceOnUse" gradientTransform="translate(39.4898 34.6482) rotate(5.67019) scale(15.8388 15.8401)">
<stop offset="0.003" stop-color="#FF272D"/>
<stop offset="0.497" stop-color="#C42482"/>
<stop offset="0.986" stop-color="#620700"/>
</radialGradient>
<radialGradient id="paint6_radial_179_814" cx="0" cy="0" r="1" gradientUnits="userSpaceOnUse" gradientTransform="translate(35.6516 24.9033) scale(24.7299 24.7322)">
<stop offset="0.156" stop-color="#FFEA00"/>
<stop offset="0.231" stop-color="#FFDE00"/>
<stop offset="0.365" stop-color="#FFBF00"/>
<stop offset="0.541" stop-color="#FF8E00"/>
<stop offset="0.763" stop-color="#FF272D"/>
<stop offset="0.796" stop-color="#F92433"/>
<stop offset="0.841" stop-color="#E91C45"/>
<stop offset="0.893" stop-color="#CF0E62"/>
<stop offset="0.935" stop-color="#B5007F"/>
</radialGradient>
<radialGradient id="paint7_radial_179_814" cx="0" cy="0" r="1" gradientUnits="userSpaceOnUse" gradientTransform="translate(33.791 12.4845) scale(29.2016 29.2043)">
<stop offset="0.279" stop-color="#FFEA00"/>
<stop offset="0.402" stop-color="#FFDD00"/>
<stop offset="0.63" stop-color="#FFBA00"/>
<stop offset="0.856" stop-color="#FF9100"/>
<stop offset="0.933" stop-color="#FF6711"/>
<stop offset="0.994" stop-color="#FF4A1D"/>
</radialGradient>
<linearGradient id="paint8_linear_179_814" x1="13.6192" y1="24.6188" x2="24.8559" y2="22.9135" gradientUnits="userSpaceOnUse">
<stop stop-color="#C42482" stop-opacity="0.5"/>
<stop offset="0.474" stop-color="#FF272D" stop-opacity="0.5"/>
<stop offset="0.486" stop-color="#FF2C2C" stop-opacity="0.513"/>
<stop offset="0.675" stop-color="#FF7A1A" stop-opacity="0.72"/>
<stop offset="0.829" stop-color="#FFB20D" stop-opacity="0.871"/>
<stop offset="0.942" stop-color="#FFD605" stop-opacity="0.964"/>
<stop offset="1" stop-color="#FFE302"/>
</linearGradient>
<linearGradient id="paint9_linear_179_814" x1="17.5678" y1="20.5966" x2="16.2924" y2="16.0245" gradientUnits="userSpaceOnUse">
<stop stop-color="#891551" stop-opacity="0.6"/>
<stop offset="1" stop-color="#C42482" stop-opacity="0"/>
</linearGradient>
<linearGradient id="paint10_linear_179_814" x1="20.0118" y1="27.2764" x2="22.6352" y2="30.9362" gradientUnits="userSpaceOnUse">
<stop offset="0.005" stop-color="#891551" stop-opacity="0.5"/>
<stop offset="0.484" stop-color="#FF272D" stop-opacity="0.5"/>
<stop offset="1" stop-color="#FF272D" stop-opacity="0"/>
</linearGradient>
<linearGradient id="paint11_linear_179_814" x1="25.022" y1="33.6926" x2="25.2602" y2="31.3402" gradientUnits="userSpaceOnUse">
<stop stop-color="#C42482"/>
<stop offset="0.083" stop-color="#C42482" stop-opacity="0.81"/>
<stop offset="0.206" stop-color="#C42482" stop-opacity="0.565"/>
<stop offset="0.328" stop-color="#C42482" stop-opacity="0.362"/>
<stop offset="0.447" stop-color="#C42482" stop-opacity="0.204"/>
<stop offset="0.562" stop-color="#C42482" stop-opacity="0.091"/>
<stop offset="0.673" stop-color="#C42482" stop-opacity="0.023"/>
<stop offset="0.773" stop-color="#C42482" stop-opacity="0"/>
</linearGradient>
<linearGradient id="paint12_linear_179_814" x1="32.6588" y1="13.5858" x2="42.3241" y2="35.1969" gradientUnits="userSpaceOnUse">
<stop stop-color="#FFF14F"/>
<stop offset="0.268" stop-color="#FFEE4C"/>
<stop offset="0.452" stop-color="#FFE643"/>
<stop offset="0.612" stop-color="#FFD834"/>
<stop offset="0.757" stop-color="#FFC41E"/>
<stop offset="0.892" stop-color="#FFAB02"/>
<stop offset="0.902" stop-color="#FFA900"/>
<stop offset="0.949" stop-color="#FFA000"/>
<stop offset="1" stop-color="#FF9100"/>
</linearGradient>
<linearGradient id="paint13_linear_179_814" x1="34.567" y1="26.0152" x2="29.9886" y2="38.307" gradientUnits="userSpaceOnUse">
<stop stop-color="#FF8E00"/>
<stop offset="0.04" stop-color="#FF8E00" stop-opacity="0.858"/>
<stop offset="0.084" stop-color="#FF8E00" stop-opacity="0.729"/>
<stop offset="0.13" stop-color="#FF8E00" stop-opacity="0.628"/>
<stop offset="0.178" stop-color="#FF8E00" stop-opacity="0.557"/>
<stop offset="0.227" stop-color="#FF8E00" stop-opacity="0.514"/>
<stop offset="0.282" stop-color="#FF8E00" stop-opacity="0.5"/>
<stop offset="0.389" stop-color="#FF8E00" stop-opacity="0.478"/>
<stop offset="0.524" stop-color="#FF8E00" stop-opacity="0.416"/>
<stop offset="0.676" stop-color="#FF8E00" stop-opacity="0.314"/>
<stop offset="0.838" stop-color="#FF8E00" stop-opacity="0.172"/>
<stop offset="1" stop-color="#FF8E00" stop-opacity="0"/>
</linearGradient>
</defs>
</svg>
