<svg width="56" height="56" viewBox="0 0 56 56" fill="none" xmlns="http://www.w3.org/2000/svg">
<path d="M26.7777 12.4751H31.8617V35.7767C29.2576 36.2693 27.3405 36.4631 25.2663 36.4631C19.0569 36.4566 15.8246 33.6825 15.8246 28.3547C15.8246 23.2214 19.2532 19.8899 24.5662 19.8899C25.3906 19.8899 26.0187 19.9548 26.7777 20.1492V12.4751ZM26.9558 24.3484C26.3604 24.1539 25.8697 24.0891 25.2416 24.0891C22.6702 24.0891 21.1849 25.6576 21.1849 28.4064C21.1849 31.0826 22.6048 32.5603 25.2089 32.5603C25.7715 32.5603 26.2296 32.5287 26.9558 32.4314V24.3484Z" fill="#2BA977"/>
<path d="M40.1755 20.5155V32.1823C40.1755 36.2001 39.8745 38.1322 38.9912 39.798C38.1667 41.3995 37.0806 42.4094 34.8363 43.5248L30.1188 41.3017C32.363 40.2587 33.4492 39.3371 34.1428 37.9307C34.869 36.4925 35.098 34.8266 35.098 30.4452V20.5156H40.1755V20.5155ZM34.5856 12.4751H39.6696V17.6409H34.5856V12.4751Z" fill="#2BA977"/>
</svg>
