<svg width="56" height="56" viewBox="0 0 56 56" fill="none" xmlns="http://www.w3.org/2000/svg">
<path d="M35.3414 31.7586L36.2402 29.4858H38.8353L37.6037 26.0382L39.1439 22.1431L43.5556 33.8565H40.3021L39.5482 31.7586H35.3414Z" fill="#3D3D3D"/>
<path d="M32.5659 33.8564L37.2886 22.1431H34.1576L30.9268 29.7124L28.6296 22.1431H26.2229L23.7563 29.7124L22.0166 26.2632L20.4424 31.1132L22.0407 33.8564H25.122L27.351 27.0683L29.4763 33.8564H32.5659Z" fill="#5A0FC8"/>
<path d="M15.4165 29.8356H17.345C17.9293 29.8356 18.4495 29.7703 18.9056 29.6398L19.4045 28.1034L20.7983 23.8088C20.6922 23.6405 20.5709 23.4813 20.4346 23.3313C19.7188 22.5392 18.6717 22.1431 17.2931 22.1431H12.4445V33.8565H15.4165V29.8356ZM17.9693 24.8379C18.2488 25.1192 18.3886 25.4958 18.3886 25.9675C18.3886 26.4428 18.2656 26.8197 18.0199 27.0983C17.7502 27.408 17.2541 27.5626 16.5309 27.5626H15.4165V24.4158H16.5391C17.213 24.4158 17.6897 24.5564 17.9693 24.8379Z" fill="#3D3D3D"/>
</svg>
