<svg width="57" height="56" viewBox="0 0 57 56" fill="none" xmlns="http://www.w3.org/2000/svg">
<path d="M43.4665 19.5427C43.4777 19.5839 43.4834 19.6264 43.4835 19.6691V26.3064C43.4835 26.3916 43.4609 26.4753 43.418 26.549C43.375 26.6227 43.3133 26.6838 43.239 26.7262L37.6371 29.9336V36.2908C37.6371 36.4638 37.5446 36.6235 37.3937 36.7106L25.7002 43.4047C25.6735 43.4199 25.6443 43.4295 25.6151 43.4398C25.6041 43.4435 25.5938 43.4501 25.5822 43.4531C25.5005 43.4745 25.4145 43.4745 25.3328 43.4531C25.3194 43.4495 25.3073 43.4422 25.2945 43.4374C25.2677 43.4277 25.2397 43.4193 25.2142 43.4047L13.5231 36.7106C13.4488 36.6682 13.3871 36.607 13.3442 36.5333C13.3013 36.4596 13.2786 36.3759 13.2786 36.2908V16.3789C13.2786 16.3354 13.2846 16.293 13.2956 16.2519C13.2992 16.238 13.3078 16.2253 13.3126 16.2113C13.3218 16.1859 13.3303 16.1599 13.3437 16.1363C13.3528 16.1206 13.3662 16.1079 13.3771 16.0934C13.3911 16.074 13.4039 16.0541 13.4203 16.0371C13.4343 16.0232 13.4525 16.0129 13.4684 16.0008C13.486 15.9863 13.5018 15.9706 13.5219 15.9591H13.5225L19.3683 12.612C19.4424 12.5697 19.5263 12.5474 19.6117 12.5474C19.6971 12.5474 19.781 12.5697 19.855 12.612L25.7008 15.9591H25.702C25.7215 15.9712 25.7379 15.9863 25.7556 16.0002C25.7714 16.0123 25.789 16.0232 25.803 16.0365C25.8201 16.0541 25.8322 16.074 25.8468 16.0934C25.8572 16.1079 25.8712 16.1206 25.8797 16.1363C25.8937 16.1605 25.9016 16.1859 25.9113 16.2113C25.9162 16.2253 25.9247 16.238 25.9283 16.2525C25.9395 16.2937 25.9453 16.3362 25.9454 16.3789V28.8157L30.8167 26.0263V19.6685C30.8167 19.6262 30.8228 19.5832 30.8337 19.5427C30.838 19.5282 30.8459 19.5155 30.8508 19.5016C30.8605 19.4761 30.869 19.4501 30.8824 19.4265C30.8915 19.4108 30.9049 19.3981 30.9153 19.3836C30.9299 19.3642 30.942 19.3443 30.9591 19.3273C30.973 19.3134 30.9907 19.3031 31.0065 19.291C31.0247 19.2765 31.0406 19.2608 31.06 19.2493H31.0606L36.9071 15.9022C36.9811 15.8598 37.065 15.8375 37.1504 15.8375C37.2358 15.8375 37.3197 15.8598 37.3937 15.9022L43.2396 19.2493C43.2603 19.2614 43.2761 19.2765 43.2943 19.2904C43.3095 19.3025 43.3272 19.3134 43.3412 19.3267C43.3582 19.3443 43.3704 19.3642 43.385 19.3836C43.3959 19.3981 43.4093 19.4108 43.4178 19.4265C43.4318 19.4501 43.4397 19.4761 43.4494 19.5016C43.4549 19.5155 43.4628 19.5282 43.4665 19.5427ZM42.509 26.0263V20.5069L40.4633 21.6781L37.6371 23.2963V28.8157L42.5096 26.0263H42.509ZM36.6632 36.0107V30.4877L33.8832 32.0665L25.9448 36.5721V42.1471L36.6632 36.0107ZM14.2531 17.2167V36.0107L24.9703 42.1465V36.5727L19.3714 33.4216L19.3696 33.4204L19.3671 33.4192C19.3483 33.4083 19.3325 33.3926 19.3148 33.3792C19.2996 33.3671 19.282 33.3575 19.2686 33.3442L19.2674 33.3423C19.2515 33.3272 19.2406 33.3085 19.2272 33.2915C19.215 33.2752 19.2004 33.2613 19.1907 33.2443L19.1901 33.2425C19.1792 33.2244 19.1725 33.2026 19.1646 33.182C19.1566 33.1639 19.1463 33.147 19.1414 33.1276V33.127C19.1354 33.104 19.1341 33.0798 19.1317 33.0562C19.1293 33.0381 19.1244 33.0199 19.1244 33.0018V20.0061L16.2988 18.3873L14.2531 17.2173V17.2167ZM19.6123 13.5908L14.7415 16.3789L19.6111 19.167L24.4812 16.3783L19.6111 13.5908H19.6123ZM22.1453 30.991L24.9709 29.3734V17.2167L22.9251 18.3879L20.0989 20.0061V32.1627L22.1453 30.991ZM37.1504 16.881L32.2803 19.6691L37.1504 22.4572L42.0199 19.6685L37.1504 16.881ZM36.6632 23.2963L33.837 21.6781L31.7912 20.5069V26.0263L34.6168 27.6439L36.6632 28.8157V23.2963ZM25.4569 35.7342L32.6003 31.6788L36.171 29.6523L31.3046 26.866L25.7014 30.0739L20.5947 32.9975L25.4569 35.7342Z" fill="#FF2D20"/>
</svg>
