<svg width="56" height="56" viewBox="0 0 56 56" fill="none" xmlns="http://www.w3.org/2000/svg">
<path d="M26.3367 15.3154L14.7375 20.1149C14.0925 20.3819 14.0992 21.2982 14.7482 21.5555L26.3958 26.1744C27.4191 26.5803 28.5588 26.5803 29.5822 26.1744L41.2299 21.5553C41.8788 21.2982 41.8858 20.382 41.2404 20.1151L29.6416 15.3152C28.5834 14.8773 27.3947 14.8773 26.3365 15.3152" fill="#FCB400"/>
<path d="M29.0225 28.6963V40.2352C29.0225 40.7838 29.5759 41.1598 30.086 40.9576L43.0649 35.9198C43.2097 35.8624 43.3338 35.7629 43.4213 35.634C43.5088 35.5052 43.5556 35.3531 43.5555 35.1974V23.6587C43.5555 23.1099 43.0021 22.7341 42.492 22.9363L29.5131 27.9741C29.3684 28.0315 29.2442 28.1311 29.1567 28.2599C29.0693 28.3887 29.0225 28.5408 29.0225 28.6965" fill="#18BFFF"/>
<path d="M25.9917 29.2918L22.1399 31.1516L21.7488 31.3406L13.6177 35.2366C13.1025 35.4853 12.4445 35.1096 12.4445 34.5371V23.7071C12.4445 23.4999 12.5507 23.3211 12.6931 23.1866C12.7515 23.1284 12.8178 23.0787 12.8901 23.0389C13.0842 22.9223 13.3613 22.8911 13.597 22.9843L25.927 27.8698C26.5537 28.1185 26.603 28.9967 25.9917 29.292" fill="#F82B60"/>
<path d="M25.9917 29.2918L22.1399 31.1516L12.6931 23.1864C12.7516 23.1283 12.8179 23.0786 12.8901 23.0389C13.0842 22.9223 13.3614 22.8911 13.597 22.9843L25.927 27.8698C26.5537 28.1185 26.603 28.9967 25.9917 29.292" fill="black" fill-opacity="0.25"/>
</svg>
