<svg width="56" height="56" viewBox="0 0 56 56" fill="none" xmlns="http://www.w3.org/2000/svg">
<path d="M36.5476 32.9647L18.7852 43.5121L41.7843 41.9513L43.5556 18.7603L36.5475 32.9646L36.5476 32.9647Z" fill="url(#paint0_linear_179_3113)"/>
<path d="M41.8219 41.9357L39.8451 28.292L34.4606 35.4021L41.8219 41.9358V41.9357Z" fill="url(#paint1_linear_179_3113)"/>
<path d="M41.8487 41.9356L27.3665 40.7988L18.862 43.4825L41.8487 41.9356Z" fill="url(#paint2_linear_179_3113)"/>
<path d="M18.8825 43.4855L22.5004 31.6333L14.5391 33.3355L18.8824 43.4854L18.8825 43.4855Z" fill="url(#paint3_linear_179_3113)"/>
<path d="M34.4593 35.441L31.1303 22.4019L21.6038 31.3319L34.4593 35.4412V35.441Z" fill="url(#paint4_linear_179_3113)"/>
<path d="M42.8003 22.5854L33.795 15.2305L31.2874 23.3376L42.8003 22.5854Z" fill="url(#paint5_linear_179_3113)"/>
<path d="M38.589 12.608L33.2926 15.5351L29.951 12.5688L38.589 12.6082V12.608Z" fill="url(#paint6_linear_179_3113)"/>
<path d="M12.4445 37.311L14.6632 33.2646L12.8684 28.4438L12.4445 37.311Z" fill="url(#paint7_linear_179_3113)"/>
<path d="M12.7491 28.2919L14.5549 33.4139L22.4014 31.6536L31.3595 23.3281L33.8877 15.298L29.907 12.4873L23.1393 15.0201C21.007 17.0033 16.8695 20.9274 16.7203 21.0011C16.5726 21.0765 13.9881 25.9616 12.7491 28.2919Z" fill="white"/>
<path d="M19.0897 19.0899C23.711 14.5079 29.6685 11.8008 31.9547 14.1076C34.2397 16.4143 31.8165 22.02 27.1952 26.6005C22.574 31.1808 16.6904 34.0371 14.4056 31.7303C12.1194 29.4252 14.4685 23.6704 19.0897 19.0899Z" fill="url(#paint8_linear_179_3113)"/>
<path d="M18.8825 43.4807L22.4721 31.5908L34.3933 35.4206C30.083 39.4625 25.289 42.8793 18.8825 43.4807Z" fill="url(#paint9_linear_179_3113)"/>
<path d="M31.3752 23.3049L34.4357 35.4272C38.0363 31.6413 41.2677 27.5713 42.8504 22.5371L31.3754 23.3049H31.3752Z" fill="url(#paint10_linear_179_3113)"/>
<path d="M42.8192 22.5978C44.0441 18.9015 44.3267 13.5988 38.5512 12.6143L33.8121 15.2319L42.8192 22.5978Z" fill="url(#paint11_linear_179_3113)"/>
<path d="M12.4445 37.2578C12.6141 43.3583 17.0154 43.4492 18.8903 43.5027L14.5595 33.3887L12.4445 37.2578Z" fill="#9E1209"/>
<path d="M31.3923 23.3234C34.1591 25.024 39.7353 28.4393 39.8483 28.502C40.0241 28.6009 42.2523 24.7445 42.758 22.5649L31.3923 23.3234Z" fill="url(#paint12_radial_179_3113)"/>
<path d="M22.4673 31.5908L27.2659 40.849C30.1033 39.3101 32.3254 37.4353 34.3603 35.427L22.4673 31.5908Z" fill="url(#paint13_radial_179_3113)"/>
<path d="M14.5407 33.4014L13.8608 41.4975C15.1437 43.25 16.9087 43.4023 18.7599 43.2657C17.4205 39.9321 14.7448 33.2664 14.5407 33.4014Z" fill="url(#paint14_linear_179_3113)"/>
<path d="M33.7841 15.2526L43.3171 16.5904C42.8082 14.4346 41.2458 13.0433 38.5827 12.6084L33.7841 15.2526Z" fill="url(#paint15_linear_179_3113)"/>
<defs>
<linearGradient id="paint0_linear_179_3113" x1="39.7781" y1="46.3335" x2="33.2224" y2="34.7418" gradientUnits="userSpaceOnUse">
<stop stop-color="#FB7655"/>
<stop offset="0.41" stop-color="#E42B1E"/>
<stop offset="0.99" stop-color="#990000"/>
<stop offset="1" stop-color="#990000"/>
</linearGradient>
<linearGradient id="paint1_linear_179_3113" x1="43.0477" y1="36.5997" x2="33.832" y2="34.7995" gradientUnits="userSpaceOnUse">
<stop stop-color="#871101"/>
<stop offset="0.99" stop-color="#911209"/>
<stop offset="1" stop-color="#911209"/>
</linearGradient>
<linearGradient id="paint2_linear_179_3113" x1="36.2799" y1="46.6848" x2="36.1612" y2="40.8395" gradientUnits="userSpaceOnUse">
<stop stop-color="#871101"/>
<stop offset="0.99" stop-color="#911209"/>
<stop offset="1" stop-color="#911209"/>
</linearGradient>
<linearGradient id="paint3_linear_179_3113" x1="18.5207" y1="32.4907" x2="21.2608" y2="40.5253" gradientUnits="userSpaceOnUse">
<stop stop-color="white"/>
<stop offset="0.23" stop-color="#E57252"/>
<stop offset="0.46" stop-color="#DE3B20"/>
<stop offset="0.99" stop-color="#A60003"/>
<stop offset="1" stop-color="#A60003"/>
</linearGradient>
<linearGradient id="paint4_linear_179_3113" x1="27.5397" y1="24.5335" x2="28.0367" y2="33.2299" gradientUnits="userSpaceOnUse">
<stop stop-color="white"/>
<stop offset="0.23" stop-color="#E4714E"/>
<stop offset="0.56" stop-color="#BE1A0D"/>
<stop offset="0.99" stop-color="#A80D00"/>
<stop offset="1" stop-color="#A80D00"/>
</linearGradient>
<linearGradient id="paint5_linear_179_3113" x1="35.5431" y1="16.4947" x2="36.2699" y2="22.8106" gradientUnits="userSpaceOnUse">
<stop stop-color="white"/>
<stop offset="0.18" stop-color="#E46342"/>
<stop offset="0.4" stop-color="#C82410"/>
<stop offset="0.99" stop-color="#A80D00"/>
<stop offset="1" stop-color="#A80D00"/>
</linearGradient>
<linearGradient id="paint6_linear_179_3113" x1="31.1266" y1="14.2995" x2="32.1512" y2="9.95486" gradientUnits="userSpaceOnUse">
<stop stop-color="white"/>
<stop offset="0.54" stop-color="#C81F11"/>
<stop offset="0.99" stop-color="#BF0905"/>
<stop offset="1" stop-color="#BF0905"/>
</linearGradient>
<linearGradient id="paint7_linear_179_3113" x1="13.0574" y1="30.3179" x2="15.7369" y2="31.9975" gradientUnits="userSpaceOnUse">
<stop stop-color="white"/>
<stop offset="0.31" stop-color="#DE4024"/>
<stop offset="0.99" stop-color="#BF190B"/>
<stop offset="1" stop-color="#BF190B"/>
</linearGradient>
<linearGradient id="paint8_linear_179_3113" x1="9.53073" y1="36.8422" x2="33.6098" y2="12.0116" gradientUnits="userSpaceOnUse">
<stop stop-color="#BD0012"/>
<stop offset="0.07" stop-color="white"/>
<stop offset="0.17" stop-color="white"/>
<stop offset="0.27" stop-color="#C82F1C"/>
<stop offset="0.33" stop-color="#820C01"/>
<stop offset="0.46" stop-color="#A31601"/>
<stop offset="0.72" stop-color="#B31301"/>
<stop offset="0.99" stop-color="#E82609"/>
<stop offset="1" stop-color="#E82609"/>
</linearGradient>
<linearGradient id="paint9_linear_179_3113" x1="28.0016" y1="39.3436" x2="21.1874" y2="36.4816" gradientUnits="userSpaceOnUse">
<stop stop-color="#8C0C01"/>
<stop offset="0.54" stop-color="#990C00"/>
<stop offset="0.99" stop-color="#A80D0E"/>
<stop offset="1" stop-color="#A80D0E"/>
</linearGradient>
<linearGradient id="paint10_linear_179_3113" x1="40.4772" y1="30.6262" x2="33.4581" y2="25.6405" gradientUnits="userSpaceOnUse">
<stop stop-color="#7E110B"/>
<stop offset="0.99" stop-color="#9E0C00"/>
<stop offset="1" stop-color="#9E0C00"/>
</linearGradient>
<linearGradient id="paint11_linear_179_3113" x1="42.8481" y1="20.0143" x2="39.5472" y2="16.6635" gradientUnits="userSpaceOnUse">
<stop stop-color="#79130D"/>
<stop offset="0.99" stop-color="#9E120B"/>
<stop offset="1" stop-color="#9E120B"/>
</linearGradient>
<radialGradient id="paint12_radial_179_3113" cx="0" cy="0" r="1" gradientUnits="userSpaceOnUse" gradientTransform="translate(35.0295 24.953) scale(7.90743 4.13191)">
<stop stop-color="#A80D00"/>
<stop offset="0.99" stop-color="#7E0E08"/>
<stop offset="1" stop-color="#7E0E08"/>
</radialGradient>
<radialGradient id="paint13_radial_179_3113" cx="0" cy="0" r="1" gradientUnits="userSpaceOnUse" gradientTransform="translate(24.0787 35.3737) scale(10.5117 8.1829)">
<stop stop-color="#A30C00"/>
<stop offset="0.99" stop-color="#800E08"/>
<stop offset="1" stop-color="#800E08"/>
</radialGradient>
<linearGradient id="paint14_linear_179_3113" x1="16.6322" y1="43.474" x2="10.7141" y2="38.5614" gradientUnits="userSpaceOnUse">
<stop stop-color="#8B2114"/>
<stop offset="0.43" stop-color="#9E100A"/>
<stop offset="0.99" stop-color="#B3100C"/>
<stop offset="1" stop-color="#B3100C"/>
</linearGradient>
<linearGradient id="paint15_linear_179_3113" x1="36.7269" y1="14.026" x2="38.4066" y2="18.2754" gradientUnits="userSpaceOnUse">
<stop stop-color="#B31000"/>
<stop offset="0.44" stop-color="#910F08"/>
<stop offset="0.99" stop-color="#791C12"/>
<stop offset="1" stop-color="#791C12"/>
</linearGradient>
</defs>
</svg>
