<svg width="57" height="56" viewBox="0 0 57 56" fill="none" xmlns="http://www.w3.org/2000/svg">
<path d="M28.7822 30.7425C30.3055 30.7425 31.5403 29.5145 31.5403 27.9997C31.5403 26.4848 30.3055 25.2568 28.7822 25.2568C27.2589 25.2568 26.024 26.4848 26.024 27.9997C26.024 29.5145 27.2589 30.7425 28.7822 30.7425Z" fill="#61DAFB"/>
<path fill-rule="evenodd" clip-rule="evenodd" d="M15.8134 26.5566C15.1879 27.1181 14.9823 27.6077 14.9823 27.9998C14.9823 28.392 15.1879 28.8815 15.8134 29.443C16.4384 30.0041 17.3993 30.5552 18.6721 31.0385C21.2105 32.0023 24.7847 32.6193 28.7822 32.6193C32.7797 32.6193 36.3538 32.0023 38.8923 31.0385C40.165 30.5552 41.1259 30.0041 41.7509 29.443C42.3764 28.8815 42.582 28.392 42.582 27.9998C42.582 27.6077 42.3764 27.1181 41.7509 26.5566C41.1259 25.9955 40.165 25.4444 38.8923 24.9611C36.3538 23.9973 32.7797 23.3804 28.7822 23.3804C24.7847 23.3804 21.2105 23.9973 18.6721 24.9611C17.3993 25.4444 16.4384 25.9955 15.8134 26.5566ZM17.9621 23.0914C20.7802 22.0214 24.6059 21.3804 28.7822 21.3804C32.9584 21.3804 36.7841 22.0214 39.6022 23.0914C41.0077 23.6251 42.2142 24.2848 43.087 25.0683C43.9593 25.8514 44.582 26.8402 44.582 27.9998C44.582 29.1594 43.9593 30.1482 43.087 30.9313C42.2142 31.7148 41.0077 32.3746 39.6022 32.9083C36.7841 33.9783 32.9584 34.6193 28.7822 34.6193C24.6059 34.6193 20.7802 33.9783 17.9621 32.9083C16.5566 32.3746 15.3501 31.7148 14.4774 30.9313C13.605 30.1482 12.9823 29.1594 12.9823 27.9998C12.9823 26.8402 13.605 25.8514 14.4774 25.0683C15.3501 24.2848 16.5566 23.6251 17.9621 23.0914Z" fill="#61DAFB"/>
<path fill-rule="evenodd" clip-rule="evenodd" d="M23.5627 16.1115C22.762 15.8539 22.2301 15.9203 21.8843 16.1188C21.5386 16.3173 21.2148 16.7422 21.0388 17.5606C20.8627 18.379 20.8632 19.4813 21.0786 20.8182C21.5082 23.4847 22.7575 26.87 24.7556 30.3116C26.7537 33.7533 29.0772 36.5218 31.1846 38.225C32.2411 39.079 33.2009 39.6306 34.0016 39.8882C34.8023 40.1458 35.3342 40.0794 35.68 39.8808C36.0257 39.6823 36.3495 39.2575 36.5255 38.4391C36.7016 37.6207 36.7011 36.5183 36.4857 35.1815C36.0561 32.5149 34.8068 29.1297 32.8087 25.688C30.8106 22.2464 28.4871 19.4779 26.3797 17.7746C25.3231 16.9207 24.3634 16.3691 23.5627 16.1115ZM27.6404 16.2262C29.9824 18.1191 32.4544 21.0945 34.5432 24.6922C36.6319 28.2899 37.9871 31.9065 38.4645 34.8699C38.7027 36.3481 38.7313 37.7178 38.4853 38.8616C38.2393 40.0055 37.6898 41.0331 36.6842 41.6105C35.6785 42.1878 34.5089 42.1473 33.3897 41.7872C32.2706 41.4272 31.0921 40.7176 29.9239 39.7735C27.5818 37.8806 25.1099 34.9051 23.0211 31.3075C20.9324 27.7098 19.5772 24.0932 19.0998 21.1297C18.8616 19.6516 18.833 18.2819 19.079 17.138C19.325 15.9942 19.8745 14.9666 20.8801 14.3892C21.8858 13.8118 23.0554 13.8524 24.1746 14.2124C25.2937 14.5725 26.4722 15.282 27.6404 16.2262Z" fill="#61DAFB"/>
<path fill-rule="evenodd" clip-rule="evenodd" d="M36.5255 17.5605C36.3495 16.7421 36.0257 16.3173 35.68 16.1188C35.3342 15.9203 34.8023 15.8538 34.0016 16.1114C33.2009 16.369 32.2411 16.9207 31.1846 17.7746C29.0772 19.4778 26.7537 22.2463 24.7556 25.688C22.7575 29.1296 21.5082 32.5149 21.0786 35.1814C20.8632 36.5183 20.8627 37.6206 21.0388 38.4391C21.2148 39.2574 21.5386 39.6823 21.8843 39.8808C22.2301 40.0793 22.762 40.1457 23.5627 39.8881C24.3634 39.6305 25.3231 39.0789 26.3797 38.225C28.4871 36.5217 30.8106 33.7533 32.8087 30.3116C34.8068 26.8699 36.0561 23.4847 36.4857 20.8181C36.7011 19.4813 36.7016 18.3789 36.5255 17.5605ZM38.4645 21.1297C37.9871 24.0931 36.6319 27.7097 34.5432 31.3074C32.4544 34.9051 29.9824 37.8805 27.6404 39.7734C26.4722 40.7176 25.2937 41.4271 24.1746 41.7872C23.0554 42.1472 21.8858 42.1878 20.8801 41.6104C19.8745 41.0331 19.325 40.0054 19.079 38.8616C18.833 37.7177 18.8616 36.348 19.0998 34.8699C19.5772 31.9064 20.9324 28.2898 23.0211 24.6921C25.1099 21.0945 27.5818 18.119 29.9239 16.2261C31.0921 15.282 32.2706 14.5724 33.3897 14.2124C34.5089 13.8523 35.6785 13.8118 36.6842 14.3891C37.6898 14.9665 38.2393 15.9941 38.4853 17.138C38.7313 18.2818 38.7027 19.6515 38.4645 21.1297Z" fill="#61DAFB"/>
</svg>
