<svg width="57" height="56" viewBox="0 0 57 56" fill="none" xmlns="http://www.w3.org/2000/svg">
<path d="M22.0299 24.1267L27.9326 20.7188C28.0052 20.6769 28.0875 20.6548 28.1714 20.6548C28.2552 20.6548 28.3376 20.6769 28.4102 20.7188L34.3128 24.1267C34.3854 24.1686 34.4456 24.2289 34.4875 24.3015C34.5295 24.3741 34.5515 24.4564 34.5516 24.5402V31.356C34.5516 31.5265 34.4604 31.6841 34.3128 31.7696L28.4102 35.1774C28.3376 35.2194 28.2552 35.2414 28.1714 35.2414C28.0875 35.2414 28.0052 35.2194 27.9326 35.1774L22.0299 31.7696C21.9574 31.7276 21.8971 31.6673 21.8552 31.5948C21.8132 31.5222 21.7912 31.4398 21.7911 31.356V24.5401C21.7913 24.3695 21.8823 24.212 22.0299 24.1266" fill="#8080F2"/>
<path d="M43.4738 27.3896L36.4137 15.1072C36.1573 14.6631 35.6836 14.3354 35.1707 14.3354H21.0505C20.5377 14.3354 20.0637 14.6631 19.8073 15.1072L12.7474 27.3625C12.4909 27.8067 12.4909 28.3673 12.7474 28.8115L19.8073 40.9934C20.0637 41.4374 20.5377 41.6644 21.0505 41.6644H35.1706C35.6835 41.6644 36.1573 41.4442 36.4136 41L43.4737 28.7984C43.7303 28.3544 43.7303 27.8337 43.4737 27.3896H43.4738ZM37.6277 33.2959C37.6277 33.4764 37.519 33.6435 37.3625 33.7339L28.3696 38.9223C28.2921 38.9666 28.2044 38.99 28.1152 38.99C28.026 38.99 27.9383 38.9666 27.8608 38.9223L18.861 33.7339C18.7046 33.6435 18.5951 33.4765 18.5951 33.2958V22.9187C18.5951 22.738 18.703 22.5712 18.8595 22.4807L27.852 17.2922C27.9294 17.2478 28.017 17.2244 28.1063 17.2244C28.1955 17.2244 28.2832 17.2478 28.3606 17.2922L37.3609 22.4807C37.5176 22.5712 37.6277 22.738 37.6277 22.9187V33.2958V33.2959Z" fill="#4B32C3"/>
</svg>
