<svg width="57" height="56" viewBox="0 0 57 56" fill="none" xmlns="http://www.w3.org/2000/svg">
<path d="M19.7162 12.4443H37.0383C37.8812 12.4443 38.6997 12.578 39.4937 12.8575C40.642 13.2707 41.6804 13.9999 42.4622 14.9478C43.2562 15.8957 43.7815 17.0624 43.9648 18.2777C44.038 18.7273 44.0503 19.177 44.0503 19.6266V36.4339C44.0503 36.9686 44.0258 37.5155 43.9159 38.0381C43.6716 39.2412 43.0974 40.3714 42.2667 41.2829C41.4483 42.1943 40.3733 42.8749 39.2128 43.2395C38.5042 43.4582 37.7713 43.5554 37.0261 43.5554C36.6963 43.5554 19.6673 43.5554 19.4108 43.5433C18.1648 43.4825 16.931 43.0815 15.8926 42.3888C14.8787 41.7082 14.048 40.7603 13.5105 39.6666C13.0463 38.7308 12.8142 37.6857 12.8142 36.6405V19.3593C12.7898 18.3263 13.0097 17.3054 13.4617 16.3818C13.9869 15.2881 14.8054 14.328 15.8193 13.6475C16.8577 12.9426 18.0793 12.5294 19.3253 12.4686C19.4474 12.4443 19.5818 12.4443 19.7162 12.4443Z" fill="url(#paint0_linear_179_945)"/>
<path d="M39.1517 37.8923C39.0417 37.7221 38.9196 37.552 38.7852 37.394C38.4798 37.0294 38.1256 36.7134 37.7346 36.4461C37.246 36.1179 36.6719 35.9113 36.0855 35.887C35.6702 35.8627 35.2548 35.9357 34.8639 36.0815C34.473 36.2152 34.0943 36.4096 33.7278 36.6041C33.3003 36.8228 32.8727 37.0416 32.4207 37.2238C31.8832 37.4426 31.3213 37.6127 30.7472 37.7343C30.0264 37.8679 29.2935 37.9166 28.5727 37.9044C27.2656 37.8801 25.9585 37.6857 24.7125 37.3211C23.6131 36.9929 22.5625 36.5433 21.573 35.9721C20.7057 35.4739 19.8995 34.9027 19.1421 34.2586C18.5191 33.7239 17.9449 33.1527 17.4074 32.545C17.0409 32.1197 16.6867 31.67 16.3569 31.2082C16.2225 31.0259 16.1003 30.8315 15.9904 30.637L12.7654 27.1735V19.335C12.7654 15.5311 15.856 12.4443 19.6796 12.4443H25.8486L30.4173 17.0624C40.7275 24.0381 37.3926 31.7308 37.3926 31.7308C37.3926 31.7308 40.3244 35.012 39.1517 37.8923Z" fill="url(#paint1_linear_179_945)"/>
<path d="M30.4417 17.0625C40.7519 24.0382 37.417 31.7309 37.417 31.7309C37.417 31.7309 40.3488 35.0243 39.1639 37.9045C39.1639 37.9045 37.9545 35.8872 35.9266 35.8872C33.9721 35.8872 32.8238 37.9045 28.8903 37.9045C20.1315 37.9045 15.9904 30.625 15.9904 30.625C23.8818 35.7899 29.269 32.1319 29.269 32.1319C25.7142 30.0781 18.1526 20.2587 18.1526 20.2587C24.7369 25.8368 27.5832 27.3073 27.5832 27.3073C25.8852 25.9097 21.121 19.0799 21.121 19.0799C24.9324 22.9201 32.5062 28.2795 32.5062 28.2795C34.6562 22.349 30.4417 17.0625 30.4417 17.0625Z" fill="white"/>
<defs>
<linearGradient id="paint0_linear_179_945" x1="31.3691" y1="11.3342" x2="25.5197" y2="44.6797" gradientUnits="userSpaceOnUse">
<stop stop-color="#FAAE42"/>
<stop offset="1" stop-color="#EF3E31"/>
</linearGradient>
<linearGradient id="paint1_linear_179_945" x1="28.7208" y1="12.947" x2="24.4397" y2="37.3521" gradientUnits="userSpaceOnUse">
<stop stop-color="#E39F3A"/>
<stop offset="1" stop-color="#D33929"/>
</linearGradient>
</defs>
</svg>
