<svg width="57" height="56" viewBox="0 0 57 56" fill="none" xmlns="http://www.w3.org/2000/svg">
<path d="M43.276 26.6137L29.6167 13.031C28.8306 12.2488 27.5547 12.2488 26.7676 13.031L23.9312 15.8517L27.5293 19.4298C28.3655 19.1489 29.3243 19.3374 29.9908 20.0002C30.6605 20.6672 30.8487 21.6289 30.5593 22.4631L34.0269 25.9115C34.8659 25.6241 35.8339 25.8101 36.5039 26.4775C37.4404 27.4084 37.4404 28.9172 36.5039 29.8487C35.5672 30.7803 34.05 30.7803 33.1128 29.8487C32.4084 29.1474 32.2344 28.1187 32.591 27.2557L29.3572 24.0399L29.3568 32.5027C29.5912 32.618 29.8053 32.7702 29.9908 32.9536C30.9273 33.8845 30.9273 35.3934 29.9908 36.3256C29.0541 37.2568 27.5362 37.2568 26.6008 36.3256C25.6643 35.3934 25.6643 33.8846 26.6008 32.9537C26.8252 32.7304 27.0919 32.5536 27.3855 32.4334V23.8917C27.0915 23.7724 26.8246 23.5955 26.6008 23.3715C25.8913 22.6669 25.7207 21.6316 26.0842 20.7652L22.5373 17.2376L13.1714 26.5509C12.3844 27.3339 12.3844 28.6028 13.1714 29.3852L26.8309 42.9681C27.6173 43.7505 28.8929 43.7505 29.6803 42.9681L43.2759 29.4482C44.0627 28.6656 44.0627 27.396 43.2759 26.6137" fill="#DE4C36"/>
</svg>
