<svg width="57" height="56" viewBox="0 0 57 56" fill="none" xmlns="http://www.w3.org/2000/svg">
<path d="M36.2012 18.9704C34.2765 19.6128 33.3498 20.7652 32.7185 22.5598C32.5555 23.0391 32.1481 23.5693 31.6899 23.9261L33.2683 25.6189L28.258 22.1112L14.429 12.4443C14.429 12.4443 15.4269 18.9296 15.7732 21.3157C16.0176 22.9982 16.4351 23.7528 17.7589 24.5177L18.2885 24.8032L20.5696 26.0064L19.2152 25.3028L25.4678 28.7188L25.4271 28.8106L18.6958 25.6902C19.0522 26.9139 19.7447 29.2694 20.04 30.3095C20.3557 31.4311 20.7121 31.8391 21.8018 32.2367L23.8079 32.9709L25.0503 32.4815L23.4719 33.5317L15.5797 43.5554C20.8242 38.6812 25.2642 36.9477 28.5127 35.5304C32.6574 33.7357 35.1523 32.5835 36.7816 28.4435C37.9425 25.5373 38.8489 21.8154 39.9996 20.3776L42.4538 17.2369C42.4538 17.2369 37.3723 18.583 36.2012 18.9704Z" fill="#3F00A5"/>
</svg>
