<svg width="58" height="56" viewBox="0 0 58 56" fill="none" xmlns="http://www.w3.org/2000/svg">
<path d="M29.0335 42.7646C37.2333 42.7646 43.8806 36.1542 43.8806 27.9999C43.8806 19.8457 37.2333 13.2354 29.0335 13.2354C20.8337 13.2354 14.1864 19.8457 14.1864 27.9999C14.1864 36.1542 20.8337 42.7646 29.0335 42.7646Z" fill="white"/>
<path d="M29.0336 12.4443C20.3945 12.4443 13.3911 19.4088 13.3911 27.9999C13.3911 36.591 20.3945 43.5554 29.0336 43.5554C37.6727 43.5554 44.676 36.591 44.676 27.9999C44.676 19.4088 37.6727 12.4443 29.0336 12.4443ZM29.0336 14.0263C36.7941 14.0263 43.0853 20.2825 43.0853 27.9999C43.0853 35.7173 36.7941 41.9735 29.0336 41.9735C21.273 41.9735 14.9819 35.7173 14.9819 27.9999C14.9819 20.2825 21.273 14.0263 29.0336 14.0263Z" fill="#4000BF"/>
<path fill-rule="evenodd" clip-rule="evenodd" d="M29.2103 16.9263C35.3603 16.9263 40.3457 21.884 40.3457 27.9998C40.3457 34.1154 35.3603 39.0732 29.2103 39.0732C23.0605 39.0732 18.0751 34.1154 18.0751 27.9998C18.0751 26.5051 18.3728 25.0796 18.9126 23.7788C19.7007 24.8461 20.9717 25.539 22.4055 25.539C24.7971 25.539 26.7359 23.6109 26.7359 21.2326C26.7359 19.8068 26.0391 18.5429 24.9658 17.7592C26.274 17.2224 27.7074 16.9263 29.2103 16.9263Z" fill="url(#paint0_linear_179_1131)"/>
<defs>
<linearGradient id="paint0_linear_179_1131" x1="29.2103" y1="39.0732" x2="29.2103" y2="16.9263" gradientUnits="userSpaceOnUse">
<stop stop-color="#7400E1"/>
<stop offset="1" stop-color="#4000BF"/>
</linearGradient>
</defs>
</svg>
