<svg width="57" height="56" viewBox="0 0 57 56" fill="none" xmlns="http://www.w3.org/2000/svg">
<path fill-rule="evenodd" clip-rule="evenodd" d="M21.6626 40.2157L17.7719 38.8272V33.1563L21.6626 34.4745V40.2157ZM22.3763 40.2157L26.267 38.8274V33.1563L22.3763 34.4745V40.2157ZM18.1717 32.7321L22.1094 31.6297L25.7607 32.8005L22.1094 34.0333L18.1717 32.7321ZM17.0304 32.2929L13.1397 30.905V25.2335L17.0304 26.5518V32.2929ZM17.7441 32.2929L21.635 30.905V25.2335L17.7441 26.5518V32.2929ZM13.5395 24.8091L17.4775 23.7069L21.1288 24.8778L17.4775 26.1106L13.5395 24.8094V24.8091ZM26.1091 32.2929L22.2182 30.905V25.2335L26.1091 26.5518V32.2929ZM26.8228 32.2929L30.7138 30.905V25.2335L26.8228 26.5518V32.2929ZM22.6185 24.8091L26.5562 23.7069L30.2072 24.8778L26.5562 26.1106L22.6185 24.8094V24.8091ZM30.7413 24.3697L26.8503 22.9822V17.3108L30.7413 18.6288V24.3697ZM31.455 24.3697L35.3457 22.9822V17.3108L31.4547 18.6288V24.3697H31.455ZM27.2504 16.8866L31.1883 15.7842L34.8394 16.9548L31.1883 18.1878L27.2504 16.8866ZM39.8202 24.3697L35.9293 22.9822V17.3108L39.8202 18.6288V24.3697ZM40.5337 24.3697L44.4246 22.9822V17.3108L40.5337 18.6288V24.3697ZM36.3291 16.8866L40.267 15.7842L43.9181 16.9548L40.267 18.1876L36.3291 16.8863" fill="#FF9900"/>
</svg>
