<svg width="56" height="56" viewBox="0 0 56 56" fill="none" xmlns="http://www.w3.org/2000/svg">
<path fill-rule="evenodd" clip-rule="evenodd" d="M28.0013 43.5554V37.5262C34.3831 37.5262 39.337 31.1975 36.8863 24.4806C36.4362 23.2466 35.7218 22.1259 34.7931 21.1971C33.8644 20.2683 32.7438 19.5537 31.5099 19.1035C24.793 16.6709 18.4642 21.6067 18.4642 27.9885H12.4525C12.4525 17.8173 22.2898 9.88404 32.9553 13.2154C37.6096 14.6794 41.3291 18.3808 42.7751 23.0358C46.107 33.7181 38.1912 43.5554 28.0013 43.5554Z" fill="#0080FF"/>
<path fill-rule="evenodd" clip-rule="evenodd" d="M22.0252 37.544H28.0189V31.5503H22.0259L22.0252 37.544ZM17.4064 42.1628H22.0246V37.5446H17.4064V42.1628ZM13.5453 37.5446H17.4064V33.6828H13.5453V37.5446Z" fill="#0080FF"/>
</svg>
