<svg width="57" height="56" viewBox="0 0 57 56" fill="none" xmlns="http://www.w3.org/2000/svg">
<path d="M14.3774 33.6335C14.4072 33.7009 14.4409 33.7631 14.4772 33.8254C14.494 33.8617 14.5174 33.8992 14.5381 33.9329C14.5718 34.0004 14.6081 34.0652 14.6431 34.13L14.8466 34.4722C14.8842 34.5357 14.9205 34.598 14.9633 34.6602C15.0346 34.782 15.1189 34.9013 15.1927 35.0231C15.2264 35.0737 15.2576 35.1243 15.2952 35.1748C15.4377 35.3965 15.5674 35.5806 15.7061 35.7594C15.8046 35.893 15.9031 36.0239 16.0094 36.1548C16.0444 36.2041 16.0833 36.2533 16.1196 36.3026L16.4061 36.65C16.4411 36.6902 16.4761 36.7369 16.5137 36.7783C16.6407 36.9313 16.7755 37.0791 16.9104 37.2295C16.9104 37.2321 16.9142 37.2346 16.9168 37.2385C17.0841 37.4485 17.2642 37.6352 17.4613 37.8011L17.4665 37.8063C17.5702 37.9126 17.6739 38.0176 17.7841 38.1213L17.915 38.2471C18.0589 38.3819 18.2028 38.5154 18.3544 38.645C18.357 38.645 18.3583 38.6476 18.3609 38.6489L18.4348 38.7137C18.567 38.8291 18.7006 38.9432 18.8367 39.0495L18.9987 39.1856C19.1089 39.2737 19.223 39.3567 19.3358 39.4436L19.512 39.5784C19.6326 39.6691 19.7609 39.7573 19.8841 39.8454C19.9295 39.8778 19.9748 39.9102 20.0215 39.94L20.0591 39.9699L20.4234 40.2084L20.5789 40.3121C20.7695 40.4339 20.9587 40.548 21.148 40.6621C21.2024 40.6893 21.2569 40.7191 21.3074 40.7502C21.4474 40.8306 21.5926 40.9123 21.7339 40.9862C21.8117 41.0302 21.8921 41.0678 21.9724 41.108C22.0697 41.1625 22.1708 41.2156 22.2745 41.2701C22.303 41.2791 22.3263 41.2882 22.3497 41.3012L22.3549 41.296C22.3976 41.3154 22.4378 41.3362 22.4793 41.3569C22.6349 41.4347 22.7969 41.5086 22.9654 41.5812C22.9965 41.5941 23.0302 41.6071 23.0639 41.6252C23.2506 41.7069 23.4373 41.7847 23.6304 41.8599C23.6745 41.8728 23.7212 41.8949 23.7665 41.9117C23.9415 41.9778 24.1217 42.0452 24.3006 42.1088L24.3654 42.1321C24.5638 42.1995 24.7595 42.2643 24.9617 42.3252C25.0084 42.3382 25.0564 42.3551 25.1056 42.368C25.3117 42.4302 25.5114 42.5041 25.7201 42.543C39.0371 44.958 42.9066 34.5759 42.9066 34.5759C39.6554 38.7889 33.8855 39.8999 28.4216 38.6632C28.2194 38.6165 28.0171 38.5517 27.8123 38.4921C27.5232 38.4102 27.2366 38.3199 26.9529 38.2211L27.076 38.2587L26.9956 38.2276C26.8194 38.168 26.6495 38.1019 26.4771 38.0358C26.4349 38.0179 26.3921 38.0014 26.3488 37.9865L26.3345 37.9826C26.144 37.9061 25.9586 37.8284 25.7745 37.7467C25.7343 37.7337 25.7006 37.7156 25.6604 37.7C25.4424 37.605 25.2263 37.5056 25.0123 37.4019L25.1912 37.4809C25.1445 37.4603 25.0987 37.4378 25.0538 37.4135C24.9319 37.3565 24.8101 37.2917 24.6908 37.2308C24.6 37.1877 24.5105 37.1419 24.4225 37.0933L24.4484 37.1063C24.3019 37.0285 24.1554 36.9443 24.0077 36.8652C23.9636 36.8341 23.913 36.8082 23.8625 36.7796C23.6428 36.652 23.4258 36.5197 23.2117 36.383L23.2934 36.4322C23.2385 36.3983 23.1849 36.3624 23.1326 36.3246L23.1404 36.3298C23.0011 36.2442 22.8645 36.1543 22.7308 36.0602C22.6867 36.0317 22.6465 36.0006 22.6012 35.9694C22.4615 35.8741 22.324 35.7756 22.1889 35.6739L22.22 35.6959C22.1656 35.6519 22.1073 35.6104 22.0489 35.5676C21.9349 35.4781 21.8195 35.3926 21.7054 35.2993L21.5524 35.1774C21.3894 35.0477 21.2295 34.9141 21.0728 34.7768L21.0715 34.7755L20.6217 34.3672L20.4921 34.2454C20.3858 34.1378 20.2769 34.0354 20.168 33.9291L20.0422 33.7994C19.908 33.6665 19.7771 33.5304 19.6495 33.3911L19.6417 33.382L19.6196 33.3639C19.4824 33.2131 19.3471 33.0606 19.2139 32.9063C19.1789 32.8661 19.1465 32.8233 19.1102 32.7805L18.8159 32.424C18.6833 32.2574 18.5536 32.0885 18.427 31.9172L18.3752 31.8446C15.3444 27.7275 14.2477 22.0458 16.6731 17.3843L14.5316 20.0923C11.777 24.0317 12.1179 29.1548 14.2244 33.3379C14.2724 33.4404 14.3255 33.5363 14.3774 33.6335Z" fill="#1266A9"/>
<path d="M23.6551 27.9587L23.6408 27.9379L23.6292 27.9224L23.6551 27.9587Z" fill="black"/>
<path d="M25.1044 29.6593L25.221 29.776C25.3688 29.9186 25.5205 30.0573 25.6747 30.196L25.6942 30.2128C25.8497 30.3502 26.0248 30.4941 26.2049 30.6341L26.2322 30.6549C26.2762 30.6847 26.3138 30.7197 26.3566 30.7495C26.5381 30.8895 26.7209 31.023 26.9114 31.1565L26.9309 31.1682C27.0112 31.2265 27.0968 31.2797 27.1875 31.3367C27.2238 31.36 27.2653 31.3912 27.3042 31.4145C27.4416 31.5026 27.5764 31.5843 27.7151 31.6686C27.7372 31.6776 27.7566 31.6893 27.7774 31.6984C27.894 31.7697 28.0211 31.8384 28.1429 31.9006C28.1857 31.9265 28.2272 31.946 28.2713 31.9706C28.3581 32.0134 28.4437 32.0588 28.5266 32.1028L28.5681 32.121C28.7431 32.2065 28.922 32.2869 29.097 32.366C29.1411 32.3828 29.1787 32.3971 29.2163 32.4152C29.3602 32.4775 29.5066 32.5371 29.6505 32.5915C29.7153 32.6136 29.7763 32.6395 29.8372 32.659C29.9694 32.7082 30.1081 32.7536 30.2391 32.799L30.4205 32.8573C30.6098 32.9156 30.8016 32.9921 31.0026 33.0232C41.2862 34.7162 43.6662 26.8385 43.6662 26.8385C41.5234 29.9069 37.3765 31.3691 32.9574 30.2271C32.7368 30.1714 32.5181 30.1088 32.3015 30.0391L32.3754 30.0598C32.3131 30.043 32.2587 30.0236 32.1991 30.0054C32.0643 29.9587 31.9255 29.9134 31.7946 29.8654L31.608 29.7954C31.4628 29.7371 31.315 29.6826 31.1737 29.6204C31.1296 29.601 31.0894 29.588 31.0557 29.5685C30.8742 29.4869 30.6915 29.4065 30.5139 29.321L30.2468 29.1822L30.0926 29.1045C29.9733 29.0422 29.8631 28.9774 29.749 28.9113C29.72 28.8977 29.6918 28.8821 29.6648 28.8647L29.6687 28.8659C29.5313 28.7804 29.3887 28.6974 29.2564 28.6106C29.2124 28.5859 29.1722 28.5561 29.1307 28.5302L28.8611 28.3552C28.6744 28.2256 28.4916 28.0869 28.3063 27.9521C28.2648 27.9145 28.2246 27.8833 28.1844 27.8496C26.2412 26.3291 24.709 24.2511 23.9818 21.8983C23.2156 19.4522 23.3842 16.7092 24.7077 14.4834L23.0808 16.7753C21.0832 19.6284 21.196 23.4422 22.7516 26.46C23.0355 27.0174 23.3232 27.488 23.6408 27.9365C23.9364 28.3591 24.2631 28.8543 24.6571 29.1939C24.7971 29.3534 24.9475 29.505 25.1044 29.6593Z" fill="#1266A9"/>
<path d="M15.7125 35.7672L15.7073 35.7594L15.6982 35.7477L15.7125 35.7672ZM21.1025 34.8027L21.1155 34.8118L21.1181 34.8157L21.1025 34.8027Z" fill="black"/>
<path d="M30.2701 14.294C29.0917 16.0142 28.9789 18.1505 29.7904 20.047C30.6525 22.0614 32.4142 23.6429 34.4675 24.3922C34.5518 24.4246 34.6334 24.4518 34.7203 24.483L34.8344 24.518C34.9536 24.5555 35.0742 24.5996 35.1973 24.6268C40.8765 25.717 42.4139 21.7257 42.8274 21.1385C41.4754 23.07 39.2081 23.5341 36.4262 22.8613C36.1843 22.8023 35.9462 22.7287 35.7133 22.6409L35.756 22.6552C35.4661 22.5548 35.1822 22.438 34.9057 22.3052L34.9549 22.3272C34.4234 22.0679 33.9671 21.7879 33.5432 21.4664C31.0569 19.5868 29.5195 16.0077 31.1425 13.0923L30.2701 14.294Z" fill="#1266A9"/>
</svg>
