<svg width="57" height="56" viewBox="0 0 57 56" fill="none" xmlns="http://www.w3.org/2000/svg">
<path fill-rule="evenodd" clip-rule="evenodd" d="M13.2334 23.703L19.591 15.1208C19.656 15.0332 19.7385 14.96 19.8334 14.9057C19.9283 14.8514 20.0334 14.8172 20.1422 14.8053L28.6336 13.8666C28.6915 13.8602 28.7501 13.8602 28.8081 13.8666L37.2994 14.8043C37.4082 14.8162 37.5133 14.8504 37.6082 14.9047C37.7031 14.959 37.7856 15.0322 37.8507 15.1198L44.2092 23.703C44.3156 23.8471 44.3696 24.0228 44.3624 24.2014C44.3552 24.38 44.2872 24.5509 44.1696 24.686L29.1719 41.9332C29.1161 41.9975 29.047 42.0491 28.9693 42.0844C28.8916 42.1197 28.8072 42.138 28.7218 42.138C28.6364 42.138 28.552 42.1197 28.4743 42.0844C28.3966 42.0491 28.3275 41.9975 28.2717 41.9332L13.2711 24.686C13.1536 24.5508 13.0858 24.3798 13.0787 24.2012C13.0717 24.0226 13.1259 23.847 13.2324 23.703H13.2334ZM30.9081 16.4036L36.9038 22.0357C36.9619 22.0904 37.0353 22.1264 37.1143 22.1389C37.1933 22.1513 37.2743 22.1398 37.3466 22.1056C37.4189 22.0715 37.4791 22.0164 37.5194 21.9476C37.5596 21.8788 37.578 21.7995 37.572 21.7201L37.2845 17.7229C37.2805 17.674 37.2949 17.6253 37.325 17.5864C37.3551 17.5476 37.3987 17.5212 37.4473 17.5126C37.4959 17.504 37.5459 17.5137 37.5877 17.5398C37.6295 17.5659 37.6599 17.6066 37.6732 17.6538L38.9879 22.2309C39.0322 22.385 39.1135 22.5261 39.225 22.6419C39.3364 22.7577 39.4746 22.8447 39.6275 22.8954L42.4334 23.8252C42.4782 23.8399 42.5163 23.8699 42.5408 23.9099C42.5653 23.9499 42.5748 23.9973 42.5674 24.0436C42.56 24.0898 42.5362 24.132 42.5004 24.1624C42.4646 24.1929 42.4191 24.2097 42.372 24.2098H39.675C39.5084 24.2099 39.3444 24.2518 39.1983 24.3316C39.0522 24.4114 38.9287 24.5265 38.8392 24.6663L31.4881 36.1533C31.447 36.2159 31.3835 36.2608 31.3104 36.2787C31.2374 36.2967 31.1602 36.2864 31.0944 36.2501C31.0287 36.2137 30.9792 36.1538 30.956 36.0826C30.9329 36.0114 30.9377 35.9341 30.9696 35.8663L36.2385 25.0597C36.2825 24.9695 36.3027 24.8697 36.2973 24.7695C36.2919 24.6694 36.261 24.5723 36.2074 24.4873C36.1539 24.4023 36.0795 24.3323 35.9913 24.2837C35.9031 24.2352 35.8039 24.2098 35.703 24.2098H21.7386C21.6377 24.2098 21.5386 24.2352 21.4503 24.2837C21.3621 24.3323 21.2877 24.4023 21.2342 24.4873C21.1807 24.5723 21.1497 24.6694 21.1443 24.7695C21.1389 24.8697 21.1591 24.9695 21.2032 25.0597L26.4721 35.8663C26.5052 35.9343 26.5109 36.0122 26.4881 36.0842C26.4653 36.1562 26.4157 36.2168 26.3494 36.2536C26.2831 36.2904 26.2052 36.3006 26.1316 36.2821C26.058 36.2637 25.9943 36.2179 25.9535 36.1542L18.6024 24.6673C18.5129 24.5271 18.3893 24.4117 18.243 24.3318C18.0968 24.2518 17.9325 24.2098 17.7656 24.2098H14.9864C14.9393 24.2097 14.8937 24.1929 14.8579 24.1624C14.8221 24.132 14.7984 24.0898 14.791 24.0436C14.7836 23.9973 14.793 23.9499 14.8175 23.9099C14.8421 23.8699 14.8801 23.8399 14.9249 23.8252L17.8082 22.8935C17.9627 22.8434 18.1025 22.7563 18.2152 22.6399C18.328 22.5235 18.4102 22.3814 18.4547 22.2259L19.7684 17.6538C19.7817 17.6066 19.8122 17.5659 19.8539 17.5398C19.8957 17.5137 19.9458 17.504 19.9943 17.5126C20.0429 17.5212 20.0865 17.5476 20.1166 17.5864C20.1467 17.6253 20.1611 17.674 20.1571 17.7229L19.8696 21.7201C19.8636 21.7995 19.882 21.8788 19.9222 21.9476C19.9625 22.0164 20.0227 22.0715 20.095 22.1056C20.1673 22.1398 20.2483 22.1513 20.3273 22.1389C20.4064 22.1264 20.4798 22.0904 20.5379 22.0357L26.5335 16.4036C26.5698 16.3672 26.6188 16.3463 26.6703 16.3452C26.7217 16.3441 26.7716 16.363 26.8093 16.3978C26.8471 16.4327 26.8697 16.4807 26.8725 16.5319C26.8752 16.583 26.8578 16.6332 26.824 16.6718L22.8015 21.5949C22.7543 21.6527 22.7246 21.7227 22.7157 21.7966C22.7068 21.8706 22.7191 21.9455 22.7513 22.0127C22.7835 22.08 22.8341 22.1368 22.8974 22.1766C22.9606 22.2165 23.034 22.2377 23.1088 22.2378H34.3328C34.4077 22.2377 34.481 22.2165 34.5443 22.1766C34.6075 22.1368 34.6582 22.08 34.6903 22.0127C34.7225 21.9455 34.7348 21.8706 34.7259 21.7966C34.7171 21.7227 34.6873 21.6527 34.6401 21.5949L30.6176 16.6718C30.5838 16.6332 30.5664 16.583 30.5692 16.5319C30.5719 16.4807 30.5945 16.4327 30.6323 16.3978C30.67 16.363 30.7199 16.3441 30.7714 16.3452C30.8228 16.3463 30.8719 16.3672 30.9081 16.4036Z" fill="black"/>
</svg>
