<svg width="38" height="30" viewBox="0 0 38 30" fill="none" xmlns="http://www.w3.org/2000/svg">
<path d="M37.9761 0.763947C37.8775 0.365634 37.7365 0.244744 37.4968 0.123827C36.9753 -0.132231 36.0379 0.0882289 36.0379 0.0882289C36.0379 0.0882289 2.71383 8.70886 0.754421 9.82556C0.331528 10.0674 0.18352 10.2168 0.0989411 10.4017C-0.302808 11.2908 0.648702 11.7958 0.648702 11.7958L8.69778 15.3166C8.69778 15.3166 9.00085 15.3949 9.12067 15.3309C11.1224 14.3066 29.2645 5.02446 30.2865 4.75418C30.4486 4.71862 30.5543 4.78974 30.5191 4.88932C29.9905 6.25497 13.8712 18.1759 13.8712 18.1759C13.8712 18.1759 13.8078 18.2399 13.7655 18.3253L13.7443 18.311L12.1937 26.5547C12.1937 26.5547 11.6298 29.0726 14.3928 26.761C16.3451 25.1322 18.2058 23.795 19.1362 23.1477C21.8075 25.4096 24.6761 27.9061 25.8955 29.1793C26.5087 29.8195 27.0584 29.9689 27.5165 29.9973C28.7782 30.0684 29.2645 28.7099 29.2645 28.7099C29.2645 28.7099 37.37 5.41568 37.8634 2.23629C37.9127 1.92333 37.955 1.73127 37.9761 1.51078C38.0043 1.21204 38.0114 0.906202 37.9761 0.763947Z" fill="#02B0F4"/>
</svg>
