<svg width="35" height="34" viewBox="0 0 35 34" fill="none" xmlns="http://www.w3.org/2000/svg">
<path d="M32.1124 8.7356C29.1878 3.56015 23.6609 0.199397 17.6386 0.00837746C11.5327 -0.182643 5.25372 2.89756 2.04261 8.78336C-0.882 14.1498 -0.64923 20.74 2.6335 25.9871C2.19779 28.3808 1.76208 30.7686 1.3204 33.1563C3.87496 32.7385 6.42954 32.3206 8.99007 31.9087C9.90924 32.4101 16.039 35.6097 23.1953 32.9653C24.0906 32.637 31.0082 29.9388 33.4912 22.3398C35.7533 15.4213 32.6317 9.66682 32.1124 8.74157V8.7356ZM30.9843 21.3131C28.9789 27.7421 23.1893 30.094 22.4254 30.3865C15.7346 32.9653 9.95696 29.4374 9.33623 29.0434C7.77842 29.3777 6.22064 29.712 4.65686 30.0403L5.39099 25.2887C2.20973 20.8654 1.79194 15.0214 4.32262 10.2399C6.97865 5.21367 12.2489 2.57521 17.37 2.67072C22.4433 2.76623 27.1406 5.53602 29.6653 9.86381C30.1129 10.6398 32.8107 15.4511 30.9784 21.3071L30.9843 21.3131Z" fill="#4ACA59"/>
<path d="M12.8519 9.08789C13.0429 9.08789 13.21 9.20728 13.2697 9.38636C13.5861 10.3415 14.8394 13.2605 14.7439 13.5769C14.6246 13.9529 13.1862 15.0573 13.1265 15.5945C13.0728 16.1318 14.1411 17.6301 15.2632 18.806C16.7912 20.4058 19.2085 21.4505 19.4054 21.54C19.6024 21.6295 21.1005 19.4089 21.4109 19.2716C21.7213 19.1343 25.7083 21.2833 25.7083 21.6534C25.7083 22.0235 25.3979 23.2831 24.6638 24.2859C24.1505 24.9843 23.0224 25.2888 22.1868 25.4022C22.1689 25.4022 22.145 25.4022 22.1271 25.4022C21.4944 25.3007 17.1135 24.8053 13.3533 21.0923C10.2914 18.0718 9.37222 14.6394 9.08573 13.2665C9.08573 13.2485 9.07975 13.2306 9.07975 13.2068C9.06185 12.7471 9.07975 11.3861 10.0467 10.1982C10.4227 9.73855 11.0733 9.30279 11.312 9.15355C11.3717 9.11774 11.4374 9.09983 11.509 9.09983H12.8579L12.8519 9.08789Z" fill="#4ACA59"/>
</svg>
